<svg width="1280" height="320" viewBox="0 0 1280 320" fill="none" xmlns="http://www.w3.org/2000/svg">
<rect width="1280" height="320" fill="white"/>
<rect x="1" y="1" width="1278" height="318" stroke="black" stroke-opacity="0.16" stroke-width="2"/>
<g filter="url(#filter0_iii_32_306)">
<rect x="887" y="228" width="64" height="64" rx="22.5" fill="#EF3A21"/>
<rect x="887" y="228" width="64" height="64" rx="22.5" fill="url(#paint0_radial_32_306)" fill-opacity="0.4"/>
<rect x="888" y="229" width="62" height="62" rx="21.5" stroke="#4B0A00" stroke-opacity="0.890196" stroke-width="2"/>
<path d="M914.168 276.832L917 274L905 262L902.168 264.832C900.606 266.394 900.606 268.926 902.168 270.488L908.512 276.832C910.074 278.394 912.606 278.394 914.168 276.832Z" fill="white"/>
<path opacity="0.48" d="M933.981 262.36L936.941 245.34C936.98 245.114 937 244.885 937 244.655V244C937 242.895 936.105 242 935 242H934.345C934.115 242 933.886 242.02 933.66 242.059L916.64 245.019C913.146 245.627 910.235 248.04 908.99 251.36L905 262L917 274L927.64 270.01C930.96 268.765 933.373 265.854 933.981 262.36Z" fill="white"/>
<path fill-rule="evenodd" clip-rule="evenodd" d="M933.586 242.586C934.367 241.805 935.633 241.805 936.414 242.586C937.195 243.367 937.195 244.633 936.414 245.414L924.865 256.964C924.953 257.294 925 257.642 925 258C925 260.209 923.209 262 921 262C918.791 262 917 260.209 917 258C917 255.791 918.791 254 921 254C921.358 254 921.706 254.047 922.036 254.135L933.586 242.586Z" fill="white"/>
</g>
<path d="M984.568 264.652C984.568 262.817 984.899 261.1 985.56 259.5C986.221 257.9 987.149 256.513 988.344 255.34C989.56 254.145 990.979 253.217 992.6 252.556C994.221 251.895 995.992 251.564 997.912 251.564C999.683 251.564 1001.31 251.852 1002.81 252.428C1004.3 252.983 1005.59 253.783 1006.68 254.828C1007.79 255.873 1008.64 257.132 1009.24 258.604C1009.86 260.076 1010.17 261.719 1010.17 263.532C1010.17 264.684 1010.03 265.761 1009.75 266.764C1009.47 267.767 1009.07 268.652 1008.54 269.42C1008.02 270.167 1007.37 270.753 1006.58 271.18C1005.82 271.607 1004.92 271.82 1003.9 271.82C1003.02 271.82 1002.27 271.649 1001.66 271.308C1001.06 270.967 1000.61 270.529 1000.31 269.996C999.928 270.167 999.491 270.359 999 270.572C998.509 270.764 998.019 270.956 997.528 271.148C997.059 271.34 996.621 271.5 996.216 271.628C995.811 271.756 995.501 271.82 995.288 271.82C994.947 271.82 994.509 271.703 993.976 271.468C993.464 271.212 993.005 270.807 992.6 270.252C992.216 269.697 992.024 268.961 992.024 268.044C992.003 267.041 992.269 266.177 992.824 265.452C993.4 264.705 994.264 264.247 995.416 264.076L999.96 263.34V262.284C999.96 261.751 999.928 261.239 999.864 260.748C999.8 260.257 999.64 259.863 999.384 259.564C999.128 259.265 998.733 259.116 998.2 259.116C997.923 259.116 997.464 259.169 996.824 259.276C996.184 259.361 995.587 259.479 995.032 259.628C995.011 260.033 994.979 260.439 994.936 260.844C994.893 261.249 994.851 261.697 994.808 262.188H993.08C993.016 261.569 992.963 260.94 992.92 260.3C992.899 259.639 992.888 259.031 992.888 258.476C993.507 258.348 994.125 258.231 994.744 258.124C995.363 257.996 995.939 257.889 996.472 257.804C997.005 257.719 997.464 257.655 997.848 257.612C998.253 257.548 998.531 257.516 998.68 257.516C999.725 257.516 1000.51 257.74 1001.05 258.188C1001.6 258.615 1001.98 259.201 1002.17 259.948C1002.38 260.695 1002.49 261.516 1002.49 262.412V267.372C1002.49 268.247 1002.62 268.929 1002.87 269.42C1003.15 269.889 1003.63 270.124 1004.31 270.124C1004.89 270.124 1005.39 269.953 1005.82 269.612C1006.24 269.271 1006.59 268.812 1006.87 268.236C1007.17 267.639 1007.38 266.956 1007.51 266.188C1007.66 265.42 1007.74 264.599 1007.74 263.724C1007.74 261.548 1007.32 259.692 1006.49 258.156C1005.66 256.62 1004.49 255.447 1003 254.636C1001.51 253.804 999.789 253.388 997.848 253.388C995.821 253.388 993.997 253.847 992.376 254.764C990.776 255.681 989.507 256.983 988.568 258.668C987.629 260.332 987.16 262.295 987.16 264.556C987.16 266.796 987.597 268.769 988.472 270.476C989.347 272.161 990.584 273.473 992.184 274.412C993.784 275.351 995.672 275.82 997.848 275.82C998.68 275.82 999.469 275.767 1000.22 275.66C1000.98 275.575 1001.75 275.404 1002.52 275.148C1003.31 274.913 1004.13 274.593 1004.98 274.188C1005.18 274.423 1005.31 274.636 1005.4 274.828C1005.49 275.041 1005.54 275.297 1005.56 275.596C1004.69 276.044 1003.82 276.417 1002.97 276.716C1002.14 277.015 1001.27 277.228 1000.38 277.356C999.48 277.505 998.509 277.58 997.464 277.58C995.523 277.58 993.752 277.249 992.152 276.588C990.573 275.927 989.219 275.009 988.088 273.836C986.957 272.684 986.083 271.319 985.464 269.74C984.867 268.161 984.568 266.465 984.568 264.652ZM994.68 267.916C994.68 268.577 994.829 269.089 995.128 269.452C995.448 269.815 995.789 269.996 996.152 269.996C996.408 269.996 996.856 269.9 997.496 269.708C998.157 269.495 998.989 269.196 999.992 268.812V264.908L996.952 265.484C996.12 265.633 995.533 265.932 995.192 266.38C994.851 266.807 994.68 267.319 994.68 267.916ZM1012.68 246.988C1013.24 246.945 1013.83 246.903 1014.47 246.86C1015.14 246.796 1015.79 246.743 1016.43 246.7C1017.09 246.636 1017.7 246.583 1018.25 246.54C1018.19 247.009 1018.13 247.532 1018.09 248.108C1018.07 248.663 1018.06 249.164 1018.06 249.612V261.74L1021.35 261.548L1025.39 256.268L1023.05 255.916C1023.03 255.809 1023.01 255.713 1022.99 255.628C1022.96 255.521 1022.95 255.415 1022.95 255.308C1022.95 255.073 1023 254.849 1023.08 254.636H1030.28C1030.37 254.807 1030.41 255.02 1030.41 255.276C1030.41 255.532 1030.36 255.745 1030.25 255.916L1028.14 256.268L1023.27 262.092L1028.27 269.868L1030.47 270.284C1030.54 270.391 1030.58 270.497 1030.6 270.604C1030.62 270.689 1030.63 270.775 1030.63 270.86C1030.63 271.095 1030.58 271.308 1030.47 271.5H1025.58L1020.59 263.5L1018.06 263.372V269.9L1020.11 270.284C1020.17 270.391 1020.21 270.497 1020.23 270.604C1020.26 270.689 1020.27 270.775 1020.27 270.86C1020.27 271.095 1020.21 271.308 1020.11 271.5H1012.75C1012.66 271.329 1012.62 271.116 1012.62 270.86C1012.62 270.625 1012.65 270.433 1012.71 270.284L1014.86 269.9V248.46L1012.68 248.236C1012.62 247.98 1012.59 247.767 1012.59 247.596C1012.59 247.404 1012.62 247.201 1012.68 246.988ZM1031.69 263.148C1031.69 261.356 1032.02 259.809 1032.68 258.508C1033.36 257.185 1034.28 256.161 1035.43 255.436C1036.61 254.689 1037.93 254.316 1039.4 254.316C1040.92 254.316 1042.16 254.7 1043.15 255.468C1044.15 256.236 1044.9 257.281 1045.39 258.604C1045.88 259.905 1046.12 261.399 1046.12 263.084L1035.05 263.756C1035.2 265.676 1035.71 267.18 1036.59 268.268C1037.48 269.356 1038.7 269.9 1040.23 269.9C1041.11 269.9 1041.96 269.783 1042.79 269.548C1043.65 269.292 1044.47 268.919 1045.26 268.428C1045.45 268.599 1045.6 268.801 1045.71 269.036C1045.83 269.271 1045.91 269.527 1045.93 269.804C1045.01 270.465 1044.03 270.967 1042.99 271.308C1041.96 271.649 1040.92 271.82 1039.85 271.82C1038.14 271.82 1036.68 271.468 1035.47 270.764C1034.25 270.039 1033.31 269.025 1032.65 267.724C1032.01 266.401 1031.69 264.876 1031.69 263.148ZM1035.05 262.028L1042.86 261.516C1042.84 260.599 1042.7 259.724 1042.44 258.892C1042.19 258.06 1041.79 257.377 1041.26 256.844C1040.72 256.311 1040.03 256.044 1039.18 256.044C1038.35 256.044 1037.63 256.3 1037.03 256.812C1036.44 257.303 1035.97 257.996 1035.63 258.892C1035.31 259.788 1035.11 260.833 1035.05 262.028ZM1047.22 255.276C1047.22 255.063 1047.27 254.849 1047.35 254.636H1054.9C1054.99 254.807 1055.03 255.02 1055.03 255.276C1055.03 255.511 1054.99 255.713 1054.9 255.884L1052.7 256.236L1057.14 267.98L1061.69 256.172L1059.58 255.852C1059.47 255.639 1059.42 255.447 1059.42 255.276C1059.42 255.063 1059.47 254.849 1059.58 254.636H1065.5C1065.58 254.807 1065.62 255.02 1065.62 255.276C1065.62 255.489 1065.59 255.681 1065.53 255.852L1063.74 256.172L1057.43 271.5H1055.42L1049.14 256.204L1047.38 255.884C1047.32 255.756 1047.28 255.649 1047.26 255.564C1047.24 255.457 1047.22 255.361 1047.22 255.276ZM1067.19 270.86C1067.19 270.647 1067.23 270.455 1067.32 270.284L1069.46 269.9V256.14L1067.32 255.884C1067.23 255.671 1067.19 255.468 1067.19 255.276C1067.19 255.063 1067.22 254.849 1067.28 254.636C1067.82 254.615 1068.41 254.593 1069.08 254.572C1069.74 254.529 1070.4 254.487 1071.06 254.444C1071.72 254.401 1072.32 254.359 1072.85 254.316C1072.79 254.871 1072.73 255.436 1072.69 256.012C1072.67 256.588 1072.66 257.207 1072.66 257.868V269.9L1074.74 270.284C1074.85 270.433 1074.9 270.625 1074.9 270.86C1074.9 270.967 1074.89 271.073 1074.87 271.18C1074.85 271.287 1074.8 271.393 1074.74 271.5H1067.32C1067.23 271.329 1067.19 271.116 1067.19 270.86ZM1070.9 252.076C1070.3 252.076 1069.8 251.863 1069.4 251.436C1068.99 251.009 1068.79 250.519 1068.79 249.964C1068.79 249.388 1068.99 248.887 1069.4 248.46C1069.8 248.033 1070.3 247.82 1070.9 247.82C1071.5 247.82 1072 248.033 1072.4 248.46C1072.81 248.887 1073.01 249.388 1073.01 249.964C1073.01 250.519 1072.81 251.009 1072.4 251.436C1072 251.863 1071.5 252.076 1070.9 252.076ZM1077.34 270.86C1077.34 270.625 1077.39 270.433 1077.47 270.284L1079.62 269.9V256.14L1077.47 255.884C1077.39 255.671 1077.34 255.468 1077.34 255.276C1077.34 255.063 1077.38 254.849 1077.44 254.636C1077.99 254.615 1078.59 254.583 1079.23 254.54C1079.89 254.497 1080.54 254.465 1081.18 254.444C1081.84 254.401 1082.44 254.359 1082.98 254.316C1082.95 254.636 1082.92 254.977 1082.88 255.34C1082.86 255.703 1082.84 256.044 1082.82 256.364C1083.6 256.044 1084.39 255.735 1085.18 255.436C1085.99 255.116 1086.69 254.849 1087.26 254.636C1087.86 254.423 1088.23 254.316 1088.38 254.316C1089.6 254.316 1090.54 254.529 1091.2 254.956C1091.86 255.383 1092.32 255.991 1092.58 256.78C1092.85 257.569 1092.99 258.487 1092.99 259.532V269.932L1095.04 270.284C1095.1 270.391 1095.15 270.497 1095.17 270.604C1095.19 270.689 1095.2 270.785 1095.2 270.892C1095.2 271.105 1095.16 271.308 1095.07 271.5H1087.71C1087.63 271.329 1087.58 271.116 1087.58 270.86C1087.58 270.625 1087.62 270.433 1087.68 270.284L1089.79 269.9V260.108C1089.79 259.34 1089.73 258.7 1089.6 258.188C1089.49 257.655 1089.28 257.249 1088.96 256.972C1088.64 256.673 1088.15 256.524 1087.49 256.524C1087.34 256.524 1087.02 256.577 1086.53 256.684C1086.04 256.791 1085.46 256.94 1084.8 257.132C1084.16 257.324 1083.5 257.516 1082.82 257.708V269.9L1084.86 270.284C1084.93 270.391 1084.97 270.497 1084.99 270.604C1085.01 270.689 1085.02 270.775 1085.02 270.86C1085.02 271.095 1084.97 271.308 1084.86 271.5H1077.47C1077.39 271.329 1077.34 271.116 1077.34 270.86ZM1096.95 255.404C1096.95 255.212 1096.99 255.02 1097.05 254.828L1099.23 254.636L1100.7 250.54H1102.39V254.636H1106.84V256.3H1102.39V266.7C1102.39 267.489 1102.44 268.129 1102.52 268.62C1102.63 269.111 1102.8 269.463 1103.03 269.676C1103.29 269.889 1103.64 269.996 1104.09 269.996C1104.64 269.996 1105.19 269.9 1105.72 269.708C1106.28 269.516 1106.79 269.281 1107.26 269.004C1107.49 269.196 1107.64 269.431 1107.71 269.708C1107.77 269.964 1107.77 270.188 1107.71 270.38C1106.92 270.935 1106.11 271.308 1105.27 271.5C1104.46 271.713 1103.78 271.82 1103.23 271.82C1101.82 271.82 1100.79 271.425 1100.15 270.636C1099.53 269.847 1099.23 268.62 1099.23 266.956V256.268L1097.05 256.076C1096.99 255.884 1096.95 255.66 1096.95 255.404ZM1108.41 255.276C1108.41 255.063 1108.45 254.849 1108.54 254.636H1115.9C1115.99 254.807 1116.03 255.02 1116.03 255.276C1116.03 255.511 1115.99 255.713 1115.9 255.884L1113.79 256.236L1118.3 268.14L1122.84 256.204L1120.6 255.852C1120.5 255.639 1120.44 255.447 1120.44 255.276C1120.44 255.063 1120.49 254.849 1120.57 254.636H1126.62C1126.71 254.807 1126.75 255.02 1126.75 255.276C1126.75 255.489 1126.71 255.681 1126.62 255.852L1124.83 256.204L1118.84 270.892C1118.37 271.98 1117.92 272.919 1117.47 273.708C1117.04 274.497 1116.57 275.18 1116.06 275.756C1115.55 276.332 1114.95 276.833 1114.27 277.26C1113.59 277.687 1112.77 278.103 1111.84 278.508C1111.6 278.188 1111.41 277.815 1111.26 277.388C1111.11 276.961 1111.05 276.492 1111.07 275.98C1112.09 275.617 1112.96 275.233 1113.66 274.828C1114.36 274.444 1114.94 273.975 1115.39 273.42C1115.86 272.887 1116.24 272.257 1116.54 271.532L1110.36 256.236L1108.57 255.884C1108.51 255.756 1108.47 255.649 1108.44 255.564C1108.42 255.457 1108.41 255.361 1108.41 255.276ZM1126.1 277.26C1127.6 276.684 1128.66 275.745 1129.3 274.444C1129.94 273.164 1130.26 271.404 1130.26 269.164V256.14L1128.09 255.884C1128.02 255.671 1127.99 255.468 1127.99 255.276C1127.99 255.063 1128.02 254.849 1128.09 254.636C1128.66 254.593 1129.26 254.561 1129.88 254.54C1130.52 254.497 1131.15 254.465 1131.77 254.444C1132.39 254.401 1133.01 254.359 1133.62 254.316C1133.56 254.871 1133.51 255.436 1133.46 256.012C1133.44 256.588 1133.43 257.175 1133.43 257.772V269.164C1133.43 270.807 1133.17 272.289 1132.63 273.612C1132.12 274.935 1131.34 276.023 1130.3 276.876C1129.27 277.729 1128 278.284 1126.49 278.54C1126.38 278.327 1126.3 278.124 1126.23 277.932C1126.17 277.761 1126.13 277.537 1126.1 277.26ZM1131.74 252.076C1131.14 252.076 1130.64 251.863 1130.23 251.436C1129.83 251.009 1129.62 250.519 1129.62 249.964C1129.62 249.388 1129.83 248.887 1130.23 248.46C1130.64 248.033 1131.14 247.82 1131.74 247.82C1132.33 247.82 1132.82 248.033 1133.21 248.46C1133.61 248.887 1133.82 249.388 1133.82 249.964C1133.82 250.519 1133.61 251.009 1133.21 251.436C1132.82 251.863 1132.33 252.076 1131.74 252.076ZM1139.54 272.492H1137.18L1141.56 258.956L1145.3 246.54H1147.7L1143.58 259.116L1139.54 272.492ZM1159.49 256.876C1158.66 256.599 1157.95 256.396 1157.38 256.268C1156.8 256.14 1156.36 256.076 1156.07 256.076C1155.15 256.076 1154.34 256.375 1153.63 256.972C1152.93 257.569 1152.39 258.401 1152 259.468C1151.62 260.513 1151.43 261.751 1151.43 263.18C1151.43 264.161 1151.53 265.068 1151.75 265.9C1151.98 266.732 1152.28 267.457 1152.64 268.076C1153.03 268.673 1153.47 269.143 1153.99 269.484C1154.5 269.804 1155.04 269.964 1155.62 269.964C1155.75 269.964 1156.02 269.911 1156.45 269.804C1156.9 269.676 1157.39 269.516 1157.92 269.324C1158.48 269.111 1159 268.908 1159.49 268.716V256.876ZM1157.31 248.236C1157.25 247.98 1157.22 247.767 1157.22 247.596C1157.22 247.404 1157.25 247.201 1157.31 246.988C1157.93 246.924 1158.55 246.871 1159.17 246.828C1159.79 246.764 1160.41 246.711 1161.03 246.668C1161.64 246.625 1162.26 246.583 1162.88 246.54C1162.82 247.009 1162.76 247.564 1162.72 248.204C1162.7 248.823 1162.69 249.42 1162.69 249.996V269.932L1164.8 270.252C1164.84 270.359 1164.88 270.465 1164.9 270.572C1164.92 270.657 1164.93 270.753 1164.93 270.86C1164.93 271.073 1164.89 271.287 1164.8 271.5H1160.35L1159.87 269.964C1159.3 270.241 1158.69 270.529 1158.05 270.828C1157.43 271.105 1156.88 271.34 1156.39 271.532C1155.9 271.724 1155.55 271.82 1155.36 271.82C1153.91 271.82 1152.63 271.457 1151.52 270.732C1150.43 270.007 1149.58 269.004 1148.96 267.724C1148.34 266.423 1148.03 264.919 1148.03 263.212C1148.03 261.356 1148.41 259.767 1149.15 258.444C1149.9 257.121 1150.89 256.108 1152.13 255.404C1153.39 254.679 1154.75 254.316 1156.23 254.316C1156.5 254.316 1156.95 254.401 1157.57 254.572C1158.21 254.721 1158.85 254.892 1159.49 255.084V248.46L1157.31 248.236ZM1167.13 263.148C1167.13 261.356 1167.46 259.809 1168.12 258.508C1168.8 257.185 1169.72 256.161 1170.87 255.436C1172.04 254.689 1173.37 254.316 1174.84 254.316C1176.35 254.316 1177.6 254.7 1178.58 255.468C1179.59 256.236 1180.33 257.281 1180.82 258.604C1181.31 259.905 1181.56 261.399 1181.56 263.084L1170.49 263.756C1170.64 265.676 1171.15 267.18 1172.02 268.268C1172.92 269.356 1174.14 269.9 1175.67 269.9C1176.55 269.9 1177.4 269.783 1178.23 269.548C1179.08 269.292 1179.91 268.919 1180.7 268.428C1180.89 268.599 1181.04 268.801 1181.14 269.036C1181.27 269.271 1181.35 269.527 1181.37 269.804C1180.45 270.465 1179.47 270.967 1178.42 271.308C1177.4 271.649 1176.35 271.82 1175.29 271.82C1173.58 271.82 1172.12 271.468 1170.9 270.764C1169.69 270.039 1168.75 269.025 1168.09 267.724C1167.45 266.401 1167.13 264.876 1167.13 263.148ZM1170.49 262.028L1178.3 261.516C1178.27 260.599 1178.14 259.724 1177.88 258.892C1177.62 258.06 1177.23 257.377 1176.7 256.844C1176.16 256.311 1175.47 256.044 1174.62 256.044C1173.78 256.044 1173.07 256.3 1172.47 256.812C1171.87 257.303 1171.4 257.996 1171.06 258.892C1170.74 259.788 1170.55 260.833 1170.49 262.028ZM1184.38 266.316H1186.11L1187.07 269.356C1187.75 269.591 1188.4 269.761 1189.02 269.868C1189.66 269.975 1190.14 270.028 1190.46 270.028C1191.35 270.028 1192.12 269.825 1192.76 269.42C1193.42 269.015 1193.75 268.353 1193.75 267.436C1193.75 266.881 1193.57 266.423 1193.21 266.06C1192.85 265.676 1192.38 265.356 1191.8 265.1C1191.23 264.844 1190.6 264.599 1189.91 264.364C1189.08 264.065 1188.26 263.724 1187.45 263.34C1186.64 262.956 1185.97 262.433 1185.43 261.772C1184.92 261.111 1184.67 260.247 1184.67 259.18C1184.67 258.156 1184.91 257.281 1185.4 256.556C1185.89 255.831 1186.57 255.276 1187.45 254.892C1188.35 254.508 1189.4 254.316 1190.62 254.316C1190.79 254.316 1191.13 254.359 1191.64 254.444C1192.17 254.529 1192.81 254.636 1193.56 254.764C1194.33 254.892 1195.1 255.052 1195.87 255.244C1195.84 255.671 1195.81 256.151 1195.77 256.684C1195.75 257.196 1195.72 257.708 1195.67 258.22C1195.63 258.711 1195.59 259.169 1195.55 259.596H1193.82L1193.4 256.556C1192.76 256.428 1192.19 256.321 1191.67 256.236C1191.18 256.129 1190.83 256.076 1190.62 256.076C1189.7 256.076 1188.95 256.279 1188.38 256.684C1187.82 257.089 1187.55 257.708 1187.55 258.54C1187.55 259.137 1187.73 259.628 1188.09 260.012C1188.45 260.375 1188.93 260.684 1189.53 260.94C1190.15 261.196 1190.82 261.452 1191.55 261.708C1192.4 262.007 1193.21 262.359 1193.98 262.764C1194.75 263.148 1195.37 263.649 1195.87 264.268C1196.38 264.887 1196.63 265.708 1196.63 266.732C1196.63 267.756 1196.36 268.652 1195.8 269.42C1195.25 270.167 1194.49 270.753 1193.53 271.18C1192.59 271.607 1191.53 271.82 1190.36 271.82C1190.11 271.82 1189.68 271.777 1189.08 271.692C1188.51 271.628 1187.82 271.511 1187.03 271.34C1186.27 271.169 1185.49 270.945 1184.7 270.668C1184.61 269.815 1184.55 269.057 1184.51 268.396C1184.46 267.735 1184.42 267.041 1184.38 266.316ZM1199.16 270.86C1199.16 270.647 1199.2 270.455 1199.28 270.284L1201.43 269.9V256.14L1199.28 255.884C1199.2 255.671 1199.16 255.468 1199.16 255.276C1199.16 255.063 1199.19 254.849 1199.25 254.636C1199.79 254.615 1200.38 254.593 1201.04 254.572C1201.71 254.529 1202.37 254.487 1203.03 254.444C1203.69 254.401 1204.29 254.359 1204.82 254.316C1204.76 254.871 1204.7 255.436 1204.66 256.012C1204.64 256.588 1204.63 257.207 1204.63 257.868V269.9L1206.71 270.284C1206.81 270.433 1206.87 270.625 1206.87 270.86C1206.87 270.967 1206.86 271.073 1206.84 271.18C1206.81 271.287 1206.77 271.393 1206.71 271.5H1199.28C1199.2 271.329 1199.16 271.116 1199.16 270.86ZM1202.87 252.076C1202.27 252.076 1201.77 251.863 1201.36 251.436C1200.96 251.009 1200.76 250.519 1200.76 249.964C1200.76 249.388 1200.96 248.887 1201.36 248.46C1201.77 248.033 1202.27 247.82 1202.87 247.82C1203.47 247.82 1203.97 248.033 1204.37 248.46C1204.78 248.887 1204.98 249.388 1204.98 249.964C1204.98 250.519 1204.78 251.009 1204.37 251.436C1203.97 251.863 1203.47 252.076 1202.87 252.076ZM1208.8 274.668C1208.8 273.9 1209 273.207 1209.41 272.588C1209.83 271.969 1210.42 271.457 1211.17 271.052C1211.02 270.903 1210.91 270.743 1210.85 270.572C1210.78 270.38 1210.75 270.177 1210.75 269.964C1210.75 269.473 1210.88 268.865 1211.14 268.14C1211.41 267.393 1211.84 266.561 1212.42 265.644C1211.61 265.089 1210.98 264.428 1210.53 263.66C1210.08 262.871 1209.86 261.868 1209.86 260.652C1209.86 259.351 1210.13 258.241 1210.69 257.324C1211.26 256.385 1212.03 255.649 1212.99 255.116C1213.95 254.583 1215.02 254.316 1216.19 254.316C1216.77 254.316 1217.3 254.391 1217.79 254.54C1218.28 254.668 1218.74 254.871 1219.17 255.148L1223.78 254.028C1223.93 254.177 1224.03 254.369 1224.1 254.604C1224.18 254.817 1224.22 255.052 1224.22 255.308C1224.22 255.671 1224.15 256.023 1224 256.364L1220.51 256.172C1221.11 256.769 1221.57 257.42 1221.89 258.124C1222.23 258.807 1222.4 259.617 1222.4 260.556C1222.4 261.836 1222.1 262.924 1221.5 263.82C1220.91 264.716 1220.13 265.409 1219.17 265.9C1218.21 266.369 1217.15 266.604 1216 266.604C1215.62 266.604 1215.22 266.583 1214.82 266.54C1214.41 266.476 1214.04 266.38 1213.7 266.252C1213.5 266.743 1213.35 267.265 1213.25 267.82C1213.14 268.375 1213.09 268.844 1213.09 269.228H1218.69C1220.27 269.228 1221.51 269.591 1222.43 270.316C1223.37 271.02 1223.84 271.991 1223.84 273.228C1223.84 274.828 1223.09 276.108 1221.6 277.068C1220.13 278.049 1218.08 278.54 1215.46 278.54C1213.3 278.54 1211.65 278.188 1210.5 277.484C1209.37 276.78 1208.8 275.841 1208.8 274.668ZM1211.42 274.156C1211.42 274.945 1211.79 275.564 1212.51 276.012C1213.24 276.46 1214.33 276.684 1215.78 276.684C1217.44 276.684 1218.72 276.385 1219.62 275.788C1220.53 275.212 1220.99 274.508 1220.99 273.676C1220.99 273.015 1220.76 272.503 1220.29 272.14C1219.82 271.799 1219.17 271.628 1218.34 271.628H1212.93C1212.37 272.012 1211.98 272.407 1211.74 272.812C1211.53 273.239 1211.42 273.687 1211.42 274.156ZM1212.86 260.716C1212.86 262.167 1213.15 263.244 1213.73 263.948C1214.33 264.652 1215.11 265.004 1216.1 265.004C1217.1 265.004 1217.89 264.641 1218.46 263.916C1219.06 263.191 1219.36 262.103 1219.36 260.652C1219.36 259.564 1219.21 258.679 1218.91 257.996C1218.61 257.292 1218.22 256.78 1217.73 256.46C1217.26 256.14 1216.73 255.98 1216.13 255.98C1215.57 255.98 1215.04 256.129 1214.53 256.428C1214.04 256.727 1213.63 257.228 1213.31 257.932C1213.01 258.615 1212.86 259.543 1212.86 260.716ZM1226.47 270.86C1226.47 270.625 1226.51 270.433 1226.6 270.284L1228.74 269.9V256.14L1226.6 255.884C1226.51 255.671 1226.47 255.468 1226.47 255.276C1226.47 255.063 1226.5 254.849 1226.56 254.636C1227.12 254.615 1227.72 254.583 1228.36 254.54C1229.02 254.497 1229.67 254.465 1230.31 254.444C1230.97 254.401 1231.57 254.359 1232.1 254.316C1232.08 254.636 1232.05 254.977 1232 255.34C1231.98 255.703 1231.96 256.044 1231.94 256.364C1232.73 256.044 1233.52 255.735 1234.31 255.436C1235.12 255.116 1235.81 254.849 1236.39 254.636C1236.99 254.423 1237.36 254.316 1237.51 254.316C1238.72 254.316 1239.66 254.529 1240.32 254.956C1240.99 255.383 1241.44 255.991 1241.7 256.78C1241.98 257.569 1242.12 258.487 1242.12 259.532V269.932L1244.16 270.284C1244.23 270.391 1244.27 270.497 1244.29 270.604C1244.31 270.689 1244.32 270.785 1244.32 270.892C1244.32 271.105 1244.28 271.308 1244.2 271.5H1236.84C1236.75 271.329 1236.71 271.116 1236.71 270.86C1236.71 270.625 1236.74 270.433 1236.8 270.284L1238.92 269.9V260.108C1238.92 259.34 1238.85 258.7 1238.72 258.188C1238.62 257.655 1238.4 257.249 1238.08 256.972C1237.76 256.673 1237.27 256.524 1236.61 256.524C1236.46 256.524 1236.14 256.577 1235.65 256.684C1235.16 256.791 1234.59 256.94 1233.92 257.132C1233.28 257.324 1232.62 257.516 1231.94 257.708V269.9L1233.99 270.284C1234.05 270.391 1234.09 270.497 1234.12 270.604C1234.14 270.689 1234.15 270.775 1234.15 270.86C1234.15 271.095 1234.09 271.308 1233.99 271.5H1226.6C1226.51 271.329 1226.47 271.116 1226.47 270.86Z" fill="black" fill-opacity="0.9"/>
<path d="M105.68 266.16C105.293 266.16 104.9 266.127 104.5 266.06C104.113 265.993 103.747 265.873 103.4 265.7C103.053 265.513 102.74 265.28 102.46 265C102.18 264.707 101.953 264.387 101.78 264.04C101.607 263.68 101.487 263.307 101.42 262.92C101.353 262.52 101.32 262.127 101.32 261.74V255.82C101.32 255.433 101.353 255.047 101.42 254.66C101.487 254.26 101.607 253.887 101.78 253.54C101.953 253.18 102.18 252.86 102.46 252.58C102.74 252.287 103.053 252.053 103.4 251.88C103.747 251.693 104.113 251.567 104.5 251.5C104.9 251.433 105.293 251.4 105.68 251.4C106.067 251.4 106.453 251.433 106.84 251.5C107.24 251.567 107.613 251.693 107.96 251.88C108.307 252.053 108.62 252.287 108.9 252.58C109.18 252.86 109.407 253.18 109.58 253.54C109.753 253.887 109.873 254.26 109.94 254.66C110.007 255.047 110.04 255.433 110.04 255.82V261.74C110.04 262.127 110.007 262.52 109.94 262.92C109.873 263.307 109.753 263.68 109.58 264.04C109.407 264.387 109.18 264.707 108.9 265C108.62 265.28 108.307 265.513 107.96 265.7C107.613 265.873 107.24 265.993 106.84 266.06C106.453 266.127 106.067 266.16 105.68 266.16ZM105.68 264.52C105.92 264.52 106.153 264.5 106.38 264.46C106.62 264.407 106.84 264.32 107.04 264.2C107.24 264.08 107.42 263.927 107.58 263.74C107.74 263.553 107.86 263.353 107.94 263.14C108.033 262.913 108.1 262.687 108.14 262.46C108.18 262.22 108.2 261.98 108.2 261.74V255.82C108.2 255.58 108.18 255.347 108.14 255.12C108.1 254.88 108.033 254.653 107.94 254.44C107.86 254.213 107.74 254.007 107.58 253.82C107.42 253.633 107.24 253.48 107.04 253.36C106.84 253.24 106.62 253.16 106.38 253.12C106.153 253.067 105.92 253.04 105.68 253.04C105.44 253.04 105.2 253.067 104.96 253.12C104.733 253.16 104.52 253.24 104.32 253.36C104.12 253.48 103.94 253.633 103.78 253.82C103.62 254.007 103.493 254.213 103.4 254.44C103.32 254.653 103.26 254.88 103.22 255.12C103.18 255.347 103.16 255.58 103.16 255.82V261.74C103.16 261.98 103.18 262.22 103.22 262.46C103.26 262.687 103.32 262.913 103.4 263.14C103.493 263.353 103.62 263.553 103.78 263.74C103.94 263.927 104.12 264.08 104.32 264.2C104.52 264.32 104.733 264.407 104.96 264.46C105.2 264.5 105.44 264.52 105.68 264.52ZM117.027 266.16C116.667 266.16 116.307 266.133 115.947 266.08C115.601 266.04 115.261 265.953 114.927 265.82C114.594 265.687 114.281 265.513 113.987 265.3C113.694 265.073 113.447 264.813 113.247 264.52C113.047 264.227 112.894 263.907 112.787 263.56C112.694 263.213 112.647 262.86 112.647 262.5V262.34H114.487V262.42C114.487 262.74 114.554 263.047 114.687 263.34C114.834 263.62 115.027 263.853 115.267 264.04C115.521 264.227 115.801 264.353 116.107 264.42C116.414 264.487 116.721 264.52 117.027 264.52C117.334 264.52 117.641 264.487 117.947 264.42C118.254 264.353 118.527 264.227 118.767 264.04C119.021 263.84 119.214 263.6 119.347 263.32C119.494 263.027 119.567 262.727 119.567 262.42C119.567 262.06 119.481 261.72 119.307 261.4C119.134 261.08 118.914 260.807 118.647 260.58C118.381 260.353 118.081 260.167 117.747 260.02C117.427 259.86 117.107 259.713 116.787 259.58C116.467 259.447 116.147 259.307 115.827 259.16C115.507 259 115.201 258.82 114.907 258.62C114.614 258.42 114.341 258.2 114.087 257.96C113.834 257.707 113.614 257.433 113.427 257.14C113.241 256.833 113.094 256.513 112.987 256.18C112.894 255.833 112.847 255.48 112.847 255.12C112.847 254.773 112.894 254.427 112.987 254.08C113.081 253.733 113.221 253.413 113.407 253.12C113.594 252.813 113.821 252.547 114.087 252.32C114.367 252.093 114.667 251.913 114.987 251.78C115.321 251.633 115.661 251.533 116.007 251.48C116.367 251.427 116.721 251.4 117.067 251.4C117.414 251.4 117.761 251.427 118.107 251.48C118.467 251.533 118.807 251.627 119.127 251.76C119.447 251.893 119.747 252.073 120.027 252.3C120.307 252.513 120.541 252.767 120.727 253.06C120.914 253.353 121.054 253.673 121.147 254.02C121.241 254.367 121.287 254.713 121.287 255.06V255.22H119.447V255.14C119.447 254.833 119.387 254.54 119.267 254.26C119.147 253.98 118.974 253.747 118.747 253.56C118.521 253.36 118.254 253.227 117.947 253.16C117.654 253.08 117.361 253.04 117.067 253.04C116.774 253.04 116.474 253.08 116.167 253.16C115.874 253.227 115.614 253.36 115.387 253.56C115.161 253.747 114.987 253.987 114.867 254.28C114.747 254.56 114.687 254.847 114.687 255.14C114.687 255.487 114.767 255.827 114.927 256.16C115.101 256.48 115.321 256.753 115.587 256.98C115.867 257.207 116.167 257.393 116.487 257.54C116.807 257.687 117.127 257.833 117.447 257.98C117.781 258.113 118.107 258.26 118.427 258.42C118.747 258.567 119.054 258.74 119.347 258.94C119.641 259.127 119.914 259.347 120.167 259.6C120.421 259.853 120.641 260.133 120.827 260.44C121.014 260.733 121.154 261.053 121.247 261.4C121.354 261.733 121.407 262.073 121.407 262.42C121.407 262.78 121.354 263.14 121.247 263.5C121.154 263.847 121.007 264.173 120.807 264.48C120.607 264.773 120.361 265.033 120.067 265.26C119.787 265.487 119.481 265.667 119.147 265.8C118.814 265.933 118.467 266.027 118.107 266.08C117.747 266.133 117.387 266.16 117.027 266.16ZM128.394 266.16C128.034 266.16 127.674 266.133 127.314 266.08C126.968 266.04 126.628 265.953 126.294 265.82C125.961 265.687 125.648 265.513 125.354 265.3C125.061 265.073 124.814 264.813 124.614 264.52C124.414 264.227 124.261 263.907 124.154 263.56C124.061 263.213 124.014 262.86 124.014 262.5V262.34H125.854V262.42C125.854 262.74 125.921 263.047 126.054 263.34C126.201 263.62 126.394 263.853 126.634 264.04C126.888 264.227 127.168 264.353 127.474 264.42C127.781 264.487 128.088 264.52 128.394 264.52C128.701 264.52 129.008 264.487 129.314 264.42C129.621 264.353 129.894 264.227 130.134 264.04C130.388 263.84 130.581 263.6 130.714 263.32C130.861 263.027 130.934 262.727 130.934 262.42C130.934 262.06 130.848 261.72 130.674 261.4C130.501 261.08 130.281 260.807 130.014 260.58C129.748 260.353 129.448 260.167 129.114 260.02C128.794 259.86 128.474 259.713 128.154 259.58C127.834 259.447 127.514 259.307 127.194 259.16C126.874 259 126.568 258.82 126.274 258.62C125.981 258.42 125.708 258.2 125.454 257.96C125.201 257.707 124.981 257.433 124.794 257.14C124.608 256.833 124.461 256.513 124.354 256.18C124.261 255.833 124.214 255.48 124.214 255.12C124.214 254.773 124.261 254.427 124.354 254.08C124.448 253.733 124.588 253.413 124.774 253.12C124.961 252.813 125.188 252.547 125.454 252.32C125.734 252.093 126.034 251.913 126.354 251.78C126.688 251.633 127.028 251.533 127.374 251.48C127.734 251.427 128.088 251.4 128.434 251.4C128.781 251.4 129.128 251.427 129.474 251.48C129.834 251.533 130.174 251.627 130.494 251.76C130.814 251.893 131.114 252.073 131.394 252.3C131.674 252.513 131.908 252.767 132.094 253.06C132.281 253.353 132.421 253.673 132.514 254.02C132.608 254.367 132.654 254.713 132.654 255.06V255.22H130.814V255.14C130.814 254.833 130.754 254.54 130.634 254.26C130.514 253.98 130.341 253.747 130.114 253.56C129.888 253.36 129.621 253.227 129.314 253.16C129.021 253.08 128.728 253.04 128.434 253.04C128.141 253.04 127.841 253.08 127.534 253.16C127.241 253.227 126.981 253.36 126.754 253.56C126.528 253.747 126.354 253.987 126.234 254.28C126.114 254.56 126.054 254.847 126.054 255.14C126.054 255.487 126.134 255.827 126.294 256.16C126.468 256.48 126.688 256.753 126.954 256.98C127.234 257.207 127.534 257.393 127.854 257.54C128.174 257.687 128.494 257.833 128.814 257.98C129.148 258.113 129.474 258.26 129.794 258.42C130.114 258.567 130.421 258.74 130.714 258.94C131.008 259.127 131.281 259.347 131.534 259.6C131.788 259.853 132.008 260.133 132.194 260.44C132.381 260.733 132.521 261.053 132.614 261.4C132.721 261.733 132.774 262.073 132.774 262.42C132.774 262.78 132.721 263.14 132.614 263.5C132.521 263.847 132.374 264.173 132.174 264.48C131.974 264.773 131.728 265.033 131.434 265.26C131.154 265.487 130.848 265.667 130.514 265.8C130.181 265.933 129.834 266.027 129.474 266.08C129.114 266.133 128.754 266.16 128.394 266.16Z" fill="black" fill-opacity="0.64"/>
<mask id="path-10-inside-1_32_306" fill="white">
<path d="M0 0H1280V202H0V0Z"/>
</mask>
<path d="M0 0H1280V202H0V0Z" fill="#D9D9D9" fill-opacity="0.24"/>
<path d="M1280 202V200H0V202V204H1280V202Z" fill="black" fill-opacity="0.16" mask="url(#path-10-inside-1_32_306)"/>
<path d="M34.368 54V30.896H40.32C41.0027 30.896 41.6747 30.96 42.336 31.088C43.0187 31.1947 43.6693 31.3973 44.288 31.696C44.9067 31.9733 45.4613 32.3467 45.952 32.816C46.464 33.2853 46.88 33.8293 47.2 34.448C47.52 35.0453 47.744 35.6853 47.872 36.368C48 37.0293 48.064 37.7013 48.064 38.384V46.512C48.064 47.1947 48 47.8773 47.872 48.56C47.744 49.2213 47.52 49.8613 47.2 50.48C46.88 51.0773 46.464 51.6107 45.952 52.08C45.4613 52.5493 44.9067 52.9333 44.288 53.232C43.6693 53.5093 43.0187 53.712 42.336 53.84C41.6747 53.9467 41.0027 54 40.32 54H34.368ZM37.312 51.376H40.32C40.7467 51.376 41.1733 51.344 41.6 51.28C42.0267 51.1947 42.432 51.056 42.816 50.864C43.2 50.6507 43.5413 50.3947 43.84 50.096C44.16 49.776 44.416 49.424 44.608 49.04C44.8 48.6347 44.928 48.2187 44.992 47.792C45.0773 47.3653 45.12 46.9387 45.12 46.512V38.384C45.12 37.9573 45.0773 37.5307 44.992 37.104C44.928 36.6773 44.8 36.272 44.608 35.888C44.416 35.4827 44.16 35.1307 43.84 34.832C43.5413 34.512 43.2 34.256 42.816 34.064C42.432 33.8507 42.0267 33.712 41.6 33.648C41.1733 33.5627 40.7467 33.52 40.32 33.52H37.312V51.376ZM52.8115 54V30.896H65.9955V33.52H55.7555V40.688H63.9795V43.28H55.7555V51.376H65.9955V54H52.8115ZM77.431 54.256C76.855 54.256 76.279 54.2133 75.703 54.128C75.1483 54.064 74.6043 53.9253 74.071 53.712C73.5377 53.4987 73.0363 53.2213 72.567 52.88C72.0977 52.5173 71.703 52.1013 71.383 51.632C71.063 51.1627 70.8177 50.6507 70.647 50.096C70.4977 49.5413 70.423 48.976 70.423 48.4V48.144H73.367V48.272C73.367 48.784 73.4737 49.2747 73.687 49.744C73.9217 50.192 74.231 50.5653 74.615 50.864C75.0203 51.1627 75.4683 51.3653 75.959 51.472C76.4497 51.5787 76.9403 51.632 77.431 51.632C77.9217 51.632 78.4123 51.5787 78.903 51.472C79.3937 51.3653 79.831 51.1627 80.215 50.864C80.6203 50.544 80.9297 50.16 81.143 49.712C81.3777 49.2427 81.495 48.7627 81.495 48.272C81.495 47.696 81.3563 47.152 81.079 46.64C80.8017 46.128 80.4497 45.6907 80.023 45.328C79.5963 44.9653 79.1163 44.6667 78.583 44.432C78.071 44.176 77.559 43.9413 77.047 43.728C76.535 43.5147 76.023 43.2907 75.511 43.056C74.999 42.8 74.5083 42.512 74.039 42.192C73.5697 41.872 73.1323 41.52 72.727 41.136C72.3217 40.7307 71.9697 40.2933 71.671 39.824C71.3723 39.3333 71.1377 38.8213 70.967 38.288C70.8177 37.7333 70.743 37.168 70.743 36.592C70.743 36.0373 70.8177 35.4827 70.967 34.928C71.1163 34.3733 71.3403 33.8613 71.639 33.392C71.9377 32.9013 72.3003 32.4747 72.727 32.112C73.175 31.7493 73.655 31.4613 74.167 31.248C74.7003 31.0133 75.2443 30.8533 75.799 30.768C76.375 30.6827 76.9403 30.64 77.495 30.64C78.0497 30.64 78.6043 30.6827 79.159 30.768C79.735 30.8533 80.279 31.0027 80.791 31.216C81.303 31.4293 81.783 31.7173 82.231 32.08C82.679 32.4213 83.0523 32.8267 83.351 33.296C83.6497 33.7653 83.8737 34.2773 84.023 34.832C84.1723 35.3867 84.247 35.9413 84.247 36.496V36.752H81.303V36.624C81.303 36.1333 81.207 35.664 81.015 35.216C80.823 34.768 80.5457 34.3947 80.183 34.096C79.8203 33.776 79.3937 33.5627 78.903 33.456C78.4337 33.328 77.9643 33.264 77.495 33.264C77.0257 33.264 76.5457 33.328 76.055 33.456C75.5857 33.5627 75.1697 33.776 74.807 34.096C74.4443 34.3947 74.167 34.7787 73.975 35.248C73.783 35.696 73.687 36.1547 73.687 36.624C73.687 37.1787 73.815 37.7227 74.071 38.256C74.3483 38.768 74.7003 39.2053 75.127 39.568C75.575 39.9307 76.055 40.2293 76.567 40.464C77.079 40.6987 77.591 40.9333 78.103 41.168C78.6363 41.3813 79.159 41.616 79.671 41.872C80.183 42.1067 80.6737 42.384 81.143 42.704C81.6123 43.0027 82.0497 43.3547 82.455 43.76C82.8603 44.1653 83.2123 44.6133 83.511 45.104C83.8097 45.5733 84.0337 46.0853 84.183 46.64C84.3537 47.1733 84.439 47.7173 84.439 48.272C84.439 48.848 84.3537 49.424 84.183 50C84.0337 50.5547 83.799 51.0773 83.479 51.568C83.159 52.0373 82.7643 52.4533 82.295 52.816C81.847 53.1787 81.3563 53.4667 80.823 53.68C80.2897 53.8933 79.735 54.0427 79.159 54.128C78.583 54.2133 78.007 54.256 77.431 54.256ZM91.3625 54V51.376H94.1785V33.52H91.3625V30.896H99.9385V33.52H97.1225V51.376H99.9385V54H91.3625ZM113.71 54.256C113.091 54.256 112.473 54.192 111.854 54.064C111.235 53.9573 110.649 53.7653 110.094 53.488C109.539 53.1893 109.049 52.816 108.622 52.368C108.195 51.8987 107.843 51.3867 107.566 50.832C107.31 50.256 107.129 49.6587 107.022 49.04C106.915 48.4213 106.862 47.8027 106.862 47.184V37.712C106.862 37.0933 106.915 36.4747 107.022 35.856C107.129 35.2373 107.31 34.6507 107.566 34.096C107.843 33.52 108.195 33.008 108.622 32.56C109.07 32.0907 109.571 31.7173 110.126 31.44C110.681 31.1413 111.267 30.9387 111.886 30.832C112.505 30.704 113.123 30.64 113.742 30.64C114.318 30.64 114.894 30.6827 115.47 30.768C116.046 30.8533 116.59 31.0133 117.102 31.248C117.635 31.4613 118.126 31.7493 118.574 32.112C119.022 32.4747 119.395 32.9013 119.694 33.392C120.014 33.8613 120.249 34.384 120.398 34.96C120.547 35.5147 120.622 36.08 120.622 36.656V36.752H117.678V36.688C117.678 36.1973 117.571 35.728 117.358 35.28C117.166 34.8107 116.878 34.416 116.494 34.096C116.131 33.776 115.705 33.5627 115.214 33.456C114.723 33.328 114.233 33.264 113.742 33.264C113.379 33.264 113.006 33.3067 112.622 33.392C112.259 33.456 111.918 33.5947 111.598 33.808C111.278 34 111.001 34.2453 110.766 34.544C110.531 34.8427 110.339 35.1627 110.19 35.504C110.041 35.8453 109.934 36.208 109.87 36.592C109.827 36.9547 109.806 37.328 109.806 37.712V47.184C109.806 47.568 109.827 47.9413 109.87 48.304C109.934 48.6667 110.03 49.0293 110.158 49.392C110.307 49.7333 110.499 50.0533 110.734 50.352C110.969 50.6507 111.246 50.9067 111.566 51.12C111.886 51.312 112.227 51.4507 112.59 51.536C112.953 51.6 113.326 51.632 113.71 51.632C114.094 51.632 114.467 51.6 114.83 51.536C115.193 51.4507 115.534 51.312 115.854 51.12C116.174 50.9067 116.451 50.6507 116.686 50.352C116.921 50.0533 117.102 49.7333 117.23 49.392C117.379 49.0293 117.475 48.6667 117.518 48.304C117.582 47.9413 117.614 47.568 117.614 47.184V43.952H113.838V41.328H120.558V47.184C120.558 47.8027 120.505 48.4213 120.398 49.04C120.291 49.6587 120.099 50.256 119.822 50.832C119.566 51.3867 119.225 51.8987 118.798 52.368C118.371 52.816 117.881 53.1893 117.326 53.488C116.771 53.7653 116.185 53.9573 115.566 54.064C114.947 54.192 114.329 54.256 113.71 54.256ZM125.306 54V30.896H128.794L136.186 49.712C136.1 48.112 136.015 46.5227 135.93 44.944C135.844 43.344 135.802 41.744 135.802 40.144V30.896H138.746V54H135.258L127.866 35.184C127.951 36.784 128.036 38.384 128.122 39.984C128.207 41.5627 128.25 43.152 128.25 44.752V54H125.306ZM168.369 54.256C167.793 54.256 167.217 54.2133 166.641 54.128C166.086 54.064 165.542 53.9253 165.009 53.712C164.475 53.4987 163.974 53.2213 163.505 52.88C163.035 52.5173 162.641 52.1013 162.321 51.632C162.001 51.1627 161.755 50.6507 161.585 50.096C161.435 49.5413 161.361 48.976 161.361 48.4V48.144H164.305V48.272C164.305 48.784 164.411 49.2747 164.625 49.744C164.859 50.192 165.169 50.5653 165.553 50.864C165.958 51.1627 166.406 51.3653 166.897 51.472C167.387 51.5787 167.878 51.632 168.369 51.632C168.859 51.632 169.35 51.5787 169.841 51.472C170.331 51.3653 170.769 51.1627 171.153 50.864C171.558 50.544 171.867 50.16 172.081 49.712C172.315 49.2427 172.433 48.7627 172.433 48.272C172.433 47.696 172.294 47.152 172.017 46.64C171.739 46.128 171.387 45.6907 170.961 45.328C170.534 44.9653 170.054 44.6667 169.521 44.432C169.009 44.176 168.497 43.9413 167.985 43.728C167.473 43.5147 166.961 43.2907 166.449 43.056C165.937 42.8 165.446 42.512 164.977 42.192C164.507 41.872 164.07 41.52 163.665 41.136C163.259 40.7307 162.907 40.2933 162.609 39.824C162.31 39.3333 162.075 38.8213 161.905 38.288C161.755 37.7333 161.681 37.168 161.681 36.592C161.681 36.0373 161.755 35.4827 161.905 34.928C162.054 34.3733 162.278 33.8613 162.577 33.392C162.875 32.9013 163.238 32.4747 163.665 32.112C164.113 31.7493 164.593 31.4613 165.105 31.248C165.638 31.0133 166.182 30.8533 166.737 30.768C167.313 30.6827 167.878 30.64 168.433 30.64C168.987 30.64 169.542 30.6827 170.097 30.768C170.673 30.8533 171.217 31.0027 171.729 31.216C172.241 31.4293 172.721 31.7173 173.169 32.08C173.617 32.4213 173.99 32.8267 174.289 33.296C174.587 33.7653 174.811 34.2773 174.961 34.832C175.11 35.3867 175.185 35.9413 175.185 36.496V36.752H172.241V36.624C172.241 36.1333 172.145 35.664 171.953 35.216C171.761 34.768 171.483 34.3947 171.121 34.096C170.758 33.776 170.331 33.5627 169.841 33.456C169.371 33.328 168.902 33.264 168.433 33.264C167.963 33.264 167.483 33.328 166.993 33.456C166.523 33.5627 166.107 33.776 165.745 34.096C165.382 34.3947 165.105 34.7787 164.913 35.248C164.721 35.696 164.625 36.1547 164.625 36.624C164.625 37.1787 164.753 37.7227 165.009 38.256C165.286 38.768 165.638 39.2053 166.065 39.568C166.513 39.9307 166.993 40.2293 167.505 40.464C168.017 40.6987 168.529 40.9333 169.041 41.168C169.574 41.3813 170.097 41.616 170.609 41.872C171.121 42.1067 171.611 42.384 172.081 42.704C172.55 43.0027 172.987 43.3547 173.393 43.76C173.798 44.1653 174.15 44.6133 174.449 45.104C174.747 45.5733 174.971 46.0853 175.121 46.64C175.291 47.1733 175.377 47.7173 175.377 48.272C175.377 48.848 175.291 49.424 175.121 50C174.971 50.5547 174.737 51.0773 174.417 51.568C174.097 52.0373 173.702 52.4533 173.233 52.816C172.785 53.1787 172.294 53.4667 171.761 53.68C171.227 53.8933 170.673 54.0427 170.097 54.128C169.521 54.2133 168.945 54.256 168.369 54.256ZM185.116 54V45.072L182.172 40.016C181.831 39.44 181.511 38.8427 181.212 38.224C180.935 37.6053 180.689 36.976 180.476 36.336C180.284 35.6747 180.135 35.0027 180.028 34.32C179.921 33.6373 179.868 32.9547 179.868 32.272V30.896H182.812V32.272C182.812 33.4027 182.983 34.512 183.324 35.6C183.687 36.688 184.156 37.7227 184.732 38.704L186.588 41.904L188.444 38.704C189.02 37.7227 189.479 36.688 189.82 35.6C190.183 34.512 190.364 33.4027 190.364 32.272V30.896H193.308V32.272C193.308 32.9547 193.255 33.6373 193.148 34.32C193.041 35.0027 192.881 35.6747 192.668 36.336C192.476 36.976 192.231 37.6053 191.932 38.224C191.655 38.8427 191.345 39.44 191.004 40.016L188.06 45.072V54H185.116ZM204.744 54.256C204.168 54.256 203.592 54.2133 203.016 54.128C202.461 54.064 201.917 53.9253 201.384 53.712C200.85 53.4987 200.349 53.2213 199.88 52.88C199.41 52.5173 199.016 52.1013 198.696 51.632C198.376 51.1627 198.13 50.6507 197.96 50.096C197.81 49.5413 197.736 48.976 197.736 48.4V48.144H200.68V48.272C200.68 48.784 200.786 49.2747 201 49.744C201.234 50.192 201.544 50.5653 201.928 50.864C202.333 51.1627 202.781 51.3653 203.272 51.472C203.762 51.5787 204.253 51.632 204.744 51.632C205.234 51.632 205.725 51.5787 206.216 51.472C206.706 51.3653 207.144 51.1627 207.528 50.864C207.933 50.544 208.242 50.16 208.456 49.712C208.69 49.2427 208.808 48.7627 208.808 48.272C208.808 47.696 208.669 47.152 208.392 46.64C208.114 46.128 207.762 45.6907 207.336 45.328C206.909 44.9653 206.429 44.6667 205.896 44.432C205.384 44.176 204.872 43.9413 204.36 43.728C203.848 43.5147 203.336 43.2907 202.824 43.056C202.312 42.8 201.821 42.512 201.352 42.192C200.882 41.872 200.445 41.52 200.04 41.136C199.634 40.7307 199.282 40.2933 198.984 39.824C198.685 39.3333 198.45 38.8213 198.28 38.288C198.13 37.7333 198.056 37.168 198.056 36.592C198.056 36.0373 198.13 35.4827 198.28 34.928C198.429 34.3733 198.653 33.8613 198.952 33.392C199.25 32.9013 199.613 32.4747 200.04 32.112C200.488 31.7493 200.968 31.4613 201.48 31.248C202.013 31.0133 202.557 30.8533 203.112 30.768C203.688 30.6827 204.253 30.64 204.808 30.64C205.362 30.64 205.917 30.6827 206.472 30.768C207.048 30.8533 207.592 31.0027 208.104 31.216C208.616 31.4293 209.096 31.7173 209.544 32.08C209.992 32.4213 210.365 32.8267 210.664 33.296C210.962 33.7653 211.186 34.2773 211.336 34.832C211.485 35.3867 211.56 35.9413 211.56 36.496V36.752H208.616V36.624C208.616 36.1333 208.52 35.664 208.328 35.216C208.136 34.768 207.858 34.3947 207.496 34.096C207.133 33.776 206.706 33.5627 206.216 33.456C205.746 33.328 205.277 33.264 204.808 33.264C204.338 33.264 203.858 33.328 203.368 33.456C202.898 33.5627 202.482 33.776 202.12 34.096C201.757 34.3947 201.48 34.7787 201.288 35.248C201.096 35.696 201 36.1547 201 36.624C201 37.1787 201.128 37.7227 201.384 38.256C201.661 38.768 202.013 39.2053 202.44 39.568C202.888 39.9307 203.368 40.2293 203.88 40.464C204.392 40.6987 204.904 40.9333 205.416 41.168C205.949 41.3813 206.472 41.616 206.984 41.872C207.496 42.1067 207.986 42.384 208.456 42.704C208.925 43.0027 209.362 43.3547 209.768 43.76C210.173 44.1653 210.525 44.6133 210.824 45.104C211.122 45.5733 211.346 46.0853 211.496 46.64C211.666 47.1733 211.752 47.7173 211.752 48.272C211.752 48.848 211.666 49.424 211.496 50C211.346 50.5547 211.112 51.0773 210.792 51.568C210.472 52.0373 210.077 52.4533 209.608 52.816C209.16 53.1787 208.669 53.4667 208.136 53.68C207.602 53.8933 207.048 54.0427 206.472 54.128C205.896 54.2133 205.32 54.256 204.744 54.256ZM221.491 54V33.52H216.051V30.896H229.875V33.52H224.435V54H221.491ZM234.687 54V30.896H247.871V33.52H237.631V40.688H245.855V43.28H237.631V51.376H247.871V54H234.687ZM252.074 54V30.896H255.658L259.338 43.152L263.018 30.896H266.602V54H263.754V49.392C263.754 48.0267 263.765 46.672 263.786 45.328C263.807 43.984 263.839 42.64 263.882 41.296L263.978 38.992C263.999 38.352 264.021 37.712 264.042 37.072C264.063 36.4107 264.085 35.76 264.106 35.12L260.522 47.056H258.154L254.57 35.12C254.591 35.76 254.613 36.4107 254.634 37.072C254.655 37.712 254.677 38.352 254.698 38.992L254.794 41.296C254.837 42.64 254.869 43.984 254.89 45.328C254.911 46.672 254.922 48.0267 254.922 49.392V54H252.074ZM288.449 54V30.896H292.033L295.713 43.152L299.393 30.896H302.977V54H300.129V49.392C300.129 48.0267 300.14 46.672 300.161 45.328C300.182 43.984 300.214 42.64 300.257 41.296L300.353 38.992C300.374 38.352 300.396 37.712 300.417 37.072C300.438 36.4107 300.46 35.76 300.481 35.12L296.897 47.056H294.529L290.945 35.12C290.966 35.76 290.988 36.4107 291.009 37.072C291.03 37.712 291.052 38.352 291.073 38.992L291.169 41.296C291.212 42.64 291.244 43.984 291.265 45.328C291.286 46.672 291.297 48.0267 291.297 49.392V54H288.449ZM306.381 54L312.205 30.896H315.597L321.421 54H318.349L317.037 48.304H310.765L309.453 54H306.381ZM311.405 45.68H316.397L314.765 38.608C314.615 37.9893 314.466 37.3707 314.317 36.752C314.167 36.1333 314.029 35.5147 313.901 34.896C313.773 35.5147 313.634 36.1333 313.485 36.752C313.335 37.3707 313.186 37.9893 313.036 38.608L311.405 45.68ZM325.368 54V30.896H328.856L336.248 49.712C336.163 48.112 336.077 46.5227 335.992 44.944C335.907 43.344 335.864 41.744 335.864 40.144V30.896H338.808V54H335.32L327.928 35.184C328.013 36.784 328.099 38.384 328.184 39.984C328.269 41.5627 328.312 43.152 328.312 44.752V54H325.368ZM342.756 54L348.58 30.896H351.972L357.796 54H354.724L353.412 48.304H347.14L345.828 54H342.756ZM347.78 45.68H352.772L351.14 38.608C350.99 37.9893 350.841 37.3707 350.692 36.752C350.542 36.1333 350.404 35.5147 350.276 34.896C350.148 35.5147 350.009 36.1333 349.86 36.752C349.71 37.3707 349.561 37.9893 349.411 38.608L347.78 45.68ZM368.335 54.256C367.716 54.256 367.098 54.192 366.479 54.064C365.86 53.9573 365.274 53.7653 364.719 53.488C364.164 53.1893 363.674 52.816 363.247 52.368C362.82 51.8987 362.468 51.3867 362.191 50.832C361.935 50.256 361.754 49.6587 361.647 49.04C361.54 48.4213 361.487 47.8027 361.487 47.184V37.712C361.487 37.0933 361.54 36.4747 361.647 35.856C361.754 35.2373 361.935 34.6507 362.191 34.096C362.468 33.52 362.82 33.008 363.247 32.56C363.695 32.0907 364.196 31.7173 364.751 31.44C365.306 31.1413 365.892 30.9387 366.511 30.832C367.13 30.704 367.748 30.64 368.367 30.64C368.943 30.64 369.519 30.6827 370.095 30.768C370.671 30.8533 371.215 31.0133 371.727 31.248C372.26 31.4613 372.751 31.7493 373.199 32.112C373.647 32.4747 374.02 32.9013 374.319 33.392C374.639 33.8613 374.874 34.384 375.023 34.96C375.172 35.5147 375.247 36.08 375.247 36.656V36.752H372.303V36.688C372.303 36.1973 372.196 35.728 371.983 35.28C371.791 34.8107 371.503 34.416 371.119 34.096C370.756 33.776 370.33 33.5627 369.839 33.456C369.348 33.328 368.858 33.264 368.367 33.264C368.004 33.264 367.631 33.3067 367.247 33.392C366.884 33.456 366.543 33.5947 366.223 33.808C365.903 34 365.626 34.2453 365.391 34.544C365.156 34.8427 364.964 35.1627 364.815 35.504C364.666 35.8453 364.559 36.208 364.495 36.592C364.452 36.9547 364.431 37.328 364.431 37.712V47.184C364.431 47.568 364.452 47.9413 364.495 48.304C364.559 48.6667 364.655 49.0293 364.783 49.392C364.932 49.7333 365.124 50.0533 365.359 50.352C365.594 50.6507 365.871 50.9067 366.191 51.12C366.511 51.312 366.852 51.4507 367.215 51.536C367.578 51.6 367.951 51.632 368.335 51.632C368.719 51.632 369.092 51.6 369.455 51.536C369.818 51.4507 370.159 51.312 370.479 51.12C370.799 50.9067 371.076 50.6507 371.311 50.352C371.546 50.0533 371.727 49.7333 371.855 49.392C372.004 49.0293 372.1 48.6667 372.143 48.304C372.207 47.9413 372.239 47.568 372.239 47.184V43.952H368.463V41.328H375.183V47.184C375.183 47.8027 375.13 48.4213 375.023 49.04C374.916 49.6587 374.724 50.256 374.447 50.832C374.191 51.3867 373.85 51.8987 373.423 52.368C372.996 52.816 372.506 53.1893 371.951 53.488C371.396 53.7653 370.81 53.9573 370.191 54.064C369.572 54.192 368.954 54.256 368.335 54.256ZM380.187 54V30.896H393.371V33.52H383.131V40.688H391.355V43.28H383.131V51.376H393.371V54H380.187ZM398.118 54V30.896H405.414C406.011 30.896 406.598 30.96 407.174 31.088C407.771 31.1947 408.326 31.3973 408.838 31.696C409.371 31.9947 409.83 32.368 410.214 32.816C410.619 33.264 410.939 33.7653 411.174 34.32C411.43 34.8533 411.601 35.4187 411.686 36.016C411.771 36.6133 411.814 37.2107 411.814 37.808C411.814 38.5547 411.739 39.2907 411.59 40.016C411.441 40.7413 411.163 41.424 410.758 42.064C410.374 42.6827 409.873 43.216 409.254 43.664C408.635 44.0907 407.963 44.3893 407.238 44.56L412.326 54H409.062L404.07 44.72H401.062V54H398.118ZM405.414 42.096C405.777 42.096 406.118 42.0533 406.438 41.968C406.779 41.8827 407.089 41.744 407.366 41.552C407.665 41.3387 407.91 41.0827 408.102 40.784C408.294 40.4853 408.443 40.176 408.55 39.856C408.678 39.536 408.763 39.2053 408.806 38.864C408.849 38.5013 408.87 38.1493 408.87 37.808C408.87 37.4667 408.849 37.1253 408.806 36.784C408.763 36.4213 408.678 36.08 408.55 35.76C408.443 35.44 408.294 35.1307 408.102 34.832C407.91 34.5333 407.665 34.288 407.366 34.096C407.089 33.8827 406.779 33.7333 406.438 33.648C406.118 33.5627 405.777 33.52 405.414 33.52H401.062V42.096H405.414Z" fill="black" fill-opacity="0.64"/>
<path d="M34.45 105.3C34.45 102.433 34.9667 99.75 36 97.25C37.0333 94.75 38.4833 92.5833 40.35 90.75C42.25 88.8833 44.4667 87.4333 47 86.4C49.5333 85.3667 52.3 84.85 55.3 84.85C58.0667 84.85 60.6167 85.3 62.95 86.2C65.2833 87.0667 67.3 88.3167 69 89.95C70.7333 91.5833 72.0667 93.55 73 95.85C73.9667 98.15 74.45 100.717 74.45 103.55C74.45 105.35 74.2333 107.033 73.8 108.6C73.3667 110.167 72.7333 111.55 71.9 112.75C71.1 113.917 70.0833 114.833 68.85 115.5C67.65 116.167 66.25 116.5 64.65 116.5C63.2833 116.5 62.1167 116.233 61.15 115.7C60.2167 115.167 59.5167 114.483 59.05 113.65C58.45 113.917 57.7667 114.217 57 114.55C56.2333 114.85 55.4667 115.15 54.7 115.45C53.9667 115.75 53.2833 116 52.65 116.2C52.0167 116.4 51.5333 116.5 51.2 116.5C50.6667 116.5 49.9833 116.317 49.15 115.95C48.35 115.55 47.6333 114.917 47 114.05C46.4 113.183 46.1 112.033 46.1 110.6C46.0667 109.033 46.4833 107.683 47.35 106.55C48.25 105.383 49.6 104.667 51.4 104.4L58.5 103.25V101.6C58.5 100.767 58.45 99.9667 58.35 99.2C58.25 98.4333 58 97.8167 57.6 97.35C57.2 96.8833 56.5833 96.65 55.75 96.65C55.3167 96.65 54.6 96.7333 53.6 96.9C52.6 97.0333 51.6667 97.2167 50.8 97.45C50.7667 98.0833 50.7167 98.7167 50.65 99.35C50.5833 99.9833 50.5167 100.683 50.45 101.45H47.75C47.65 100.483 47.5667 99.5 47.5 98.5C47.4667 97.4667 47.45 96.5167 47.45 95.65C48.4167 95.45 49.3833 95.2667 50.35 95.1C51.3167 94.9 52.2167 94.7333 53.05 94.6C53.8833 94.4667 54.6 94.3667 55.2 94.3C55.8333 94.2 56.2667 94.15 56.5 94.15C58.1333 94.15 59.3667 94.5 60.2 95.2C61.0667 95.8667 61.65 96.7833 61.95 97.95C62.2833 99.1167 62.45 100.4 62.45 101.8V109.55C62.45 110.917 62.65 111.983 63.05 112.75C63.4833 113.483 64.2333 113.85 65.3 113.85C66.2 113.85 66.9833 113.583 67.65 113.05C68.3167 112.517 68.8667 111.8 69.3 110.9C69.7667 109.967 70.1 108.9 70.3 107.7C70.5333 106.5 70.65 105.217 70.65 103.85C70.65 100.45 70 97.55 68.7 95.15C67.4 92.75 65.5833 90.9167 63.25 89.65C60.9167 88.35 58.2333 87.7 55.2 87.7C52.0333 87.7 49.1833 88.4167 46.65 89.85C44.15 91.2833 42.1667 93.3167 40.7 95.95C39.2333 98.55 38.5 101.617 38.5 105.15C38.5 108.65 39.1833 111.733 40.55 114.4C41.9167 117.033 43.85 119.083 46.35 120.55C48.85 122.017 51.8 122.75 55.2 122.75C56.5 122.75 57.7333 122.667 58.9 122.5C60.1 122.367 61.3 122.1 62.5 121.7C63.7333 121.333 65.0167 120.833 66.35 120.2C66.65 120.567 66.8667 120.9 67 121.2C67.1333 121.533 67.2167 121.933 67.25 122.4C65.8833 123.1 64.5333 123.683 63.2 124.15C61.9 124.617 60.55 124.95 59.15 125.15C57.75 125.383 56.2333 125.5 54.6 125.5C51.5667 125.5 48.8 124.983 46.3 123.95C43.8333 122.917 41.7167 121.483 39.95 119.65C38.1833 117.85 36.8167 115.717 35.85 113.25C34.9167 110.783 34.45 108.133 34.45 105.3ZM50.25 110.4C50.25 111.433 50.4833 112.233 50.95 112.8C51.45 113.367 51.9833 113.65 52.55 113.65C52.95 113.65 53.65 113.5 54.65 113.2C55.6833 112.867 56.9833 112.4 58.55 111.8V105.7L53.8 106.6C52.5 106.833 51.5833 107.3 51.05 108C50.5167 108.667 50.25 109.467 50.25 110.4ZM78.3777 77.7C79.2444 77.6333 80.1777 77.5667 81.1777 77.5C82.2111 77.4 83.2277 77.3167 84.2277 77.25C85.2611 77.15 86.2111 77.0667 87.0777 77C86.9777 77.7333 86.8944 78.55 86.8277 79.45C86.7944 80.3167 86.7777 81.1 86.7777 81.8V100.75L91.9277 100.45L98.2277 92.2L94.5777 91.65C94.5444 91.4833 94.5111 91.3333 94.4777 91.2C94.4444 91.0333 94.4277 90.8667 94.4277 90.7C94.4277 90.3333 94.4944 89.9833 94.6277 89.65H105.878C106.011 89.9167 106.078 90.25 106.078 90.65C106.078 91.05 105.994 91.3833 105.828 91.65L102.528 92.2L94.9277 101.3L102.728 113.45L106.178 114.1C106.278 114.267 106.344 114.433 106.378 114.6C106.411 114.733 106.428 114.867 106.428 115C106.428 115.367 106.344 115.7 106.178 116H98.5277L90.7277 103.5L86.7777 103.3V113.5L89.9777 114.1C90.0777 114.267 90.1444 114.433 90.1777 114.6C90.2111 114.733 90.2277 114.867 90.2277 115C90.2277 115.367 90.1444 115.7 89.9777 116H78.4777C78.3444 115.733 78.2777 115.4 78.2777 115C78.2777 114.633 78.3277 114.333 78.4277 114.1L81.7777 113.5V80L78.3777 79.65C78.2777 79.25 78.2277 78.9167 78.2277 78.65C78.2277 78.35 78.2777 78.0333 78.3777 77.7ZM108.078 102.95C108.078 100.15 108.595 97.7333 109.628 95.7C110.695 93.6333 112.128 92.0333 113.928 90.9C115.761 89.7333 117.828 89.15 120.128 89.15C122.495 89.15 124.445 89.75 125.978 90.95C127.545 92.15 128.711 93.7833 129.478 95.85C130.245 97.8833 130.628 100.217 130.628 102.85L113.328 103.9C113.561 106.9 114.361 109.25 115.728 110.95C117.128 112.65 119.028 113.5 121.428 113.5C122.795 113.5 124.128 113.317 125.428 112.95C126.761 112.55 128.045 111.967 129.278 111.2C129.578 111.467 129.811 111.783 129.978 112.15C130.178 112.517 130.295 112.917 130.328 113.35C128.895 114.383 127.361 115.167 125.728 115.7C124.128 116.233 122.495 116.5 120.828 116.5C118.161 116.5 115.878 115.95 113.978 114.85C112.078 113.717 110.611 112.133 109.578 110.1C108.578 108.033 108.078 105.65 108.078 102.95ZM113.328 101.2L125.528 100.4C125.495 98.9667 125.278 97.6 124.878 96.3C124.478 95 123.861 93.9333 123.028 93.1C122.195 92.2667 121.111 91.85 119.778 91.85C118.478 91.85 117.361 92.25 116.428 93.05C115.495 93.8167 114.761 94.9 114.228 96.3C113.728 97.7 113.428 99.3333 113.328 101.2ZM132.351 90.65C132.351 90.3167 132.418 89.9833 132.551 89.65H144.351C144.485 89.9167 144.551 90.25 144.551 90.65C144.551 91.0167 144.485 91.3333 144.351 91.6L140.901 92.15L147.851 110.5L154.951 92.05L151.651 91.55C151.485 91.2167 151.401 90.9167 151.401 90.65C151.401 90.3167 151.485 89.9833 151.651 89.65H160.901C161.035 89.9167 161.101 90.25 161.101 90.65C161.101 90.9833 161.051 91.2833 160.951 91.55L158.151 92.05L148.301 116H145.151L135.351 92.1L132.601 91.6C132.501 91.4 132.435 91.2333 132.401 91.1C132.368 90.9333 132.351 90.7833 132.351 90.65ZM163.542 115C163.542 114.667 163.609 114.367 163.742 114.1L167.092 113.5V92L163.742 91.6C163.609 91.2667 163.542 90.95 163.542 90.65C163.542 90.3167 163.592 89.9833 163.692 89.65C164.526 89.6167 165.459 89.5833 166.492 89.55C167.526 89.4833 168.559 89.4167 169.592 89.35C170.626 89.2833 171.559 89.2167 172.392 89.15C172.292 90.0167 172.209 90.9 172.142 91.8C172.109 92.7 172.092 93.6667 172.092 94.7V113.5L175.342 114.1C175.509 114.333 175.592 114.633 175.592 115C175.592 115.167 175.576 115.333 175.542 115.5C175.509 115.667 175.442 115.833 175.342 116H163.742C163.609 115.733 163.542 115.4 163.542 115ZM169.342 85.65C168.409 85.65 167.626 85.3167 166.992 84.65C166.359 83.9833 166.042 83.2167 166.042 82.35C166.042 81.45 166.359 80.6667 166.992 80C167.626 79.3333 168.409 79 169.342 79C170.276 79 171.059 79.3333 171.692 80C172.326 80.6667 172.642 81.45 172.642 82.35C172.642 83.2167 172.326 83.9833 171.692 84.65C171.059 85.3167 170.276 85.65 169.342 85.65ZM179.411 115C179.411 114.633 179.478 114.333 179.611 114.1L182.961 113.5V92L179.611 91.6C179.478 91.2667 179.411 90.95 179.411 90.65C179.411 90.3167 179.461 89.9833 179.561 89.65C180.428 89.6167 181.361 89.5667 182.361 89.5C183.395 89.4333 184.411 89.3833 185.411 89.35C186.445 89.2833 187.378 89.2167 188.211 89.15C188.178 89.65 188.128 90.1833 188.061 90.75C188.028 91.3167 187.995 91.85 187.961 92.35C189.195 91.85 190.428 91.3667 191.661 90.9C192.928 90.4 194.011 89.9833 194.911 89.65C195.845 89.3167 196.428 89.15 196.661 89.15C198.561 89.15 200.028 89.4833 201.061 90.15C202.095 90.8167 202.811 91.7667 203.211 93C203.645 94.2333 203.861 95.6667 203.861 97.3V113.55L207.061 114.1C207.161 114.267 207.228 114.433 207.261 114.6C207.295 114.733 207.311 114.883 207.311 115.05C207.311 115.383 207.245 115.7 207.111 116H195.611C195.478 115.733 195.411 115.4 195.411 115C195.411 114.633 195.461 114.333 195.561 114.1L198.861 113.5V98.2C198.861 97 198.761 96 198.561 95.2C198.395 94.3667 198.061 93.7333 197.561 93.3C197.061 92.8333 196.295 92.6 195.261 92.6C195.028 92.6 194.528 92.6833 193.761 92.85C192.995 93.0167 192.095 93.25 191.061 93.55C190.061 93.85 189.028 94.15 187.961 94.45V113.5L191.161 114.1C191.261 114.267 191.328 114.433 191.361 114.6C191.395 114.733 191.411 114.867 191.411 115C191.411 115.367 191.328 115.7 191.161 116H179.611C179.478 115.733 179.411 115.4 179.411 115ZM210.052 90.85C210.052 90.55 210.102 90.25 210.202 89.95L213.602 89.65L215.902 83.25H218.552V89.65H225.502V92.25H218.552V108.5C218.552 109.733 218.619 110.733 218.752 111.5C218.919 112.267 219.185 112.817 219.552 113.15C219.952 113.483 220.502 113.65 221.202 113.65C222.069 113.65 222.919 113.5 223.752 113.2C224.619 112.9 225.419 112.533 226.152 112.1C226.519 112.4 226.752 112.767 226.852 113.2C226.952 113.6 226.952 113.95 226.852 114.25C225.619 115.117 224.352 115.7 223.052 116C221.785 116.333 220.719 116.5 219.852 116.5C217.652 116.5 216.052 115.883 215.052 114.65C214.085 113.417 213.602 111.5 213.602 108.9V92.2L210.202 91.9C210.102 91.6 210.052 91.25 210.052 90.85ZM227.957 90.65C227.957 90.3167 228.023 89.9833 228.157 89.65H239.657C239.79 89.9167 239.857 90.25 239.857 90.65C239.857 91.0167 239.79 91.3333 239.657 91.6L236.357 92.15L243.407 110.75L250.507 92.1L247.007 91.55C246.84 91.2167 246.757 90.9167 246.757 90.65C246.757 90.3167 246.823 89.9833 246.957 89.65H256.407C256.54 89.9167 256.607 90.25 256.607 90.65C256.607 90.9833 256.54 91.2833 256.407 91.55L253.607 92.1L244.257 115.05C243.523 116.75 242.807 118.217 242.107 119.45C241.44 120.683 240.707 121.75 239.907 122.65C239.107 123.55 238.173 124.333 237.107 125C236.04 125.667 234.773 126.317 233.307 126.95C232.94 126.45 232.64 125.867 232.407 125.2C232.173 124.533 232.073 123.8 232.107 123C233.707 122.433 235.057 121.833 236.157 121.2C237.257 120.6 238.157 119.867 238.857 119C239.59 118.167 240.19 117.183 240.657 116.05L231.007 92.15L228.207 91.6C228.107 91.4 228.04 91.2333 228.007 91.1C227.973 90.9333 227.957 90.7833 227.957 90.65ZM255.601 125C257.935 124.1 259.601 122.633 260.601 120.6C261.601 118.6 262.101 115.85 262.101 112.35V92L258.701 91.6C258.601 91.2667 258.551 90.95 258.551 90.65C258.551 90.3167 258.601 89.9833 258.701 89.65C259.601 89.5833 260.535 89.5333 261.501 89.5C262.501 89.4333 263.485 89.3833 264.451 89.35C265.418 89.2833 266.385 89.2167 267.351 89.15C267.251 90.0167 267.168 90.9 267.101 91.8C267.068 92.7 267.051 93.6167 267.051 94.55V112.35C267.051 114.917 266.635 117.233 265.801 119.3C265.001 121.367 263.785 123.067 262.151 124.4C260.551 125.733 258.568 126.6 256.201 127C256.035 126.667 255.901 126.35 255.801 126.05C255.701 125.783 255.635 125.433 255.601 125ZM264.401 85.65C263.468 85.65 262.685 85.3167 262.051 84.65C261.418 83.9833 261.101 83.2167 261.101 82.35C261.101 81.45 261.418 80.6667 262.051 80C262.685 79.3333 263.468 79 264.401 79C265.335 79 266.101 79.3333 266.701 80C267.335 80.6667 267.651 81.45 267.651 82.35C267.651 83.2167 267.335 83.9833 266.701 84.65C266.101 85.3167 265.335 85.65 264.401 85.65ZM276.6 117.55H272.9L279.75 96.4L285.6 77H289.35L282.9 96.65L276.6 117.55ZM307.765 93.15C306.465 92.7167 305.365 92.4 304.465 92.2C303.565 92 302.882 91.9 302.415 91.9C300.982 91.9 299.715 92.3667 298.615 93.3C297.515 94.2333 296.665 95.5333 296.065 97.2C295.465 98.8333 295.165 100.767 295.165 103C295.165 104.533 295.332 105.95 295.665 107.25C296.032 108.55 296.499 109.683 297.065 110.65C297.665 111.583 298.365 112.317 299.165 112.85C299.965 113.35 300.815 113.6 301.715 113.6C301.915 113.6 302.349 113.517 303.015 113.35C303.715 113.15 304.482 112.9 305.315 112.6C306.182 112.267 306.999 111.95 307.765 111.65V93.15ZM304.365 79.65C304.265 79.25 304.215 78.9167 304.215 78.65C304.215 78.35 304.265 78.0333 304.365 77.7C305.332 77.6 306.299 77.5167 307.265 77.45C308.232 77.35 309.199 77.2667 310.165 77.2C311.132 77.1333 312.099 77.0667 313.065 77C312.965 77.7333 312.882 78.6 312.815 79.6C312.782 80.5667 312.765 81.5 312.765 82.4V113.55L316.065 114.05C316.132 114.217 316.182 114.383 316.215 114.55C316.249 114.683 316.265 114.833 316.265 115C316.265 115.333 316.199 115.667 316.065 116H309.115L308.365 113.6C307.465 114.033 306.515 114.483 305.515 114.95C304.549 115.383 303.682 115.75 302.915 116.05C302.149 116.35 301.615 116.5 301.315 116.5C299.049 116.5 297.049 115.933 295.315 114.8C293.615 113.667 292.282 112.1 291.315 110.1C290.349 108.067 289.865 105.717 289.865 103.05C289.865 100.15 290.449 97.6667 291.615 95.6C292.782 93.5333 294.332 91.95 296.265 90.85C298.232 89.7167 300.365 89.15 302.665 89.15C303.099 89.15 303.799 89.2833 304.765 89.55C305.765 89.7833 306.765 90.05 307.765 90.35V80L304.365 79.65ZM319.699 102.95C319.699 100.15 320.216 97.7333 321.249 95.7C322.316 93.6333 323.749 92.0333 325.549 90.9C327.383 89.7333 329.449 89.15 331.749 89.15C334.116 89.15 336.066 89.75 337.599 90.95C339.166 92.15 340.333 93.7833 341.099 95.85C341.866 97.8833 342.249 100.217 342.249 102.85L324.949 103.9C325.183 106.9 325.983 109.25 327.349 110.95C328.749 112.65 330.649 113.5 333.049 113.5C334.416 113.5 335.749 113.317 337.049 112.95C338.383 112.55 339.666 111.967 340.899 111.2C341.199 111.467 341.433 111.783 341.599 112.15C341.799 112.517 341.916 112.917 341.949 113.35C340.516 114.383 338.983 115.167 337.349 115.7C335.749 116.233 334.116 116.5 332.449 116.5C329.783 116.5 327.499 115.95 325.599 114.85C323.699 113.717 322.233 112.133 321.199 110.1C320.199 108.033 319.699 105.65 319.699 102.95ZM324.949 101.2L337.149 100.4C337.116 98.9667 336.899 97.6 336.499 96.3C336.099 95 335.483 93.9333 334.649 93.1C333.816 92.2667 332.733 91.85 331.399 91.85C330.099 91.85 328.983 92.25 328.049 93.05C327.116 93.8167 326.383 94.9 325.849 96.3C325.349 97.7 325.049 99.3333 324.949 101.2ZM346.652 107.9H349.352L350.852 112.65C351.919 113.017 352.936 113.283 353.902 113.45C354.902 113.617 355.652 113.7 356.152 113.7C357.552 113.7 358.752 113.383 359.752 112.75C360.786 112.117 361.302 111.083 361.302 109.65C361.302 108.783 361.019 108.067 360.452 107.5C359.886 106.9 359.152 106.4 358.252 106C357.352 105.6 356.369 105.217 355.302 104.85C354.002 104.383 352.719 103.85 351.452 103.25C350.186 102.65 349.136 101.833 348.302 100.8C347.502 99.7667 347.102 98.4167 347.102 96.75C347.102 95.15 347.486 93.7833 348.252 92.65C349.019 91.5167 350.086 90.65 351.452 90.05C352.852 89.45 354.502 89.15 356.402 89.15C356.669 89.15 357.202 89.2167 358.002 89.35C358.836 89.4833 359.836 89.65 361.002 89.85C362.202 90.05 363.402 90.3 364.602 90.6C364.569 91.2667 364.519 92.0167 364.452 92.85C364.419 93.65 364.369 94.45 364.302 95.25C364.236 96.0167 364.169 96.7333 364.102 97.4H361.402L360.752 92.65C359.752 92.45 358.852 92.2833 358.052 92.15C357.286 91.9833 356.736 91.9 356.402 91.9C354.969 91.9 353.802 92.2167 352.902 92.85C352.036 93.4833 351.602 94.45 351.602 95.75C351.602 96.6833 351.886 97.45 352.452 98.05C353.019 98.6167 353.769 99.1 354.702 99.5C355.669 99.9 356.719 100.3 357.852 100.7C359.186 101.167 360.452 101.717 361.652 102.35C362.852 102.95 363.836 103.733 364.602 104.7C365.402 105.667 365.802 106.95 365.802 108.55C365.802 110.15 365.369 111.55 364.502 112.75C363.636 113.917 362.452 114.833 360.952 115.5C359.486 116.167 357.836 116.5 356.002 116.5C355.602 116.5 354.936 116.433 354.002 116.3C353.102 116.2 352.036 116.017 350.802 115.75C349.602 115.483 348.386 115.133 347.152 114.7C347.019 113.367 346.919 112.183 346.852 111.15C346.786 110.117 346.719 109.033 346.652 107.9ZM369.743 115C369.743 114.667 369.81 114.367 369.943 114.1L373.293 113.5V92L369.943 91.6C369.81 91.2667 369.743 90.95 369.743 90.65C369.743 90.3167 369.793 89.9833 369.893 89.65C370.727 89.6167 371.66 89.5833 372.693 89.55C373.727 89.4833 374.76 89.4167 375.793 89.35C376.827 89.2833 377.76 89.2167 378.593 89.15C378.493 90.0167 378.41 90.9 378.343 91.8C378.31 92.7 378.293 93.6667 378.293 94.7V113.5L381.543 114.1C381.71 114.333 381.793 114.633 381.793 115C381.793 115.167 381.777 115.333 381.743 115.5C381.71 115.667 381.643 115.833 381.543 116H369.943C369.81 115.733 369.743 115.4 369.743 115ZM375.543 85.65C374.61 85.65 373.827 85.3167 373.193 84.65C372.56 83.9833 372.243 83.2167 372.243 82.35C372.243 81.45 372.56 80.6667 373.193 80C373.827 79.3333 374.61 79 375.543 79C376.477 79 377.26 79.3333 377.893 80C378.527 80.6667 378.843 81.45 378.843 82.35C378.843 83.2167 378.527 83.9833 377.893 84.65C377.26 85.3167 376.477 85.65 375.543 85.65ZM384.813 120.95C384.813 119.75 385.129 118.667 385.763 117.7C386.429 116.733 387.346 115.933 388.513 115.3C388.279 115.067 388.113 114.817 388.013 114.55C387.913 114.25 387.863 113.933 387.863 113.6C387.863 112.833 388.063 111.883 388.463 110.75C388.896 109.583 389.563 108.283 390.463 106.85C389.196 105.983 388.213 104.95 387.513 103.75C386.813 102.517 386.463 100.95 386.463 99.05C386.463 97.0167 386.896 95.2833 387.763 93.85C388.663 92.3833 389.863 91.2333 391.363 90.4C392.863 89.5667 394.529 89.15 396.363 89.15C397.263 89.15 398.096 89.2667 398.863 89.5C399.629 89.7 400.346 90.0167 401.013 90.45L408.213 88.7C408.446 88.9333 408.613 89.2333 408.713 89.6C408.846 89.9333 408.913 90.3 408.913 90.7C408.913 91.2667 408.796 91.8167 408.562 92.35L403.113 92.05C404.046 92.9833 404.763 94 405.263 95.1C405.796 96.1667 406.063 97.4333 406.063 98.9C406.063 100.9 405.596 102.6 404.663 104C403.729 105.4 402.513 106.483 401.013 107.25C399.513 107.983 397.863 108.35 396.062 108.35C395.463 108.35 394.846 108.317 394.213 108.25C393.579 108.15 392.996 108 392.463 107.8C392.163 108.567 391.929 109.383 391.763 110.25C391.596 111.117 391.513 111.85 391.513 112.45H400.263C402.729 112.45 404.679 113.017 406.113 114.15C407.579 115.25 408.313 116.767 408.313 118.7C408.313 121.2 407.146 123.2 404.813 124.7C402.513 126.233 399.313 127 395.213 127C391.846 127 389.263 126.45 387.463 125.35C385.696 124.25 384.813 122.783 384.813 120.95ZM388.913 120.15C388.913 121.383 389.479 122.35 390.613 123.05C391.746 123.75 393.446 124.1 395.713 124.1C398.313 124.1 400.313 123.633 401.713 122.7C403.146 121.8 403.863 120.7 403.863 119.4C403.863 118.367 403.496 117.567 402.763 117C402.029 116.467 401.013 116.2 399.713 116.2H391.263C390.396 116.8 389.779 117.417 389.413 118.05C389.079 118.717 388.913 119.417 388.913 120.15ZM391.163 99.15C391.163 101.417 391.613 103.1 392.513 104.2C393.446 105.3 394.679 105.85 396.213 105.85C397.779 105.85 399.013 105.283 399.913 104.15C400.846 103.017 401.313 101.317 401.313 99.05C401.313 97.35 401.079 95.9667 400.613 94.9C400.146 93.8 399.529 93 398.763 92.5C398.029 92 397.196 91.75 396.263 91.75C395.396 91.75 394.563 91.9833 393.763 92.45C392.996 92.9167 392.363 93.7 391.863 94.8C391.396 95.8667 391.163 97.3167 391.163 99.15ZM412.419 115C412.419 114.633 412.486 114.333 412.619 114.1L415.969 113.5V92L412.619 91.6C412.486 91.2667 412.419 90.95 412.419 90.65C412.419 90.3167 412.469 89.9833 412.569 89.65C413.436 89.6167 414.369 89.5667 415.369 89.5C416.402 89.4333 417.419 89.3833 418.419 89.35C419.452 89.2833 420.386 89.2167 421.219 89.15C421.186 89.65 421.136 90.1833 421.069 90.75C421.036 91.3167 421.002 91.85 420.969 92.35C422.202 91.85 423.436 91.3667 424.669 90.9C425.936 90.4 427.019 89.9833 427.919 89.65C428.852 89.3167 429.436 89.15 429.669 89.15C431.569 89.15 433.036 89.4833 434.069 90.15C435.102 90.8167 435.819 91.7667 436.219 93C436.652 94.2333 436.869 95.6667 436.869 97.3V113.55L440.069 114.1C440.169 114.267 440.236 114.433 440.269 114.6C440.302 114.733 440.319 114.883 440.319 115.05C440.319 115.383 440.252 115.7 440.119 116H428.619C428.486 115.733 428.419 115.4 428.419 115C428.419 114.633 428.469 114.333 428.569 114.1L431.869 113.5V98.2C431.869 97 431.769 96 431.569 95.2C431.402 94.3667 431.069 93.7333 430.569 93.3C430.069 92.8333 429.302 92.6 428.269 92.6C428.036 92.6 427.536 92.6833 426.769 92.85C426.002 93.0167 425.102 93.25 424.069 93.55C423.069 93.85 422.036 94.15 420.969 94.45V113.5L424.169 114.1C424.269 114.267 424.336 114.433 424.369 114.6C424.402 114.733 424.419 114.867 424.419 115C424.419 115.367 424.336 115.7 424.169 116H412.619C412.486 115.733 412.419 115.4 412.419 115ZM447.01 117.55H443.31L450.16 96.4L456.01 77H459.76L453.31 96.65L447.01 117.55ZM462.554 115C462.554 114.667 462.604 114.367 462.704 114.1L466.054 113.5V92.2L462.704 91.9C462.604 91.6 462.554 91.2667 462.554 90.9C462.554 90.5667 462.604 90.25 462.704 89.95L466.054 89.65V86.5C466.054 84.3 466.404 82.5 467.104 81.1C467.837 79.7 468.954 78.6667 470.454 78C471.987 77.3333 473.954 77 476.354 77C476.521 77 476.937 77.05 477.604 77.15C478.304 77.2167 479.137 77.3333 480.104 77.5C481.071 77.6333 482.104 77.8 483.204 78C484.304 78.1667 485.371 78.35 486.404 78.55C486.371 79.7167 486.304 80.8833 486.204 82.05C486.137 83.1833 486.054 84.3667 485.954 85.6H482.204L481.804 80.65C480.537 80.45 479.404 80.3 478.404 80.2C477.437 80.0667 476.721 80 476.254 80C475.021 80 474.021 80.2 473.254 80.6C472.487 80.9667 471.921 81.6167 471.554 82.55C471.221 83.45 471.054 84.75 471.054 86.45V89.65H479.104C479.904 89.65 480.754 89.6333 481.654 89.6C482.587 89.5333 483.504 89.45 484.404 89.35C485.337 89.25 486.187 89.1833 486.954 89.15C486.854 90.0167 486.771 90.9 486.704 91.8C486.671 92.6667 486.654 93.6167 486.654 94.65V113.5L489.904 114.1C490.071 114.333 490.154 114.633 490.154 115C490.154 115.167 490.137 115.333 490.104 115.5C490.071 115.667 490.021 115.833 489.954 116H478.354C478.221 115.733 478.154 115.4 478.154 115C478.154 114.667 478.204 114.367 478.304 114.1L481.654 113.5V92.25H471.054V113.5L474.654 114.1C474.821 114.4 474.904 114.7 474.904 115C474.904 115.333 474.821 115.667 474.654 116H462.754C462.621 115.667 462.554 115.333 462.554 115ZM493.162 120.95C493.162 119.75 493.479 118.667 494.112 117.7C494.779 116.733 495.695 115.933 496.862 115.3C496.629 115.067 496.462 114.817 496.362 114.55C496.262 114.25 496.212 113.933 496.212 113.6C496.212 112.833 496.412 111.883 496.812 110.75C497.245 109.583 497.912 108.283 498.812 106.85C497.545 105.983 496.562 104.95 495.862 103.75C495.162 102.517 494.812 100.95 494.812 99.05C494.812 97.0167 495.245 95.2833 496.112 93.85C497.012 92.3833 498.212 91.2333 499.712 90.4C501.212 89.5667 502.879 89.15 504.712 89.15C505.612 89.15 506.445 89.2667 507.212 89.5C507.979 89.7 508.695 90.0167 509.362 90.45L516.562 88.7C516.795 88.9333 516.962 89.2333 517.062 89.6C517.195 89.9333 517.262 90.3 517.262 90.7C517.262 91.2667 517.145 91.8167 516.912 92.35L511.462 92.05C512.395 92.9833 513.112 94 513.612 95.1C514.145 96.1667 514.412 97.4333 514.412 98.9C514.412 100.9 513.945 102.6 513.012 104C512.079 105.4 510.862 106.483 509.362 107.25C507.862 107.983 506.212 108.35 504.412 108.35C503.812 108.35 503.195 108.317 502.562 108.25C501.929 108.15 501.345 108 500.812 107.8C500.512 108.567 500.279 109.383 500.112 110.25C499.945 111.117 499.862 111.85 499.862 112.45H508.612C511.079 112.45 513.029 113.017 514.462 114.15C515.929 115.25 516.662 116.767 516.662 118.7C516.662 121.2 515.495 123.2 513.162 124.7C510.862 126.233 507.662 127 503.562 127C500.195 127 497.612 126.45 495.812 125.35C494.045 124.25 493.162 122.783 493.162 120.95ZM497.262 120.15C497.262 121.383 497.829 122.35 498.962 123.05C500.095 123.75 501.795 124.1 504.062 124.1C506.662 124.1 508.662 123.633 510.062 122.7C511.495 121.8 512.212 120.7 512.212 119.4C512.212 118.367 511.845 117.567 511.112 117C510.379 116.467 509.362 116.2 508.062 116.2H499.612C498.745 116.8 498.129 117.417 497.762 118.05C497.429 118.717 497.262 119.417 497.262 120.15ZM499.512 99.15C499.512 101.417 499.962 103.1 500.862 104.2C501.795 105.3 503.029 105.85 504.562 105.85C506.129 105.85 507.362 105.283 508.262 104.15C509.195 103.017 509.662 101.317 509.662 99.05C509.662 97.35 509.429 95.9667 508.962 94.9C508.495 93.8 507.879 93 507.112 92.5C506.379 92 505.545 91.75 504.612 91.75C503.745 91.75 502.912 91.9833 502.112 92.45C501.345 92.9167 500.712 93.7 500.212 94.8C499.745 95.8667 499.512 97.3167 499.512 99.15ZM532.519 116H520.969C520.835 115.733 520.769 115.4 520.769 115C520.769 114.633 520.835 114.333 520.969 114.1L524.319 113.5V92L520.969 91.6C520.835 91.2667 520.769 90.95 520.769 90.65C520.769 90.3167 520.819 89.9833 520.919 89.65C521.785 89.5833 522.719 89.5333 523.719 89.5C524.719 89.4333 525.719 89.3667 526.719 89.3C527.752 89.2333 528.702 89.1833 529.569 89.15C529.502 89.6833 529.452 90.2167 529.419 90.75C529.385 91.25 529.352 91.7167 529.319 92.15C530.552 91.65 531.735 91.1667 532.869 90.7C534.035 90.2333 535.019 89.8667 535.819 89.6C536.652 89.3 537.202 89.15 537.469 89.15C539.102 89.15 540.402 89.4167 541.369 89.95C542.369 90.4833 543.135 91.2 543.669 92.1C544.535 91.7667 545.435 91.4333 546.369 91.1C547.302 90.7333 548.185 90.4167 549.019 90.15C549.852 89.85 550.569 89.6167 551.169 89.45C551.769 89.25 552.169 89.15 552.369 89.15C554.302 89.15 555.785 89.5 556.819 90.2C557.885 90.8667 558.619 91.8167 559.019 93.05C559.419 94.25 559.619 95.6667 559.619 97.3V113.5L562.819 114.1C562.919 114.267 562.985 114.433 563.019 114.6C563.052 114.733 563.069 114.883 563.069 115.05C563.069 115.383 563.002 115.7 562.869 116H551.419C551.285 115.733 551.219 115.4 551.219 115C551.219 114.633 551.269 114.333 551.369 114.1L554.619 113.5V97.85C554.619 96.5833 554.535 95.55 554.369 94.75C554.235 93.95 553.919 93.3667 553.419 93C552.919 92.6 552.152 92.4 551.119 92.4C550.885 92.4 550.402 92.4833 549.669 92.65C548.969 92.8167 548.135 93.0333 547.169 93.3C546.235 93.5333 545.285 93.8 544.319 94.1C544.419 94.7 544.485 95.3167 544.519 95.95C544.552 96.5833 544.569 97.2167 544.569 97.85V113.5L547.719 114.1C547.819 114.267 547.885 114.433 547.919 114.6C547.952 114.733 547.969 114.867 547.969 115C547.969 115.367 547.885 115.7 547.719 116H536.369C536.235 115.733 536.169 115.4 536.169 115C536.169 114.633 536.219 114.333 536.319 114.1L539.569 113.5V98.3C539.569 97.0333 539.485 95.9833 539.319 95.15C539.152 94.3167 538.819 93.7 538.319 93.3C537.852 92.8667 537.119 92.65 536.119 92.65C535.885 92.65 535.452 92.7167 534.819 92.85C534.219 92.9833 533.452 93.1667 532.519 93.4C531.585 93.6333 530.519 93.9333 529.319 94.3V113.5L532.519 114.1C532.619 114.267 532.685 114.433 532.719 114.6C532.752 114.733 532.769 114.867 532.769 115C532.769 115.367 532.685 115.7 532.519 116ZM566.964 109.3C566.964 108.133 567.197 107.033 567.664 106C568.13 104.933 568.847 104.033 569.814 103.3C570.78 102.567 571.964 102.083 573.364 101.85L581.964 100.6V98.35C581.964 97.15 581.897 96.0833 581.764 95.15C581.63 94.2167 581.314 93.4833 580.814 92.95C580.314 92.4167 579.53 92.15 578.464 92.15C578.23 92.15 577.797 92.2 577.164 92.3C576.53 92.3667 575.814 92.4667 575.014 92.6C574.247 92.7 573.497 92.8333 572.764 93L572.314 98.1H569.364C569.23 96.9333 569.13 95.75 569.064 94.55C568.997 93.3167 568.964 92.15 568.964 91.05C569.93 90.85 570.964 90.6333 572.064 90.4C573.197 90.1667 574.28 89.9667 575.314 89.8C576.347 89.6 577.23 89.45 577.964 89.35C578.697 89.2167 579.164 89.15 579.364 89.15C581.297 89.15 582.814 89.5167 583.914 90.25C585.014 90.95 585.78 92 586.214 93.4C586.68 94.8 586.914 96.5333 586.914 98.6V113.55L589.964 114.05C590.03 114.217 590.08 114.383 590.114 114.55C590.147 114.683 590.164 114.833 590.164 115C590.164 115.333 590.097 115.667 589.964 116H583.164L582.214 113.25C581.48 113.583 580.664 113.933 579.764 114.3C578.897 114.667 578.047 115.017 577.214 115.35C576.38 115.683 575.647 115.95 575.014 116.15C574.38 116.383 573.947 116.5 573.714 116.5C572.68 116.5 571.63 116.25 570.564 115.75C569.53 115.217 568.664 114.417 567.964 113.35C567.297 112.25 566.964 110.9 566.964 109.3ZM571.814 109.15C571.814 110.517 572.114 111.55 572.714 112.25C573.314 112.95 574.13 113.3 575.164 113.3C575.43 113.3 575.897 113.217 576.564 113.05C577.264 112.85 578.08 112.6 579.014 112.3C579.98 111.967 580.964 111.6 581.964 111.2V103.3L575.764 104.4C574.597 104.6 573.647 105.083 572.914 105.85C572.18 106.583 571.814 107.683 571.814 109.15ZM607.514 102.1H593.814V98.9L607.514 98.6V102.1ZM610.54 90.85C610.54 90.55 610.59 90.25 610.69 89.95L614.09 89.65L616.39 83.25H619.04V89.65H625.99V92.25H619.04V108.5C619.04 109.733 619.107 110.733 619.24 111.5C619.407 112.267 619.674 112.817 620.04 113.15C620.44 113.483 620.99 113.65 621.69 113.65C622.557 113.65 623.407 113.5 624.24 113.2C625.107 112.9 625.907 112.533 626.64 112.1C627.007 112.4 627.24 112.767 627.34 113.2C627.44 113.6 627.44 113.95 627.34 114.25C626.107 115.117 624.84 115.7 623.54 116C622.274 116.333 621.207 116.5 620.34 116.5C618.14 116.5 616.54 115.883 615.54 114.65C614.574 113.417 614.09 111.5 614.09 108.9V92.2L610.69 91.9C610.59 91.6 610.54 91.25 610.54 90.85ZM630.051 102.85C630.051 100.95 630.334 99.1833 630.901 97.55C631.467 95.8833 632.284 94.4333 633.351 93.2C634.417 91.9333 635.684 90.95 637.151 90.25C638.651 89.5167 640.317 89.15 642.151 89.15C644.051 89.15 645.751 89.5167 647.251 90.25C648.784 90.9833 650.067 91.9833 651.101 93.25C652.134 94.5167 652.917 95.9833 653.451 97.65C654.017 99.2833 654.301 101 654.301 102.8C654.301 104.667 654.001 106.433 653.401 108.1C652.834 109.733 652.017 111.183 650.951 112.45C649.917 113.717 648.651 114.717 647.151 115.45C645.684 116.15 644.017 116.5 642.151 116.5C640.251 116.5 638.551 116.15 637.051 115.45C635.551 114.717 634.284 113.733 633.251 112.5C632.217 111.233 631.417 109.783 630.851 108.15C630.317 106.483 630.051 104.717 630.051 102.85ZM635.301 102.75C635.301 104.783 635.584 106.65 636.151 108.35C636.717 110.05 637.517 111.417 638.551 112.45C639.584 113.45 640.784 113.95 642.151 113.95C643.484 113.95 644.667 113.467 645.701 112.5C646.734 111.533 647.551 110.2 648.151 108.5C648.751 106.8 649.051 104.9 649.051 102.8C649.051 100.733 648.767 98.8667 648.201 97.2C647.634 95.5333 646.834 94.2 645.801 93.2C644.767 92.2 643.551 91.7 642.151 91.7C640.784 91.7 639.584 92.2 638.551 93.2C637.517 94.2 636.717 95.55 636.151 97.25C635.584 98.9167 635.301 100.75 635.301 102.75ZM672.261 102.1H658.561V98.9L672.261 98.6V102.1ZM672.886 125C675.22 124.1 676.886 122.633 677.886 120.6C678.886 118.6 679.386 115.85 679.386 112.35V92L675.986 91.6C675.886 91.2667 675.836 90.95 675.836 90.65C675.836 90.3167 675.886 89.9833 675.986 89.65C676.886 89.5833 677.82 89.5333 678.786 89.5C679.786 89.4333 680.77 89.3833 681.736 89.35C682.703 89.2833 683.67 89.2167 684.636 89.15C684.536 90.0167 684.453 90.9 684.386 91.8C684.353 92.7 684.336 93.6167 684.336 94.55V112.35C684.336 114.917 683.92 117.233 683.086 119.3C682.286 121.367 681.07 123.067 679.436 124.4C677.836 125.733 675.853 126.6 673.486 127C673.32 126.667 673.186 126.35 673.086 126.05C672.986 125.783 672.92 125.433 672.886 125ZM681.686 85.65C680.753 85.65 679.97 85.3167 679.336 84.65C678.703 83.9833 678.386 83.2167 678.386 82.35C678.386 81.45 678.703 80.6667 679.336 80C679.97 79.3333 680.753 79 681.686 79C682.62 79 683.386 79.3333 683.986 80C684.62 80.6667 684.936 81.45 684.936 82.35C684.936 83.2167 684.62 83.9833 683.986 84.65C683.386 85.3167 682.62 85.65 681.686 85.65ZM691.135 107.9H693.835L695.335 112.65C696.401 113.017 697.418 113.283 698.385 113.45C699.385 113.617 700.135 113.7 700.635 113.7C702.035 113.7 703.235 113.383 704.235 112.75C705.268 112.117 705.785 111.083 705.785 109.65C705.785 108.783 705.501 108.067 704.935 107.5C704.368 106.9 703.635 106.4 702.735 106C701.835 105.6 700.851 105.217 699.785 104.85C698.485 104.383 697.201 103.85 695.935 103.25C694.668 102.65 693.618 101.833 692.785 100.8C691.985 99.7667 691.585 98.4167 691.585 96.75C691.585 95.15 691.968 93.7833 692.735 92.65C693.501 91.5167 694.568 90.65 695.935 90.05C697.335 89.45 698.985 89.15 700.885 89.15C701.151 89.15 701.685 89.2167 702.485 89.35C703.318 89.4833 704.318 89.65 705.485 89.85C706.685 90.05 707.885 90.3 709.085 90.6C709.051 91.2667 709.001 92.0167 708.935 92.85C708.901 93.65 708.851 94.45 708.785 95.25C708.718 96.0167 708.651 96.7333 708.585 97.4H705.885L705.235 92.65C704.235 92.45 703.335 92.2833 702.535 92.15C701.768 91.9833 701.218 91.9 700.885 91.9C699.451 91.9 698.285 92.2167 697.385 92.85C696.518 93.4833 696.085 94.45 696.085 95.75C696.085 96.6833 696.368 97.45 696.935 98.05C697.501 98.6167 698.251 99.1 699.185 99.5C700.151 99.9 701.201 100.3 702.335 100.7C703.668 101.167 704.935 101.717 706.135 102.35C707.335 102.95 708.318 103.733 709.085 104.7C709.885 105.667 710.285 106.95 710.285 108.55C710.285 110.15 709.851 111.55 708.985 112.75C708.118 113.917 706.935 114.833 705.435 115.5C703.968 116.167 702.318 116.5 700.485 116.5C700.085 116.5 699.418 116.433 698.485 116.3C697.585 116.2 696.518 116.017 695.285 115.75C694.085 115.483 692.868 115.133 691.635 114.7C691.501 113.367 691.401 112.183 691.335 111.15C691.268 110.117 691.201 109.033 691.135 107.9ZM714.426 102.85C714.426 100.95 714.709 99.1833 715.276 97.55C715.842 95.8833 716.659 94.4333 717.726 93.2C718.792 91.9333 720.059 90.95 721.526 90.25C723.026 89.5167 724.692 89.15 726.526 89.15C728.426 89.15 730.126 89.5167 731.626 90.25C733.159 90.9833 734.442 91.9833 735.476 93.25C736.509 94.5167 737.292 95.9833 737.826 97.65C738.392 99.2833 738.676 101 738.676 102.8C738.676 104.667 738.376 106.433 737.776 108.1C737.209 109.733 736.392 111.183 735.326 112.45C734.292 113.717 733.026 114.717 731.526 115.45C730.059 116.15 728.392 116.5 726.526 116.5C724.626 116.5 722.926 116.15 721.426 115.45C719.926 114.717 718.659 113.733 717.626 112.5C716.592 111.233 715.792 109.783 715.226 108.15C714.692 106.483 714.426 104.717 714.426 102.85ZM719.676 102.75C719.676 104.783 719.959 106.65 720.526 108.35C721.092 110.05 721.892 111.417 722.926 112.45C723.959 113.45 725.159 113.95 726.526 113.95C727.859 113.95 729.042 113.467 730.076 112.5C731.109 111.533 731.926 110.2 732.526 108.5C733.126 106.8 733.426 104.9 733.426 102.8C733.426 100.733 733.142 98.8667 732.576 97.2C732.009 95.5333 731.209 94.2 730.176 93.2C729.142 92.2 727.926 91.7 726.526 91.7C725.159 91.7 723.959 92.2 722.926 93.2C721.892 94.2 721.092 95.55 720.526 97.25C719.959 98.9167 719.676 100.75 719.676 102.75ZM742.986 115C742.986 114.633 743.052 114.333 743.186 114.1L746.536 113.5V92L743.186 91.6C743.052 91.2667 742.986 90.95 742.986 90.65C742.986 90.3167 743.036 89.9833 743.136 89.65C744.002 89.6167 744.936 89.5667 745.936 89.5C746.969 89.4333 747.986 89.3833 748.986 89.35C750.019 89.2833 750.952 89.2167 751.786 89.15C751.752 89.65 751.702 90.1833 751.636 90.75C751.602 91.3167 751.569 91.85 751.536 92.35C752.769 91.85 754.002 91.3667 755.236 90.9C756.502 90.4 757.586 89.9833 758.486 89.65C759.419 89.3167 760.002 89.15 760.236 89.15C762.136 89.15 763.602 89.4833 764.636 90.15C765.669 90.8167 766.386 91.7667 766.786 93C767.219 94.2333 767.436 95.6667 767.436 97.3V113.55L770.636 114.1C770.736 114.267 770.802 114.433 770.836 114.6C770.869 114.733 770.886 114.883 770.886 115.05C770.886 115.383 770.819 115.7 770.686 116H759.186C759.052 115.733 758.986 115.4 758.986 115C758.986 114.633 759.036 114.333 759.136 114.1L762.436 113.5V98.2C762.436 97 762.336 96 762.136 95.2C761.969 94.3667 761.636 93.7333 761.136 93.3C760.636 92.8333 759.869 92.6 758.836 92.6C758.602 92.6 758.102 92.6833 757.336 92.85C756.569 93.0167 755.669 93.25 754.636 93.55C753.636 93.85 752.602 94.15 751.536 94.45V113.5L754.736 114.1C754.836 114.267 754.902 114.433 754.936 114.6C754.969 114.733 754.986 114.867 754.986 115C754.986 115.367 754.902 115.7 754.736 116H743.186C743.052 115.733 742.986 115.4 742.986 115Z" fill="black" fill-opacity="0.9"/>
<rect x="32" y="194" width="102" height="8" fill="#ED3E29"/>
<g filter="url(#filter1_i_32_306)">
<g clip-path="url(#clip0_32_306)">
<path d="M78 238H34V282H78V238Z" fill="#201617"/>
<path d="M73.4423 258.737C73.0335 259.038 72.4853 259.435 72.4212 259.481C71.0187 260.455 69.7573 261.192 68.3438 261.833C62.7027 264.393 56.6123 265.957 50.2415 266.71L50.2048 266.716C48.696 266.932 47.2422 267.073 45.8525 267.139C45.6563 267.148 45.5372 266.926 45.6508 266.767L47.3118 264.461C47.7188 263.896 47.3888 263.1 46.7013 262.988L34.0348 260.933C34.0238 260.933 34.011 260.93 34 260.926V259.074C34.011 259.072 34.022 259.069 34.0348 259.067L46.9323 256.973C47.6198 256.861 47.9498 256.066 47.5428 255.501L40.0665 245.126C39.4395 244.257 40.5157 243.181 41.3847 243.808L51.1618 250.854C51.7412 251.272 52.557 250.912 52.6395 250.201L54.053 238H57.947L59.3807 250.373C59.4632 251.084 60.279 251.444 60.8602 251.026L70.872 243.81C71.4422 243.399 72.6008 244.558 72.1902 245.128L64.6863 255.54C64.2793 256.104 64.6093 256.9 65.2968 257.012L73.3415 258.317C73.5468 258.35 73.611 258.614 73.4423 258.737ZM42.2958 274.846C42.0098 274.815 41.7385 274.784 41.6762 274.779C41.3718 274.749 40.6953 274.641 40.204 274.555C40.116 274.538 40.0262 274.575 39.973 274.648L39.8098 274.874C39.1828 275.743 40.259 276.819 41.128 276.192L42.4077 275.27C42.5818 275.145 42.5103 274.87 42.2958 274.846ZM58.6455 273.092C56.9075 273.642 55.1493 274.082 53.393 274.403C53.272 274.425 53.1877 274.537 53.2023 274.659L54.053 282H57.947L58.9498 273.341C58.97 273.173 58.8087 273.041 58.6455 273.092ZM68.2577 269.06C68.188 268.963 68.0542 268.934 67.9515 268.994C66.7782 269.669 65.5718 270.296 64.3435 270.87C64.1822 270.945 64.162 271.167 64.3068 271.271L71.1305 276.19C71.7007 276.601 72.8593 275.442 72.4487 274.872L68.2595 269.06H68.2577Z" fill="url(#paint1_radial_32_306)"/>
<path d="M78.0001 255.62V258.378C77.0706 259.908 75.7561 261.276 74.5516 262.4C68.6208 267.744 60.666 271.618 52.8211 272.987C46.0928 274.163 38.6531 273.519 34.7023 271.099C34.4585 270.949 34.2238 270.782 34.002 270.6V262.442L35.8555 262.743C36.015 262.768 36.1011 262.944 36.0223 263.087C35.9471 263.225 35.8756 263.366 35.8078 263.505C35.6905 263.76 35.5841 264.039 35.5035 264.327C35.4228 264.615 35.3696 264.912 35.3586 265.203C35.3458 265.559 35.4558 265.905 35.6043 266.217C35.9031 266.794 36.4128 267.233 37.0416 267.542C38.2846 268.14 39.7788 268.428 41.1593 268.554C44.2173 268.826 47.378 268.631 50.4176 268.195C56.8196 267.438 63.0585 265.757 68.9618 263.078C72.007 261.698 76.7186 259.008 78.0001 255.622V255.62ZM40.415 256.519L43.1796 256.069C43.2438 256.058 43.3043 256.036 43.3575 256.002C43.9075 255.648 44.4611 255.309 45.013 254.99C45.1321 254.92 45.167 254.762 45.0863 254.65L44.7215 254.143C44.6573 254.053 44.54 254.02 44.4391 254.064C43.0183 254.672 41.6048 255.345 40.2646 256.082C40.0336 256.209 40.1546 256.561 40.415 256.519Z" fill="#F7F4DC"/>
</g>
<rect x="33" y="237" width="46" height="46" rx="13" stroke="#1A1112" stroke-width="2"/>
</g>
<defs>
<filter id="filter0_iii_32_306" x="887" y="224" width="64" height="72" filterUnits="userSpaceOnUse" color-interpolation-filters="sRGB">
<feFlood flood-opacity="0" result="BackgroundImageFix"/>
<feBlend mode="normal" in="SourceGraphic" in2="BackgroundImageFix" result="shape"/>
<feColorMatrix in="SourceAlpha" type="matrix" values="0 0 0 0 0 0 0 0 0 0 0 0 0 0 0 0 0 0 127 0" result="hardAlpha"/>
<feOffset dy="4"/>
<feGaussianBlur stdDeviation="2"/>
<feComposite in2="hardAlpha" operator="arithmetic" k2="-1" k3="1"/>
<feColorMatrix type="matrix" values="0 0 0 0 1 0 0 0 0 0.729412 0 0 0 0 0 0 0 0 0.0862745 0"/>
<feBlend mode="normal" in2="shape" result="effect1_innerShadow_32_306"/>
<feColorMatrix in="SourceAlpha" type="matrix" values="0 0 0 0 0 0 0 0 0 0 0 0 0 0 0 0 0 0 127 0" result="hardAlpha"/>
<feOffset dy="-4"/>
<feGaussianBlur stdDeviation="5"/>
<feComposite in2="hardAlpha" operator="arithmetic" k2="-1" k3="1"/>
<feColorMatrix type="matrix" values="0 0 0 0 0 0 0 0 0 0 0 0 0 0 0 0 0 0 0.16 0"/>
<feBlend mode="normal" in2="effect1_innerShadow_32_306" result="effect2_innerShadow_32_306"/>
<feColorMatrix in="SourceAlpha" type="matrix" values="0 0 0 0 0 0 0 0 0 0 0 0 0 0 0 0 0 0 127 0" result="hardAlpha"/>
<feOffset dy="4"/>
<feComposite in2="hardAlpha" operator="arithmetic" k2="-1" k3="1"/>
<feColorMatrix type="matrix" values="0 0 0 0 1 0 0 0 0 1 0 0 0 0 1 0 0 0 0.2 0"/>
<feBlend mode="normal" in2="effect2_innerShadow_32_306" result="effect3_innerShadow_32_306"/>
</filter>
<filter id="filter1_i_32_306" x="32" y="236" width="48" height="48" filterUnits="userSpaceOnUse" color-interpolation-filters="sRGB">
<feFlood flood-opacity="0" result="BackgroundImageFix"/>
<feBlend mode="normal" in="SourceGraphic" in2="BackgroundImageFix" result="shape"/>
<feColorMatrix in="SourceAlpha" type="matrix" values="0 0 0 0 0 0 0 0 0 0 0 0 0 0 0 0 0 0 127 0" result="hardAlpha"/>
<feOffset dy="4"/>
<feComposite in2="hardAlpha" operator="arithmetic" k2="-1" k3="1"/>
<feColorMatrix type="matrix" values="0 0 0 0 1 0 0 0 0 1 0 0 0 0 1 0 0 0 0.32 0"/>
<feBlend mode="normal" in2="shape" result="effect1_innerShadow_32_306"/>
</filter>
<radialGradient id="paint0_radial_32_306" cx="0" cy="0" r="1" gradientUnits="userSpaceOnUse" gradientTransform="translate(951 228) rotate(135) scale(90.5097)">
<stop stop-color="#FFC730" stop-opacity="0.0862745"/>
<stop offset="1" stop-color="#C6000B" stop-opacity="0.905882"/>
</radialGradient>
<radialGradient id="paint1_radial_32_306" cx="0" cy="0" r="1" gradientUnits="userSpaceOnUse" gradientTransform="translate(56.8225 239.797) rotate(31.9267) scale(38.2026 39.7307)">
<stop offset="0.29" stop-color="#FFBA4B"/>
<stop offset="0.33" stop-color="#FEAC3F"/>
<stop offset="0.45" stop-color="#FC9026"/>
<stop offset="0.55" stop-color="#FB7F17"/>
<stop offset="0.62" stop-color="#FB7912"/>
<stop offset="0.7" stop-color="#F96D15"/>
<stop offset="0.82" stop-color="#F75E1A"/>
<stop offset="0.93" stop-color="#F75A1C"/>
</radialGradient>
<clipPath id="clip0_32_306">
<rect x="34" y="238" width="44" height="44" rx="12" fill="white"/>
</clipPath>
</defs>
</svg>
