<svg width="640" height="160" viewBox="0 0 640 160" fill="none" xmlns="http://www.w3.org/2000/svg">
<rect width="640" height="160" fill="white"/>
<rect x="0.5" y="0.5" width="639" height="159" stroke="black" stroke-opacity="0.16"/>
<g filter="url(#filter0_iii_1_345)">
<g clip-path="url(#clip0_1_345)">
<rect x="443" y="114" width="32" height="32" rx="10" fill="#EF3A21"/>
<g filter="url(#filter1_f_1_345)">
<rect x="462" y="101" width="26" height="26" rx="13" fill="#FF3662" fill-opacity="0.717647"/>
</g>
<g filter="url(#filter2_f_1_345)">
<rect x="434" y="105" width="18" height="18" rx="9" fill="#FFDD7F" fill-opacity="0.7"/>
</g>
<g filter="url(#filter3_f_1_345)">
<rect x="424" y="127" width="38" height="38" rx="19" fill="#D10001" fill-opacity="0.807843"/>
</g>
<path d="M456.584 138.416L458 137L452 131L450.584 132.416C449.803 133.197 449.803 134.463 450.584 135.244L453.756 138.416C454.537 139.197 455.803 139.197 456.584 138.416Z" fill="white"/>
<path opacity="0.25" d="M466.49 131.18L467.97 122.67C467.99 122.557 468 122.442 468 122.327V122C468 121.448 467.552 121 467 121H466.673C466.558 121 466.443 121.01 466.33 121.03L457.82 122.51C456.073 122.813 454.618 124.02 453.995 125.68L452 131L458 137L463.32 135.005C464.98 134.382 466.187 132.927 466.49 131.18Z" fill="white"/>
<path fill-rule="evenodd" clip-rule="evenodd" d="M466.293 121.293C466.683 120.902 467.317 120.902 467.707 121.293C468.098 121.683 468.098 122.317 467.707 122.707L461.932 128.482C461.976 128.647 462 128.821 462 129C462 130.105 461.105 131 460 131C458.895 131 458 130.105 458 129C458 127.895 458.895 127 460 127C460.179 127 460.353 127.024 460.518 127.068L466.293 121.293Z" fill="white"/>
</g>
<rect x="443.5" y="114.5" width="31" height="31" rx="9.5" stroke="#4B0A00" stroke-opacity="0.890196"/>
</g>
<path d="M491.784 132.076C491.784 131.159 491.949 130.3 492.28 129.5C492.611 128.7 493.075 128.007 493.672 127.42C494.28 126.823 494.989 126.359 495.8 126.028C496.611 125.697 497.496 125.532 498.456 125.532C499.341 125.532 500.157 125.676 500.904 125.964C501.651 126.241 502.296 126.641 502.84 127.164C503.395 127.687 503.821 128.316 504.12 129.052C504.429 129.788 504.584 130.609 504.584 131.516C504.584 132.092 504.515 132.631 504.376 133.132C504.237 133.633 504.035 134.076 503.768 134.46C503.512 134.833 503.187 135.127 502.792 135.34C502.408 135.553 501.96 135.66 501.448 135.66C501.011 135.66 500.637 135.575 500.328 135.404C500.029 135.233 499.805 135.015 499.656 134.748C499.464 134.833 499.245 134.929 499 135.036C498.755 135.132 498.509 135.228 498.264 135.324C498.029 135.42 497.811 135.5 497.608 135.564C497.405 135.628 497.251 135.66 497.144 135.66C496.973 135.66 496.755 135.601 496.488 135.484C496.232 135.356 496.003 135.153 495.8 134.876C495.608 134.599 495.512 134.231 495.512 133.772C495.501 133.271 495.635 132.839 495.912 132.476C496.2 132.103 496.632 131.873 497.208 131.788L499.48 131.42V130.892C499.48 130.625 499.464 130.369 499.432 130.124C499.4 129.879 499.32 129.681 499.192 129.532C499.064 129.383 498.867 129.308 498.6 129.308C498.461 129.308 498.232 129.335 497.912 129.388C497.592 129.431 497.293 129.489 497.016 129.564C497.005 129.767 496.989 129.969 496.968 130.172C496.947 130.375 496.925 130.599 496.904 130.844H496.04C496.008 130.535 495.981 130.22 495.96 129.9C495.949 129.569 495.944 129.265 495.944 128.988C496.253 128.924 496.563 128.865 496.872 128.812C497.181 128.748 497.469 128.695 497.736 128.652C498.003 128.609 498.232 128.577 498.424 128.556C498.627 128.524 498.765 128.508 498.84 128.508C499.363 128.508 499.757 128.62 500.024 128.844C500.301 129.057 500.488 129.351 500.584 129.724C500.691 130.097 500.744 130.508 500.744 130.956V133.436C500.744 133.873 500.808 134.215 500.936 134.46C501.075 134.695 501.315 134.812 501.656 134.812C501.944 134.812 502.195 134.727 502.408 134.556C502.621 134.385 502.797 134.156 502.936 133.868C503.085 133.569 503.192 133.228 503.256 132.844C503.331 132.46 503.368 132.049 503.368 131.612C503.368 130.524 503.16 129.596 502.744 128.828C502.328 128.06 501.747 127.473 501 127.068C500.253 126.652 499.395 126.444 498.424 126.444C497.411 126.444 496.499 126.673 495.688 127.132C494.888 127.591 494.253 128.241 493.784 129.084C493.315 129.916 493.08 130.897 493.08 132.028C493.08 133.148 493.299 134.135 493.736 134.988C494.173 135.831 494.792 136.487 495.592 136.956C496.392 137.425 497.336 137.66 498.424 137.66C498.84 137.66 499.235 137.633 499.608 137.58C499.992 137.537 500.376 137.452 500.76 137.324C501.155 137.207 501.565 137.047 501.992 136.844C502.088 136.961 502.157 137.068 502.2 137.164C502.243 137.271 502.269 137.399 502.28 137.548C501.843 137.772 501.411 137.959 500.984 138.108C500.568 138.257 500.136 138.364 499.688 138.428C499.24 138.503 498.755 138.54 498.232 138.54C497.261 138.54 496.376 138.375 495.576 138.044C494.787 137.713 494.109 137.255 493.544 136.668C492.979 136.092 492.541 135.409 492.232 134.62C491.933 133.831 491.784 132.983 491.784 132.076ZM496.84 133.708C496.84 134.039 496.915 134.295 497.064 134.476C497.224 134.657 497.395 134.748 497.576 134.748C497.704 134.748 497.928 134.7 498.248 134.604C498.579 134.497 498.995 134.348 499.496 134.156V132.204L497.976 132.492C497.56 132.567 497.267 132.716 497.096 132.94C496.925 133.153 496.84 133.409 496.84 133.708ZM505.841 123.244C506.118 123.223 506.417 123.201 506.737 123.18C507.068 123.148 507.393 123.121 507.713 123.1C508.044 123.068 508.348 123.041 508.625 123.02C508.593 123.255 508.566 123.516 508.545 123.804C508.534 124.081 508.529 124.332 508.529 124.556V130.62L510.177 130.524L512.193 127.884L511.025 127.708C511.014 127.655 511.004 127.607 510.993 127.564C510.982 127.511 510.977 127.457 510.977 127.404C510.977 127.287 510.998 127.175 511.041 127.068H514.641C514.684 127.153 514.705 127.26 514.705 127.388C514.705 127.516 514.678 127.623 514.625 127.708L513.569 127.884L511.137 130.796L513.633 134.684L514.737 134.892C514.769 134.945 514.79 134.999 514.801 135.052C514.812 135.095 514.817 135.137 514.817 135.18C514.817 135.297 514.79 135.404 514.737 135.5H512.289L509.793 131.5L508.529 131.436V134.7L509.553 134.892C509.585 134.945 509.606 134.999 509.617 135.052C509.628 135.095 509.633 135.137 509.633 135.18C509.633 135.297 509.606 135.404 509.553 135.5H505.873C505.83 135.415 505.809 135.308 505.809 135.18C505.809 135.063 505.825 134.967 505.857 134.892L506.929 134.7V123.98L505.841 123.868C505.809 123.74 505.793 123.633 505.793 123.548C505.793 123.452 505.809 123.351 505.841 123.244ZM515.345 131.324C515.345 130.428 515.51 129.655 515.841 129.004C516.182 128.343 516.641 127.831 517.217 127.468C517.804 127.095 518.465 126.908 519.201 126.908C519.958 126.908 520.582 127.1 521.073 127.484C521.574 127.868 521.948 128.391 522.193 129.052C522.438 129.703 522.561 130.449 522.561 131.292L517.025 131.628C517.1 132.588 517.356 133.34 517.793 133.884C518.241 134.428 518.849 134.7 519.617 134.7C520.054 134.7 520.481 134.641 520.897 134.524C521.324 134.396 521.734 134.209 522.129 133.964C522.225 134.049 522.3 134.151 522.353 134.268C522.417 134.385 522.454 134.513 522.465 134.652C522.006 134.983 521.516 135.233 520.993 135.404C520.481 135.575 519.958 135.66 519.425 135.66C518.572 135.66 517.841 135.484 517.233 135.132C516.625 134.769 516.156 134.263 515.825 133.612C515.505 132.951 515.345 132.188 515.345 131.324ZM517.025 130.764L520.929 130.508C520.918 130.049 520.849 129.612 520.721 129.196C520.593 128.78 520.396 128.439 520.129 128.172C519.862 127.905 519.516 127.772 519.089 127.772C518.673 127.772 518.316 127.9 518.017 128.156C517.718 128.401 517.484 128.748 517.313 129.196C517.153 129.644 517.057 130.167 517.025 130.764ZM523.112 127.388C523.112 127.281 523.134 127.175 523.176 127.068H526.952C526.995 127.153 527.016 127.26 527.016 127.388C527.016 127.505 526.995 127.607 526.952 127.692L525.848 127.868L528.072 133.74L530.344 127.836L529.288 127.676C529.235 127.569 529.208 127.473 529.208 127.388C529.208 127.281 529.235 127.175 529.288 127.068H532.248C532.291 127.153 532.312 127.26 532.312 127.388C532.312 127.495 532.296 127.591 532.264 127.676L531.368 127.836L528.216 135.5H527.208L524.072 127.852L523.192 127.692C523.16 127.628 523.139 127.575 523.128 127.532C523.118 127.479 523.112 127.431 523.112 127.388ZM533.094 135.18C533.094 135.073 533.115 134.977 533.158 134.892L534.23 134.7V127.82L533.158 127.692C533.115 127.585 533.094 127.484 533.094 127.388C533.094 127.281 533.11 127.175 533.142 127.068C533.408 127.057 533.707 127.047 534.038 127.036C534.368 127.015 534.699 126.993 535.03 126.972C535.36 126.951 535.659 126.929 535.926 126.908C535.894 127.185 535.867 127.468 535.846 127.756C535.835 128.044 535.83 128.353 535.83 128.684V134.7L536.87 134.892C536.923 134.967 536.95 135.063 536.95 135.18C536.95 135.233 536.944 135.287 536.934 135.34C536.923 135.393 536.902 135.447 536.87 135.5H533.158C533.115 135.415 533.094 135.308 533.094 135.18ZM534.95 125.788C534.651 125.788 534.4 125.681 534.198 125.468C533.995 125.255 533.894 125.009 533.894 124.732C533.894 124.444 533.995 124.193 534.198 123.98C534.4 123.767 534.651 123.66 534.95 123.66C535.248 123.66 535.499 123.767 535.702 123.98C535.904 124.193 536.006 124.444 536.006 124.732C536.006 125.009 535.904 125.255 535.702 125.468C535.499 125.681 535.248 125.788 534.95 125.788ZM538.172 135.18C538.172 135.063 538.193 134.967 538.236 134.892L539.308 134.7V127.82L538.236 127.692C538.193 127.585 538.172 127.484 538.172 127.388C538.172 127.281 538.188 127.175 538.22 127.068C538.497 127.057 538.796 127.041 539.116 127.02C539.446 126.999 539.772 126.983 540.092 126.972C540.422 126.951 540.721 126.929 540.988 126.908C540.977 127.068 540.961 127.239 540.94 127.42C540.929 127.601 540.918 127.772 540.908 127.932C541.302 127.772 541.697 127.617 542.092 127.468C542.497 127.308 542.844 127.175 543.132 127.068C543.43 126.961 543.617 126.908 543.692 126.908C544.3 126.908 544.769 127.015 545.1 127.228C545.43 127.441 545.66 127.745 545.788 128.14C545.926 128.535 545.996 128.993 545.996 129.516V134.716L547.02 134.892C547.052 134.945 547.073 134.999 547.084 135.052C547.094 135.095 547.1 135.143 547.1 135.196C547.1 135.303 547.078 135.404 547.036 135.5H543.356C543.313 135.415 543.292 135.308 543.292 135.18C543.292 135.063 543.308 134.967 543.34 134.892L544.396 134.7V129.804C544.396 129.42 544.364 129.1 544.3 128.844C544.246 128.577 544.14 128.375 543.98 128.236C543.82 128.087 543.574 128.012 543.244 128.012C543.169 128.012 543.009 128.039 542.764 128.092C542.518 128.145 542.23 128.22 541.9 128.316C541.58 128.412 541.249 128.508 540.908 128.604V134.7L541.932 134.892C541.964 134.945 541.985 134.999 541.996 135.052C542.006 135.095 542.012 135.137 542.012 135.18C542.012 135.297 541.985 135.404 541.932 135.5H538.236C538.193 135.415 538.172 135.308 538.172 135.18ZM547.977 127.452C547.977 127.356 547.993 127.26 548.025 127.164L549.113 127.068L549.849 125.02H550.697V127.068H552.921V127.9H550.697V133.1C550.697 133.495 550.718 133.815 550.761 134.06C550.814 134.305 550.899 134.481 551.017 134.588C551.145 134.695 551.321 134.748 551.545 134.748C551.822 134.748 552.094 134.7 552.361 134.604C552.638 134.508 552.894 134.391 553.129 134.252C553.246 134.348 553.321 134.465 553.353 134.604C553.385 134.732 553.385 134.844 553.353 134.94C552.958 135.217 552.553 135.404 552.137 135.5C551.731 135.607 551.39 135.66 551.113 135.66C550.409 135.66 549.897 135.463 549.577 135.068C549.267 134.673 549.113 134.06 549.113 133.228V127.884L548.025 127.788C547.993 127.692 547.977 127.58 547.977 127.452ZM553.706 127.388C553.706 127.281 553.727 127.175 553.77 127.068H557.45C557.493 127.153 557.514 127.26 557.514 127.388C557.514 127.505 557.493 127.607 557.45 127.692L556.394 127.868L558.65 133.82L560.922 127.852L559.802 127.676C559.749 127.569 559.722 127.473 559.722 127.388C559.722 127.281 559.743 127.175 559.786 127.068H562.81C562.853 127.153 562.874 127.26 562.874 127.388C562.874 127.495 562.853 127.591 562.81 127.676L561.914 127.852L558.922 135.196C558.687 135.74 558.458 136.209 558.234 136.604C558.021 136.999 557.786 137.34 557.53 137.628C557.274 137.916 556.975 138.167 556.634 138.38C556.293 138.593 555.887 138.801 555.418 139.004C555.301 138.844 555.205 138.657 555.13 138.444C555.055 138.231 555.023 137.996 555.034 137.74C555.546 137.559 555.978 137.367 556.33 137.164C556.682 136.972 556.97 136.737 557.194 136.46C557.429 136.193 557.621 135.879 557.77 135.516L554.682 127.868L553.786 127.692C553.754 127.628 553.733 127.575 553.722 127.532C553.711 127.479 553.706 127.431 553.706 127.388ZM562.552 138.38C563.299 138.092 563.832 137.623 564.152 136.972C564.472 136.332 564.632 135.452 564.632 134.332V127.82L563.544 127.692C563.512 127.585 563.496 127.484 563.496 127.388C563.496 127.281 563.512 127.175 563.544 127.068C563.832 127.047 564.131 127.031 564.44 127.02C564.76 126.999 565.075 126.983 565.384 126.972C565.694 126.951 566.003 126.929 566.312 126.908C566.28 127.185 566.254 127.468 566.232 127.756C566.222 128.044 566.216 128.337 566.216 128.636V134.332C566.216 135.153 566.083 135.895 565.816 136.556C565.56 137.217 565.171 137.761 564.648 138.188C564.136 138.615 563.502 138.892 562.744 139.02C562.691 138.913 562.648 138.812 562.616 138.716C562.584 138.631 562.563 138.519 562.552 138.38ZM565.368 125.788C565.07 125.788 564.819 125.681 564.616 125.468C564.414 125.255 564.312 125.009 564.312 124.732C564.312 124.444 564.414 124.193 564.616 123.98C564.819 123.767 565.07 123.66 565.368 123.66C565.667 123.66 565.912 123.767 566.104 123.98C566.307 124.193 566.408 124.444 566.408 124.732C566.408 125.009 566.307 125.255 566.104 125.468C565.912 125.681 565.667 125.788 565.368 125.788ZM569.272 135.996H568.088L570.28 129.228L572.152 123.02H573.352L571.288 129.308L569.272 135.996ZM579.245 128.188C578.829 128.049 578.477 127.948 578.189 127.884C577.901 127.82 577.682 127.788 577.533 127.788C577.074 127.788 576.669 127.937 576.317 128.236C575.965 128.535 575.693 128.951 575.501 129.484C575.309 130.007 575.213 130.625 575.213 131.34C575.213 131.831 575.266 132.284 575.373 132.7C575.49 133.116 575.64 133.479 575.821 133.788C576.013 134.087 576.237 134.321 576.493 134.492C576.749 134.652 577.021 134.732 577.309 134.732C577.373 134.732 577.512 134.705 577.725 134.652C577.949 134.588 578.194 134.508 578.461 134.412C578.738 134.305 579 134.204 579.245 134.108V128.188ZM578.157 123.868C578.125 123.74 578.109 123.633 578.109 123.548C578.109 123.452 578.125 123.351 578.157 123.244C578.466 123.212 578.776 123.185 579.085 123.164C579.394 123.132 579.704 123.105 580.013 123.084C580.322 123.063 580.632 123.041 580.941 123.02C580.909 123.255 580.882 123.532 580.861 123.852C580.85 124.161 580.845 124.46 580.845 124.748V134.716L581.901 134.876C581.922 134.929 581.938 134.983 581.949 135.036C581.96 135.079 581.965 135.127 581.965 135.18C581.965 135.287 581.944 135.393 581.901 135.5H579.677L579.437 134.732C579.149 134.871 578.845 135.015 578.525 135.164C578.216 135.303 577.938 135.42 577.693 135.516C577.448 135.612 577.277 135.66 577.181 135.66C576.456 135.66 575.816 135.479 575.261 135.116C574.717 134.753 574.29 134.252 573.981 133.612C573.672 132.961 573.517 132.209 573.517 131.356C573.517 130.428 573.704 129.633 574.077 128.972C574.45 128.311 574.946 127.804 575.565 127.452C576.194 127.089 576.877 126.908 577.613 126.908C577.752 126.908 577.976 126.951 578.285 127.036C578.605 127.111 578.925 127.196 579.245 127.292V123.98L578.157 123.868ZM583.064 131.324C583.064 130.428 583.229 129.655 583.56 129.004C583.901 128.343 584.36 127.831 584.936 127.468C585.522 127.095 586.184 126.908 586.92 126.908C587.677 126.908 588.301 127.1 588.792 127.484C589.293 127.868 589.666 128.391 589.912 129.052C590.157 129.703 590.28 130.449 590.28 131.292L584.744 131.628C584.818 132.588 585.074 133.34 585.512 133.884C585.96 134.428 586.568 134.7 587.336 134.7C587.773 134.7 588.2 134.641 588.616 134.524C589.042 134.396 589.453 134.209 589.848 133.964C589.944 134.049 590.018 134.151 590.072 134.268C590.136 134.385 590.173 134.513 590.184 134.652C589.725 134.983 589.234 135.233 588.712 135.404C588.2 135.575 587.677 135.66 587.144 135.66C586.29 135.66 585.56 135.484 584.952 135.132C584.344 134.769 583.874 134.263 583.544 133.612C583.224 132.951 583.064 132.188 583.064 131.324ZM584.744 130.764L588.648 130.508C588.637 130.049 588.568 129.612 588.44 129.196C588.312 128.78 588.114 128.439 587.848 128.172C587.581 127.905 587.234 127.772 586.808 127.772C586.392 127.772 586.034 127.9 585.736 128.156C585.437 128.401 585.202 128.748 585.032 129.196C584.872 129.644 584.776 130.167 584.744 130.764ZM591.689 132.908H592.553L593.033 134.428C593.374 134.545 593.699 134.631 594.009 134.684C594.329 134.737 594.569 134.764 594.729 134.764C595.177 134.764 595.561 134.663 595.881 134.46C596.211 134.257 596.377 133.927 596.377 133.468C596.377 133.191 596.286 132.961 596.105 132.78C595.923 132.588 595.689 132.428 595.401 132.3C595.113 132.172 594.798 132.049 594.457 131.932C594.041 131.783 593.63 131.612 593.225 131.42C592.819 131.228 592.483 130.967 592.217 130.636C591.961 130.305 591.833 129.873 591.833 129.34C591.833 128.828 591.955 128.391 592.201 128.028C592.446 127.665 592.787 127.388 593.225 127.196C593.673 127.004 594.201 126.908 594.809 126.908C594.894 126.908 595.065 126.929 595.321 126.972C595.587 127.015 595.907 127.068 596.281 127.132C596.665 127.196 597.049 127.276 597.433 127.372C597.422 127.585 597.406 127.825 597.385 128.092C597.374 128.348 597.358 128.604 597.337 128.86C597.315 129.105 597.294 129.335 597.273 129.548H596.409L596.201 128.028C595.881 127.964 595.593 127.911 595.337 127.868C595.091 127.815 594.915 127.788 594.809 127.788C594.35 127.788 593.977 127.889 593.689 128.092C593.411 128.295 593.273 128.604 593.273 129.02C593.273 129.319 593.363 129.564 593.545 129.756C593.726 129.937 593.966 130.092 594.265 130.22C594.574 130.348 594.91 130.476 595.273 130.604C595.699 130.753 596.105 130.929 596.489 131.132C596.873 131.324 597.187 131.575 597.433 131.884C597.689 132.193 597.817 132.604 597.817 133.116C597.817 133.628 597.678 134.076 597.401 134.46C597.123 134.833 596.745 135.127 596.265 135.34C595.795 135.553 595.267 135.66 594.681 135.66C594.553 135.66 594.339 135.639 594.041 135.596C593.753 135.564 593.411 135.505 593.017 135.42C592.633 135.335 592.243 135.223 591.849 135.084C591.806 134.657 591.774 134.279 591.753 133.948C591.731 133.617 591.71 133.271 591.689 132.908ZM599.078 135.18C599.078 135.073 599.099 134.977 599.142 134.892L600.214 134.7V127.82L599.142 127.692C599.099 127.585 599.078 127.484 599.078 127.388C599.078 127.281 599.094 127.175 599.126 127.068C599.393 127.057 599.691 127.047 600.022 127.036C600.353 127.015 600.683 126.993 601.014 126.972C601.345 126.951 601.643 126.929 601.91 126.908C601.878 127.185 601.851 127.468 601.83 127.756C601.819 128.044 601.814 128.353 601.814 128.684V134.7L602.854 134.892C602.907 134.967 602.934 135.063 602.934 135.18C602.934 135.233 602.929 135.287 602.918 135.34C602.907 135.393 602.886 135.447 602.854 135.5H599.142C599.099 135.415 599.078 135.308 599.078 135.18ZM600.934 125.788C600.635 125.788 600.385 125.681 600.182 125.468C599.979 125.255 599.878 125.009 599.878 124.732C599.878 124.444 599.979 124.193 600.182 123.98C600.385 123.767 600.635 123.66 600.934 123.66C601.233 123.66 601.483 123.767 601.686 123.98C601.889 124.193 601.99 124.444 601.99 124.732C601.99 125.009 601.889 125.255 601.686 125.468C601.483 125.681 601.233 125.788 600.934 125.788ZM603.9 137.084C603.9 136.7 604.001 136.353 604.204 136.044C604.417 135.735 604.711 135.479 605.084 135.276C605.009 135.201 604.956 135.121 604.924 135.036C604.892 134.94 604.876 134.839 604.876 134.732C604.876 134.487 604.94 134.183 605.068 133.82C605.207 133.447 605.42 133.031 605.708 132.572C605.303 132.295 604.988 131.964 604.764 131.58C604.54 131.185 604.428 130.684 604.428 130.076C604.428 129.425 604.567 128.871 604.844 128.412C605.132 127.943 605.516 127.575 605.996 127.308C606.476 127.041 607.009 126.908 607.596 126.908C607.884 126.908 608.151 126.945 608.396 127.02C608.641 127.084 608.871 127.185 609.084 127.324L611.388 126.764C611.463 126.839 611.516 126.935 611.548 127.052C611.591 127.159 611.612 127.276 611.612 127.404C611.612 127.585 611.575 127.761 611.5 127.932L609.756 127.836C610.055 128.135 610.284 128.46 610.444 128.812C610.615 129.153 610.7 129.559 610.7 130.028C610.7 130.668 610.551 131.212 610.252 131.66C609.953 132.108 609.564 132.455 609.084 132.7C608.604 132.935 608.076 133.052 607.5 133.052C607.308 133.052 607.111 133.041 606.908 133.02C606.705 132.988 606.519 132.94 606.348 132.876C606.252 133.121 606.177 133.383 606.124 133.66C606.071 133.937 606.044 134.172 606.044 134.364H608.844C609.633 134.364 610.257 134.545 610.716 134.908C611.185 135.26 611.42 135.745 611.42 136.364C611.42 137.164 611.047 137.804 610.3 138.284C609.564 138.775 608.54 139.02 607.228 139.02C606.151 139.02 605.324 138.844 604.748 138.492C604.183 138.14 603.9 137.671 603.9 137.084ZM605.212 136.828C605.212 137.223 605.393 137.532 605.756 137.756C606.119 137.98 606.663 138.092 607.388 138.092C608.22 138.092 608.86 137.943 609.308 137.644C609.767 137.356 609.996 137.004 609.996 136.588C609.996 136.257 609.879 136.001 609.644 135.82C609.409 135.649 609.084 135.564 608.668 135.564H605.964C605.687 135.756 605.489 135.953 605.372 136.156C605.265 136.369 605.212 136.593 605.212 136.828ZM605.932 130.108C605.932 130.833 606.076 131.372 606.364 131.724C606.663 132.076 607.057 132.252 607.548 132.252C608.049 132.252 608.444 132.071 608.732 131.708C609.031 131.345 609.18 130.801 609.18 130.076C609.18 129.532 609.105 129.089 608.956 128.748C608.807 128.396 608.609 128.14 608.364 127.98C608.129 127.82 607.863 127.74 607.564 127.74C607.287 127.74 607.02 127.815 606.764 127.964C606.519 128.113 606.316 128.364 606.156 128.716C606.007 129.057 605.932 129.521 605.932 130.108ZM612.734 135.18C612.734 135.063 612.755 134.967 612.798 134.892L613.87 134.7V127.82L612.798 127.692C612.755 127.585 612.734 127.484 612.734 127.388C612.734 127.281 612.75 127.175 612.782 127.068C613.059 127.057 613.358 127.041 613.678 127.02C614.009 126.999 614.334 126.983 614.654 126.972C614.985 126.951 615.283 126.929 615.55 126.908C615.539 127.068 615.523 127.239 615.502 127.42C615.491 127.601 615.481 127.772 615.47 127.932C615.865 127.772 616.259 127.617 616.654 127.468C617.059 127.308 617.406 127.175 617.694 127.068C617.993 126.961 618.179 126.908 618.254 126.908C618.862 126.908 619.331 127.015 619.662 127.228C619.993 127.441 620.222 127.745 620.35 128.14C620.489 128.535 620.558 128.993 620.558 129.516V134.716L621.582 134.892C621.614 134.945 621.635 134.999 621.646 135.052C621.657 135.095 621.662 135.143 621.662 135.196C621.662 135.303 621.641 135.404 621.598 135.5H617.918C617.875 135.415 617.854 135.308 617.854 135.18C617.854 135.063 617.87 134.967 617.902 134.892L618.958 134.7V129.804C618.958 129.42 618.926 129.1 618.862 128.844C618.809 128.577 618.702 128.375 618.542 128.236C618.382 128.087 618.137 128.012 617.806 128.012C617.731 128.012 617.571 128.039 617.326 128.092C617.081 128.145 616.793 128.22 616.462 128.316C616.142 128.412 615.811 128.508 615.47 128.604V134.7L616.494 134.892C616.526 134.945 616.547 134.999 616.558 135.052C616.569 135.095 616.574 135.137 616.574 135.18C616.574 135.297 616.547 135.404 616.494 135.5H612.798C612.755 135.415 612.734 135.308 612.734 135.18Z" fill="black" fill-opacity="0.9"/>
<path d="M52.84 133.08C52.6467 133.08 52.45 133.063 52.25 133.03C52.0567 132.997 51.8733 132.937 51.7 132.85C51.5267 132.757 51.37 132.64 51.23 132.5C51.09 132.353 50.9767 132.193 50.89 132.02C50.8033 131.84 50.7433 131.653 50.71 131.46C50.6767 131.26 50.66 131.063 50.66 130.87V127.91C50.66 127.717 50.6767 127.523 50.71 127.33C50.7433 127.13 50.8033 126.943 50.89 126.77C50.9767 126.59 51.09 126.43 51.23 126.29C51.37 126.143 51.5267 126.027 51.7 125.94C51.8733 125.847 52.0567 125.783 52.25 125.75C52.45 125.717 52.6467 125.7 52.84 125.7C53.0333 125.7 53.2267 125.717 53.42 125.75C53.62 125.783 53.8067 125.847 53.98 125.94C54.1533 126.027 54.31 126.143 54.45 126.29C54.59 126.43 54.7033 126.59 54.79 126.77C54.8767 126.943 54.9367 127.13 54.97 127.33C55.0033 127.523 55.02 127.717 55.02 127.91V130.87C55.02 131.063 55.0033 131.26 54.97 131.46C54.9367 131.653 54.8767 131.84 54.79 132.02C54.7033 132.193 54.59 132.353 54.45 132.5C54.31 132.64 54.1533 132.757 53.98 132.85C53.8067 132.937 53.62 132.997 53.42 133.03C53.2267 133.063 53.0333 133.08 52.84 133.08ZM52.84 132.26C52.96 132.26 53.0767 132.25 53.19 132.23C53.31 132.203 53.42 132.16 53.52 132.1C53.62 132.04 53.71 131.963 53.79 131.87C53.87 131.777 53.93 131.677 53.97 131.57C54.0167 131.457 54.05 131.343 54.07 131.23C54.09 131.11 54.1 130.99 54.1 130.87V127.91C54.1 127.79 54.09 127.673 54.07 127.56C54.05 127.44 54.0167 127.327 53.97 127.22C53.93 127.107 53.87 127.003 53.79 126.91C53.71 126.817 53.62 126.74 53.52 126.68C53.42 126.62 53.31 126.58 53.19 126.56C53.0767 126.533 52.96 126.52 52.84 126.52C52.72 126.52 52.6 126.533 52.48 126.56C52.3667 126.58 52.26 126.62 52.16 126.68C52.06 126.74 51.97 126.817 51.89 126.91C51.81 127.003 51.7467 127.107 51.7 127.22C51.66 127.327 51.63 127.44 51.61 127.56C51.59 127.673 51.58 127.79 51.58 127.91V130.87C51.58 130.99 51.59 131.11 51.61 131.23C51.63 131.343 51.66 131.457 51.7 131.57C51.7467 131.677 51.81 131.777 51.89 131.87C51.97 131.963 52.06 132.04 52.16 132.1C52.26 132.16 52.3667 132.203 52.48 132.23C52.6 132.25 52.72 132.26 52.84 132.26ZM58.5136 133.08C58.3336 133.08 58.1536 133.067 57.9736 133.04C57.8003 133.02 57.6303 132.977 57.4636 132.91C57.2969 132.843 57.1403 132.757 56.9936 132.65C56.8469 132.537 56.7236 132.407 56.6236 132.26C56.5236 132.113 56.4469 131.953 56.3936 131.78C56.3469 131.607 56.3236 131.43 56.3236 131.25V131.17H57.2436V131.21C57.2436 131.37 57.2769 131.523 57.3436 131.67C57.4169 131.81 57.5136 131.927 57.6336 132.02C57.7603 132.113 57.9003 132.177 58.0536 132.21C58.2069 132.243 58.3603 132.26 58.5136 132.26C58.6669 132.26 58.8203 132.243 58.9736 132.21C59.1269 132.177 59.2636 132.113 59.3836 132.02C59.5103 131.92 59.6069 131.8 59.6736 131.66C59.7469 131.513 59.7836 131.363 59.7836 131.21C59.7836 131.03 59.7403 130.86 59.6536 130.7C59.5669 130.54 59.4569 130.403 59.3236 130.29C59.1903 130.177 59.0403 130.083 58.8736 130.01C58.7136 129.93 58.5536 129.857 58.3936 129.79C58.2336 129.723 58.0736 129.653 57.9136 129.58C57.7536 129.5 57.6003 129.41 57.4536 129.31C57.3069 129.21 57.1703 129.1 57.0436 128.98C56.9169 128.853 56.8069 128.717 56.7136 128.57C56.6203 128.417 56.5469 128.257 56.4936 128.09C56.4469 127.917 56.4236 127.74 56.4236 127.56C56.4236 127.387 56.4469 127.213 56.4936 127.04C56.5403 126.867 56.6103 126.707 56.7036 126.56C56.7969 126.407 56.9103 126.273 57.0436 126.16C57.1836 126.047 57.3336 125.957 57.4936 125.89C57.6603 125.817 57.8303 125.767 58.0036 125.74C58.1836 125.713 58.3603 125.7 58.5336 125.7C58.7069 125.7 58.8803 125.713 59.0536 125.74C59.2336 125.767 59.4036 125.813 59.5636 125.88C59.7236 125.947 59.8736 126.037 60.0136 126.15C60.1536 126.257 60.2703 126.383 60.3636 126.53C60.4569 126.677 60.5269 126.837 60.5736 127.01C60.6203 127.183 60.6436 127.357 60.6436 127.53V127.61H59.7236V127.57C59.7236 127.417 59.6936 127.27 59.6336 127.13C59.5736 126.99 59.4869 126.873 59.3736 126.78C59.2603 126.68 59.1269 126.613 58.9736 126.58C58.8269 126.54 58.6803 126.52 58.5336 126.52C58.3869 126.52 58.2369 126.54 58.0836 126.58C57.9369 126.613 57.8069 126.68 57.6936 126.78C57.5803 126.873 57.4936 126.993 57.4336 127.14C57.3736 127.28 57.3436 127.423 57.3436 127.57C57.3436 127.743 57.3836 127.913 57.4636 128.08C57.5503 128.24 57.6603 128.377 57.7936 128.49C57.9336 128.603 58.0836 128.697 58.2436 128.77C58.4036 128.843 58.5636 128.917 58.7236 128.99C58.8903 129.057 59.0536 129.13 59.2136 129.21C59.3736 129.283 59.5269 129.37 59.6736 129.47C59.8203 129.563 59.9569 129.673 60.0836 129.8C60.2103 129.927 60.3203 130.067 60.4136 130.22C60.5069 130.367 60.5769 130.527 60.6236 130.7C60.6769 130.867 60.7036 131.037 60.7036 131.21C60.7036 131.39 60.6769 131.57 60.6236 131.75C60.5769 131.923 60.5036 132.087 60.4036 132.24C60.3036 132.387 60.1803 132.517 60.0336 132.63C59.8936 132.743 59.7403 132.833 59.5736 132.9C59.4069 132.967 59.2336 133.013 59.0536 133.04C58.8736 133.067 58.6936 133.08 58.5136 133.08ZM64.1972 133.08C64.0172 133.08 63.8372 133.067 63.6572 133.04C63.4839 133.02 63.3139 132.977 63.1472 132.91C62.9805 132.843 62.8239 132.757 62.6772 132.65C62.5305 132.537 62.4072 132.407 62.3072 132.26C62.2072 132.113 62.1305 131.953 62.0772 131.78C62.0305 131.607 62.0072 131.43 62.0072 131.25V131.17H62.9272V131.21C62.9272 131.37 62.9605 131.523 63.0272 131.67C63.1005 131.81 63.1972 131.927 63.3172 132.02C63.4439 132.113 63.5839 132.177 63.7372 132.21C63.8905 132.243 64.0439 132.26 64.1972 132.26C64.3505 132.26 64.5039 132.243 64.6572 132.21C64.8105 132.177 64.9472 132.113 65.0672 132.02C65.1939 131.92 65.2905 131.8 65.3572 131.66C65.4305 131.513 65.4672 131.363 65.4672 131.21C65.4672 131.03 65.4239 130.86 65.3372 130.7C65.2505 130.54 65.1405 130.403 65.0072 130.29C64.8739 130.177 64.7239 130.083 64.5572 130.01C64.3972 129.93 64.2372 129.857 64.0772 129.79C63.9172 129.723 63.7572 129.653 63.5972 129.58C63.4372 129.5 63.2839 129.41 63.1372 129.31C62.9905 129.21 62.8539 129.1 62.7272 128.98C62.6005 128.853 62.4905 128.717 62.3972 128.57C62.3039 128.417 62.2305 128.257 62.1772 128.09C62.1305 127.917 62.1072 127.74 62.1072 127.56C62.1072 127.387 62.1305 127.213 62.1772 127.04C62.2239 126.867 62.2939 126.707 62.3872 126.56C62.4805 126.407 62.5939 126.273 62.7272 126.16C62.8672 126.047 63.0172 125.957 63.1772 125.89C63.3439 125.817 63.5139 125.767 63.6872 125.74C63.8672 125.713 64.0439 125.7 64.2172 125.7C64.3905 125.7 64.5639 125.713 64.7372 125.74C64.9172 125.767 65.0872 125.813 65.2472 125.88C65.4072 125.947 65.5572 126.037 65.6972 126.15C65.8372 126.257 65.9539 126.383 66.0472 126.53C66.1405 126.677 66.2105 126.837 66.2572 127.01C66.3039 127.183 66.3272 127.357 66.3272 127.53V127.61H65.4072V127.57C65.4072 127.417 65.3772 127.27 65.3172 127.13C65.2572 126.99 65.1705 126.873 65.0572 126.78C64.9439 126.68 64.8105 126.613 64.6572 126.58C64.5105 126.54 64.3639 126.52 64.2172 126.52C64.0705 126.52 63.9205 126.54 63.7672 126.58C63.6205 126.613 63.4905 126.68 63.3772 126.78C63.2639 126.873 63.1772 126.993 63.1172 127.14C63.0572 127.28 63.0272 127.423 63.0272 127.57C63.0272 127.743 63.0672 127.913 63.1472 128.08C63.2339 128.24 63.3439 128.377 63.4772 128.49C63.6172 128.603 63.7672 128.697 63.9272 128.77C64.0872 128.843 64.2472 128.917 64.4072 128.99C64.5739 129.057 64.7372 129.13 64.8972 129.21C65.0572 129.283 65.2105 129.37 65.3572 129.47C65.5039 129.563 65.6405 129.673 65.7672 129.8C65.8939 129.927 66.0039 130.067 66.0972 130.22C66.1905 130.367 66.2605 130.527 66.3072 130.7C66.3605 130.867 66.3872 131.037 66.3872 131.21C66.3872 131.39 66.3605 131.57 66.3072 131.75C66.2605 131.923 66.1872 132.087 66.0872 132.24C65.9872 132.387 65.8639 132.517 65.7172 132.63C65.5772 132.743 65.4239 132.833 65.2572 132.9C65.0905 132.967 64.9172 133.013 64.7372 133.04C64.5572 133.067 64.3772 133.08 64.1972 133.08Z" fill="black" fill-opacity="0.64"/>
<mask id="path-13-inside-1_1_345" fill="white">
<path d="M0 0H640V101H0V0Z"/>
</mask>
<path d="M0 0H640V101H0V0Z" fill="#D9D9D9" fill-opacity="0.24"/>
<path d="M640 101V100H0V101V102H640V101Z" fill="black" fill-opacity="0.16" mask="url(#path-13-inside-1_1_345)"/>
<path d="M21.64 17.392V32.656L24.784 32.584C26.592 32.536 28.008 31.848 29.032 30.52C30.056 29.192 30.568 27.288 30.568 24.808C30.568 22.472 30.04 20.68 28.984 19.432C27.944 18.168 26.472 17.512 24.568 17.464L21.64 17.392ZM17.176 16H24.568C26.376 16 27.928 16.352 29.224 17.056C30.536 17.76 31.544 18.768 32.248 20.08C32.952 21.376 33.304 22.944 33.304 24.784C33.304 26.704 32.96 28.36 32.272 29.752C31.584 31.128 30.592 32.184 29.296 32.92C28.016 33.64 26.48 34 24.688 34H17.176C17.112 33.808 17.08 33.64 17.08 33.496C17.08 33.336 17.112 33.168 17.176 32.992L19.072 32.728V17.272L17.2 17.008C17.12 16.848 17.08 16.688 17.08 16.528C17.08 16.368 17.112 16.192 17.176 16ZM35.6191 27.736C35.6191 26.392 35.8671 25.232 36.3631 24.256C36.8751 23.264 37.5631 22.496 38.4271 21.952C39.3071 21.392 40.2991 21.112 41.4031 21.112C42.5391 21.112 43.4751 21.4 44.2111 21.976C44.9631 22.552 45.5231 23.336 45.8911 24.328C46.2591 25.304 46.4431 26.424 46.4431 27.688L38.1391 28.192C38.2511 29.632 38.6351 30.76 39.2911 31.576C39.9631 32.392 40.8751 32.8 42.0271 32.8C42.6831 32.8 43.3231 32.712 43.9471 32.536C44.5871 32.344 45.2031 32.064 45.7951 31.696C45.9391 31.824 46.0511 31.976 46.1311 32.152C46.2271 32.328 46.2831 32.52 46.2991 32.728C45.6111 33.224 44.8751 33.6 44.0911 33.856C43.3231 34.112 42.5391 34.24 41.7391 34.24C40.4591 34.24 39.3631 33.976 38.4511 33.448C37.5391 32.904 36.8351 32.144 36.3391 31.168C35.8591 30.176 35.6191 29.032 35.6191 27.736ZM38.1391 26.896L43.9951 26.512C43.9791 25.824 43.8751 25.168 43.6831 24.544C43.4911 23.92 43.1951 23.408 42.7951 23.008C42.3951 22.608 41.8751 22.408 41.2351 22.408C40.6111 22.408 40.0751 22.6 39.6271 22.984C39.1791 23.352 38.8271 23.872 38.5711 24.544C38.3311 25.216 38.1871 26 38.1391 26.896ZM48.5566 30.112H49.8526L50.5726 32.392C51.0846 32.568 51.5726 32.696 52.0366 32.776C52.5166 32.856 52.8766 32.896 53.1166 32.896C53.7886 32.896 54.3646 32.744 54.8446 32.44C55.3406 32.136 55.5886 31.64 55.5886 30.952C55.5886 30.536 55.4526 30.192 55.1806 29.92C54.9086 29.632 54.5566 29.392 54.1246 29.2C53.6926 29.008 53.2206 28.824 52.7086 28.648C52.0846 28.424 51.4686 28.168 50.8606 27.88C50.2526 27.592 49.7486 27.2 49.3486 26.704C48.9646 26.208 48.7726 25.56 48.7726 24.76C48.7726 23.992 48.9566 23.336 49.3246 22.792C49.6926 22.248 50.2046 21.832 50.8606 21.544C51.5326 21.256 52.3246 21.112 53.2366 21.112C53.3646 21.112 53.6206 21.144 54.0046 21.208C54.4046 21.272 54.8846 21.352 55.4446 21.448C56.0206 21.544 56.5966 21.664 57.1726 21.808C57.1566 22.128 57.1326 22.488 57.1006 22.888C57.0846 23.272 57.0606 23.656 57.0286 24.04C56.9966 24.408 56.9646 24.752 56.9326 25.072H55.6366L55.3246 22.792C54.8446 22.696 54.4126 22.616 54.0286 22.552C53.6606 22.472 53.3966 22.432 53.2366 22.432C52.5486 22.432 51.9886 22.584 51.5566 22.888C51.1406 23.192 50.9326 23.656 50.9326 24.28C50.9326 24.728 51.0686 25.096 51.3406 25.384C51.6126 25.656 51.9726 25.888 52.4206 26.08C52.8846 26.272 53.3886 26.464 53.9326 26.656C54.5726 26.88 55.1806 27.144 55.7566 27.448C56.3326 27.736 56.8046 28.112 57.1726 28.576C57.5566 29.04 57.7486 29.656 57.7486 30.424C57.7486 31.192 57.5406 31.864 57.1246 32.44C56.7086 33 56.1406 33.44 55.4206 33.76C54.7166 34.08 53.9246 34.24 53.0446 34.24C52.8526 34.24 52.5326 34.208 52.0846 34.144C51.6526 34.096 51.1406 34.008 50.5486 33.88C49.9726 33.752 49.3886 33.584 48.7966 33.376C48.7326 32.736 48.6846 32.168 48.6526 31.672C48.6206 31.176 48.5886 30.656 48.5566 30.112ZM59.6403 33.52C59.6403 33.36 59.6723 33.216 59.7363 33.088L61.3443 32.8V22.48L59.7363 22.288C59.6723 22.128 59.6403 21.976 59.6403 21.832C59.6403 21.672 59.6643 21.512 59.7123 21.352C60.1123 21.336 60.5603 21.32 61.0563 21.304C61.5523 21.272 62.0483 21.24 62.5443 21.208C63.0403 21.176 63.4883 21.144 63.8883 21.112C63.8403 21.528 63.8003 21.952 63.7683 22.384C63.7523 22.816 63.7443 23.28 63.7443 23.776V32.8L65.3043 33.088C65.3843 33.2 65.4243 33.344 65.4243 33.52C65.4243 33.6 65.4163 33.68 65.4003 33.76C65.3843 33.84 65.3523 33.92 65.3043 34H59.7363C59.6723 33.872 59.6403 33.712 59.6403 33.52ZM62.4243 19.432C61.9763 19.432 61.6003 19.272 61.2963 18.952C60.9923 18.632 60.8403 18.264 60.8403 17.848C60.8403 17.416 60.9923 17.04 61.2963 16.72C61.6003 16.4 61.9763 16.24 62.4243 16.24C62.8723 16.24 63.2483 16.4 63.5523 16.72C63.8563 17.04 64.0083 17.416 64.0083 17.848C64.0083 18.264 63.8563 18.632 63.5523 18.952C63.2483 19.272 62.8723 19.432 62.4243 19.432ZM66.8734 36.376C66.8734 35.8 67.0254 35.28 67.3294 34.816C67.6494 34.352 68.0894 33.968 68.6494 33.664C68.5374 33.552 68.4574 33.432 68.4094 33.304C68.3614 33.16 68.3374 33.008 68.3374 32.848C68.3374 32.48 68.4334 32.024 68.6254 31.48C68.8334 30.92 69.1534 30.296 69.5854 29.608C68.9774 29.192 68.5054 28.696 68.1694 28.12C67.8334 27.528 67.6654 26.776 67.6654 25.864C67.6654 24.888 67.8734 24.056 68.2894 23.368C68.7214 22.664 69.2974 22.112 70.0174 21.712C70.7374 21.312 71.5374 21.112 72.4174 21.112C72.8494 21.112 73.2494 21.168 73.6174 21.28C73.9854 21.376 74.3294 21.528 74.6494 21.736L78.1054 20.896C78.2174 21.008 78.2974 21.152 78.3454 21.328C78.4094 21.488 78.4414 21.664 78.4414 21.856C78.4414 22.128 78.3854 22.392 78.2734 22.648L75.6574 22.504C76.1054 22.952 76.4494 23.44 76.6894 23.968C76.9454 24.48 77.0734 25.088 77.0734 25.792C77.0734 26.752 76.8494 27.568 76.4014 28.24C75.9534 28.912 75.3694 29.432 74.6494 29.8C73.9294 30.152 73.1374 30.328 72.2734 30.328C71.9854 30.328 71.6894 30.312 71.3854 30.28C71.0814 30.232 70.8014 30.16 70.5454 30.064C70.4014 30.432 70.2894 30.824 70.2094 31.24C70.1294 31.656 70.0894 32.008 70.0894 32.296H74.2894C75.4734 32.296 76.4094 32.568 77.0974 33.112C77.8014 33.64 78.1534 34.368 78.1534 35.296C78.1534 36.496 77.5934 37.456 76.4734 38.176C75.3694 38.912 73.8334 39.28 71.8654 39.28C70.2494 39.28 69.0094 39.016 68.1454 38.488C67.2974 37.96 66.8734 37.256 66.8734 36.376ZM68.8414 35.992C68.8414 36.584 69.1134 37.048 69.6574 37.384C70.2014 37.72 71.0174 37.888 72.1054 37.888C73.3534 37.888 74.3134 37.664 74.9854 37.216C75.6734 36.784 76.0174 36.256 76.0174 35.632C76.0174 35.136 75.8414 34.752 75.4894 34.48C75.1374 34.224 74.6494 34.096 74.0254 34.096H69.9694C69.5534 34.384 69.2574 34.68 69.0814 34.984C68.9214 35.304 68.8414 35.64 68.8414 35.992ZM69.9214 25.912C69.9214 27 70.1374 27.808 70.5694 28.336C71.0174 28.864 71.6094 29.128 72.3454 29.128C73.0974 29.128 73.6894 28.856 74.1214 28.312C74.5694 27.768 74.7934 26.952 74.7934 25.864C74.7934 25.048 74.6814 24.384 74.4574 23.872C74.2334 23.344 73.9374 22.96 73.5694 22.72C73.2174 22.48 72.8174 22.36 72.3694 22.36C71.9534 22.36 71.5534 22.472 71.1694 22.696C70.8014 22.92 70.4974 23.296 70.2574 23.824C70.0334 24.336 69.9214 25.032 69.9214 25.912ZM80.1246 33.52C80.1246 33.344 80.1566 33.2 80.2206 33.088L81.8286 32.8V22.48L80.2206 22.288C80.1566 22.128 80.1246 21.976 80.1246 21.832C80.1246 21.672 80.1486 21.512 80.1966 21.352C80.6126 21.336 81.0606 21.312 81.5406 21.28C82.0366 21.248 82.5246 21.224 83.0046 21.208C83.5006 21.176 83.9486 21.144 84.3486 21.112C84.3326 21.352 84.3086 21.608 84.2766 21.88C84.2606 22.152 84.2446 22.408 84.2286 22.648C84.8206 22.408 85.4126 22.176 86.0046 21.952C86.6126 21.712 87.1326 21.512 87.5646 21.352C88.0126 21.192 88.2926 21.112 88.4046 21.112C89.3166 21.112 90.0206 21.272 90.5166 21.592C91.0126 21.912 91.3566 22.368 91.5486 22.96C91.7566 23.552 91.8606 24.24 91.8606 25.024V32.824L93.3966 33.088C93.4446 33.168 93.4766 33.248 93.4926 33.328C93.5086 33.392 93.5166 33.464 93.5166 33.544C93.5166 33.704 93.4846 33.856 93.4206 34H87.9006C87.8366 33.872 87.8046 33.712 87.8046 33.52C87.8046 33.344 87.8286 33.2 87.8766 33.088L89.4606 32.8V25.456C89.4606 24.88 89.4126 24.4 89.3166 24.016C89.2366 23.616 89.0766 23.312 88.8366 23.104C88.5966 22.88 88.2286 22.768 87.7326 22.768C87.6206 22.768 87.3806 22.808 87.0126 22.888C86.6446 22.968 86.2126 23.08 85.7166 23.224C85.2366 23.368 84.7406 23.512 84.2286 23.656V32.8L85.7646 33.088C85.8126 33.168 85.8446 33.248 85.8606 33.328C85.8766 33.392 85.8846 33.456 85.8846 33.52C85.8846 33.696 85.8446 33.856 85.7646 34H80.2206C80.1566 33.872 80.1246 33.712 80.1246 33.52ZM101.901 29.152H103.173L103.821 31.888C104.349 32.24 104.901 32.488 105.477 32.632C106.069 32.76 106.653 32.824 107.229 32.824C107.949 32.824 108.605 32.712 109.197 32.488C109.789 32.248 110.261 31.912 110.613 31.48C110.965 31.032 111.141 30.48 111.141 29.824C111.141 29.2 110.989 28.672 110.685 28.24C110.381 27.792 109.933 27.392 109.341 27.04C108.765 26.688 108.069 26.312 107.253 25.912C106.741 25.672 106.205 25.416 105.645 25.144C105.085 24.872 104.565 24.536 104.085 24.136C103.605 23.736 103.205 23.24 102.885 22.648C102.581 22.04 102.429 21.296 102.429 20.416C102.429 19.44 102.669 18.608 103.149 17.92C103.629 17.232 104.293 16.704 105.141 16.336C105.989 15.952 106.957 15.76 108.045 15.76C108.701 15.76 109.349 15.832 109.989 15.976C110.645 16.12 111.317 16.32 112.005 16.576L112.365 15.904H113.301C113.269 16.56 113.245 17.144 113.229 17.656C113.213 18.152 113.189 18.64 113.157 19.12C113.125 19.6 113.093 20.144 113.061 20.752H111.789L111.405 17.992C110.893 17.72 110.341 17.52 109.749 17.392C109.157 17.248 108.589 17.176 108.045 17.176C107.085 17.176 106.317 17.408 105.741 17.872C105.181 18.336 104.901 18.976 104.901 19.792C104.901 20.528 105.093 21.136 105.477 21.616C105.861 22.096 106.357 22.504 106.965 22.84C107.573 23.176 108.213 23.496 108.885 23.8C109.589 24.12 110.237 24.456 110.829 24.808C111.421 25.144 111.933 25.52 112.365 25.936C112.797 26.336 113.125 26.792 113.349 27.304C113.589 27.816 113.709 28.408 113.709 29.08C113.709 30.184 113.421 31.128 112.845 31.912C112.285 32.68 111.517 33.264 110.541 33.664C109.581 34.048 108.501 34.24 107.301 34.24C106.357 34.24 105.445 34.144 104.565 33.952C103.685 33.744 102.861 33.464 102.093 33.112C102.045 32.408 102.005 31.728 101.973 31.072C101.957 30.4 101.933 29.76 101.901 29.152ZM114.489 21.832C114.489 21.672 114.521 21.512 114.585 21.352H120.105C120.169 21.48 120.201 21.64 120.201 21.832C120.201 22.008 120.169 22.16 120.105 22.288L118.521 22.552L121.905 31.48L125.313 22.528L123.633 22.264C123.553 22.104 123.513 21.96 123.513 21.832C123.513 21.672 123.545 21.512 123.609 21.352H128.145C128.209 21.48 128.241 21.64 128.241 21.832C128.241 21.992 128.209 22.136 128.145 22.264L126.801 22.528L122.313 33.544C121.961 34.36 121.617 35.064 121.281 35.656C120.961 36.248 120.609 36.76 120.225 37.192C119.841 37.624 119.393 38 118.881 38.32C118.369 38.64 117.761 38.952 117.057 39.256C116.881 39.016 116.737 38.736 116.625 38.416C116.513 38.096 116.465 37.744 116.481 37.36C117.249 37.088 117.897 36.8 118.425 36.496C118.953 36.208 119.385 35.856 119.721 35.44C120.073 35.04 120.361 34.568 120.585 34.024L115.953 22.552L114.609 22.288C114.561 22.192 114.529 22.112 114.513 22.048C114.497 21.968 114.489 21.896 114.489 21.832ZM129.486 30.112H130.782L131.502 32.392C132.014 32.568 132.502 32.696 132.966 32.776C133.446 32.856 133.806 32.896 134.046 32.896C134.718 32.896 135.294 32.744 135.774 32.44C136.27 32.136 136.518 31.64 136.518 30.952C136.518 30.536 136.382 30.192 136.11 29.92C135.838 29.632 135.486 29.392 135.054 29.2C134.622 29.008 134.15 28.824 133.638 28.648C133.014 28.424 132.398 28.168 131.79 27.88C131.182 27.592 130.678 27.2 130.278 26.704C129.894 26.208 129.702 25.56 129.702 24.76C129.702 23.992 129.886 23.336 130.254 22.792C130.622 22.248 131.134 21.832 131.79 21.544C132.462 21.256 133.254 21.112 134.166 21.112C134.294 21.112 134.55 21.144 134.934 21.208C135.334 21.272 135.814 21.352 136.374 21.448C136.95 21.544 137.526 21.664 138.102 21.808C138.086 22.128 138.062 22.488 138.03 22.888C138.014 23.272 137.99 23.656 137.958 24.04C137.926 24.408 137.894 24.752 137.862 25.072H136.566L136.254 22.792C135.774 22.696 135.342 22.616 134.958 22.552C134.59 22.472 134.326 22.432 134.166 22.432C133.478 22.432 132.918 22.584 132.486 22.888C132.07 23.192 131.862 23.656 131.862 24.28C131.862 24.728 131.998 25.096 132.27 25.384C132.542 25.656 132.902 25.888 133.35 26.08C133.814 26.272 134.318 26.464 134.862 26.656C135.502 26.88 136.11 27.144 136.686 27.448C137.262 27.736 137.734 28.112 138.102 28.576C138.486 29.04 138.678 29.656 138.678 30.424C138.678 31.192 138.47 31.864 138.054 32.44C137.638 33 137.07 33.44 136.35 33.76C135.646 34.08 134.854 34.24 133.974 34.24C133.782 34.24 133.462 34.208 133.014 34.144C132.582 34.096 132.07 34.008 131.478 33.88C130.902 33.752 130.318 33.584 129.726 33.376C129.662 32.736 129.614 32.168 129.582 31.672C129.55 31.176 129.518 30.656 129.486 30.112ZM140.09 21.928C140.09 21.784 140.114 21.64 140.162 21.496L141.794 21.352L142.898 18.28H144.17V21.352H147.506V22.6H144.17V30.4C144.17 30.992 144.202 31.472 144.266 31.84C144.346 32.208 144.474 32.472 144.65 32.632C144.842 32.792 145.106 32.872 145.442 32.872C145.858 32.872 146.266 32.8 146.666 32.656C147.082 32.512 147.466 32.336 147.818 32.128C147.994 32.272 148.106 32.448 148.154 32.656C148.202 32.848 148.202 33.016 148.154 33.16C147.562 33.576 146.954 33.856 146.33 34C145.722 34.16 145.21 34.24 144.794 34.24C143.738 34.24 142.97 33.944 142.49 33.352C142.026 32.76 141.794 31.84 141.794 30.592V22.576L140.162 22.432C140.114 22.288 140.09 22.12 140.09 21.928ZM149.455 27.736C149.455 26.392 149.703 25.232 150.199 24.256C150.711 23.264 151.399 22.496 152.263 21.952C153.143 21.392 154.135 21.112 155.239 21.112C156.375 21.112 157.311 21.4 158.047 21.976C158.799 22.552 159.359 23.336 159.727 24.328C160.095 25.304 160.279 26.424 160.279 27.688L151.975 28.192C152.087 29.632 152.471 30.76 153.127 31.576C153.799 32.392 154.711 32.8 155.863 32.8C156.519 32.8 157.159 32.712 157.783 32.536C158.423 32.344 159.039 32.064 159.631 31.696C159.775 31.824 159.887 31.976 159.967 32.152C160.063 32.328 160.119 32.52 160.135 32.728C159.447 33.224 158.711 33.6 157.927 33.856C157.159 34.112 156.375 34.24 155.575 34.24C154.295 34.24 153.199 33.976 152.287 33.448C151.375 32.904 150.671 32.144 150.175 31.168C149.695 30.176 149.455 29.032 149.455 27.736ZM151.975 26.896L157.831 26.512C157.815 25.824 157.711 25.168 157.519 24.544C157.327 23.92 157.031 23.408 156.631 23.008C156.231 22.608 155.711 22.408 155.071 22.408C154.447 22.408 153.911 22.6 153.463 22.984C153.015 23.352 152.663 23.872 152.407 24.544C152.167 25.216 152.023 26 151.975 26.896ZM167.937 34H162.393C162.329 33.872 162.297 33.712 162.297 33.52C162.297 33.344 162.329 33.2 162.393 33.088L164.001 32.8V22.48L162.393 22.288C162.329 22.128 162.297 21.976 162.297 21.832C162.297 21.672 162.321 21.512 162.369 21.352C162.785 21.32 163.233 21.296 163.713 21.28C164.193 21.248 164.673 21.216 165.153 21.184C165.649 21.152 166.105 21.128 166.521 21.112C166.489 21.368 166.465 21.624 166.449 21.88C166.433 22.12 166.417 22.344 166.401 22.552C166.993 22.312 167.561 22.08 168.105 21.856C168.665 21.632 169.137 21.456 169.521 21.328C169.921 21.184 170.185 21.112 170.313 21.112C171.097 21.112 171.721 21.24 172.185 21.496C172.665 21.752 173.033 22.096 173.289 22.528C173.705 22.368 174.137 22.208 174.585 22.048C175.033 21.872 175.457 21.72 175.857 21.592C176.257 21.448 176.601 21.336 176.889 21.256C177.177 21.16 177.369 21.112 177.465 21.112C178.393 21.112 179.105 21.28 179.601 21.616C180.113 21.936 180.465 22.392 180.657 22.984C180.849 23.56 180.945 24.24 180.945 25.024V32.8L182.481 33.088C182.529 33.168 182.561 33.248 182.577 33.328C182.593 33.392 182.601 33.464 182.601 33.544C182.601 33.704 182.569 33.856 182.505 34H177.009C176.945 33.872 176.913 33.712 176.913 33.52C176.913 33.344 176.937 33.2 176.985 33.088L178.545 32.8V25.288C178.545 24.68 178.505 24.184 178.425 23.8C178.361 23.416 178.209 23.136 177.969 22.96C177.729 22.768 177.361 22.672 176.865 22.672C176.753 22.672 176.521 22.712 176.169 22.792C175.833 22.872 175.433 22.976 174.969 23.104C174.521 23.216 174.065 23.344 173.601 23.488C173.649 23.776 173.681 24.072 173.697 24.376C173.713 24.68 173.721 24.984 173.721 25.288V32.8L175.233 33.088C175.281 33.168 175.313 33.248 175.329 33.328C175.345 33.392 175.353 33.456 175.353 33.52C175.353 33.696 175.313 33.856 175.233 34H169.785C169.721 33.872 169.689 33.712 169.689 33.52C169.689 33.344 169.713 33.2 169.761 33.088L171.321 32.8V25.504C171.321 24.896 171.281 24.392 171.201 23.992C171.121 23.592 170.961 23.296 170.721 23.104C170.497 22.896 170.145 22.792 169.665 22.792C169.553 22.792 169.345 22.824 169.041 22.888C168.753 22.952 168.385 23.04 167.937 23.152C167.489 23.264 166.977 23.408 166.401 23.584V32.8L167.937 33.088C167.985 33.168 168.017 33.248 168.033 33.328C168.049 33.392 168.057 33.456 168.057 33.52C168.057 33.696 168.017 33.856 167.937 34ZM209.899 17.248L210.307 32.752L212.179 32.992C212.211 33.072 212.243 33.16 212.275 33.256C212.307 33.352 212.323 33.44 212.323 33.52C212.323 33.648 212.283 33.808 212.203 34H205.867C205.803 33.808 205.771 33.64 205.771 33.496C205.771 33.32 205.811 33.152 205.891 32.992L207.787 32.752L207.595 18.64L202.003 34H200.539L194.803 18.592L194.515 32.752L196.459 32.992C196.507 33.072 196.539 33.16 196.555 33.256C196.571 33.336 196.579 33.424 196.579 33.52C196.579 33.68 196.547 33.84 196.483 34H190.939C190.875 33.84 190.843 33.68 190.843 33.52C190.843 33.344 190.883 33.168 190.963 32.992L192.859 32.752L193.339 17.296L191.491 17.008C191.411 16.848 191.371 16.688 191.371 16.528C191.371 16.368 191.403 16.192 191.467 16H196.387L201.835 30.568L207.067 16H211.747C211.827 16.192 211.867 16.368 211.867 16.528C211.867 16.672 211.827 16.832 211.747 17.008L209.899 17.248ZM214.329 30.784C214.329 30.224 214.441 29.696 214.665 29.2C214.889 28.688 215.233 28.256 215.697 27.904C216.161 27.552 216.729 27.32 217.401 27.208L221.529 26.608V25.528C221.529 24.952 221.497 24.44 221.433 23.992C221.369 23.544 221.217 23.192 220.977 22.936C220.737 22.68 220.361 22.552 219.849 22.552C219.737 22.552 219.529 22.576 219.225 22.624C218.921 22.656 218.577 22.704 218.193 22.768C217.825 22.816 217.465 22.88 217.113 22.96L216.897 25.408H215.481C215.417 24.848 215.369 24.28 215.337 23.704C215.305 23.112 215.289 22.552 215.289 22.024C215.753 21.928 216.249 21.824 216.777 21.712C217.321 21.6 217.841 21.504 218.337 21.424C218.833 21.328 219.257 21.256 219.609 21.208C219.961 21.144 220.185 21.112 220.281 21.112C221.209 21.112 221.937 21.288 222.465 21.64C222.993 21.976 223.361 22.48 223.569 23.152C223.793 23.824 223.905 24.656 223.905 25.648V32.824L225.369 33.064C225.401 33.144 225.425 33.224 225.441 33.304C225.457 33.368 225.465 33.44 225.465 33.52C225.465 33.68 225.433 33.84 225.369 34H222.105L221.649 32.68C221.297 32.84 220.905 33.008 220.473 33.184C220.057 33.36 219.649 33.528 219.249 33.688C218.849 33.848 218.497 33.976 218.193 34.072C217.889 34.184 217.681 34.24 217.569 34.24C217.073 34.24 216.569 34.12 216.057 33.88C215.561 33.624 215.145 33.24 214.809 32.728C214.489 32.2 214.329 31.552 214.329 30.784ZM216.657 30.712C216.657 31.368 216.801 31.864 217.089 32.2C217.377 32.536 217.769 32.704 218.265 32.704C218.393 32.704 218.617 32.664 218.937 32.584C219.273 32.488 219.665 32.368 220.113 32.224C220.577 32.064 221.049 31.888 221.529 31.696V27.904L218.553 28.432C217.993 28.528 217.537 28.76 217.185 29.128C216.833 29.48 216.657 30.008 216.657 30.712ZM227.242 33.52C227.242 33.344 227.274 33.2 227.338 33.088L228.946 32.8V22.48L227.338 22.288C227.274 22.128 227.242 21.976 227.242 21.832C227.242 21.672 227.266 21.512 227.314 21.352C227.73 21.336 228.178 21.312 228.658 21.28C229.154 21.248 229.642 21.224 230.122 21.208C230.618 21.176 231.066 21.144 231.466 21.112C231.45 21.352 231.426 21.608 231.394 21.88C231.378 22.152 231.362 22.408 231.346 22.648C231.938 22.408 232.53 22.176 233.122 21.952C233.73 21.712 234.25 21.512 234.682 21.352C235.13 21.192 235.41 21.112 235.522 21.112C236.434 21.112 237.138 21.272 237.634 21.592C238.13 21.912 238.474 22.368 238.666 22.96C238.874 23.552 238.978 24.24 238.978 25.024V32.824L240.514 33.088C240.562 33.168 240.594 33.248 240.61 33.328C240.626 33.392 240.634 33.464 240.634 33.544C240.634 33.704 240.602 33.856 240.538 34H235.018C234.954 33.872 234.922 33.712 234.922 33.52C234.922 33.344 234.946 33.2 234.994 33.088L236.578 32.8V25.456C236.578 24.88 236.53 24.4 236.434 24.016C236.354 23.616 236.194 23.312 235.954 23.104C235.714 22.88 235.346 22.768 234.85 22.768C234.738 22.768 234.498 22.808 234.13 22.888C233.762 22.968 233.33 23.08 232.834 23.224C232.354 23.368 231.858 23.512 231.346 23.656V32.8L232.882 33.088C232.93 33.168 232.962 33.248 232.978 33.328C232.994 33.392 233.002 33.456 233.002 33.52C233.002 33.696 232.962 33.856 232.882 34H227.338C227.274 33.872 227.242 33.712 227.242 33.52ZM242.501 30.784C242.501 30.224 242.613 29.696 242.837 29.2C243.061 28.688 243.405 28.256 243.869 27.904C244.333 27.552 244.901 27.32 245.573 27.208L249.701 26.608V25.528C249.701 24.952 249.669 24.44 249.605 23.992C249.541 23.544 249.389 23.192 249.149 22.936C248.909 22.68 248.533 22.552 248.021 22.552C247.909 22.552 247.701 22.576 247.397 22.624C247.093 22.656 246.749 22.704 246.365 22.768C245.997 22.816 245.637 22.88 245.285 22.96L245.069 25.408H243.653C243.589 24.848 243.541 24.28 243.509 23.704C243.477 23.112 243.461 22.552 243.461 22.024C243.925 21.928 244.421 21.824 244.949 21.712C245.493 21.6 246.013 21.504 246.509 21.424C247.005 21.328 247.429 21.256 247.781 21.208C248.133 21.144 248.357 21.112 248.453 21.112C249.381 21.112 250.109 21.288 250.637 21.64C251.165 21.976 251.533 22.48 251.741 23.152C251.965 23.824 252.077 24.656 252.077 25.648V32.824L253.541 33.064C253.573 33.144 253.597 33.224 253.613 33.304C253.629 33.368 253.637 33.44 253.637 33.52C253.637 33.68 253.605 33.84 253.541 34H250.277L249.821 32.68C249.469 32.84 249.077 33.008 248.645 33.184C248.229 33.36 247.821 33.528 247.421 33.688C247.021 33.848 246.669 33.976 246.365 34.072C246.061 34.184 245.853 34.24 245.741 34.24C245.245 34.24 244.741 34.12 244.229 33.88C243.733 33.624 243.317 33.24 242.981 32.728C242.661 32.2 242.501 31.552 242.501 30.784ZM244.829 30.712C244.829 31.368 244.973 31.864 245.261 32.2C245.549 32.536 245.941 32.704 246.437 32.704C246.565 32.704 246.789 32.664 247.109 32.584C247.445 32.488 247.837 32.368 248.285 32.224C248.749 32.064 249.221 31.888 249.701 31.696V27.904L246.725 28.432C246.165 28.528 245.709 28.76 245.357 29.128C245.005 29.48 244.829 30.008 244.829 30.712ZM255.03 36.376C255.03 35.8 255.182 35.28 255.486 34.816C255.806 34.352 256.246 33.968 256.806 33.664C256.694 33.552 256.614 33.432 256.566 33.304C256.518 33.16 256.494 33.008 256.494 32.848C256.494 32.48 256.59 32.024 256.782 31.48C256.99 30.92 257.31 30.296 257.742 29.608C257.134 29.192 256.662 28.696 256.326 28.12C255.99 27.528 255.822 26.776 255.822 25.864C255.822 24.888 256.03 24.056 256.446 23.368C256.878 22.664 257.454 22.112 258.174 21.712C258.894 21.312 259.694 21.112 260.574 21.112C261.006 21.112 261.406 21.168 261.774 21.28C262.142 21.376 262.486 21.528 262.806 21.736L266.262 20.896C266.374 21.008 266.454 21.152 266.502 21.328C266.566 21.488 266.598 21.664 266.598 21.856C266.598 22.128 266.542 22.392 266.43 22.648L263.814 22.504C264.262 22.952 264.606 23.44 264.846 23.968C265.102 24.48 265.23 25.088 265.23 25.792C265.23 26.752 265.006 27.568 264.558 28.24C264.11 28.912 263.526 29.432 262.806 29.8C262.086 30.152 261.294 30.328 260.43 30.328C260.142 30.328 259.846 30.312 259.542 30.28C259.238 30.232 258.958 30.16 258.702 30.064C258.558 30.432 258.446 30.824 258.366 31.24C258.286 31.656 258.246 32.008 258.246 32.296H262.446C263.63 32.296 264.566 32.568 265.254 33.112C265.958 33.64 266.31 34.368 266.31 35.296C266.31 36.496 265.75 37.456 264.63 38.176C263.526 38.912 261.99 39.28 260.022 39.28C258.406 39.28 257.166 39.016 256.302 38.488C255.454 37.96 255.03 37.256 255.03 36.376ZM256.998 35.992C256.998 36.584 257.27 37.048 257.814 37.384C258.358 37.72 259.174 37.888 260.262 37.888C261.51 37.888 262.47 37.664 263.142 37.216C263.83 36.784 264.174 36.256 264.174 35.632C264.174 35.136 263.998 34.752 263.646 34.48C263.294 34.224 262.806 34.096 262.182 34.096H258.126C257.71 34.384 257.414 34.68 257.238 34.984C257.078 35.304 256.998 35.64 256.998 35.992ZM258.078 25.912C258.078 27 258.294 27.808 258.726 28.336C259.174 28.864 259.766 29.128 260.502 29.128C261.254 29.128 261.846 28.856 262.278 28.312C262.726 27.768 262.95 26.952 262.95 25.864C262.95 25.048 262.838 24.384 262.614 23.872C262.39 23.344 262.094 22.96 261.726 22.72C261.374 22.48 260.974 22.36 260.526 22.36C260.11 22.36 259.71 22.472 259.326 22.696C258.958 22.92 258.654 23.296 258.414 23.824C258.19 24.336 258.078 25.032 258.078 25.912ZM268.377 27.736C268.377 26.392 268.625 25.232 269.121 24.256C269.633 23.264 270.321 22.496 271.185 21.952C272.065 21.392 273.057 21.112 274.161 21.112C275.297 21.112 276.233 21.4 276.969 21.976C277.721 22.552 278.281 23.336 278.649 24.328C279.017 25.304 279.201 26.424 279.201 27.688L270.897 28.192C271.009 29.632 271.393 30.76 272.049 31.576C272.721 32.392 273.633 32.8 274.785 32.8C275.441 32.8 276.081 32.712 276.705 32.536C277.345 32.344 277.961 32.064 278.553 31.696C278.697 31.824 278.809 31.976 278.889 32.152C278.985 32.328 279.041 32.52 279.057 32.728C278.369 33.224 277.633 33.6 276.849 33.856C276.081 34.112 275.297 34.24 274.497 34.24C273.217 34.24 272.121 33.976 271.209 33.448C270.297 32.904 269.593 32.144 269.097 31.168C268.617 30.176 268.377 29.032 268.377 27.736ZM270.897 26.896L276.753 26.512C276.737 25.824 276.633 25.168 276.441 24.544C276.249 23.92 275.953 23.408 275.553 23.008C275.153 22.608 274.633 22.408 273.993 22.408C273.369 22.408 272.833 22.6 272.385 22.984C271.937 23.352 271.585 23.872 271.329 24.544C271.089 25.216 270.945 26 270.897 26.896ZM281.218 33.52C281.218 33.344 281.25 33.2 281.314 33.088L282.922 32.8V22.48L281.362 22.288C281.314 22.128 281.29 21.976 281.29 21.832C281.29 21.672 281.314 21.512 281.362 21.352C281.762 21.336 282.194 21.32 282.658 21.304C283.122 21.272 283.594 21.24 284.074 21.208C284.554 21.176 285.018 21.144 285.466 21.112C285.434 21.576 285.402 22.072 285.37 22.6C285.354 23.112 285.33 23.6 285.298 24.064H285.418C285.866 23.424 286.298 22.888 286.714 22.456C287.13 22.008 287.57 21.672 288.034 21.448C288.514 21.224 289.074 21.112 289.714 21.112C289.778 21.416 289.81 21.752 289.81 22.12C289.81 22.376 289.794 22.64 289.762 22.912C289.73 23.168 289.682 23.432 289.618 23.704C289.042 23.704 288.522 23.744 288.058 23.824C287.61 23.904 287.17 24.04 286.738 24.232C286.306 24.424 285.834 24.704 285.322 25.072V32.776L287.338 33.088C287.386 33.168 287.418 33.248 287.434 33.328C287.45 33.392 287.458 33.456 287.458 33.52C287.458 33.696 287.418 33.856 287.338 34H281.314C281.25 33.872 281.218 33.712 281.218 33.52Z" fill="black" fill-opacity="0.9"/>
<path d="M19.372 54.096C19.14 54.096 18.908 54.072 18.676 54.024C18.444 53.984 18.224 53.912 18.016 53.808C17.808 53.696 17.62 53.556 17.452 53.388C17.292 53.212 17.16 53.02 17.056 52.812C16.96 52.596 16.892 52.372 16.852 52.14C16.812 51.908 16.792 51.676 16.792 51.444V47.892C16.792 47.66 16.812 47.428 16.852 47.196C16.892 46.964 16.96 46.744 17.056 46.536C17.16 46.32 17.292 46.128 17.452 45.96C17.62 45.784 17.808 45.644 18.016 45.54C18.224 45.428 18.444 45.352 18.676 45.312C18.908 45.264 19.14 45.24 19.372 45.24C19.588 45.24 19.804 45.256 20.02 45.288C20.236 45.32 20.44 45.38 20.632 45.468C20.832 45.548 21.016 45.656 21.184 45.792C21.352 45.928 21.492 46.088 21.604 46.272C21.724 46.448 21.812 46.644 21.868 46.86C21.924 47.068 21.952 47.28 21.952 47.496V47.532H20.848V47.508C20.848 47.324 20.808 47.148 20.728 46.98C20.656 46.804 20.548 46.656 20.404 46.536C20.268 46.416 20.108 46.336 19.924 46.296C19.74 46.248 19.556 46.224 19.372 46.224C19.236 46.224 19.096 46.24 18.952 46.272C18.816 46.296 18.688 46.348 18.568 46.428C18.448 46.5 18.344 46.592 18.256 46.704C18.168 46.816 18.096 46.936 18.04 47.064C17.984 47.192 17.944 47.328 17.92 47.472C17.904 47.608 17.896 47.748 17.896 47.892V51.444C17.896 51.588 17.904 51.732 17.92 51.876C17.944 52.012 17.984 52.144 18.04 52.272C18.096 52.4 18.168 52.52 18.256 52.632C18.344 52.744 18.448 52.84 18.568 52.92C18.688 52.992 18.816 53.044 18.952 53.076C19.096 53.1 19.236 53.112 19.372 53.112C19.556 53.112 19.74 53.092 19.924 53.052C20.108 53.004 20.268 52.92 20.404 52.8C20.548 52.68 20.656 52.536 20.728 52.368C20.808 52.192 20.848 52.012 20.848 51.828V51.804H21.952V51.84C21.952 52.056 21.924 52.272 21.868 52.488C21.812 52.696 21.724 52.892 21.604 53.076C21.492 53.252 21.352 53.408 21.184 53.544C21.016 53.68 20.832 53.792 20.632 53.88C20.44 53.96 20.236 54.016 20.02 54.048C19.804 54.08 19.588 54.096 19.372 54.096ZM26.2283 54.096C25.9883 54.096 25.7483 54.072 25.5083 54.024C25.2763 53.984 25.0563 53.908 24.8483 53.796C24.6403 53.684 24.4523 53.54 24.2843 53.364C24.1163 53.188 23.9803 52.996 23.8763 52.788C23.7803 52.572 23.7123 52.348 23.6723 52.116C23.6323 51.876 23.6123 51.636 23.6123 51.396V50.364C23.6123 50.124 23.6323 49.888 23.6723 49.656C23.7123 49.416 23.7803 49.192 23.8763 48.984C23.9803 48.768 24.1163 48.572 24.2843 48.396C24.4523 48.22 24.6403 48.076 24.8483 47.964C25.0563 47.852 25.2763 47.776 25.5083 47.736C25.7483 47.688 25.9883 47.664 26.2283 47.664C26.4683 47.664 26.7043 47.688 26.9363 47.736C27.1763 47.776 27.4003 47.852 27.6083 47.964C27.8163 48.076 28.0043 48.22 28.1723 48.396C28.3403 48.572 28.4723 48.768 28.5683 48.984C28.6723 49.192 28.7443 49.416 28.7843 49.656C28.8243 49.888 28.8443 50.124 28.8443 50.364V51.396C28.8443 51.636 28.8243 51.876 28.7843 52.116C28.7443 52.348 28.6723 52.572 28.5683 52.788C28.4723 52.996 28.3403 53.188 28.1723 53.364C28.0043 53.54 27.8163 53.684 27.6083 53.796C27.4003 53.908 27.1763 53.984 26.9363 54.024C26.7043 54.072 26.4683 54.096 26.2283 54.096ZM26.2283 53.112C26.3723 53.112 26.5163 53.096 26.6603 53.064C26.8043 53.032 26.9363 52.98 27.0563 52.908C27.1763 52.828 27.2803 52.732 27.3683 52.62C27.4643 52.5 27.5403 52.376 27.5963 52.248C27.6523 52.112 27.6883 51.972 27.7043 51.828C27.7283 51.684 27.7403 51.54 27.7403 51.396V50.364C27.7403 50.22 27.7283 50.076 27.7043 49.932C27.6883 49.788 27.6523 49.652 27.5963 49.524C27.5403 49.388 27.4643 49.264 27.3683 49.152C27.2803 49.032 27.1763 48.936 27.0563 48.864C26.9363 48.784 26.8043 48.728 26.6603 48.696C26.5163 48.664 26.3723 48.648 26.2283 48.648C26.0843 48.648 25.9403 48.664 25.7963 48.696C25.6523 48.728 25.5203 48.784 25.4003 48.864C25.2803 48.936 25.1723 49.032 25.0763 49.152C24.9883 49.264 24.9163 49.388 24.8603 49.524C24.8043 49.652 24.7643 49.788 24.7403 49.932C24.7243 50.076 24.7163 50.22 24.7163 50.364V51.396C24.7163 51.54 24.7243 51.684 24.7403 51.828C24.7643 51.972 24.8043 52.112 24.8603 52.248C24.9163 52.376 24.9883 52.5 25.0763 52.62C25.1723 52.732 25.2803 52.828 25.4003 52.908C25.5203 52.98 25.6523 53.032 25.7963 53.064C25.9403 53.096 26.0843 53.112 26.2283 53.112ZM31.3206 54V47.76H32.4366V49.104C32.4926 48.912 32.5686 48.728 32.6646 48.552C32.7686 48.368 32.8926 48.208 33.0366 48.072C33.1886 47.936 33.3606 47.836 33.5526 47.772C33.7446 47.7 33.9406 47.664 34.1406 47.664C34.3006 47.664 34.4606 47.684 34.6206 47.724C34.7886 47.764 34.9366 47.832 35.0646 47.928C35.2006 48.024 35.3126 48.144 35.4006 48.288C35.4966 48.424 35.5686 48.572 35.6166 48.732C35.6726 48.884 35.7086 49.044 35.7246 49.212C35.7406 49.38 35.7486 49.544 35.7486 49.704H34.6446C34.6446 49.576 34.6326 49.452 34.6086 49.332C34.5846 49.204 34.5366 49.088 34.4646 48.984C34.4006 48.872 34.3086 48.788 34.1886 48.732C34.0766 48.676 33.9566 48.648 33.8286 48.648C33.6766 48.648 33.5246 48.676 33.3726 48.732C33.2286 48.78 33.1006 48.86 32.9886 48.972C32.8766 49.076 32.7846 49.2 32.7126 49.344C32.6406 49.48 32.5806 49.624 32.5326 49.776C32.4926 49.92 32.4646 50.072 32.4486 50.232C32.4406 50.384 32.4366 50.536 32.4366 50.688V54H31.3206ZM39.8689 54.096C39.6369 54.096 39.4009 54.072 39.1609 54.024C38.9289 53.984 38.7049 53.908 38.4889 53.796C38.2809 53.684 38.0929 53.54 37.9249 53.364C37.7569 53.188 37.6209 52.996 37.5169 52.788C37.4209 52.572 37.3529 52.348 37.3129 52.116C37.2729 51.876 37.2529 51.636 37.2529 51.396V50.364C37.2529 50.124 37.2729 49.888 37.3129 49.656C37.3529 49.416 37.4209 49.192 37.5169 48.984C37.6209 48.768 37.7569 48.572 37.9249 48.396C38.0929 48.22 38.2809 48.076 38.4889 47.964C38.6969 47.852 38.9169 47.776 39.1489 47.736C39.3889 47.688 39.6289 47.664 39.8689 47.664C40.1089 47.664 40.3449 47.688 40.5769 47.736C40.8169 47.776 41.0409 47.852 41.2489 47.964C41.4569 48.076 41.6449 48.22 41.8129 48.396C41.9809 48.572 42.1129 48.768 42.2089 48.984C42.3129 49.192 42.3849 49.416 42.4249 49.656C42.4649 49.888 42.4849 50.124 42.4849 50.364V51.36H38.3569V51.396C38.3569 51.54 38.3649 51.684 38.3809 51.828C38.4049 51.972 38.4409 52.112 38.4889 52.248C38.5449 52.384 38.6169 52.512 38.7049 52.632C38.8009 52.744 38.9089 52.84 39.0289 52.92C39.1569 52.992 39.2929 53.044 39.4369 53.076C39.5809 53.108 39.7249 53.124 39.8689 53.124C40.0369 53.124 40.2009 53.112 40.3609 53.088C40.5209 53.064 40.6729 53.02 40.8169 52.956C40.9609 52.884 41.0849 52.784 41.1889 52.656C41.3009 52.528 41.3569 52.384 41.3569 52.224H42.4609C42.4529 52.424 42.4129 52.62 42.3409 52.812C42.2689 52.996 42.1689 53.164 42.0409 53.316C41.9129 53.46 41.7609 53.584 41.5849 53.688C41.4169 53.792 41.2369 53.876 41.0449 53.94C40.8609 53.996 40.6689 54.036 40.4689 54.06C40.2689 54.084 40.0689 54.096 39.8689 54.096ZM38.3569 50.4H41.3809V50.364C41.3809 50.22 41.3689 50.076 41.3449 49.932C41.3289 49.788 41.2929 49.648 41.2369 49.512C41.1889 49.376 41.1169 49.252 41.0209 49.14C40.9329 49.02 40.8249 48.924 40.6969 48.852C40.5769 48.772 40.4449 48.716 40.3009 48.684C40.1569 48.652 40.0129 48.636 39.8689 48.636C39.7249 48.636 39.5809 48.652 39.4369 48.684C39.2929 48.716 39.1569 48.772 39.0289 48.852C38.9089 48.924 38.8009 49.02 38.7049 49.14C38.6169 49.252 38.5449 49.376 38.4889 49.512C38.4409 49.648 38.4049 49.788 38.3809 49.932C38.3649 50.076 38.3569 50.22 38.3569 50.364V50.4Z" fill="black" fill-opacity="0.64"/>
<rect x="16" y="97" width="51" height="4" fill="#ED3E29"/>
<g filter="url(#filter4_i_1_345)">
<g clip-path="url(#clip1_1_345)">
<path d="M39 119H17V141H39V119Z" fill="#201617"/>
<path d="M36.7212 129.368C36.5168 129.519 36.2427 129.718 36.2106 129.741C35.5093 130.227 34.8787 130.596 34.1719 130.917C31.3513 132.196 28.3062 132.978 25.1208 133.355L25.1024 133.358C24.348 133.466 23.6211 133.537 22.9263 133.57C22.8282 133.574 22.7686 133.463 22.8254 133.383L23.6559 132.23C23.8594 131.948 23.6944 131.55 23.3507 131.494L17.0174 130.467C17.0119 130.467 17.0055 130.465 17 130.463V129.537C17.0055 129.536 17.011 129.534 17.0174 129.533L23.4662 128.487C23.8099 128.431 23.9749 128.033 23.7714 127.751L20.0333 122.563C19.7198 122.129 20.2578 121.591 20.6923 121.904L25.5809 125.427C25.8706 125.636 26.2785 125.456 26.3198 125.1L27.0265 119H28.9735L29.6903 125.187C29.7316 125.542 30.1395 125.722 30.4301 125.513L35.436 121.905C35.7211 121.7 36.3004 122.279 36.0951 122.564L32.3432 127.77C32.1397 128.052 32.3047 128.45 32.6484 128.506L36.6708 129.159C36.7734 129.175 36.8055 129.307 36.7212 129.368ZM21.1479 137.423C21.0049 137.408 20.8693 137.392 20.8381 137.389C20.6859 137.375 20.3477 137.321 20.102 137.277C20.058 137.269 20.0131 137.287 19.9865 137.324L19.9049 137.437C19.5914 137.871 20.1295 138.41 20.564 138.096L21.2038 137.635C21.2909 137.573 21.2552 137.435 21.1479 137.423ZM29.3228 136.546C28.4538 136.821 27.5747 137.041 26.6965 137.201C26.636 137.212 26.5938 137.268 26.6012 137.33L27.0265 141H28.9735L29.4749 136.671C29.485 136.586 29.4043 136.52 29.3228 136.546ZM34.1288 134.53C34.094 134.482 34.0271 134.467 33.9758 134.497C33.3891 134.835 32.7859 135.148 32.1718 135.435C32.0911 135.472 32.081 135.583 32.1534 135.636L35.5653 138.095C35.8503 138.3 36.4297 137.721 36.2243 137.436L34.1298 134.53H34.1288Z" fill="url(#paint0_radial_1_345)"/>
<path d="M39 127.81V129.189C38.5352 129.954 37.878 130.638 37.2758 131.2C34.3103 133.872 30.3329 135.809 26.4105 136.494C23.0463 137.081 19.3265 136.76 17.3511 135.55C17.2292 135.474 17.1118 135.391 17.0009 135.3V131.221L17.9277 131.371C18.0074 131.384 18.0505 131.472 18.0111 131.544C17.9735 131.612 17.9377 131.683 17.9038 131.753C17.8452 131.88 17.792 132.019 17.7517 132.163C17.7113 132.307 17.6847 132.456 17.6792 132.602C17.6728 132.779 17.7278 132.953 17.8021 133.108C17.9515 133.397 18.2063 133.616 18.5207 133.771C19.1422 134.07 19.8893 134.214 20.5796 134.277C22.1086 134.413 23.6889 134.316 25.2087 134.098C28.4097 133.719 31.5292 132.878 34.4808 131.539C36.0034 130.849 38.3592 129.504 39 127.811V127.81ZM20.2074 128.259L21.5897 128.035C21.6218 128.029 21.6521 128.018 21.6787 128.001C21.9537 127.824 22.2305 127.654 22.5064 127.495C22.566 127.46 22.5834 127.381 22.5431 127.325L22.3607 127.071C22.3286 127.026 22.2699 127.01 22.2195 127.032C21.5091 127.336 20.8023 127.673 20.1322 128.041C20.0167 128.104 20.0772 128.28 20.2074 128.259Z" fill="#F7F4DC"/>
</g>
<rect x="16.5" y="118.5" width="23" height="23" rx="6.5" stroke="#1A1112"/>
</g>
<defs>
<filter id="filter0_iii_1_345" x="443" y="112" width="32" height="36" filterUnits="userSpaceOnUse" color-interpolation-filters="sRGB">
<feFlood flood-opacity="0" result="BackgroundImageFix"/>
<feBlend mode="normal" in="SourceGraphic" in2="BackgroundImageFix" result="shape"/>
<feColorMatrix in="SourceAlpha" type="matrix" values="0 0 0 0 0 0 0 0 0 0 0 0 0 0 0 0 0 0 127 0" result="hardAlpha"/>
<feOffset dy="2"/>
<feGaussianBlur stdDeviation="1"/>
<feComposite in2="hardAlpha" operator="arithmetic" k2="-1" k3="1"/>
<feColorMatrix type="matrix" values="0 0 0 0 1 0 0 0 0 0.729412 0 0 0 0 0 0 0 0 0.0862745 0"/>
<feBlend mode="normal" in2="shape" result="effect1_innerShadow_1_345"/>
<feColorMatrix in="SourceAlpha" type="matrix" values="0 0 0 0 0 0 0 0 0 0 0 0 0 0 0 0 0 0 127 0" result="hardAlpha"/>
<feOffset dy="-2"/>
<feGaussianBlur stdDeviation="2.5"/>
<feComposite in2="hardAlpha" operator="arithmetic" k2="-1" k3="1"/>
<feColorMatrix type="matrix" values="0 0 0 0 0 0 0 0 0 0 0 0 0 0 0 0 0 0 0.16 0"/>
<feBlend mode="normal" in2="effect1_innerShadow_1_345" result="effect2_innerShadow_1_345"/>
<feColorMatrix in="SourceAlpha" type="matrix" values="0 0 0 0 0 0 0 0 0 0 0 0 0 0 0 0 0 0 127 0" result="hardAlpha"/>
<feOffset dy="2"/>
<feComposite in2="hardAlpha" operator="arithmetic" k2="-1" k3="1"/>
<feColorMatrix type="matrix" values="0 0 0 0 1 0 0 0 0 1 0 0 0 0 1 0 0 0 0.2 0"/>
<feBlend mode="normal" in2="effect2_innerShadow_1_345" result="effect3_innerShadow_1_345"/>
</filter>
<filter id="filter1_f_1_345" x="432" y="71" width="86" height="86" filterUnits="userSpaceOnUse" color-interpolation-filters="sRGB">
<feFlood flood-opacity="0" result="BackgroundImageFix"/>
<feBlend mode="normal" in="SourceGraphic" in2="BackgroundImageFix" result="shape"/>
<feGaussianBlur stdDeviation="15" result="effect1_foregroundBlur_1_345"/>
</filter>
<filter id="filter2_f_1_345" x="404" y="75" width="78" height="78" filterUnits="userSpaceOnUse" color-interpolation-filters="sRGB">
<feFlood flood-opacity="0" result="BackgroundImageFix"/>
<feBlend mode="normal" in="SourceGraphic" in2="BackgroundImageFix" result="shape"/>
<feGaussianBlur stdDeviation="15" result="effect1_foregroundBlur_1_345"/>
</filter>
<filter id="filter3_f_1_345" x="394" y="97" width="98" height="98" filterUnits="userSpaceOnUse" color-interpolation-filters="sRGB">
<feFlood flood-opacity="0" result="BackgroundImageFix"/>
<feBlend mode="normal" in="SourceGraphic" in2="BackgroundImageFix" result="shape"/>
<feGaussianBlur stdDeviation="15" result="effect1_foregroundBlur_1_345"/>
</filter>
<filter id="filter4_i_1_345" x="16" y="118" width="24" height="24" filterUnits="userSpaceOnUse" color-interpolation-filters="sRGB">
<feFlood flood-opacity="0" result="BackgroundImageFix"/>
<feBlend mode="normal" in="SourceGraphic" in2="BackgroundImageFix" result="shape"/>
<feColorMatrix in="SourceAlpha" type="matrix" values="0 0 0 0 0 0 0 0 0 0 0 0 0 0 0 0 0 0 127 0" result="hardAlpha"/>
<feOffset dy="2"/>
<feComposite in2="hardAlpha" operator="arithmetic" k2="-1" k3="1"/>
<feColorMatrix type="matrix" values="0 0 0 0 1 0 0 0 0 1 0 0 0 0 1 0 0 0 0.32 0"/>
<feBlend mode="normal" in2="shape" result="effect1_innerShadow_1_345"/>
</filter>
<radialGradient id="paint0_radial_1_345" cx="0" cy="0" r="1" gradientUnits="userSpaceOnUse" gradientTransform="translate(28.4113 119.899) rotate(31.9267) scale(19.1013 19.8653)">
<stop offset="0.29" stop-color="#FFBA4B"/>
<stop offset="0.33" stop-color="#FEAC3F"/>
<stop offset="0.45" stop-color="#FC9026"/>
<stop offset="0.55" stop-color="#FB7F17"/>
<stop offset="0.62" stop-color="#FB7912"/>
<stop offset="0.7" stop-color="#F96D15"/>
<stop offset="0.82" stop-color="#F75E1A"/>
<stop offset="0.93" stop-color="#F75A1C"/>
</radialGradient>
<clipPath id="clip0_1_345">
<rect x="443" y="114" width="32" height="32" rx="10" fill="white"/>
</clipPath>
<clipPath id="clip1_1_345">
<rect x="17" y="119" width="22" height="22" rx="6" fill="white"/>
</clipPath>
</defs>
</svg>
