<svg width="1280" height="320" viewBox="0 0 1280 320" fill="none" xmlns="http://www.w3.org/2000/svg">
<rect width="1280" height="320" fill="white"/>
<rect x="1" y="1" width="1278" height="318" stroke="black" stroke-opacity="0.16" stroke-width="2"/>
<g filter="url(#filter0_iii_1_454)">
<rect x="887" y="228" width="64" height="64" rx="20" fill="#EF3A21"/>
<rect x="887" y="228" width="64" height="64" rx="20" fill="url(#paint0_radial_1_454)" fill-opacity="0.4"/>
<rect x="888" y="229" width="62" height="62" rx="19" stroke="#4B0A00" stroke-opacity="0.890196" stroke-width="2"/>
<path d="M914.168 276.832L917 274L905 262L902.168 264.832C900.606 266.394 900.606 268.926 902.168 270.488L908.512 276.832C910.074 278.394 912.606 278.394 914.168 276.832Z" fill="white"/>
<path opacity="0.48" d="M933.981 262.36L936.941 245.34C936.98 245.114 937 244.884 937 244.655V244C937 242.895 936.105 242 935 242H934.345C934.115 242 933.886 242.02 933.66 242.059L916.64 245.019C913.146 245.627 910.235 248.039 908.99 251.36L905 262L917 274L927.64 270.01C930.96 268.765 933.373 265.854 933.981 262.36Z" fill="white"/>
<path fill-rule="evenodd" clip-rule="evenodd" d="M933.586 242.586C934.367 241.805 935.633 241.805 936.414 242.586C937.195 243.367 937.195 244.633 936.414 245.414L924.865 256.964C924.953 257.294 925 257.642 925 258C925 260.209 923.209 262 921 262C918.791 262 917 260.209 917 258C917 255.791 918.791 254 921 254C921.358 254 921.706 254.047 922.036 254.135L933.586 242.586Z" fill="white"/>
</g>
<path d="M984.568 264.652C984.568 262.817 984.899 261.1 985.56 259.5C986.221 257.9 987.149 256.513 988.344 255.34C989.56 254.145 990.979 253.217 992.6 252.556C994.221 251.895 995.992 251.564 997.912 251.564C999.683 251.564 1001.31 251.852 1002.81 252.428C1004.3 252.983 1005.59 253.783 1006.68 254.828C1007.79 255.873 1008.64 257.132 1009.24 258.604C1009.86 260.076 1010.17 261.719 1010.17 263.532C1010.17 264.684 1010.03 265.761 1009.75 266.764C1009.47 267.767 1009.07 268.652 1008.54 269.42C1008.02 270.167 1007.37 270.753 1006.58 271.18C1005.82 271.607 1004.92 271.82 1003.9 271.82C1003.02 271.82 1002.27 271.649 1001.66 271.308C1001.06 270.967 1000.61 270.529 1000.31 269.996C999.928 270.167 999.491 270.359 999 270.572C998.509 270.764 998.019 270.956 997.528 271.148C997.059 271.34 996.621 271.5 996.216 271.628C995.811 271.756 995.501 271.82 995.288 271.82C994.947 271.82 994.509 271.703 993.976 271.468C993.464 271.212 993.005 270.807 992.6 270.252C992.216 269.697 992.024 268.961 992.024 268.044C992.003 267.041 992.269 266.177 992.824 265.452C993.4 264.705 994.264 264.247 995.416 264.076L999.96 263.34V262.284C999.96 261.751 999.928 261.239 999.864 260.748C999.8 260.257 999.64 259.863 999.384 259.564C999.128 259.265 998.733 259.116 998.2 259.116C997.923 259.116 997.464 259.169 996.824 259.276C996.184 259.361 995.587 259.479 995.032 259.628C995.011 260.033 994.979 260.439 994.936 260.844C994.893 261.249 994.851 261.697 994.808 262.188H993.08C993.016 261.569 992.963 260.94 992.92 260.3C992.899 259.639 992.888 259.031 992.888 258.476C993.507 258.348 994.125 258.231 994.744 258.124C995.363 257.996 995.939 257.889 996.472 257.804C997.005 257.719 997.464 257.655 997.848 257.612C998.253 257.548 998.531 257.516 998.68 257.516C999.725 257.516 1000.51 257.74 1001.05 258.188C1001.6 258.615 1001.98 259.201 1002.17 259.948C1002.38 260.695 1002.49 261.516 1002.49 262.412V267.372C1002.49 268.247 1002.62 268.929 1002.87 269.42C1003.15 269.889 1003.63 270.124 1004.31 270.124C1004.89 270.124 1005.39 269.953 1005.82 269.612C1006.24 269.271 1006.59 268.812 1006.87 268.236C1007.17 267.639 1007.38 266.956 1007.51 266.188C1007.66 265.42 1007.74 264.599 1007.74 263.724C1007.74 261.548 1007.32 259.692 1006.49 258.156C1005.66 256.62 1004.49 255.447 1003 254.636C1001.51 253.804 999.789 253.388 997.848 253.388C995.821 253.388 993.997 253.847 992.376 254.764C990.776 255.681 989.507 256.983 988.568 258.668C987.629 260.332 987.16 262.295 987.16 264.556C987.16 266.796 987.597 268.769 988.472 270.476C989.347 272.161 990.584 273.473 992.184 274.412C993.784 275.351 995.672 275.82 997.848 275.82C998.68 275.82 999.469 275.767 1000.22 275.66C1000.98 275.575 1001.75 275.404 1002.52 275.148C1003.31 274.913 1004.13 274.593 1004.98 274.188C1005.18 274.423 1005.31 274.636 1005.4 274.828C1005.49 275.041 1005.54 275.297 1005.56 275.596C1004.69 276.044 1003.82 276.417 1002.97 276.716C1002.14 277.015 1001.27 277.228 1000.38 277.356C999.48 277.505 998.509 277.58 997.464 277.58C995.523 277.58 993.752 277.249 992.152 276.588C990.573 275.927 989.219 275.009 988.088 273.836C986.957 272.684 986.083 271.319 985.464 269.74C984.867 268.161 984.568 266.465 984.568 264.652ZM994.68 267.916C994.68 268.577 994.829 269.089 995.128 269.452C995.448 269.815 995.789 269.996 996.152 269.996C996.408 269.996 996.856 269.9 997.496 269.708C998.157 269.495 998.989 269.196 999.992 268.812V264.908L996.952 265.484C996.12 265.633 995.533 265.932 995.192 266.38C994.851 266.807 994.68 267.319 994.68 267.916ZM1012.68 246.988C1013.24 246.945 1013.83 246.903 1014.47 246.86C1015.14 246.796 1015.79 246.743 1016.43 246.7C1017.09 246.636 1017.7 246.583 1018.25 246.54C1018.19 247.009 1018.13 247.532 1018.09 248.108C1018.07 248.663 1018.06 249.164 1018.06 249.612V261.74L1021.35 261.548L1025.39 256.268L1023.05 255.916C1023.03 255.809 1023.01 255.713 1022.99 255.628C1022.96 255.521 1022.95 255.415 1022.95 255.308C1022.95 255.073 1023 254.849 1023.08 254.636H1030.28C1030.37 254.807 1030.41 255.02 1030.41 255.276C1030.41 255.532 1030.36 255.745 1030.25 255.916L1028.14 256.268L1023.27 262.092L1028.27 269.868L1030.47 270.284C1030.54 270.391 1030.58 270.497 1030.6 270.604C1030.62 270.689 1030.63 270.775 1030.63 270.86C1030.63 271.095 1030.58 271.308 1030.47 271.5H1025.58L1020.59 263.5L1018.06 263.372V269.9L1020.11 270.284C1020.17 270.391 1020.21 270.497 1020.23 270.604C1020.26 270.689 1020.27 270.775 1020.27 270.86C1020.27 271.095 1020.21 271.308 1020.11 271.5H1012.75C1012.66 271.329 1012.62 271.116 1012.62 270.86C1012.62 270.625 1012.65 270.433 1012.71 270.284L1014.86 269.9V248.46L1012.68 248.236C1012.62 247.98 1012.59 247.767 1012.59 247.596C1012.59 247.404 1012.62 247.201 1012.68 246.988ZM1031.69 263.148C1031.69 261.356 1032.02 259.809 1032.68 258.508C1033.36 257.185 1034.28 256.161 1035.43 255.436C1036.61 254.689 1037.93 254.316 1039.4 254.316C1040.92 254.316 1042.16 254.7 1043.15 255.468C1044.15 256.236 1044.9 257.281 1045.39 258.604C1045.88 259.905 1046.12 261.399 1046.12 263.084L1035.05 263.756C1035.2 265.676 1035.71 267.18 1036.59 268.268C1037.48 269.356 1038.7 269.9 1040.23 269.9C1041.11 269.9 1041.96 269.783 1042.79 269.548C1043.65 269.292 1044.47 268.919 1045.26 268.428C1045.45 268.599 1045.6 268.801 1045.71 269.036C1045.83 269.271 1045.91 269.527 1045.93 269.804C1045.01 270.465 1044.03 270.967 1042.99 271.308C1041.96 271.649 1040.92 271.82 1039.85 271.82C1038.14 271.82 1036.68 271.468 1035.47 270.764C1034.25 270.039 1033.31 269.025 1032.65 267.724C1032.01 266.401 1031.69 264.876 1031.69 263.148ZM1035.05 262.028L1042.86 261.516C1042.84 260.599 1042.7 259.724 1042.44 258.892C1042.19 258.06 1041.79 257.377 1041.26 256.844C1040.72 256.311 1040.03 256.044 1039.18 256.044C1038.35 256.044 1037.63 256.3 1037.03 256.812C1036.44 257.303 1035.97 257.996 1035.63 258.892C1035.31 259.788 1035.11 260.833 1035.05 262.028ZM1047.22 255.276C1047.22 255.063 1047.27 254.849 1047.35 254.636H1054.9C1054.99 254.807 1055.03 255.02 1055.03 255.276C1055.03 255.511 1054.99 255.713 1054.9 255.884L1052.7 256.236L1057.14 267.98L1061.69 256.172L1059.58 255.852C1059.47 255.639 1059.42 255.447 1059.42 255.276C1059.42 255.063 1059.47 254.849 1059.58 254.636H1065.5C1065.58 254.807 1065.62 255.02 1065.62 255.276C1065.62 255.489 1065.59 255.681 1065.53 255.852L1063.74 256.172L1057.43 271.5H1055.42L1049.14 256.204L1047.38 255.884C1047.32 255.756 1047.28 255.649 1047.26 255.564C1047.24 255.457 1047.22 255.361 1047.22 255.276ZM1067.19 270.86C1067.19 270.647 1067.23 270.455 1067.32 270.284L1069.46 269.9V256.14L1067.32 255.884C1067.23 255.671 1067.19 255.468 1067.19 255.276C1067.19 255.063 1067.22 254.849 1067.28 254.636C1067.82 254.615 1068.41 254.593 1069.08 254.572C1069.74 254.529 1070.4 254.487 1071.06 254.444C1071.72 254.401 1072.32 254.359 1072.85 254.316C1072.79 254.871 1072.73 255.436 1072.69 256.012C1072.67 256.588 1072.66 257.207 1072.66 257.868V269.9L1074.74 270.284C1074.85 270.433 1074.9 270.625 1074.9 270.86C1074.9 270.967 1074.89 271.073 1074.87 271.18C1074.85 271.287 1074.8 271.393 1074.74 271.5H1067.32C1067.23 271.329 1067.19 271.116 1067.19 270.86ZM1070.9 252.076C1070.3 252.076 1069.8 251.863 1069.4 251.436C1068.99 251.009 1068.79 250.519 1068.79 249.964C1068.79 249.388 1068.99 248.887 1069.4 248.46C1069.8 248.033 1070.3 247.82 1070.9 247.82C1071.5 247.82 1072 248.033 1072.4 248.46C1072.81 248.887 1073.01 249.388 1073.01 249.964C1073.01 250.519 1072.81 251.009 1072.4 251.436C1072 251.863 1071.5 252.076 1070.9 252.076ZM1077.34 270.86C1077.34 270.625 1077.39 270.433 1077.47 270.284L1079.62 269.9V256.14L1077.47 255.884C1077.39 255.671 1077.34 255.468 1077.34 255.276C1077.34 255.063 1077.38 254.849 1077.44 254.636C1077.99 254.615 1078.59 254.583 1079.23 254.54C1079.89 254.497 1080.54 254.465 1081.18 254.444C1081.84 254.401 1082.44 254.359 1082.98 254.316C1082.95 254.636 1082.92 254.977 1082.88 255.34C1082.86 255.703 1082.84 256.044 1082.82 256.364C1083.6 256.044 1084.39 255.735 1085.18 255.436C1085.99 255.116 1086.69 254.849 1087.26 254.636C1087.86 254.423 1088.23 254.316 1088.38 254.316C1089.6 254.316 1090.54 254.529 1091.2 254.956C1091.86 255.383 1092.32 255.991 1092.58 256.78C1092.85 257.569 1092.99 258.487 1092.99 259.532V269.932L1095.04 270.284C1095.1 270.391 1095.15 270.497 1095.17 270.604C1095.19 270.689 1095.2 270.785 1095.2 270.892C1095.2 271.105 1095.16 271.308 1095.07 271.5H1087.71C1087.63 271.329 1087.58 271.116 1087.58 270.86C1087.58 270.625 1087.62 270.433 1087.68 270.284L1089.79 269.9V260.108C1089.79 259.34 1089.73 258.7 1089.6 258.188C1089.49 257.655 1089.28 257.249 1088.96 256.972C1088.64 256.673 1088.15 256.524 1087.49 256.524C1087.34 256.524 1087.02 256.577 1086.53 256.684C1086.04 256.791 1085.46 256.94 1084.8 257.132C1084.16 257.324 1083.5 257.516 1082.82 257.708V269.9L1084.86 270.284C1084.93 270.391 1084.97 270.497 1084.99 270.604C1085.01 270.689 1085.02 270.775 1085.02 270.86C1085.02 271.095 1084.97 271.308 1084.86 271.5H1077.47C1077.39 271.329 1077.34 271.116 1077.34 270.86ZM1096.95 255.404C1096.95 255.212 1096.99 255.02 1097.05 254.828L1099.23 254.636L1100.7 250.54H1102.39V254.636H1106.84V256.3H1102.39V266.7C1102.39 267.489 1102.44 268.129 1102.52 268.62C1102.63 269.111 1102.8 269.463 1103.03 269.676C1103.29 269.889 1103.64 269.996 1104.09 269.996C1104.64 269.996 1105.19 269.9 1105.72 269.708C1106.28 269.516 1106.79 269.281 1107.26 269.004C1107.49 269.196 1107.64 269.431 1107.71 269.708C1107.77 269.964 1107.77 270.188 1107.71 270.38C1106.92 270.935 1106.11 271.308 1105.27 271.5C1104.46 271.713 1103.78 271.82 1103.23 271.82C1101.82 271.82 1100.79 271.425 1100.15 270.636C1099.53 269.847 1099.23 268.62 1099.23 266.956V256.268L1097.05 256.076C1096.99 255.884 1096.95 255.66 1096.95 255.404ZM1108.41 255.276C1108.41 255.063 1108.45 254.849 1108.54 254.636H1115.9C1115.99 254.807 1116.03 255.02 1116.03 255.276C1116.03 255.511 1115.99 255.713 1115.9 255.884L1113.79 256.236L1118.3 268.14L1122.84 256.204L1120.6 255.852C1120.5 255.639 1120.44 255.447 1120.44 255.276C1120.44 255.063 1120.49 254.849 1120.57 254.636H1126.62C1126.71 254.807 1126.75 255.02 1126.75 255.276C1126.75 255.489 1126.71 255.681 1126.62 255.852L1124.83 256.204L1118.84 270.892C1118.37 271.98 1117.92 272.919 1117.47 273.708C1117.04 274.497 1116.57 275.18 1116.06 275.756C1115.55 276.332 1114.95 276.833 1114.27 277.26C1113.59 277.687 1112.77 278.103 1111.84 278.508C1111.6 278.188 1111.41 277.815 1111.26 277.388C1111.11 276.961 1111.05 276.492 1111.07 275.98C1112.09 275.617 1112.96 275.233 1113.66 274.828C1114.36 274.444 1114.94 273.975 1115.39 273.42C1115.86 272.887 1116.24 272.257 1116.54 271.532L1110.36 256.236L1108.57 255.884C1108.51 255.756 1108.47 255.649 1108.44 255.564C1108.42 255.457 1108.41 255.361 1108.41 255.276ZM1126.1 277.26C1127.6 276.684 1128.66 275.745 1129.3 274.444C1129.94 273.164 1130.26 271.404 1130.26 269.164V256.14L1128.09 255.884C1128.02 255.671 1127.99 255.468 1127.99 255.276C1127.99 255.063 1128.02 254.849 1128.09 254.636C1128.66 254.593 1129.26 254.561 1129.88 254.54C1130.52 254.497 1131.15 254.465 1131.77 254.444C1132.39 254.401 1133.01 254.359 1133.62 254.316C1133.56 254.871 1133.51 255.436 1133.46 256.012C1133.44 256.588 1133.43 257.175 1133.43 257.772V269.164C1133.43 270.807 1133.17 272.289 1132.63 273.612C1132.12 274.935 1131.34 276.023 1130.3 276.876C1129.27 277.729 1128 278.284 1126.49 278.54C1126.38 278.327 1126.3 278.124 1126.23 277.932C1126.17 277.761 1126.13 277.537 1126.1 277.26ZM1131.74 252.076C1131.14 252.076 1130.64 251.863 1130.23 251.436C1129.83 251.009 1129.62 250.519 1129.62 249.964C1129.62 249.388 1129.83 248.887 1130.23 248.46C1130.64 248.033 1131.14 247.82 1131.74 247.82C1132.33 247.82 1132.82 248.033 1133.21 248.46C1133.61 248.887 1133.82 249.388 1133.82 249.964C1133.82 250.519 1133.61 251.009 1133.21 251.436C1132.82 251.863 1132.33 252.076 1131.74 252.076ZM1139.54 272.492H1137.18L1141.56 258.956L1145.3 246.54H1147.7L1143.58 259.116L1139.54 272.492ZM1159.49 256.876C1158.66 256.599 1157.95 256.396 1157.38 256.268C1156.8 256.14 1156.36 256.076 1156.07 256.076C1155.15 256.076 1154.34 256.375 1153.63 256.972C1152.93 257.569 1152.39 258.401 1152 259.468C1151.62 260.513 1151.43 261.751 1151.43 263.18C1151.43 264.161 1151.53 265.068 1151.75 265.9C1151.98 266.732 1152.28 267.457 1152.64 268.076C1153.03 268.673 1153.47 269.143 1153.99 269.484C1154.5 269.804 1155.04 269.964 1155.62 269.964C1155.75 269.964 1156.02 269.911 1156.45 269.804C1156.9 269.676 1157.39 269.516 1157.92 269.324C1158.48 269.111 1159 268.908 1159.49 268.716V256.876ZM1157.31 248.236C1157.25 247.98 1157.22 247.767 1157.22 247.596C1157.22 247.404 1157.25 247.201 1157.31 246.988C1157.93 246.924 1158.55 246.871 1159.17 246.828C1159.79 246.764 1160.41 246.711 1161.03 246.668C1161.64 246.625 1162.26 246.583 1162.88 246.54C1162.82 247.009 1162.76 247.564 1162.72 248.204C1162.7 248.823 1162.69 249.42 1162.69 249.996V269.932L1164.8 270.252C1164.84 270.359 1164.88 270.465 1164.9 270.572C1164.92 270.657 1164.93 270.753 1164.93 270.86C1164.93 271.073 1164.89 271.287 1164.8 271.5H1160.35L1159.87 269.964C1159.3 270.241 1158.69 270.529 1158.05 270.828C1157.43 271.105 1156.88 271.34 1156.39 271.532C1155.9 271.724 1155.55 271.82 1155.36 271.82C1153.91 271.82 1152.63 271.457 1151.52 270.732C1150.43 270.007 1149.58 269.004 1148.96 267.724C1148.34 266.423 1148.03 264.919 1148.03 263.212C1148.03 261.356 1148.41 259.767 1149.15 258.444C1149.9 257.121 1150.89 256.108 1152.13 255.404C1153.39 254.679 1154.75 254.316 1156.23 254.316C1156.5 254.316 1156.95 254.401 1157.57 254.572C1158.21 254.721 1158.85 254.892 1159.49 255.084V248.46L1157.31 248.236ZM1167.13 263.148C1167.13 261.356 1167.46 259.809 1168.12 258.508C1168.8 257.185 1169.72 256.161 1170.87 255.436C1172.04 254.689 1173.37 254.316 1174.84 254.316C1176.35 254.316 1177.6 254.7 1178.58 255.468C1179.59 256.236 1180.33 257.281 1180.82 258.604C1181.31 259.905 1181.56 261.399 1181.56 263.084L1170.49 263.756C1170.64 265.676 1171.15 267.18 1172.02 268.268C1172.92 269.356 1174.14 269.9 1175.67 269.9C1176.55 269.9 1177.4 269.783 1178.23 269.548C1179.08 269.292 1179.91 268.919 1180.7 268.428C1180.89 268.599 1181.04 268.801 1181.14 269.036C1181.27 269.271 1181.35 269.527 1181.37 269.804C1180.45 270.465 1179.47 270.967 1178.42 271.308C1177.4 271.649 1176.35 271.82 1175.29 271.82C1173.58 271.82 1172.12 271.468 1170.9 270.764C1169.69 270.039 1168.75 269.025 1168.09 267.724C1167.45 266.401 1167.13 264.876 1167.13 263.148ZM1170.49 262.028L1178.3 261.516C1178.27 260.599 1178.14 259.724 1177.88 258.892C1177.62 258.06 1177.23 257.377 1176.7 256.844C1176.16 256.311 1175.47 256.044 1174.62 256.044C1173.78 256.044 1173.07 256.3 1172.47 256.812C1171.87 257.303 1171.4 257.996 1171.06 258.892C1170.74 259.788 1170.55 260.833 1170.49 262.028ZM1184.38 266.316H1186.11L1187.07 269.356C1187.75 269.591 1188.4 269.761 1189.02 269.868C1189.66 269.975 1190.14 270.028 1190.46 270.028C1191.35 270.028 1192.12 269.825 1192.76 269.42C1193.42 269.015 1193.75 268.353 1193.75 267.436C1193.75 266.881 1193.57 266.423 1193.21 266.06C1192.85 265.676 1192.38 265.356 1191.8 265.1C1191.23 264.844 1190.6 264.599 1189.91 264.364C1189.08 264.065 1188.26 263.724 1187.45 263.34C1186.64 262.956 1185.97 262.433 1185.43 261.772C1184.92 261.111 1184.67 260.247 1184.67 259.18C1184.67 258.156 1184.91 257.281 1185.4 256.556C1185.89 255.831 1186.57 255.276 1187.45 254.892C1188.35 254.508 1189.4 254.316 1190.62 254.316C1190.79 254.316 1191.13 254.359 1191.64 254.444C1192.17 254.529 1192.81 254.636 1193.56 254.764C1194.33 254.892 1195.1 255.052 1195.87 255.244C1195.84 255.671 1195.81 256.151 1195.77 256.684C1195.75 257.196 1195.72 257.708 1195.67 258.22C1195.63 258.711 1195.59 259.169 1195.55 259.596H1193.82L1193.4 256.556C1192.76 256.428 1192.19 256.321 1191.67 256.236C1191.18 256.129 1190.83 256.076 1190.62 256.076C1189.7 256.076 1188.95 256.279 1188.38 256.684C1187.82 257.089 1187.55 257.708 1187.55 258.54C1187.55 259.137 1187.73 259.628 1188.09 260.012C1188.45 260.375 1188.93 260.684 1189.53 260.94C1190.15 261.196 1190.82 261.452 1191.55 261.708C1192.4 262.007 1193.21 262.359 1193.98 262.764C1194.75 263.148 1195.37 263.649 1195.87 264.268C1196.38 264.887 1196.63 265.708 1196.63 266.732C1196.63 267.756 1196.36 268.652 1195.8 269.42C1195.25 270.167 1194.49 270.753 1193.53 271.18C1192.59 271.607 1191.53 271.82 1190.36 271.82C1190.11 271.82 1189.68 271.777 1189.08 271.692C1188.51 271.628 1187.82 271.511 1187.03 271.34C1186.27 271.169 1185.49 270.945 1184.7 270.668C1184.61 269.815 1184.55 269.057 1184.51 268.396C1184.46 267.735 1184.42 267.041 1184.38 266.316ZM1199.16 270.86C1199.16 270.647 1199.2 270.455 1199.28 270.284L1201.43 269.9V256.14L1199.28 255.884C1199.2 255.671 1199.16 255.468 1199.16 255.276C1199.16 255.063 1199.19 254.849 1199.25 254.636C1199.79 254.615 1200.38 254.593 1201.04 254.572C1201.71 254.529 1202.37 254.487 1203.03 254.444C1203.69 254.401 1204.29 254.359 1204.82 254.316C1204.76 254.871 1204.7 255.436 1204.66 256.012C1204.64 256.588 1204.63 257.207 1204.63 257.868V269.9L1206.71 270.284C1206.81 270.433 1206.87 270.625 1206.87 270.86C1206.87 270.967 1206.86 271.073 1206.84 271.18C1206.81 271.287 1206.77 271.393 1206.71 271.5H1199.28C1199.2 271.329 1199.16 271.116 1199.16 270.86ZM1202.87 252.076C1202.27 252.076 1201.77 251.863 1201.36 251.436C1200.96 251.009 1200.76 250.519 1200.76 249.964C1200.76 249.388 1200.96 248.887 1201.36 248.46C1201.77 248.033 1202.27 247.82 1202.87 247.82C1203.47 247.82 1203.97 248.033 1204.37 248.46C1204.78 248.887 1204.98 249.388 1204.98 249.964C1204.98 250.519 1204.78 251.009 1204.37 251.436C1203.97 251.863 1203.47 252.076 1202.87 252.076ZM1208.8 274.668C1208.8 273.9 1209 273.207 1209.41 272.588C1209.83 271.969 1210.42 271.457 1211.17 271.052C1211.02 270.903 1210.91 270.743 1210.85 270.572C1210.78 270.38 1210.75 270.177 1210.75 269.964C1210.75 269.473 1210.88 268.865 1211.14 268.14C1211.41 267.393 1211.84 266.561 1212.42 265.644C1211.61 265.089 1210.98 264.428 1210.53 263.66C1210.08 262.871 1209.86 261.868 1209.86 260.652C1209.86 259.351 1210.13 258.241 1210.69 257.324C1211.26 256.385 1212.03 255.649 1212.99 255.116C1213.95 254.583 1215.02 254.316 1216.19 254.316C1216.77 254.316 1217.3 254.391 1217.79 254.54C1218.28 254.668 1218.74 254.871 1219.17 255.148L1223.78 254.028C1223.93 254.177 1224.03 254.369 1224.1 254.604C1224.18 254.817 1224.22 255.052 1224.22 255.308C1224.22 255.671 1224.15 256.023 1224 256.364L1220.51 256.172C1221.11 256.769 1221.57 257.42 1221.89 258.124C1222.23 258.807 1222.4 259.617 1222.4 260.556C1222.4 261.836 1222.1 262.924 1221.5 263.82C1220.91 264.716 1220.13 265.409 1219.17 265.9C1218.21 266.369 1217.15 266.604 1216 266.604C1215.62 266.604 1215.22 266.583 1214.82 266.54C1214.41 266.476 1214.04 266.38 1213.7 266.252C1213.5 266.743 1213.35 267.265 1213.25 267.82C1213.14 268.375 1213.09 268.844 1213.09 269.228H1218.69C1220.27 269.228 1221.51 269.591 1222.43 270.316C1223.37 271.02 1223.84 271.991 1223.84 273.228C1223.84 274.828 1223.09 276.108 1221.6 277.068C1220.13 278.049 1218.08 278.54 1215.46 278.54C1213.3 278.54 1211.65 278.188 1210.5 277.484C1209.37 276.78 1208.8 275.841 1208.8 274.668ZM1211.42 274.156C1211.42 274.945 1211.79 275.564 1212.51 276.012C1213.24 276.46 1214.33 276.684 1215.78 276.684C1217.44 276.684 1218.72 276.385 1219.62 275.788C1220.53 275.212 1220.99 274.508 1220.99 273.676C1220.99 273.015 1220.76 272.503 1220.29 272.14C1219.82 271.799 1219.17 271.628 1218.34 271.628H1212.93C1212.37 272.012 1211.98 272.407 1211.74 272.812C1211.53 273.239 1211.42 273.687 1211.42 274.156ZM1212.86 260.716C1212.86 262.167 1213.15 263.244 1213.73 263.948C1214.33 264.652 1215.11 265.004 1216.1 265.004C1217.1 265.004 1217.89 264.641 1218.46 263.916C1219.06 263.191 1219.36 262.103 1219.36 260.652C1219.36 259.564 1219.21 258.679 1218.91 257.996C1218.61 257.292 1218.22 256.78 1217.73 256.46C1217.26 256.14 1216.73 255.98 1216.13 255.98C1215.57 255.98 1215.04 256.129 1214.53 256.428C1214.04 256.727 1213.63 257.228 1213.31 257.932C1213.01 258.615 1212.86 259.543 1212.86 260.716ZM1226.47 270.86C1226.47 270.625 1226.51 270.433 1226.6 270.284L1228.74 269.9V256.14L1226.6 255.884C1226.51 255.671 1226.47 255.468 1226.47 255.276C1226.47 255.063 1226.5 254.849 1226.56 254.636C1227.12 254.615 1227.72 254.583 1228.36 254.54C1229.02 254.497 1229.67 254.465 1230.31 254.444C1230.97 254.401 1231.57 254.359 1232.1 254.316C1232.08 254.636 1232.05 254.977 1232 255.34C1231.98 255.703 1231.96 256.044 1231.94 256.364C1232.73 256.044 1233.52 255.735 1234.31 255.436C1235.12 255.116 1235.81 254.849 1236.39 254.636C1236.99 254.423 1237.36 254.316 1237.51 254.316C1238.72 254.316 1239.66 254.529 1240.32 254.956C1240.99 255.383 1241.44 255.991 1241.7 256.78C1241.98 257.569 1242.12 258.487 1242.12 259.532V269.932L1244.16 270.284C1244.23 270.391 1244.27 270.497 1244.29 270.604C1244.31 270.689 1244.32 270.785 1244.32 270.892C1244.32 271.105 1244.28 271.308 1244.2 271.5H1236.84C1236.75 271.329 1236.71 271.116 1236.71 270.86C1236.71 270.625 1236.74 270.433 1236.8 270.284L1238.92 269.9V260.108C1238.92 259.34 1238.85 258.7 1238.72 258.188C1238.62 257.655 1238.4 257.249 1238.08 256.972C1237.76 256.673 1237.27 256.524 1236.61 256.524C1236.46 256.524 1236.14 256.577 1235.65 256.684C1235.16 256.791 1234.59 256.94 1233.92 257.132C1233.28 257.324 1232.62 257.516 1231.94 257.708V269.9L1233.99 270.284C1234.05 270.391 1234.09 270.497 1234.12 270.604C1234.14 270.689 1234.15 270.775 1234.15 270.86C1234.15 271.095 1234.09 271.308 1233.99 271.5H1226.6C1226.51 271.329 1226.47 271.116 1226.47 270.86Z" fill="black" fill-opacity="0.9"/>
<path d="M105.68 266.16C105.293 266.16 104.9 266.127 104.5 266.06C104.113 265.993 103.747 265.873 103.4 265.7C103.053 265.513 102.74 265.28 102.46 265C102.18 264.707 101.953 264.387 101.78 264.04C101.607 263.68 101.487 263.307 101.42 262.92C101.353 262.52 101.32 262.127 101.32 261.74V255.82C101.32 255.433 101.353 255.047 101.42 254.66C101.487 254.26 101.607 253.887 101.78 253.54C101.953 253.18 102.18 252.86 102.46 252.58C102.74 252.287 103.053 252.053 103.4 251.88C103.747 251.693 104.113 251.567 104.5 251.5C104.9 251.433 105.293 251.4 105.68 251.4C106.067 251.4 106.453 251.433 106.84 251.5C107.24 251.567 107.613 251.693 107.96 251.88C108.307 252.053 108.62 252.287 108.9 252.58C109.18 252.86 109.407 253.18 109.58 253.54C109.753 253.887 109.873 254.26 109.94 254.66C110.007 255.047 110.04 255.433 110.04 255.82V261.74C110.04 262.127 110.007 262.52 109.94 262.92C109.873 263.307 109.753 263.68 109.58 264.04C109.407 264.387 109.18 264.707 108.9 265C108.62 265.28 108.307 265.513 107.96 265.7C107.613 265.873 107.24 265.993 106.84 266.06C106.453 266.127 106.067 266.16 105.68 266.16ZM105.68 264.52C105.92 264.52 106.153 264.5 106.38 264.46C106.62 264.407 106.84 264.32 107.04 264.2C107.24 264.08 107.42 263.927 107.58 263.74C107.74 263.553 107.86 263.353 107.94 263.14C108.033 262.913 108.1 262.687 108.14 262.46C108.18 262.22 108.2 261.98 108.2 261.74V255.82C108.2 255.58 108.18 255.347 108.14 255.12C108.1 254.88 108.033 254.653 107.94 254.44C107.86 254.213 107.74 254.007 107.58 253.82C107.42 253.633 107.24 253.48 107.04 253.36C106.84 253.24 106.62 253.16 106.38 253.12C106.153 253.067 105.92 253.04 105.68 253.04C105.44 253.04 105.2 253.067 104.96 253.12C104.733 253.16 104.52 253.24 104.32 253.36C104.12 253.48 103.94 253.633 103.78 253.82C103.62 254.007 103.493 254.213 103.4 254.44C103.32 254.653 103.26 254.88 103.22 255.12C103.18 255.347 103.16 255.58 103.16 255.82V261.74C103.16 261.98 103.18 262.22 103.22 262.46C103.26 262.687 103.32 262.913 103.4 263.14C103.493 263.353 103.62 263.553 103.78 263.74C103.94 263.927 104.12 264.08 104.32 264.2C104.52 264.32 104.733 264.407 104.96 264.46C105.2 264.5 105.44 264.52 105.68 264.52ZM117.027 266.16C116.667 266.16 116.307 266.133 115.947 266.08C115.601 266.04 115.261 265.953 114.927 265.82C114.594 265.687 114.281 265.513 113.987 265.3C113.694 265.073 113.447 264.813 113.247 264.52C113.047 264.227 112.894 263.907 112.787 263.56C112.694 263.213 112.647 262.86 112.647 262.5V262.34H114.487V262.42C114.487 262.74 114.554 263.047 114.687 263.34C114.834 263.62 115.027 263.853 115.267 264.04C115.521 264.227 115.801 264.353 116.107 264.42C116.414 264.487 116.721 264.52 117.027 264.52C117.334 264.52 117.641 264.487 117.947 264.42C118.254 264.353 118.527 264.227 118.767 264.04C119.021 263.84 119.214 263.6 119.347 263.32C119.494 263.027 119.567 262.727 119.567 262.42C119.567 262.06 119.481 261.72 119.307 261.4C119.134 261.08 118.914 260.807 118.647 260.58C118.381 260.353 118.081 260.167 117.747 260.02C117.427 259.86 117.107 259.713 116.787 259.58C116.467 259.447 116.147 259.307 115.827 259.16C115.507 259 115.201 258.82 114.907 258.62C114.614 258.42 114.341 258.2 114.087 257.96C113.834 257.707 113.614 257.433 113.427 257.14C113.241 256.833 113.094 256.513 112.987 256.18C112.894 255.833 112.847 255.48 112.847 255.12C112.847 254.773 112.894 254.427 112.987 254.08C113.081 253.733 113.221 253.413 113.407 253.12C113.594 252.813 113.821 252.547 114.087 252.32C114.367 252.093 114.667 251.913 114.987 251.78C115.321 251.633 115.661 251.533 116.007 251.48C116.367 251.427 116.721 251.4 117.067 251.4C117.414 251.4 117.761 251.427 118.107 251.48C118.467 251.533 118.807 251.627 119.127 251.76C119.447 251.893 119.747 252.073 120.027 252.3C120.307 252.513 120.541 252.767 120.727 253.06C120.914 253.353 121.054 253.673 121.147 254.02C121.241 254.367 121.287 254.713 121.287 255.06V255.22H119.447V255.14C119.447 254.833 119.387 254.54 119.267 254.26C119.147 253.98 118.974 253.747 118.747 253.56C118.521 253.36 118.254 253.227 117.947 253.16C117.654 253.08 117.361 253.04 117.067 253.04C116.774 253.04 116.474 253.08 116.167 253.16C115.874 253.227 115.614 253.36 115.387 253.56C115.161 253.747 114.987 253.987 114.867 254.28C114.747 254.56 114.687 254.847 114.687 255.14C114.687 255.487 114.767 255.827 114.927 256.16C115.101 256.48 115.321 256.753 115.587 256.98C115.867 257.207 116.167 257.393 116.487 257.54C116.807 257.687 117.127 257.833 117.447 257.98C117.781 258.113 118.107 258.26 118.427 258.42C118.747 258.567 119.054 258.74 119.347 258.94C119.641 259.127 119.914 259.347 120.167 259.6C120.421 259.853 120.641 260.133 120.827 260.44C121.014 260.733 121.154 261.053 121.247 261.4C121.354 261.733 121.407 262.073 121.407 262.42C121.407 262.78 121.354 263.14 121.247 263.5C121.154 263.847 121.007 264.173 120.807 264.48C120.607 264.773 120.361 265.033 120.067 265.26C119.787 265.487 119.481 265.667 119.147 265.8C118.814 265.933 118.467 266.027 118.107 266.08C117.747 266.133 117.387 266.16 117.027 266.16ZM128.394 266.16C128.034 266.16 127.674 266.133 127.314 266.08C126.968 266.04 126.628 265.953 126.294 265.82C125.961 265.687 125.648 265.513 125.354 265.3C125.061 265.073 124.814 264.813 124.614 264.52C124.414 264.227 124.261 263.907 124.154 263.56C124.061 263.213 124.014 262.86 124.014 262.5V262.34H125.854V262.42C125.854 262.74 125.921 263.047 126.054 263.34C126.201 263.62 126.394 263.853 126.634 264.04C126.888 264.227 127.168 264.353 127.474 264.42C127.781 264.487 128.088 264.52 128.394 264.52C128.701 264.52 129.008 264.487 129.314 264.42C129.621 264.353 129.894 264.227 130.134 264.04C130.388 263.84 130.581 263.6 130.714 263.32C130.861 263.027 130.934 262.727 130.934 262.42C130.934 262.06 130.848 261.72 130.674 261.4C130.501 261.08 130.281 260.807 130.014 260.58C129.748 260.353 129.448 260.167 129.114 260.02C128.794 259.86 128.474 259.713 128.154 259.58C127.834 259.447 127.514 259.307 127.194 259.16C126.874 259 126.568 258.82 126.274 258.62C125.981 258.42 125.708 258.2 125.454 257.96C125.201 257.707 124.981 257.433 124.794 257.14C124.608 256.833 124.461 256.513 124.354 256.18C124.261 255.833 124.214 255.48 124.214 255.12C124.214 254.773 124.261 254.427 124.354 254.08C124.448 253.733 124.588 253.413 124.774 253.12C124.961 252.813 125.188 252.547 125.454 252.32C125.734 252.093 126.034 251.913 126.354 251.78C126.688 251.633 127.028 251.533 127.374 251.48C127.734 251.427 128.088 251.4 128.434 251.4C128.781 251.4 129.128 251.427 129.474 251.48C129.834 251.533 130.174 251.627 130.494 251.76C130.814 251.893 131.114 252.073 131.394 252.3C131.674 252.513 131.908 252.767 132.094 253.06C132.281 253.353 132.421 253.673 132.514 254.02C132.608 254.367 132.654 254.713 132.654 255.06V255.22H130.814V255.14C130.814 254.833 130.754 254.54 130.634 254.26C130.514 253.98 130.341 253.747 130.114 253.56C129.888 253.36 129.621 253.227 129.314 253.16C129.021 253.08 128.728 253.04 128.434 253.04C128.141 253.04 127.841 253.08 127.534 253.16C127.241 253.227 126.981 253.36 126.754 253.56C126.528 253.747 126.354 253.987 126.234 254.28C126.114 254.56 126.054 254.847 126.054 255.14C126.054 255.487 126.134 255.827 126.294 256.16C126.468 256.48 126.688 256.753 126.954 256.98C127.234 257.207 127.534 257.393 127.854 257.54C128.174 257.687 128.494 257.833 128.814 257.98C129.148 258.113 129.474 258.26 129.794 258.42C130.114 258.567 130.421 258.74 130.714 258.94C131.008 259.127 131.281 259.347 131.534 259.6C131.788 259.853 132.008 260.133 132.194 260.44C132.381 260.733 132.521 261.053 132.614 261.4C132.721 261.733 132.774 262.073 132.774 262.42C132.774 262.78 132.721 263.14 132.614 263.5C132.521 263.847 132.374 264.173 132.174 264.48C131.974 264.773 131.728 265.033 131.434 265.26C131.154 265.487 130.848 265.667 130.514 265.8C130.181 265.933 129.834 266.027 129.474 266.08C129.114 266.133 128.754 266.16 128.394 266.16Z" fill="black" fill-opacity="0.64"/>
<mask id="path-10-inside-1_1_454" fill="white">
<path d="M0 0H1280V202H0V0Z"/>
</mask>
<path d="M0 0H1280V202H0V0Z" fill="#D9D9D9" fill-opacity="0.24"/>
<path d="M1280 202V200H0V202V204H1280V202Z" fill="black" fill-opacity="0.16" mask="url(#path-10-inside-1_1_454)"/>
<path d="M43.28 34.784V65.312L49.568 65.168C53.184 65.072 56.016 63.696 58.064 61.04C60.112 58.384 61.136 54.576 61.136 49.616C61.136 44.944 60.08 41.36 57.968 38.864C55.888 36.336 52.944 35.024 49.136 34.928L43.28 34.784ZM34.352 32H49.136C52.752 32 55.856 32.704 58.448 34.112C61.072 35.52 63.088 37.536 64.496 40.16C65.904 42.752 66.608 45.888 66.608 49.568C66.608 53.408 65.92 56.72 64.544 59.504C63.168 62.256 61.184 64.368 58.592 65.84C56.032 67.28 52.96 68 49.376 68H34.352C34.224 67.616 34.16 67.28 34.16 66.992C34.16 66.672 34.224 66.336 34.352 65.984L38.144 65.456V34.544L34.4 34.016C34.24 33.696 34.16 33.376 34.16 33.056C34.16 32.736 34.224 32.384 34.352 32ZM71.2381 55.472C71.2381 52.784 71.7341 50.464 72.7261 48.512C73.7501 46.528 75.1261 44.992 76.8541 43.904C78.6141 42.784 80.5981 42.224 82.8061 42.224C85.0781 42.224 86.9501 42.8 88.4221 43.952C89.9261 45.104 91.0461 46.672 91.7821 48.656C92.5181 50.608 92.8861 52.848 92.8861 55.376L76.2781 56.384C76.5021 59.264 77.2701 61.52 78.5821 63.152C79.9261 64.784 81.7501 65.6 84.0541 65.6C85.3661 65.6 86.6461 65.424 87.8941 65.072C89.1741 64.688 90.4061 64.128 91.5901 63.392C91.8781 63.648 92.1021 63.952 92.2621 64.304C92.4541 64.656 92.5661 65.04 92.5981 65.456C91.2221 66.448 89.7501 67.2 88.1821 67.712C86.6461 68.224 85.0781 68.48 83.4781 68.48C80.9181 68.48 78.7261 67.952 76.9021 66.896C75.0781 65.808 73.6701 64.288 72.6781 62.336C71.7181 60.352 71.2381 58.064 71.2381 55.472ZM76.2781 53.792L87.9901 53.024C87.9581 51.648 87.7501 50.336 87.3661 49.088C86.9821 47.84 86.3901 46.816 85.5901 46.016C84.7901 45.216 83.7501 44.816 82.4701 44.816C81.2221 44.816 80.1501 45.2 79.2541 45.968C78.3581 46.704 77.6541 47.744 77.1421 49.088C76.6621 50.432 76.3741 52 76.2781 53.792ZM97.1131 60.224H99.7051L101.145 64.784C102.169 65.136 103.145 65.392 104.073 65.552C105.033 65.712 105.753 65.792 106.233 65.792C107.577 65.792 108.729 65.488 109.689 64.88C110.681 64.272 111.177 63.28 111.177 61.904C111.177 61.072 110.905 60.384 110.361 59.84C109.817 59.264 109.113 58.784 108.249 58.4C107.385 58.016 106.441 57.648 105.417 57.296C104.169 56.848 102.937 56.336 101.721 55.76C100.505 55.184 99.4971 54.4 98.6971 53.408C97.9291 52.416 97.5451 51.12 97.5451 49.52C97.5451 47.984 97.9131 46.672 98.6491 45.584C99.3851 44.496 100.409 43.664 101.721 43.088C103.065 42.512 104.649 42.224 106.473 42.224C106.729 42.224 107.241 42.288 108.009 42.416C108.809 42.544 109.769 42.704 110.889 42.896C112.041 43.088 113.193 43.328 114.345 43.616C114.313 44.256 114.265 44.976 114.201 45.776C114.169 46.544 114.121 47.312 114.057 48.08C113.993 48.816 113.929 49.504 113.865 50.144H111.273L110.649 45.584C109.689 45.392 108.825 45.232 108.057 45.104C107.321 44.944 106.793 44.864 106.473 44.864C105.097 44.864 103.977 45.168 103.113 45.776C102.281 46.384 101.865 47.312 101.865 48.56C101.865 49.456 102.137 50.192 102.681 50.768C103.225 51.312 103.945 51.776 104.841 52.16C105.769 52.544 106.777 52.928 107.865 53.312C109.145 53.76 110.361 54.288 111.513 54.896C112.665 55.472 113.609 56.224 114.345 57.152C115.113 58.08 115.497 59.312 115.497 60.848C115.497 62.384 115.081 63.728 114.249 64.88C113.417 66 112.281 66.88 110.841 67.52C109.433 68.16 107.849 68.48 106.089 68.48C105.705 68.48 105.065 68.416 104.169 68.288C103.305 68.192 102.281 68.016 101.097 67.76C99.9451 67.504 98.7771 67.168 97.5931 66.752C97.4651 65.472 97.3691 64.336 97.3051 63.344C97.2411 62.352 97.1771 61.312 97.1131 60.224ZM119.281 67.04C119.281 66.72 119.345 66.432 119.473 66.176L122.689 65.6V44.96L119.473 44.576C119.345 44.256 119.281 43.952 119.281 43.664C119.281 43.344 119.329 43.024 119.425 42.704C120.225 42.672 121.121 42.64 122.113 42.608C123.105 42.544 124.097 42.48 125.089 42.416C126.081 42.352 126.977 42.288 127.777 42.224C127.681 43.056 127.601 43.904 127.537 44.768C127.505 45.632 127.489 46.56 127.489 47.552V65.6L130.609 66.176C130.769 66.4 130.849 66.688 130.849 67.04C130.849 67.2 130.833 67.36 130.801 67.52C130.769 67.68 130.705 67.84 130.609 68H119.473C119.345 67.744 119.281 67.424 119.281 67.04ZM124.849 38.864C123.953 38.864 123.201 38.544 122.593 37.904C121.985 37.264 121.681 36.528 121.681 35.696C121.681 34.832 121.985 34.08 122.593 33.44C123.201 32.8 123.953 32.48 124.849 32.48C125.745 32.48 126.497 32.8 127.105 33.44C127.713 34.08 128.017 34.832 128.017 35.696C128.017 36.528 127.713 37.264 127.105 37.904C126.497 38.544 125.745 38.864 124.849 38.864ZM133.747 72.752C133.747 71.6 134.051 70.56 134.659 69.632C135.299 68.704 136.179 67.936 137.299 67.328C137.075 67.104 136.915 66.864 136.819 66.608C136.723 66.32 136.675 66.016 136.675 65.696C136.675 64.96 136.867 64.048 137.251 62.96C137.667 61.84 138.307 60.592 139.171 59.216C137.955 58.384 137.011 57.392 136.339 56.24C135.667 55.056 135.331 53.552 135.331 51.728C135.331 49.776 135.747 48.112 136.579 46.736C137.443 45.328 138.595 44.224 140.035 43.424C141.475 42.624 143.075 42.224 144.835 42.224C145.699 42.224 146.499 42.336 147.235 42.56C147.971 42.752 148.659 43.056 149.299 43.472L156.211 41.792C156.435 42.016 156.595 42.304 156.691 42.656C156.819 42.976 156.883 43.328 156.883 43.712C156.883 44.256 156.771 44.784 156.547 45.296L151.315 45.008C152.211 45.904 152.899 46.88 153.379 47.936C153.891 48.96 154.147 50.176 154.147 51.584C154.147 53.504 153.699 55.136 152.803 56.48C151.907 57.824 150.739 58.864 149.299 59.6C147.859 60.304 146.275 60.656 144.547 60.656C143.971 60.656 143.379 60.624 142.771 60.56C142.163 60.464 141.603 60.32 141.091 60.128C140.803 60.864 140.579 61.648 140.419 62.48C140.259 63.312 140.179 64.016 140.179 64.592H148.579C150.947 64.592 152.819 65.136 154.195 66.224C155.603 67.28 156.307 68.736 156.307 70.592C156.307 72.992 155.187 74.912 152.947 76.352C150.739 77.824 147.667 78.56 143.731 78.56C140.499 78.56 138.019 78.032 136.291 76.976C134.595 75.92 133.747 74.512 133.747 72.752ZM137.683 71.984C137.683 73.168 138.227 74.096 139.315 74.768C140.403 75.44 142.035 75.776 144.211 75.776C146.707 75.776 148.627 75.328 149.971 74.432C151.347 73.568 152.035 72.512 152.035 71.264C152.035 70.272 151.683 69.504 150.979 68.96C150.275 68.448 149.299 68.192 148.051 68.192H139.939C139.107 68.768 138.515 69.36 138.163 69.968C137.843 70.608 137.683 71.28 137.683 71.984ZM139.843 51.824C139.843 54 140.275 55.616 141.139 56.672C142.035 57.728 143.219 58.256 144.691 58.256C146.195 58.256 147.379 57.712 148.243 56.624C149.139 55.536 149.587 53.904 149.587 51.728C149.587 50.096 149.363 48.768 148.915 47.744C148.467 46.688 147.875 45.92 147.139 45.44C146.435 44.96 145.635 44.72 144.739 44.72C143.907 44.72 143.107 44.944 142.339 45.392C141.603 45.84 140.995 46.592 140.515 47.648C140.067 48.672 139.843 50.064 139.843 51.824ZM160.249 67.04C160.249 66.688 160.313 66.4 160.441 66.176L163.657 65.6V44.96L160.441 44.576C160.313 44.256 160.249 43.952 160.249 43.664C160.249 43.344 160.297 43.024 160.393 42.704C161.225 42.672 162.121 42.624 163.081 42.56C164.073 42.496 165.049 42.448 166.009 42.416C167.001 42.352 167.897 42.288 168.697 42.224C168.665 42.704 168.617 43.216 168.553 43.76C168.521 44.304 168.489 44.816 168.457 45.296C169.641 44.816 170.825 44.352 172.009 43.904C173.225 43.424 174.265 43.024 175.129 42.704C176.025 42.384 176.585 42.224 176.809 42.224C178.633 42.224 180.041 42.544 181.033 43.184C182.025 43.824 182.713 44.736 183.097 45.92C183.513 47.104 183.721 48.48 183.721 50.048V65.648L186.793 66.176C186.889 66.336 186.953 66.496 186.985 66.656C187.017 66.784 187.033 66.928 187.033 67.088C187.033 67.408 186.969 67.712 186.841 68H175.801C175.673 67.744 175.609 67.424 175.609 67.04C175.609 66.688 175.657 66.4 175.753 66.176L178.921 65.6V50.912C178.921 49.76 178.825 48.8 178.633 48.032C178.473 47.232 178.153 46.624 177.673 46.208C177.193 45.76 176.457 45.536 175.465 45.536C175.241 45.536 174.761 45.616 174.025 45.776C173.289 45.936 172.425 46.16 171.433 46.448C170.473 46.736 169.481 47.024 168.457 47.312V65.6L171.529 66.176C171.625 66.336 171.689 66.496 171.721 66.656C171.753 66.784 171.769 66.912 171.769 67.04C171.769 67.392 171.689 67.712 171.529 68H160.441C160.313 67.744 160.249 67.424 160.249 67.04ZM203.802 58.304H206.346L207.642 63.776C208.698 64.48 209.802 64.976 210.954 65.264C212.138 65.52 213.306 65.648 214.458 65.648C215.898 65.648 217.21 65.424 218.394 64.976C219.578 64.496 220.522 63.824 221.226 62.96C221.93 62.064 222.282 60.96 222.282 59.648C222.282 58.4 221.978 57.344 221.37 56.48C220.762 55.584 219.866 54.784 218.682 54.08C217.53 53.376 216.138 52.624 214.506 51.824C213.482 51.344 212.41 50.832 211.29 50.288C210.17 49.744 209.13 49.072 208.17 48.272C207.21 47.472 206.41 46.48 205.77 45.296C205.162 44.08 204.858 42.592 204.858 40.832C204.858 38.88 205.338 37.216 206.298 35.84C207.258 34.464 208.586 33.408 210.282 32.672C211.978 31.904 213.914 31.52 216.09 31.52C217.402 31.52 218.698 31.664 219.978 31.952C221.29 32.24 222.634 32.64 224.01 33.152L224.73 31.808H226.602C226.538 33.12 226.49 34.288 226.458 35.312C226.426 36.304 226.378 37.28 226.314 38.24C226.25 39.2 226.186 40.288 226.122 41.504H223.578L222.81 35.984C221.786 35.44 220.682 35.04 219.498 34.784C218.314 34.496 217.178 34.352 216.09 34.352C214.17 34.352 212.634 34.816 211.482 35.744C210.362 36.672 209.802 37.952 209.802 39.584C209.802 41.056 210.186 42.272 210.954 43.232C211.722 44.192 212.714 45.008 213.93 45.68C215.146 46.352 216.426 46.992 217.77 47.6C219.178 48.24 220.474 48.912 221.658 49.616C222.842 50.288 223.866 51.04 224.73 51.872C225.594 52.672 226.25 53.584 226.698 54.608C227.178 55.632 227.418 56.816 227.418 58.16C227.418 60.368 226.842 62.256 225.69 63.824C224.57 65.36 223.034 66.528 221.082 67.328C219.162 68.096 217.002 68.48 214.602 68.48C212.714 68.48 210.89 68.288 209.13 67.904C207.37 67.488 205.722 66.928 204.186 66.224C204.09 64.816 204.01 63.456 203.946 62.144C203.914 60.8 203.866 59.52 203.802 58.304ZM228.978 43.664C228.978 43.344 229.042 43.024 229.17 42.704H240.21C240.338 42.96 240.402 43.28 240.402 43.664C240.402 44.016 240.338 44.32 240.21 44.576L237.042 45.104L243.81 62.96L250.626 45.056L247.266 44.528C247.106 44.208 247.026 43.92 247.026 43.664C247.026 43.344 247.09 43.024 247.218 42.704H256.29C256.418 42.96 256.482 43.28 256.482 43.664C256.482 43.984 256.418 44.272 256.29 44.528L253.602 45.056L244.626 67.088C243.922 68.72 243.234 70.128 242.562 71.312C241.922 72.496 241.218 73.52 240.45 74.384C239.682 75.248 238.786 76 237.762 76.64C236.738 77.28 235.522 77.904 234.114 78.512C233.762 78.032 233.474 77.472 233.25 76.832C233.026 76.192 232.93 75.488 232.962 74.72C234.498 74.176 235.794 73.6 236.85 72.992C237.906 72.416 238.77 71.712 239.442 70.88C240.146 70.08 240.722 69.136 241.17 68.048L231.906 45.104L229.218 44.576C229.122 44.384 229.058 44.224 229.026 44.096C228.994 43.936 228.978 43.792 228.978 43.664ZM258.973 60.224H261.565L263.005 64.784C264.029 65.136 265.005 65.392 265.933 65.552C266.893 65.712 267.613 65.792 268.093 65.792C269.437 65.792 270.589 65.488 271.549 64.88C272.541 64.272 273.037 63.28 273.037 61.904C273.037 61.072 272.765 60.384 272.221 59.84C271.677 59.264 270.973 58.784 270.109 58.4C269.245 58.016 268.301 57.648 267.277 57.296C266.029 56.848 264.797 56.336 263.581 55.76C262.365 55.184 261.357 54.4 260.557 53.408C259.789 52.416 259.405 51.12 259.405 49.52C259.405 47.984 259.773 46.672 260.509 45.584C261.245 44.496 262.269 43.664 263.581 43.088C264.925 42.512 266.509 42.224 268.333 42.224C268.589 42.224 269.101 42.288 269.869 42.416C270.669 42.544 271.629 42.704 272.749 42.896C273.901 43.088 275.053 43.328 276.205 43.616C276.173 44.256 276.125 44.976 276.061 45.776C276.029 46.544 275.981 47.312 275.917 48.08C275.853 48.816 275.789 49.504 275.725 50.144H273.133L272.509 45.584C271.549 45.392 270.685 45.232 269.917 45.104C269.181 44.944 268.653 44.864 268.333 44.864C266.957 44.864 265.837 45.168 264.973 45.776C264.141 46.384 263.725 47.312 263.725 48.56C263.725 49.456 263.997 50.192 264.541 50.768C265.085 51.312 265.805 51.776 266.701 52.16C267.629 52.544 268.637 52.928 269.725 53.312C271.005 53.76 272.221 54.288 273.373 54.896C274.525 55.472 275.469 56.224 276.205 57.152C276.973 58.08 277.357 59.312 277.357 60.848C277.357 62.384 276.941 63.728 276.109 64.88C275.277 66 274.141 66.88 272.701 67.52C271.293 68.16 269.709 68.48 267.949 68.48C267.565 68.48 266.925 68.416 266.029 68.288C265.165 68.192 264.141 68.016 262.957 67.76C261.805 67.504 260.637 67.168 259.453 66.752C259.325 65.472 259.229 64.336 259.165 63.344C259.101 62.352 259.037 61.312 258.973 60.224ZM280.18 43.856C280.18 43.568 280.228 43.28 280.324 42.992L283.588 42.704L285.796 36.56H288.34V42.704H295.012V45.2H288.34V60.8C288.34 61.984 288.404 62.944 288.532 63.68C288.692 64.416 288.948 64.944 289.3 65.264C289.684 65.584 290.212 65.744 290.884 65.744C291.716 65.744 292.532 65.6 293.332 65.312C294.164 65.024 294.932 64.672 295.636 64.256C295.988 64.544 296.212 64.896 296.308 65.312C296.404 65.696 296.404 66.032 296.308 66.32C295.124 67.152 293.908 67.712 292.66 68C291.444 68.32 290.42 68.48 289.588 68.48C287.476 68.48 285.94 67.888 284.98 66.704C284.052 65.52 283.588 63.68 283.588 61.184V45.152L280.324 44.864C280.228 44.576 280.18 44.24 280.18 43.856ZM298.91 55.472C298.91 52.784 299.406 50.464 300.398 48.512C301.422 46.528 302.798 44.992 304.526 43.904C306.286 42.784 308.27 42.224 310.478 42.224C312.75 42.224 314.622 42.8 316.094 43.952C317.598 45.104 318.718 46.672 319.454 48.656C320.19 50.608 320.558 52.848 320.558 55.376L303.95 56.384C304.174 59.264 304.942 61.52 306.254 63.152C307.598 64.784 309.422 65.6 311.726 65.6C313.038 65.6 314.318 65.424 315.566 65.072C316.846 64.688 318.078 64.128 319.262 63.392C319.55 63.648 319.774 63.952 319.934 64.304C320.126 64.656 320.238 65.04 320.27 65.456C318.894 66.448 317.422 67.2 315.854 67.712C314.318 68.224 312.75 68.48 311.15 68.48C308.59 68.48 306.398 67.952 304.574 66.896C302.75 65.808 301.342 64.288 300.35 62.336C299.39 60.352 298.91 58.064 298.91 55.472ZM303.95 53.792L315.662 53.024C315.63 51.648 315.422 50.336 315.038 49.088C314.654 47.84 314.062 46.816 313.262 46.016C312.462 45.216 311.422 44.816 310.142 44.816C308.894 44.816 307.822 45.2 306.926 45.968C306.03 46.704 305.326 47.744 304.814 49.088C304.334 50.432 304.046 52 303.95 53.792ZM335.873 68H324.785C324.657 67.744 324.593 67.424 324.593 67.04C324.593 66.688 324.657 66.4 324.785 66.176L328.001 65.6V44.96L324.785 44.576C324.657 44.256 324.593 43.952 324.593 43.664C324.593 43.344 324.641 43.024 324.737 42.704C325.569 42.64 326.465 42.592 327.425 42.56C328.385 42.496 329.345 42.432 330.305 42.368C331.297 42.304 332.209 42.256 333.041 42.224C332.977 42.736 332.929 43.248 332.897 43.76C332.865 44.24 332.833 44.688 332.801 45.104C333.985 44.624 335.121 44.16 336.209 43.712C337.329 43.264 338.273 42.912 339.041 42.656C339.841 42.368 340.369 42.224 340.625 42.224C342.193 42.224 343.441 42.48 344.369 42.992C345.329 43.504 346.065 44.192 346.577 45.056C347.409 44.736 348.273 44.416 349.169 44.096C350.065 43.744 350.913 43.44 351.713 43.184C352.513 42.896 353.201 42.672 353.777 42.512C354.353 42.32 354.737 42.224 354.929 42.224C356.785 42.224 358.209 42.56 359.201 43.232C360.225 43.872 360.929 44.784 361.313 45.968C361.697 47.12 361.889 48.48 361.889 50.048V65.6L364.961 66.176C365.057 66.336 365.121 66.496 365.153 66.656C365.185 66.784 365.201 66.928 365.201 67.088C365.201 67.408 365.137 67.712 365.009 68H354.017C353.889 67.744 353.825 67.424 353.825 67.04C353.825 66.688 353.873 66.4 353.969 66.176L357.089 65.6V50.576C357.089 49.36 357.009 48.368 356.849 47.6C356.721 46.832 356.417 46.272 355.937 45.92C355.457 45.536 354.721 45.344 353.729 45.344C353.505 45.344 353.041 45.424 352.337 45.584C351.665 45.744 350.865 45.952 349.937 46.208C349.041 46.432 348.129 46.688 347.201 46.976C347.297 47.552 347.361 48.144 347.393 48.752C347.425 49.36 347.441 49.968 347.441 50.576V65.6L350.465 66.176C350.561 66.336 350.625 66.496 350.657 66.656C350.689 66.784 350.705 66.912 350.705 67.04C350.705 67.392 350.625 67.712 350.465 68H339.569C339.441 67.744 339.377 67.424 339.377 67.04C339.377 66.688 339.425 66.4 339.521 66.176L342.641 65.6V51.008C342.641 49.792 342.561 48.784 342.401 47.984C342.241 47.184 341.921 46.592 341.441 46.208C340.993 45.792 340.289 45.584 339.329 45.584C339.105 45.584 338.689 45.648 338.081 45.776C337.505 45.904 336.769 46.08 335.873 46.304C334.977 46.528 333.953 46.816 332.801 47.168V65.6L335.873 66.176C335.969 66.336 336.033 66.496 336.065 66.656C336.097 66.784 336.113 66.912 336.113 67.04C336.113 67.392 336.033 67.712 335.873 68ZM419.798 34.496L420.614 65.504L424.358 65.984C424.422 66.144 424.486 66.32 424.55 66.512C424.614 66.704 424.646 66.88 424.646 67.04C424.646 67.296 424.566 67.616 424.406 68H411.734C411.606 67.616 411.542 67.28 411.542 66.992C411.542 66.64 411.622 66.304 411.782 65.984L415.574 65.504L415.19 37.28L404.006 68H401.078L389.606 37.184L389.03 65.504L392.918 65.984C393.014 66.144 393.078 66.32 393.11 66.512C393.142 66.672 393.158 66.848 393.158 67.04C393.158 67.36 393.094 67.68 392.966 68H381.878C381.75 67.68 381.686 67.36 381.686 67.04C381.686 66.688 381.766 66.336 381.926 65.984L385.718 65.504L386.678 34.592L382.982 34.016C382.822 33.696 382.742 33.376 382.742 33.056C382.742 32.736 382.806 32.384 382.934 32H392.774L403.67 61.136L414.134 32H423.494C423.654 32.384 423.734 32.736 423.734 33.056C423.734 33.344 423.654 33.664 423.494 34.016L419.798 34.496ZM428.659 61.568C428.659 60.448 428.883 59.392 429.331 58.4C429.779 57.376 430.467 56.512 431.395 55.808C432.323 55.104 433.459 54.64 434.803 54.416L443.059 53.216V51.056C443.059 49.904 442.995 48.88 442.867 47.984C442.739 47.088 442.435 46.384 441.955 45.872C441.475 45.36 440.723 45.104 439.699 45.104C439.475 45.104 439.059 45.152 438.451 45.248C437.843 45.312 437.155 45.408 436.387 45.536C435.651 45.632 434.931 45.76 434.227 45.92L433.795 50.816H430.963C430.835 49.696 430.739 48.56 430.675 47.408C430.611 46.224 430.579 45.104 430.579 44.048C431.507 43.856 432.499 43.648 433.555 43.424C434.643 43.2 435.683 43.008 436.675 42.848C437.667 42.656 438.515 42.512 439.219 42.416C439.923 42.288 440.371 42.224 440.563 42.224C442.419 42.224 443.875 42.576 444.931 43.28C445.987 43.952 446.723 44.96 447.139 46.304C447.587 47.648 447.811 49.312 447.811 51.296V65.648L450.739 66.128C450.803 66.288 450.851 66.448 450.883 66.608C450.915 66.736 450.931 66.88 450.931 67.04C450.931 67.36 450.867 67.68 450.739 68H444.211L443.299 65.36C442.595 65.68 441.811 66.016 440.947 66.368C440.115 66.72 439.299 67.056 438.499 67.376C437.699 67.696 436.995 67.952 436.387 68.144C435.779 68.368 435.363 68.48 435.139 68.48C434.147 68.48 433.139 68.24 432.115 67.76C431.123 67.248 430.291 66.48 429.619 65.456C428.979 64.4 428.659 63.104 428.659 61.568ZM433.315 61.424C433.315 62.736 433.603 63.728 434.179 64.4C434.755 65.072 435.539 65.408 436.531 65.408C436.787 65.408 437.235 65.328 437.875 65.168C438.547 64.976 439.331 64.736 440.227 64.448C441.155 64.128 442.099 63.776 443.059 63.392V55.808L437.107 56.864C435.987 57.056 435.075 57.52 434.371 58.256C433.667 58.96 433.315 60.016 433.315 61.424ZM454.484 67.04C454.484 66.688 454.548 66.4 454.676 66.176L457.892 65.6V44.96L454.676 44.576C454.548 44.256 454.484 43.952 454.484 43.664C454.484 43.344 454.532 43.024 454.628 42.704C455.46 42.672 456.356 42.624 457.316 42.56C458.308 42.496 459.284 42.448 460.244 42.416C461.236 42.352 462.132 42.288 462.932 42.224C462.9 42.704 462.852 43.216 462.788 43.76C462.756 44.304 462.724 44.816 462.692 45.296C463.876 44.816 465.06 44.352 466.244 43.904C467.46 43.424 468.5 43.024 469.364 42.704C470.26 42.384 470.82 42.224 471.044 42.224C472.868 42.224 474.276 42.544 475.268 43.184C476.26 43.824 476.948 44.736 477.332 45.92C477.748 47.104 477.956 48.48 477.956 50.048V65.648L481.028 66.176C481.124 66.336 481.188 66.496 481.22 66.656C481.252 66.784 481.268 66.928 481.268 67.088C481.268 67.408 481.204 67.712 481.076 68H470.036C469.908 67.744 469.844 67.424 469.844 67.04C469.844 66.688 469.892 66.4 469.988 66.176L473.156 65.6V50.912C473.156 49.76 473.06 48.8 472.868 48.032C472.708 47.232 472.388 46.624 471.908 46.208C471.428 45.76 470.692 45.536 469.7 45.536C469.476 45.536 468.996 45.616 468.26 45.776C467.524 45.936 466.66 46.16 465.668 46.448C464.708 46.736 463.716 47.024 462.692 47.312V65.6L465.764 66.176C465.86 66.336 465.924 66.496 465.956 66.656C465.988 66.784 466.004 66.912 466.004 67.04C466.004 67.392 465.924 67.712 465.764 68H454.676C454.548 67.744 454.484 67.424 454.484 67.04ZM485.003 61.568C485.003 60.448 485.227 59.392 485.675 58.4C486.123 57.376 486.811 56.512 487.739 55.808C488.667 55.104 489.803 54.64 491.147 54.416L499.403 53.216V51.056C499.403 49.904 499.339 48.88 499.211 47.984C499.083 47.088 498.779 46.384 498.299 45.872C497.819 45.36 497.067 45.104 496.043 45.104C495.819 45.104 495.403 45.152 494.795 45.248C494.187 45.312 493.499 45.408 492.731 45.536C491.995 45.632 491.275 45.76 490.571 45.92L490.139 50.816H487.307C487.179 49.696 487.083 48.56 487.019 47.408C486.955 46.224 486.923 45.104 486.923 44.048C487.851 43.856 488.843 43.648 489.899 43.424C490.987 43.2 492.027 43.008 493.019 42.848C494.011 42.656 494.859 42.512 495.563 42.416C496.267 42.288 496.715 42.224 496.907 42.224C498.763 42.224 500.219 42.576 501.275 43.28C502.331 43.952 503.067 44.96 503.483 46.304C503.931 47.648 504.155 49.312 504.155 51.296V65.648L507.083 66.128C507.147 66.288 507.195 66.448 507.227 66.608C507.259 66.736 507.275 66.88 507.275 67.04C507.275 67.36 507.211 67.68 507.083 68H500.555L499.643 65.36C498.939 65.68 498.155 66.016 497.291 66.368C496.459 66.72 495.643 67.056 494.843 67.376C494.043 67.696 493.339 67.952 492.731 68.144C492.123 68.368 491.707 68.48 491.483 68.48C490.491 68.48 489.483 68.24 488.459 67.76C487.467 67.248 486.635 66.48 485.963 65.456C485.323 64.4 485.003 63.104 485.003 61.568ZM489.659 61.424C489.659 62.736 489.947 63.728 490.523 64.4C491.099 65.072 491.883 65.408 492.875 65.408C493.131 65.408 493.579 65.328 494.219 65.168C494.891 64.976 495.675 64.736 496.571 64.448C497.499 64.128 498.443 63.776 499.403 63.392V55.808L493.451 56.864C492.331 57.056 491.419 57.52 490.715 58.256C490.011 58.96 489.659 60.016 489.659 61.424ZM510.059 72.752C510.059 71.6 510.363 70.56 510.971 69.632C511.611 68.704 512.491 67.936 513.611 67.328C513.387 67.104 513.227 66.864 513.131 66.608C513.035 66.32 512.987 66.016 512.987 65.696C512.987 64.96 513.179 64.048 513.563 62.96C513.979 61.84 514.619 60.592 515.483 59.216C514.267 58.384 513.323 57.392 512.651 56.24C511.979 55.056 511.643 53.552 511.643 51.728C511.643 49.776 512.059 48.112 512.891 46.736C513.755 45.328 514.907 44.224 516.347 43.424C517.787 42.624 519.387 42.224 521.147 42.224C522.011 42.224 522.811 42.336 523.547 42.56C524.283 42.752 524.971 43.056 525.611 43.472L532.523 41.792C532.747 42.016 532.907 42.304 533.003 42.656C533.131 42.976 533.195 43.328 533.195 43.712C533.195 44.256 533.083 44.784 532.859 45.296L527.627 45.008C528.523 45.904 529.211 46.88 529.691 47.936C530.203 48.96 530.459 50.176 530.459 51.584C530.459 53.504 530.011 55.136 529.115 56.48C528.219 57.824 527.051 58.864 525.611 59.6C524.171 60.304 522.587 60.656 520.859 60.656C520.283 60.656 519.691 60.624 519.083 60.56C518.475 60.464 517.915 60.32 517.403 60.128C517.115 60.864 516.891 61.648 516.731 62.48C516.571 63.312 516.491 64.016 516.491 64.592H524.891C527.259 64.592 529.131 65.136 530.507 66.224C531.915 67.28 532.619 68.736 532.619 70.592C532.619 72.992 531.499 74.912 529.259 76.352C527.051 77.824 523.979 78.56 520.043 78.56C516.811 78.56 514.331 78.032 512.603 76.976C510.907 75.92 510.059 74.512 510.059 72.752ZM513.995 71.984C513.995 73.168 514.539 74.096 515.627 74.768C516.715 75.44 518.347 75.776 520.523 75.776C523.019 75.776 524.939 75.328 526.283 74.432C527.659 73.568 528.347 72.512 528.347 71.264C528.347 70.272 527.995 69.504 527.291 68.96C526.587 68.448 525.611 68.192 524.363 68.192H516.251C515.419 68.768 514.827 69.36 514.475 69.968C514.155 70.608 513.995 71.28 513.995 71.984ZM516.155 51.824C516.155 54 516.587 55.616 517.451 56.672C518.347 57.728 519.531 58.256 521.003 58.256C522.507 58.256 523.691 57.712 524.555 56.624C525.451 55.536 525.899 53.904 525.899 51.728C525.899 50.096 525.675 48.768 525.227 47.744C524.779 46.688 524.187 45.92 523.451 45.44C522.747 44.96 521.947 44.72 521.051 44.72C520.219 44.72 519.419 44.944 518.651 45.392C517.915 45.84 517.307 46.592 516.827 47.648C516.379 48.672 516.155 50.064 516.155 51.824ZM536.754 55.472C536.754 52.784 537.25 50.464 538.242 48.512C539.266 46.528 540.642 44.992 542.37 43.904C544.13 42.784 546.114 42.224 548.322 42.224C550.594 42.224 552.466 42.8 553.938 43.952C555.442 45.104 556.562 46.672 557.298 48.656C558.034 50.608 558.402 52.848 558.402 55.376L541.794 56.384C542.018 59.264 542.786 61.52 544.098 63.152C545.442 64.784 547.266 65.6 549.57 65.6C550.882 65.6 552.162 65.424 553.41 65.072C554.69 64.688 555.922 64.128 557.106 63.392C557.394 63.648 557.618 63.952 557.778 64.304C557.97 64.656 558.082 65.04 558.114 65.456C556.738 66.448 555.266 67.2 553.698 67.712C552.162 68.224 550.594 68.48 548.994 68.48C546.434 68.48 544.242 67.952 542.418 66.896C540.594 65.808 539.186 64.288 538.194 62.336C537.234 60.352 536.754 58.064 536.754 55.472ZM541.794 53.792L553.506 53.024C553.474 51.648 553.266 50.336 552.882 49.088C552.498 47.84 551.906 46.816 551.106 46.016C550.306 45.216 549.266 44.816 547.986 44.816C546.738 44.816 545.666 45.2 544.77 45.968C543.874 46.704 543.17 47.744 542.658 49.088C542.178 50.432 541.89 52 541.794 53.792ZM562.437 67.04C562.437 66.688 562.501 66.4 562.629 66.176L565.845 65.6V44.96L562.725 44.576C562.629 44.256 562.581 43.952 562.581 43.664C562.581 43.344 562.629 43.024 562.725 42.704C563.525 42.672 564.389 42.64 565.317 42.608C566.245 42.544 567.189 42.48 568.149 42.416C569.109 42.352 570.037 42.288 570.933 42.224C570.869 43.152 570.805 44.144 570.741 45.2C570.709 46.224 570.661 47.2 570.597 48.128H570.837C571.733 46.848 572.597 45.776 573.429 44.912C574.261 44.016 575.141 43.344 576.069 42.896C577.029 42.448 578.149 42.224 579.429 42.224C579.557 42.832 579.621 43.504 579.621 44.24C579.621 44.752 579.589 45.28 579.525 45.824C579.461 46.336 579.365 46.864 579.237 47.408C578.085 47.408 577.045 47.488 576.117 47.648C575.221 47.808 574.341 48.08 573.477 48.464C572.613 48.848 571.669 49.408 570.645 50.144V65.552L574.677 66.176C574.773 66.336 574.837 66.496 574.869 66.656C574.901 66.784 574.917 66.912 574.917 67.04C574.917 67.392 574.837 67.712 574.677 68H562.629C562.501 67.744 562.437 67.424 562.437 67.04Z" fill="black" fill-opacity="0.9"/>
<path d="M33.968 108V90.672H43.856V92.64H36.176V98.016H42.344V99.96H36.176V106.032H43.856V108H33.968ZM47.1046 108L51.2566 101.76L47.1046 95.52H49.7926L52.4566 99.864L55.1206 95.52H57.8086L53.6566 101.76L57.8086 108H55.1206L52.4566 103.656L49.7926 108H47.1046ZM65.0893 108.192C64.7373 108.192 64.3853 108.168 64.0333 108.12C63.6973 108.072 63.3613 107.984 63.0253 107.856C62.7053 107.728 62.4013 107.56 62.1133 107.352C61.8253 107.128 61.5853 106.872 61.3933 106.584C61.2013 106.28 61.0653 105.96 60.9853 105.624C60.9053 105.272 60.8652 104.92 60.8652 104.568C60.8652 104.136 60.9293 103.712 61.0573 103.296C61.2013 102.864 61.4253 102.488 61.7293 102.168C62.0333 101.832 62.3773 101.56 62.7613 101.352C63.1613 101.144 63.5693 100.984 63.9853 100.872C64.4173 100.744 64.8493 100.664 65.2812 100.632C65.7293 100.584 66.1693 100.56 66.6013 100.56H68.9293V99.792C68.9293 99.44 68.8653 99.088 68.7373 98.736C68.6093 98.384 68.4013 98.096 68.1133 97.872C67.8253 97.648 67.4973 97.496 67.1293 97.416C66.7773 97.32 66.4253 97.272 66.0733 97.272C65.7533 97.272 65.4333 97.296 65.1133 97.344C64.8093 97.392 64.5133 97.488 64.2253 97.632C63.9533 97.76 63.7133 97.952 63.5053 98.208C63.3133 98.464 63.2173 98.752 63.2173 99.072H61.0093V99.024C61.0093 98.64 61.0733 98.264 61.2013 97.896C61.3453 97.512 61.5373 97.176 61.7773 96.888C62.0333 96.584 62.3293 96.328 62.6653 96.12C63.0173 95.912 63.3773 95.752 63.7453 95.64C64.1133 95.512 64.4893 95.432 64.8733 95.4C65.2733 95.352 65.6733 95.328 66.0733 95.328C66.4893 95.328 66.9133 95.36 67.3453 95.424C67.7773 95.472 68.1853 95.584 68.5693 95.76C68.9693 95.92 69.3373 96.136 69.6733 96.408C70.0093 96.68 70.2893 97 70.5133 97.368C70.7373 97.72 70.8973 98.112 70.9933 98.544C71.0893 98.96 71.1373 99.376 71.1373 99.792V108H68.9293V105.768C68.7853 106.136 68.5853 106.48 68.3293 106.8C68.0733 107.12 67.7693 107.392 67.4173 107.616C67.0813 107.824 66.7053 107.968 66.2893 108.048C65.8893 108.144 65.4893 108.192 65.0893 108.192ZM65.9773 106.248C66.2493 106.248 66.5133 106.224 66.7693 106.176C67.0253 106.128 67.2733 106.048 67.5133 105.936C67.7533 105.824 67.9693 105.672 68.1613 105.48C68.3533 105.288 68.5053 105.08 68.6173 104.856C68.7453 104.616 68.8253 104.368 68.8573 104.112C68.9053 103.84 68.9293 103.576 68.9293 103.32V102.504H66.6013C66.3613 102.504 66.1133 102.512 65.8573 102.528C65.6173 102.544 65.3693 102.576 65.1133 102.624C64.8733 102.656 64.6333 102.712 64.3933 102.792C64.1693 102.872 63.9533 102.984 63.7453 103.128C63.5373 103.256 63.3693 103.432 63.2413 103.656C63.1133 103.88 63.0493 104.112 63.0493 104.352C63.0493 104.672 63.1453 104.976 63.3373 105.264C63.5453 105.536 63.7933 105.744 64.0813 105.888C64.3693 106.032 64.6733 106.128 64.9933 106.176C65.3293 106.224 65.6573 106.248 65.9773 106.248ZM74.2899 108V95.52H76.3299V96.768C76.4259 96.576 76.5379 96.392 76.6659 96.216C76.7939 96.024 76.9459 95.864 77.1219 95.736C77.2979 95.592 77.4899 95.488 77.6979 95.424C77.9219 95.36 78.1459 95.328 78.3699 95.328C78.6259 95.328 78.8819 95.376 79.1379 95.472C79.4099 95.568 79.6419 95.712 79.8339 95.904C80.0259 96.08 80.1779 96.296 80.2899 96.552C80.4179 96.792 80.5139 97.04 80.5779 97.296C80.6579 97.04 80.7539 96.792 80.8659 96.552C80.9939 96.312 81.1459 96.096 81.3219 95.904C81.5139 95.712 81.7379 95.568 81.9939 95.472C82.2499 95.376 82.5139 95.328 82.7859 95.328C83.0579 95.328 83.3219 95.376 83.5779 95.472C83.8339 95.568 84.0579 95.712 84.2499 95.904C84.4419 96.08 84.5939 96.288 84.7059 96.528C84.8339 96.768 84.9299 97.016 84.9939 97.272C85.0739 97.528 85.1219 97.792 85.1379 98.064C85.1699 98.32 85.1859 98.584 85.1859 98.856V108H83.1459V98.856C83.1459 98.664 83.1299 98.472 83.0979 98.28C83.0659 98.072 83.0019 97.888 82.9059 97.728C82.8099 97.552 82.6739 97.408 82.4979 97.296C82.3219 97.184 82.1379 97.128 81.9459 97.128C81.7539 97.128 81.5699 97.184 81.3939 97.296C81.2179 97.408 81.0819 97.552 80.9859 97.728C80.9059 97.888 80.8499 98.072 80.8179 98.28C80.7859 98.472 80.7699 98.664 80.7699 98.856V108H78.7059V98.856C78.7059 98.664 78.6899 98.472 78.6579 98.28C78.6259 98.072 78.5619 97.888 78.4659 97.728C78.3859 97.552 78.2579 97.408 78.0819 97.296C77.9059 97.184 77.7219 97.128 77.5299 97.128C77.3379 97.128 77.1539 97.184 76.9779 97.296C76.8019 97.408 76.6659 97.552 76.5699 97.728C76.4739 97.888 76.4099 98.072 76.3779 98.28C76.3459 98.472 76.3299 98.664 76.3299 98.856V108H74.2899ZM88.3385 112.848V95.52H90.5465V98.016C90.7065 97.616 90.9065 97.248 91.1465 96.912C91.3865 96.56 91.6745 96.264 92.0105 96.024C92.3465 95.768 92.7145 95.592 93.1145 95.496C93.5305 95.384 93.9465 95.328 94.3625 95.328C94.7945 95.328 95.2185 95.384 95.6345 95.496C96.0665 95.608 96.4505 95.8 96.7865 96.072C97.1385 96.328 97.4345 96.64 97.6745 97.008C97.9145 97.376 98.1065 97.768 98.2505 98.184C98.3945 98.584 98.4905 99 98.5385 99.432C98.5865 99.864 98.6105 100.296 98.6105 100.728V102.792C98.6105 103.224 98.5865 103.656 98.5385 104.088C98.4905 104.52 98.3945 104.944 98.2505 105.36C98.1065 105.76 97.9145 106.144 97.6745 106.512C97.4345 106.88 97.1385 107.2 96.7865 107.472C96.4505 107.728 96.0665 107.912 95.6345 108.024C95.2185 108.136 94.7945 108.192 94.3625 108.192C93.9465 108.192 93.5305 108.136 93.1145 108.024C92.7145 107.928 92.3465 107.76 92.0105 107.52C91.6745 107.264 91.3865 106.968 91.1465 106.632C90.9065 106.28 90.7065 105.904 90.5465 105.504V112.848H88.3385ZM93.4745 106.224C93.7625 106.224 94.0425 106.192 94.3145 106.128C94.6025 106.064 94.8665 105.952 95.1065 105.792C95.3465 105.632 95.5465 105.44 95.7065 105.216C95.8825 104.976 96.0185 104.728 96.1145 104.472C96.2265 104.2 96.2985 103.928 96.3305 103.656C96.3785 103.368 96.4025 103.08 96.4025 102.792V100.728C96.4025 100.44 96.3785 100.16 96.3305 99.888C96.2985 99.6 96.2265 99.328 96.1145 99.072C96.0185 98.8 95.8825 98.552 95.7065 98.328C95.5465 98.088 95.3465 97.888 95.1065 97.728C94.8665 97.568 94.6025 97.456 94.3145 97.392C94.0425 97.328 93.7625 97.296 93.4745 97.296C93.1865 97.296 92.8985 97.328 92.6105 97.392C92.3385 97.456 92.0825 97.568 91.8425 97.728C91.6025 97.888 91.3945 98.088 91.2185 98.328C91.0585 98.552 90.9225 98.8 90.8105 99.072C90.7145 99.328 90.6425 99.6 90.5945 99.888C90.5625 100.16 90.5465 100.44 90.5465 100.728V102.792C90.5465 103.08 90.5625 103.368 90.5945 103.656C90.6425 103.928 90.7145 104.2 90.8105 104.472C90.9225 104.728 91.0585 104.976 91.2185 105.216C91.3945 105.44 91.6025 105.632 91.8425 105.792C92.0825 105.952 92.3385 106.064 92.6105 106.128C92.8985 106.192 93.1865 106.224 93.4745 106.224ZM111.891 108H110.043C109.659 108 109.283 107.968 108.915 107.904C108.563 107.84 108.219 107.728 107.883 107.568C107.547 107.408 107.243 107.2 106.971 106.944C106.715 106.672 106.507 106.368 106.347 106.032C106.187 105.696 106.075 105.344 106.011 104.976C105.947 104.608 105.915 104.24 105.915 103.872V92.64H102.387V90.672H108.123V103.872C108.123 104.144 108.155 104.416 108.219 104.688C108.283 104.96 108.403 105.208 108.579 105.432C108.755 105.64 108.971 105.792 109.227 105.888C109.483 105.984 109.755 106.032 110.043 106.032H111.891V108ZM120.66 108.192C120.196 108.192 119.724 108.144 119.244 108.048C118.78 107.968 118.332 107.816 117.9 107.592C117.484 107.368 117.108 107.08 116.772 106.728C116.436 106.376 116.164 105.992 115.956 105.576C115.764 105.144 115.628 104.696 115.548 104.232C115.468 103.752 115.428 103.272 115.428 102.792V100.728C115.428 100.248 115.468 99.776 115.548 99.312C115.628 98.832 115.764 98.384 115.956 97.968C116.164 97.536 116.436 97.144 116.772 96.792C117.108 96.44 117.484 96.152 117.9 95.928C118.316 95.704 118.756 95.552 119.22 95.472C119.7 95.376 120.18 95.328 120.66 95.328C121.14 95.328 121.612 95.376 122.076 95.472C122.556 95.552 123.004 95.704 123.42 95.928C123.836 96.152 124.212 96.44 124.548 96.792C124.884 97.144 125.148 97.536 125.34 97.968C125.548 98.384 125.692 98.832 125.772 99.312C125.852 99.776 125.892 100.248 125.892 100.728V102.72H117.636V102.792C117.636 103.08 117.652 103.368 117.684 103.656C117.732 103.944 117.804 104.224 117.9 104.496C118.012 104.768 118.156 105.024 118.332 105.264C118.524 105.488 118.74 105.68 118.98 105.84C119.236 105.984 119.508 106.088 119.796 106.152C120.084 106.216 120.372 106.248 120.66 106.248C120.996 106.248 121.324 106.224 121.644 106.176C121.964 106.128 122.268 106.04 122.556 105.912C122.844 105.768 123.092 105.568 123.3 105.312C123.524 105.056 123.636 104.768 123.636 104.448H125.844C125.828 104.848 125.748 105.24 125.604 105.624C125.46 105.992 125.26 106.328 125.004 106.632C124.748 106.92 124.444 107.168 124.092 107.376C123.756 107.584 123.396 107.752 123.012 107.88C122.644 107.992 122.26 108.072 121.86 108.12C121.46 108.168 121.06 108.192 120.66 108.192ZM117.636 100.8H123.684V100.728C123.684 100.44 123.66 100.152 123.612 99.864C123.58 99.576 123.508 99.296 123.396 99.024C123.3 98.752 123.156 98.504 122.964 98.28C122.788 98.04 122.572 97.848 122.316 97.704C122.076 97.544 121.812 97.432 121.524 97.368C121.236 97.304 120.948 97.272 120.66 97.272C120.372 97.272 120.084 97.304 119.796 97.368C119.508 97.432 119.236 97.544 118.98 97.704C118.74 97.848 118.524 98.04 118.332 98.28C118.156 98.504 118.012 98.752 117.9 99.024C117.804 99.296 117.732 99.576 117.684 99.864C117.652 100.152 117.636 100.44 117.636 100.728V100.8ZM134.276 108.192C133.892 108.192 133.508 108.168 133.124 108.12C132.756 108.088 132.388 108.024 132.02 107.928C131.652 107.832 131.3 107.696 130.964 107.52C130.628 107.344 130.324 107.12 130.052 106.848C129.796 106.576 129.588 106.264 129.428 105.912C129.284 105.56 129.212 105.192 129.212 104.808V104.688H131.396V104.712C131.396 104.92 131.452 105.112 131.564 105.288C131.676 105.464 131.812 105.608 131.972 105.72C132.132 105.832 132.308 105.928 132.5 106.008C132.692 106.072 132.884 106.12 133.076 106.152C133.284 106.184 133.484 106.208 133.676 106.224C133.884 106.24 134.084 106.248 134.276 106.248C134.484 106.248 134.684 106.24 134.876 106.224C135.084 106.208 135.284 106.184 135.476 106.152C135.668 106.104 135.86 106.048 136.052 105.984C136.244 105.92 136.42 105.832 136.58 105.72C136.74 105.592 136.876 105.44 136.988 105.264C137.1 105.088 137.156 104.896 137.156 104.688C137.156 104.448 137.076 104.224 136.916 104.016C136.772 103.792 136.588 103.616 136.364 103.488C136.156 103.36 135.932 103.264 135.692 103.2C135.452 103.12 135.212 103.048 134.972 102.984C134.732 102.92 134.492 102.856 134.252 102.792C134.012 102.728 133.772 102.664 133.532 102.6C133.292 102.52 133.052 102.44 132.812 102.36C132.572 102.28 132.34 102.192 132.116 102.096C131.892 101.984 131.668 101.872 131.444 101.76C131.22 101.632 131.012 101.496 130.82 101.352C130.628 101.192 130.444 101.024 130.268 100.848C130.092 100.656 129.94 100.456 129.812 100.248C129.7 100.024 129.612 99.792 129.548 99.552C129.484 99.296 129.452 99.048 129.452 98.808C129.452 98.424 129.516 98.056 129.644 97.704C129.788 97.352 129.98 97.04 130.22 96.768C130.476 96.48 130.764 96.24 131.084 96.048C131.42 95.856 131.764 95.712 132.116 95.616C132.468 95.504 132.828 95.432 133.196 95.4C133.58 95.352 133.956 95.328 134.324 95.328C134.692 95.328 135.06 95.352 135.428 95.4C135.796 95.432 136.156 95.504 136.508 95.616C136.86 95.712 137.196 95.848 137.516 96.024C137.852 96.2 138.148 96.424 138.404 96.696C138.66 96.968 138.852 97.28 138.98 97.632C139.124 97.984 139.196 98.344 139.196 98.712V98.832H137.012V98.784C137.012 98.592 136.964 98.416 136.868 98.256C136.772 98.08 136.644 97.936 136.484 97.824C136.34 97.696 136.18 97.6 136.004 97.536C135.828 97.472 135.644 97.424 135.452 97.392C135.276 97.344 135.092 97.312 134.9 97.296C134.708 97.28 134.516 97.272 134.324 97.272C134.132 97.272 133.94 97.28 133.748 97.296C133.556 97.312 133.364 97.344 133.172 97.392C132.996 97.424 132.82 97.48 132.644 97.56C132.468 97.624 132.3 97.72 132.14 97.848C131.996 97.96 131.876 98.104 131.78 98.28C131.684 98.44 131.636 98.616 131.636 98.808C131.636 99.064 131.708 99.296 131.852 99.504C132.012 99.712 132.196 99.888 132.404 100.032C132.612 100.16 132.836 100.264 133.076 100.344C133.316 100.408 133.556 100.472 133.796 100.536C134.052 100.6 134.3 100.664 134.54 100.728C134.78 100.792 135.02 100.864 135.26 100.944C135.5 101.008 135.732 101.08 135.956 101.16C136.196 101.24 136.428 101.336 136.652 101.448C136.892 101.544 137.116 101.656 137.324 101.784C137.548 101.896 137.756 102.032 137.948 102.192C138.156 102.336 138.34 102.504 138.5 102.696C138.676 102.872 138.828 103.072 138.956 103.296C139.084 103.504 139.18 103.728 139.244 103.968C139.308 104.208 139.34 104.456 139.34 104.712C139.34 105.096 139.268 105.472 139.124 105.84C138.98 106.192 138.772 106.512 138.5 106.8C138.244 107.072 137.94 107.304 137.588 107.496C137.252 107.672 136.9 107.816 136.532 107.928C136.18 108.024 135.812 108.088 135.428 108.12C135.044 108.168 134.66 108.192 134.276 108.192Z" fill="black" fill-opacity="0.64"/>
<rect x="32" y="194" width="102" height="8" fill="#ED3E29"/>
<g filter="url(#filter1_i_1_454)">
<g clip-path="url(#clip0_1_454)">
<path d="M78 238H34V282H78V238Z" fill="#201617"/>
<path d="M73.4423 258.737C73.0335 259.038 72.4853 259.435 72.4212 259.481C71.0187 260.455 69.7573 261.192 68.3438 261.833C62.7027 264.393 56.6123 265.957 50.2415 266.71L50.2048 266.716C48.696 266.932 47.2422 267.073 45.8525 267.139C45.6563 267.148 45.5372 266.926 45.6508 266.767L47.3118 264.461C47.7188 263.896 47.3888 263.1 46.7013 262.988L34.0348 260.933C34.0238 260.933 34.011 260.93 34 260.926V259.074C34.011 259.072 34.022 259.069 34.0348 259.067L46.9323 256.973C47.6198 256.861 47.9498 256.066 47.5428 255.501L40.0665 245.126C39.4395 244.257 40.5157 243.181 41.3847 243.808L51.1618 250.854C51.7412 251.272 52.557 250.912 52.6395 250.201L54.053 238H57.947L59.3807 250.373C59.4632 251.084 60.279 251.444 60.8602 251.026L70.872 243.81C71.4422 243.399 72.6008 244.558 72.1902 245.128L64.6863 255.54C64.2793 256.104 64.6093 256.9 65.2968 257.012L73.3415 258.317C73.5468 258.35 73.611 258.614 73.4423 258.737ZM42.2958 274.846C42.0098 274.815 41.7385 274.784 41.6762 274.779C41.3718 274.749 40.6953 274.641 40.204 274.555C40.116 274.538 40.0262 274.575 39.973 274.648L39.8098 274.874C39.1828 275.743 40.259 276.819 41.128 276.192L42.4077 275.27C42.5818 275.145 42.5103 274.87 42.2958 274.846ZM58.6455 273.092C56.9075 273.642 55.1493 274.082 53.393 274.403C53.272 274.425 53.1877 274.537 53.2023 274.659L54.053 282H57.947L58.9498 273.341C58.97 273.173 58.8087 273.041 58.6455 273.092ZM68.2577 269.06C68.188 268.963 68.0542 268.934 67.9515 268.994C66.7782 269.669 65.5718 270.296 64.3435 270.87C64.1822 270.945 64.162 271.167 64.3068 271.271L71.1305 276.19C71.7007 276.601 72.8593 275.442 72.4487 274.872L68.2595 269.06H68.2577Z" fill="url(#paint1_radial_1_454)"/>
<path d="M78.0001 255.62V258.378C77.0706 259.908 75.7561 261.276 74.5516 262.4C68.6208 267.744 60.666 271.618 52.8211 272.987C46.0928 274.163 38.6531 273.519 34.7023 271.099C34.4585 270.949 34.2238 270.782 34.002 270.6V262.442L35.8555 262.743C36.015 262.768 36.1011 262.944 36.0223 263.087C35.9471 263.225 35.8756 263.366 35.8078 263.505C35.6905 263.76 35.5841 264.039 35.5035 264.327C35.4228 264.615 35.3696 264.912 35.3586 265.203C35.3458 265.559 35.4558 265.905 35.6043 266.217C35.9031 266.794 36.4128 267.233 37.0416 267.542C38.2846 268.14 39.7788 268.428 41.1593 268.554C44.2173 268.826 47.378 268.631 50.4176 268.195C56.8196 267.438 63.0585 265.757 68.9618 263.078C72.007 261.698 76.7186 259.008 78.0001 255.622V255.62ZM40.415 256.519L43.1796 256.069C43.2438 256.058 43.3043 256.036 43.3575 256.002C43.9075 255.648 44.4611 255.309 45.013 254.99C45.1321 254.92 45.167 254.762 45.0863 254.65L44.7215 254.143C44.6573 254.053 44.54 254.02 44.4391 254.064C43.0183 254.672 41.6048 255.345 40.2646 256.082C40.0336 256.209 40.1546 256.561 40.415 256.519Z" fill="#F7F4DC"/>
</g>
<rect x="33" y="237" width="46" height="46" rx="13" stroke="#1A1112" stroke-width="2"/>
</g>
<defs>
<filter id="filter0_iii_1_454" x="887" y="224" width="64" height="72" filterUnits="userSpaceOnUse" color-interpolation-filters="sRGB">
<feFlood flood-opacity="0" result="BackgroundImageFix"/>
<feBlend mode="normal" in="SourceGraphic" in2="BackgroundImageFix" result="shape"/>
<feColorMatrix in="SourceAlpha" type="matrix" values="0 0 0 0 0 0 0 0 0 0 0 0 0 0 0 0 0 0 127 0" result="hardAlpha"/>
<feOffset dy="4"/>
<feGaussianBlur stdDeviation="2"/>
<feComposite in2="hardAlpha" operator="arithmetic" k2="-1" k3="1"/>
<feColorMatrix type="matrix" values="0 0 0 0 1 0 0 0 0 0.729412 0 0 0 0 0 0 0 0 0.0862745 0"/>
<feBlend mode="normal" in2="shape" result="effect1_innerShadow_1_454"/>
<feColorMatrix in="SourceAlpha" type="matrix" values="0 0 0 0 0 0 0 0 0 0 0 0 0 0 0 0 0 0 127 0" result="hardAlpha"/>
<feOffset dy="-4"/>
<feGaussianBlur stdDeviation="5"/>
<feComposite in2="hardAlpha" operator="arithmetic" k2="-1" k3="1"/>
<feColorMatrix type="matrix" values="0 0 0 0 0 0 0 0 0 0 0 0 0 0 0 0 0 0 0.16 0"/>
<feBlend mode="normal" in2="effect1_innerShadow_1_454" result="effect2_innerShadow_1_454"/>
<feColorMatrix in="SourceAlpha" type="matrix" values="0 0 0 0 0 0 0 0 0 0 0 0 0 0 0 0 0 0 127 0" result="hardAlpha"/>
<feOffset dy="4"/>
<feComposite in2="hardAlpha" operator="arithmetic" k2="-1" k3="1"/>
<feColorMatrix type="matrix" values="0 0 0 0 1 0 0 0 0 1 0 0 0 0 1 0 0 0 0.2 0"/>
<feBlend mode="normal" in2="effect2_innerShadow_1_454" result="effect3_innerShadow_1_454"/>
</filter>
<filter id="filter1_i_1_454" x="32" y="236" width="48" height="48" filterUnits="userSpaceOnUse" color-interpolation-filters="sRGB">
<feFlood flood-opacity="0" result="BackgroundImageFix"/>
<feBlend mode="normal" in="SourceGraphic" in2="BackgroundImageFix" result="shape"/>
<feColorMatrix in="SourceAlpha" type="matrix" values="0 0 0 0 0 0 0 0 0 0 0 0 0 0 0 0 0 0 127 0" result="hardAlpha"/>
<feOffset dy="4"/>
<feComposite in2="hardAlpha" operator="arithmetic" k2="-1" k3="1"/>
<feColorMatrix type="matrix" values="0 0 0 0 1 0 0 0 0 1 0 0 0 0 1 0 0 0 0.32 0"/>
<feBlend mode="normal" in2="shape" result="effect1_innerShadow_1_454"/>
</filter>
<radialGradient id="paint0_radial_1_454" cx="0" cy="0" r="1" gradientUnits="userSpaceOnUse" gradientTransform="translate(951 228) rotate(135) scale(90.5097)">
<stop stop-color="#FFC730" stop-opacity="0.0862745"/>
<stop offset="1" stop-color="#C6000B" stop-opacity="0.905882"/>
</radialGradient>
<radialGradient id="paint1_radial_1_454" cx="0" cy="0" r="1" gradientUnits="userSpaceOnUse" gradientTransform="translate(56.8225 239.797) rotate(31.9267) scale(38.2026 39.7307)">
<stop offset="0.29" stop-color="#FFBA4B"/>
<stop offset="0.33" stop-color="#FEAC3F"/>
<stop offset="0.45" stop-color="#FC9026"/>
<stop offset="0.55" stop-color="#FB7F17"/>
<stop offset="0.62" stop-color="#FB7912"/>
<stop offset="0.7" stop-color="#F96D15"/>
<stop offset="0.82" stop-color="#F75E1A"/>
<stop offset="0.93" stop-color="#F75A1C"/>
</radialGradient>
<clipPath id="clip0_1_454">
<rect x="34" y="238" width="44" height="44" rx="12" fill="white"/>
</clipPath>
</defs>
</svg>
