<svg width="1280" height="320" viewBox="0 0 1280 320" fill="none" xmlns="http://www.w3.org/2000/svg">
<rect width="1280" height="320" fill="white"/>
<rect x="1" y="1" width="1278" height="318" stroke="black" stroke-opacity="0.16" stroke-width="2"/>
<g filter="url(#filter0_iii_1_432)">
<rect x="887" y="228" width="64" height="64" rx="22.5" fill="#EF3A21"/>
<rect x="887" y="228" width="64" height="64" rx="22.5" fill="url(#paint0_radial_1_432)" fill-opacity="0.4"/>
<rect x="888" y="229" width="62" height="62" rx="21.5" stroke="#4B0A00" stroke-opacity="0.890196" stroke-width="2"/>
<path d="M914.168 276.832L917 274L905 262L902.168 264.832C900.606 266.394 900.606 268.926 902.168 270.488L908.512 276.832C910.074 278.394 912.606 278.394 914.168 276.832Z" fill="white"/>
<path opacity="0.48" d="M933.981 262.36L936.941 245.34C936.98 245.114 937 244.884 937 244.655V244C937 242.895 936.105 242 935 242H934.345C934.115 242 933.886 242.02 933.66 242.059L916.64 245.019C913.146 245.627 910.235 248.039 908.99 251.36L905 262L917 274L927.64 270.01C930.96 268.765 933.373 265.854 933.981 262.36Z" fill="white"/>
<path fill-rule="evenodd" clip-rule="evenodd" d="M933.586 242.586C934.367 241.805 935.633 241.805 936.414 242.586C937.195 243.367 937.195 244.633 936.414 245.414L924.865 256.964C924.953 257.294 925 257.642 925 258C925 260.209 923.209 262 921 262C918.791 262 917 260.209 917 258C917 255.791 918.791 254 921 254C921.358 254 921.706 254.047 922.036 254.135L933.586 242.586Z" fill="white"/>
</g>
<path d="M984.568 264.652C984.568 262.817 984.899 261.1 985.56 259.5C986.221 257.9 987.149 256.513 988.344 255.34C989.56 254.145 990.979 253.217 992.6 252.556C994.221 251.895 995.992 251.564 997.912 251.564C999.683 251.564 1001.31 251.852 1002.81 252.428C1004.3 252.983 1005.59 253.783 1006.68 254.828C1007.79 255.873 1008.64 257.132 1009.24 258.604C1009.86 260.076 1010.17 261.719 1010.17 263.532C1010.17 264.684 1010.03 265.761 1009.75 266.764C1009.47 267.767 1009.07 268.652 1008.54 269.42C1008.02 270.167 1007.37 270.753 1006.58 271.18C1005.82 271.607 1004.92 271.82 1003.9 271.82C1003.02 271.82 1002.27 271.649 1001.66 271.308C1001.06 270.967 1000.61 270.529 1000.31 269.996C999.928 270.167 999.491 270.359 999 270.572C998.509 270.764 998.019 270.956 997.528 271.148C997.059 271.34 996.621 271.5 996.216 271.628C995.811 271.756 995.501 271.82 995.288 271.82C994.947 271.82 994.509 271.703 993.976 271.468C993.464 271.212 993.005 270.807 992.6 270.252C992.216 269.697 992.024 268.961 992.024 268.044C992.003 267.041 992.269 266.177 992.824 265.452C993.4 264.705 994.264 264.247 995.416 264.076L999.96 263.34V262.284C999.96 261.751 999.928 261.239 999.864 260.748C999.8 260.257 999.64 259.863 999.384 259.564C999.128 259.265 998.733 259.116 998.2 259.116C997.923 259.116 997.464 259.169 996.824 259.276C996.184 259.361 995.587 259.479 995.032 259.628C995.011 260.033 994.979 260.439 994.936 260.844C994.893 261.249 994.851 261.697 994.808 262.188H993.08C993.016 261.569 992.963 260.94 992.92 260.3C992.899 259.639 992.888 259.031 992.888 258.476C993.507 258.348 994.125 258.231 994.744 258.124C995.363 257.996 995.939 257.889 996.472 257.804C997.005 257.719 997.464 257.655 997.848 257.612C998.253 257.548 998.531 257.516 998.68 257.516C999.725 257.516 1000.51 257.74 1001.05 258.188C1001.6 258.615 1001.98 259.201 1002.17 259.948C1002.38 260.695 1002.49 261.516 1002.49 262.412V267.372C1002.49 268.247 1002.62 268.929 1002.87 269.42C1003.15 269.889 1003.63 270.124 1004.31 270.124C1004.89 270.124 1005.39 269.953 1005.82 269.612C1006.24 269.271 1006.59 268.812 1006.87 268.236C1007.17 267.639 1007.38 266.956 1007.51 266.188C1007.66 265.42 1007.74 264.599 1007.74 263.724C1007.74 261.548 1007.32 259.692 1006.49 258.156C1005.66 256.62 1004.49 255.447 1003 254.636C1001.51 253.804 999.789 253.388 997.848 253.388C995.821 253.388 993.997 253.847 992.376 254.764C990.776 255.681 989.507 256.983 988.568 258.668C987.629 260.332 987.16 262.295 987.16 264.556C987.16 266.796 987.597 268.769 988.472 270.476C989.347 272.161 990.584 273.473 992.184 274.412C993.784 275.351 995.672 275.82 997.848 275.82C998.68 275.82 999.469 275.767 1000.22 275.66C1000.98 275.575 1001.75 275.404 1002.52 275.148C1003.31 274.913 1004.13 274.593 1004.98 274.188C1005.18 274.423 1005.31 274.636 1005.4 274.828C1005.49 275.041 1005.54 275.297 1005.56 275.596C1004.69 276.044 1003.82 276.417 1002.97 276.716C1002.14 277.015 1001.27 277.228 1000.38 277.356C999.48 277.505 998.509 277.58 997.464 277.58C995.523 277.58 993.752 277.249 992.152 276.588C990.573 275.927 989.219 275.009 988.088 273.836C986.957 272.684 986.083 271.319 985.464 269.74C984.867 268.161 984.568 266.465 984.568 264.652ZM994.68 267.916C994.68 268.577 994.829 269.089 995.128 269.452C995.448 269.815 995.789 269.996 996.152 269.996C996.408 269.996 996.856 269.9 997.496 269.708C998.157 269.495 998.989 269.196 999.992 268.812V264.908L996.952 265.484C996.12 265.633 995.533 265.932 995.192 266.38C994.851 266.807 994.68 267.319 994.68 267.916ZM1012.68 246.988C1013.24 246.945 1013.83 246.903 1014.47 246.86C1015.14 246.796 1015.79 246.743 1016.43 246.7C1017.09 246.636 1017.7 246.583 1018.25 246.54C1018.19 247.009 1018.13 247.532 1018.09 248.108C1018.07 248.663 1018.06 249.164 1018.06 249.612V261.74L1021.35 261.548L1025.39 256.268L1023.05 255.916C1023.03 255.809 1023.01 255.713 1022.99 255.628C1022.96 255.521 1022.95 255.415 1022.95 255.308C1022.95 255.073 1023 254.849 1023.08 254.636H1030.28C1030.37 254.807 1030.41 255.02 1030.41 255.276C1030.41 255.532 1030.36 255.745 1030.25 255.916L1028.14 256.268L1023.27 262.092L1028.27 269.868L1030.47 270.284C1030.54 270.391 1030.58 270.497 1030.6 270.604C1030.62 270.689 1030.63 270.775 1030.63 270.86C1030.63 271.095 1030.58 271.308 1030.47 271.5H1025.58L1020.59 263.5L1018.06 263.372V269.9L1020.11 270.284C1020.17 270.391 1020.21 270.497 1020.23 270.604C1020.26 270.689 1020.27 270.775 1020.27 270.86C1020.27 271.095 1020.21 271.308 1020.11 271.5H1012.75C1012.66 271.329 1012.62 271.116 1012.62 270.86C1012.62 270.625 1012.65 270.433 1012.71 270.284L1014.86 269.9V248.46L1012.68 248.236C1012.62 247.98 1012.59 247.767 1012.59 247.596C1012.59 247.404 1012.62 247.201 1012.68 246.988ZM1031.69 263.148C1031.69 261.356 1032.02 259.809 1032.68 258.508C1033.36 257.185 1034.28 256.161 1035.43 255.436C1036.61 254.689 1037.93 254.316 1039.4 254.316C1040.92 254.316 1042.16 254.7 1043.15 255.468C1044.15 256.236 1044.9 257.281 1045.39 258.604C1045.88 259.905 1046.12 261.399 1046.12 263.084L1035.05 263.756C1035.2 265.676 1035.71 267.18 1036.59 268.268C1037.48 269.356 1038.7 269.9 1040.23 269.9C1041.11 269.9 1041.96 269.783 1042.79 269.548C1043.65 269.292 1044.47 268.919 1045.26 268.428C1045.45 268.599 1045.6 268.801 1045.71 269.036C1045.83 269.271 1045.91 269.527 1045.93 269.804C1045.01 270.465 1044.03 270.967 1042.99 271.308C1041.96 271.649 1040.92 271.82 1039.85 271.82C1038.14 271.82 1036.68 271.468 1035.47 270.764C1034.25 270.039 1033.31 269.025 1032.65 267.724C1032.01 266.401 1031.69 264.876 1031.69 263.148ZM1035.05 262.028L1042.86 261.516C1042.84 260.599 1042.7 259.724 1042.44 258.892C1042.19 258.06 1041.79 257.377 1041.26 256.844C1040.72 256.311 1040.03 256.044 1039.18 256.044C1038.35 256.044 1037.63 256.3 1037.03 256.812C1036.44 257.303 1035.97 257.996 1035.63 258.892C1035.31 259.788 1035.11 260.833 1035.05 262.028ZM1047.22 255.276C1047.22 255.063 1047.27 254.849 1047.35 254.636H1054.9C1054.99 254.807 1055.03 255.02 1055.03 255.276C1055.03 255.511 1054.99 255.713 1054.9 255.884L1052.7 256.236L1057.14 267.98L1061.69 256.172L1059.58 255.852C1059.47 255.639 1059.42 255.447 1059.42 255.276C1059.42 255.063 1059.47 254.849 1059.58 254.636H1065.5C1065.58 254.807 1065.62 255.02 1065.62 255.276C1065.62 255.489 1065.59 255.681 1065.53 255.852L1063.74 256.172L1057.43 271.5H1055.42L1049.14 256.204L1047.38 255.884C1047.32 255.756 1047.28 255.649 1047.26 255.564C1047.24 255.457 1047.22 255.361 1047.22 255.276ZM1067.19 270.86C1067.19 270.647 1067.23 270.455 1067.32 270.284L1069.46 269.9V256.14L1067.32 255.884C1067.23 255.671 1067.19 255.468 1067.19 255.276C1067.19 255.063 1067.22 254.849 1067.28 254.636C1067.82 254.615 1068.41 254.593 1069.08 254.572C1069.74 254.529 1070.4 254.487 1071.06 254.444C1071.72 254.401 1072.32 254.359 1072.85 254.316C1072.79 254.871 1072.73 255.436 1072.69 256.012C1072.67 256.588 1072.66 257.207 1072.66 257.868V269.9L1074.74 270.284C1074.85 270.433 1074.9 270.625 1074.9 270.86C1074.9 270.967 1074.89 271.073 1074.87 271.18C1074.85 271.287 1074.8 271.393 1074.74 271.5H1067.32C1067.23 271.329 1067.19 271.116 1067.19 270.86ZM1070.9 252.076C1070.3 252.076 1069.8 251.863 1069.4 251.436C1068.99 251.009 1068.79 250.519 1068.79 249.964C1068.79 249.388 1068.99 248.887 1069.4 248.46C1069.8 248.033 1070.3 247.82 1070.9 247.82C1071.5 247.82 1072 248.033 1072.4 248.46C1072.81 248.887 1073.01 249.388 1073.01 249.964C1073.01 250.519 1072.81 251.009 1072.4 251.436C1072 251.863 1071.5 252.076 1070.9 252.076ZM1077.34 270.86C1077.34 270.625 1077.39 270.433 1077.47 270.284L1079.62 269.9V256.14L1077.47 255.884C1077.39 255.671 1077.34 255.468 1077.34 255.276C1077.34 255.063 1077.38 254.849 1077.44 254.636C1077.99 254.615 1078.59 254.583 1079.23 254.54C1079.89 254.497 1080.54 254.465 1081.18 254.444C1081.84 254.401 1082.44 254.359 1082.98 254.316C1082.95 254.636 1082.92 254.977 1082.88 255.34C1082.86 255.703 1082.84 256.044 1082.82 256.364C1083.6 256.044 1084.39 255.735 1085.18 255.436C1085.99 255.116 1086.69 254.849 1087.26 254.636C1087.86 254.423 1088.23 254.316 1088.38 254.316C1089.6 254.316 1090.54 254.529 1091.2 254.956C1091.86 255.383 1092.32 255.991 1092.58 256.78C1092.85 257.569 1092.99 258.487 1092.99 259.532V269.932L1095.04 270.284C1095.1 270.391 1095.15 270.497 1095.17 270.604C1095.19 270.689 1095.2 270.785 1095.2 270.892C1095.2 271.105 1095.16 271.308 1095.07 271.5H1087.71C1087.63 271.329 1087.58 271.116 1087.58 270.86C1087.58 270.625 1087.62 270.433 1087.68 270.284L1089.79 269.9V260.108C1089.79 259.34 1089.73 258.7 1089.6 258.188C1089.49 257.655 1089.28 257.249 1088.96 256.972C1088.64 256.673 1088.15 256.524 1087.49 256.524C1087.34 256.524 1087.02 256.577 1086.53 256.684C1086.04 256.791 1085.46 256.94 1084.8 257.132C1084.16 257.324 1083.5 257.516 1082.82 257.708V269.9L1084.86 270.284C1084.93 270.391 1084.97 270.497 1084.99 270.604C1085.01 270.689 1085.02 270.775 1085.02 270.86C1085.02 271.095 1084.97 271.308 1084.86 271.5H1077.47C1077.39 271.329 1077.34 271.116 1077.34 270.86ZM1096.95 255.404C1096.95 255.212 1096.99 255.02 1097.05 254.828L1099.23 254.636L1100.7 250.54H1102.39V254.636H1106.84V256.3H1102.39V266.7C1102.39 267.489 1102.44 268.129 1102.52 268.62C1102.63 269.111 1102.8 269.463 1103.03 269.676C1103.29 269.889 1103.64 269.996 1104.09 269.996C1104.64 269.996 1105.19 269.9 1105.72 269.708C1106.28 269.516 1106.79 269.281 1107.26 269.004C1107.49 269.196 1107.64 269.431 1107.71 269.708C1107.77 269.964 1107.77 270.188 1107.71 270.38C1106.92 270.935 1106.11 271.308 1105.27 271.5C1104.46 271.713 1103.78 271.82 1103.23 271.82C1101.82 271.82 1100.79 271.425 1100.15 270.636C1099.53 269.847 1099.23 268.62 1099.23 266.956V256.268L1097.05 256.076C1096.99 255.884 1096.95 255.66 1096.95 255.404ZM1108.41 255.276C1108.41 255.063 1108.45 254.849 1108.54 254.636H1115.9C1115.99 254.807 1116.03 255.02 1116.03 255.276C1116.03 255.511 1115.99 255.713 1115.9 255.884L1113.79 256.236L1118.3 268.14L1122.84 256.204L1120.6 255.852C1120.5 255.639 1120.44 255.447 1120.44 255.276C1120.44 255.063 1120.49 254.849 1120.57 254.636H1126.62C1126.71 254.807 1126.75 255.02 1126.75 255.276C1126.75 255.489 1126.71 255.681 1126.62 255.852L1124.83 256.204L1118.84 270.892C1118.37 271.98 1117.92 272.919 1117.47 273.708C1117.04 274.497 1116.57 275.18 1116.06 275.756C1115.55 276.332 1114.95 276.833 1114.27 277.26C1113.59 277.687 1112.77 278.103 1111.84 278.508C1111.6 278.188 1111.41 277.815 1111.26 277.388C1111.11 276.961 1111.05 276.492 1111.07 275.98C1112.09 275.617 1112.96 275.233 1113.66 274.828C1114.36 274.444 1114.94 273.975 1115.39 273.42C1115.86 272.887 1116.24 272.257 1116.54 271.532L1110.36 256.236L1108.57 255.884C1108.51 255.756 1108.47 255.649 1108.44 255.564C1108.42 255.457 1108.41 255.361 1108.41 255.276ZM1126.1 277.26C1127.6 276.684 1128.66 275.745 1129.3 274.444C1129.94 273.164 1130.26 271.404 1130.26 269.164V256.14L1128.09 255.884C1128.02 255.671 1127.99 255.468 1127.99 255.276C1127.99 255.063 1128.02 254.849 1128.09 254.636C1128.66 254.593 1129.26 254.561 1129.88 254.54C1130.52 254.497 1131.15 254.465 1131.77 254.444C1132.39 254.401 1133.01 254.359 1133.62 254.316C1133.56 254.871 1133.51 255.436 1133.46 256.012C1133.44 256.588 1133.43 257.175 1133.43 257.772V269.164C1133.43 270.807 1133.17 272.289 1132.63 273.612C1132.12 274.935 1131.34 276.023 1130.3 276.876C1129.27 277.729 1128 278.284 1126.49 278.54C1126.38 278.327 1126.3 278.124 1126.23 277.932C1126.17 277.761 1126.13 277.537 1126.1 277.26ZM1131.74 252.076C1131.14 252.076 1130.64 251.863 1130.23 251.436C1129.83 251.009 1129.62 250.519 1129.62 249.964C1129.62 249.388 1129.83 248.887 1130.23 248.46C1130.64 248.033 1131.14 247.82 1131.74 247.82C1132.33 247.82 1132.82 248.033 1133.21 248.46C1133.61 248.887 1133.82 249.388 1133.82 249.964C1133.82 250.519 1133.61 251.009 1133.21 251.436C1132.82 251.863 1132.33 252.076 1131.74 252.076ZM1139.54 272.492H1137.18L1141.56 258.956L1145.3 246.54H1147.7L1143.58 259.116L1139.54 272.492ZM1159.49 256.876C1158.66 256.599 1157.95 256.396 1157.38 256.268C1156.8 256.14 1156.36 256.076 1156.07 256.076C1155.15 256.076 1154.34 256.375 1153.63 256.972C1152.93 257.569 1152.39 258.401 1152 259.468C1151.62 260.513 1151.43 261.751 1151.43 263.18C1151.43 264.161 1151.53 265.068 1151.75 265.9C1151.98 266.732 1152.28 267.457 1152.64 268.076C1153.03 268.673 1153.47 269.143 1153.99 269.484C1154.5 269.804 1155.04 269.964 1155.62 269.964C1155.75 269.964 1156.02 269.911 1156.45 269.804C1156.9 269.676 1157.39 269.516 1157.92 269.324C1158.48 269.111 1159 268.908 1159.49 268.716V256.876ZM1157.31 248.236C1157.25 247.98 1157.22 247.767 1157.22 247.596C1157.22 247.404 1157.25 247.201 1157.31 246.988C1157.93 246.924 1158.55 246.871 1159.17 246.828C1159.79 246.764 1160.41 246.711 1161.03 246.668C1161.64 246.625 1162.26 246.583 1162.88 246.54C1162.82 247.009 1162.76 247.564 1162.72 248.204C1162.7 248.823 1162.69 249.42 1162.69 249.996V269.932L1164.8 270.252C1164.84 270.359 1164.88 270.465 1164.9 270.572C1164.92 270.657 1164.93 270.753 1164.93 270.86C1164.93 271.073 1164.89 271.287 1164.8 271.5H1160.35L1159.87 269.964C1159.3 270.241 1158.69 270.529 1158.05 270.828C1157.43 271.105 1156.88 271.34 1156.39 271.532C1155.9 271.724 1155.55 271.82 1155.36 271.82C1153.91 271.82 1152.63 271.457 1151.52 270.732C1150.43 270.007 1149.58 269.004 1148.96 267.724C1148.34 266.423 1148.03 264.919 1148.03 263.212C1148.03 261.356 1148.41 259.767 1149.15 258.444C1149.9 257.121 1150.89 256.108 1152.13 255.404C1153.39 254.679 1154.75 254.316 1156.23 254.316C1156.5 254.316 1156.95 254.401 1157.57 254.572C1158.21 254.721 1158.85 254.892 1159.49 255.084V248.46L1157.31 248.236ZM1167.13 263.148C1167.13 261.356 1167.46 259.809 1168.12 258.508C1168.8 257.185 1169.72 256.161 1170.87 255.436C1172.04 254.689 1173.37 254.316 1174.84 254.316C1176.35 254.316 1177.6 254.7 1178.58 255.468C1179.59 256.236 1180.33 257.281 1180.82 258.604C1181.31 259.905 1181.56 261.399 1181.56 263.084L1170.49 263.756C1170.64 265.676 1171.15 267.18 1172.02 268.268C1172.92 269.356 1174.14 269.9 1175.67 269.9C1176.55 269.9 1177.4 269.783 1178.23 269.548C1179.08 269.292 1179.91 268.919 1180.7 268.428C1180.89 268.599 1181.04 268.801 1181.14 269.036C1181.27 269.271 1181.35 269.527 1181.37 269.804C1180.45 270.465 1179.47 270.967 1178.42 271.308C1177.4 271.649 1176.35 271.82 1175.29 271.82C1173.58 271.82 1172.12 271.468 1170.9 270.764C1169.69 270.039 1168.75 269.025 1168.09 267.724C1167.45 266.401 1167.13 264.876 1167.13 263.148ZM1170.49 262.028L1178.3 261.516C1178.27 260.599 1178.14 259.724 1177.88 258.892C1177.62 258.06 1177.23 257.377 1176.7 256.844C1176.16 256.311 1175.47 256.044 1174.62 256.044C1173.78 256.044 1173.07 256.3 1172.47 256.812C1171.87 257.303 1171.4 257.996 1171.06 258.892C1170.74 259.788 1170.55 260.833 1170.49 262.028ZM1184.38 266.316H1186.11L1187.07 269.356C1187.75 269.591 1188.4 269.761 1189.02 269.868C1189.66 269.975 1190.14 270.028 1190.46 270.028C1191.35 270.028 1192.12 269.825 1192.76 269.42C1193.42 269.015 1193.75 268.353 1193.75 267.436C1193.75 266.881 1193.57 266.423 1193.21 266.06C1192.85 265.676 1192.38 265.356 1191.8 265.1C1191.23 264.844 1190.6 264.599 1189.91 264.364C1189.08 264.065 1188.26 263.724 1187.45 263.34C1186.64 262.956 1185.97 262.433 1185.43 261.772C1184.92 261.111 1184.67 260.247 1184.67 259.18C1184.67 258.156 1184.91 257.281 1185.4 256.556C1185.89 255.831 1186.57 255.276 1187.45 254.892C1188.35 254.508 1189.4 254.316 1190.62 254.316C1190.79 254.316 1191.13 254.359 1191.64 254.444C1192.17 254.529 1192.81 254.636 1193.56 254.764C1194.33 254.892 1195.1 255.052 1195.87 255.244C1195.84 255.671 1195.81 256.151 1195.77 256.684C1195.75 257.196 1195.72 257.708 1195.67 258.22C1195.63 258.711 1195.59 259.169 1195.55 259.596H1193.82L1193.4 256.556C1192.76 256.428 1192.19 256.321 1191.67 256.236C1191.18 256.129 1190.83 256.076 1190.62 256.076C1189.7 256.076 1188.95 256.279 1188.38 256.684C1187.82 257.089 1187.55 257.708 1187.55 258.54C1187.55 259.137 1187.73 259.628 1188.09 260.012C1188.45 260.375 1188.93 260.684 1189.53 260.94C1190.15 261.196 1190.82 261.452 1191.55 261.708C1192.4 262.007 1193.21 262.359 1193.98 262.764C1194.75 263.148 1195.37 263.649 1195.87 264.268C1196.38 264.887 1196.63 265.708 1196.63 266.732C1196.63 267.756 1196.36 268.652 1195.8 269.42C1195.25 270.167 1194.49 270.753 1193.53 271.18C1192.59 271.607 1191.53 271.82 1190.36 271.82C1190.11 271.82 1189.68 271.777 1189.08 271.692C1188.51 271.628 1187.82 271.511 1187.03 271.34C1186.27 271.169 1185.49 270.945 1184.7 270.668C1184.61 269.815 1184.55 269.057 1184.51 268.396C1184.46 267.735 1184.42 267.041 1184.38 266.316ZM1199.16 270.86C1199.16 270.647 1199.2 270.455 1199.28 270.284L1201.43 269.9V256.14L1199.28 255.884C1199.2 255.671 1199.16 255.468 1199.16 255.276C1199.16 255.063 1199.19 254.849 1199.25 254.636C1199.79 254.615 1200.38 254.593 1201.04 254.572C1201.71 254.529 1202.37 254.487 1203.03 254.444C1203.69 254.401 1204.29 254.359 1204.82 254.316C1204.76 254.871 1204.7 255.436 1204.66 256.012C1204.64 256.588 1204.63 257.207 1204.63 257.868V269.9L1206.71 270.284C1206.81 270.433 1206.87 270.625 1206.87 270.86C1206.87 270.967 1206.86 271.073 1206.84 271.18C1206.81 271.287 1206.77 271.393 1206.71 271.5H1199.28C1199.2 271.329 1199.16 271.116 1199.16 270.86ZM1202.87 252.076C1202.27 252.076 1201.77 251.863 1201.36 251.436C1200.96 251.009 1200.76 250.519 1200.76 249.964C1200.76 249.388 1200.96 248.887 1201.36 248.46C1201.77 248.033 1202.27 247.82 1202.87 247.82C1203.47 247.82 1203.97 248.033 1204.37 248.46C1204.78 248.887 1204.98 249.388 1204.98 249.964C1204.98 250.519 1204.78 251.009 1204.37 251.436C1203.97 251.863 1203.47 252.076 1202.87 252.076ZM1208.8 274.668C1208.8 273.9 1209 273.207 1209.41 272.588C1209.83 271.969 1210.42 271.457 1211.17 271.052C1211.02 270.903 1210.91 270.743 1210.85 270.572C1210.78 270.38 1210.75 270.177 1210.75 269.964C1210.75 269.473 1210.88 268.865 1211.14 268.14C1211.41 267.393 1211.84 266.561 1212.42 265.644C1211.61 265.089 1210.98 264.428 1210.53 263.66C1210.08 262.871 1209.86 261.868 1209.86 260.652C1209.86 259.351 1210.13 258.241 1210.69 257.324C1211.26 256.385 1212.03 255.649 1212.99 255.116C1213.95 254.583 1215.02 254.316 1216.19 254.316C1216.77 254.316 1217.3 254.391 1217.79 254.54C1218.28 254.668 1218.74 254.871 1219.17 255.148L1223.78 254.028C1223.93 254.177 1224.03 254.369 1224.1 254.604C1224.18 254.817 1224.22 255.052 1224.22 255.308C1224.22 255.671 1224.15 256.023 1224 256.364L1220.51 256.172C1221.11 256.769 1221.57 257.42 1221.89 258.124C1222.23 258.807 1222.4 259.617 1222.4 260.556C1222.4 261.836 1222.1 262.924 1221.5 263.82C1220.91 264.716 1220.13 265.409 1219.17 265.9C1218.21 266.369 1217.15 266.604 1216 266.604C1215.62 266.604 1215.22 266.583 1214.82 266.54C1214.41 266.476 1214.04 266.38 1213.7 266.252C1213.5 266.743 1213.35 267.265 1213.25 267.82C1213.14 268.375 1213.09 268.844 1213.09 269.228H1218.69C1220.27 269.228 1221.51 269.591 1222.43 270.316C1223.37 271.02 1223.84 271.991 1223.84 273.228C1223.84 274.828 1223.09 276.108 1221.6 277.068C1220.13 278.049 1218.08 278.54 1215.46 278.54C1213.3 278.54 1211.65 278.188 1210.5 277.484C1209.37 276.78 1208.8 275.841 1208.8 274.668ZM1211.42 274.156C1211.42 274.945 1211.79 275.564 1212.51 276.012C1213.24 276.46 1214.33 276.684 1215.78 276.684C1217.44 276.684 1218.72 276.385 1219.62 275.788C1220.53 275.212 1220.99 274.508 1220.99 273.676C1220.99 273.015 1220.76 272.503 1220.29 272.14C1219.82 271.799 1219.17 271.628 1218.34 271.628H1212.93C1212.37 272.012 1211.98 272.407 1211.74 272.812C1211.53 273.239 1211.42 273.687 1211.42 274.156ZM1212.86 260.716C1212.86 262.167 1213.15 263.244 1213.73 263.948C1214.33 264.652 1215.11 265.004 1216.1 265.004C1217.1 265.004 1217.89 264.641 1218.46 263.916C1219.06 263.191 1219.36 262.103 1219.36 260.652C1219.36 259.564 1219.21 258.679 1218.91 257.996C1218.61 257.292 1218.22 256.78 1217.73 256.46C1217.26 256.14 1216.73 255.98 1216.13 255.98C1215.57 255.98 1215.04 256.129 1214.53 256.428C1214.04 256.727 1213.63 257.228 1213.31 257.932C1213.01 258.615 1212.86 259.543 1212.86 260.716ZM1226.47 270.86C1226.47 270.625 1226.51 270.433 1226.6 270.284L1228.74 269.9V256.14L1226.6 255.884C1226.51 255.671 1226.47 255.468 1226.47 255.276C1226.47 255.063 1226.5 254.849 1226.56 254.636C1227.12 254.615 1227.72 254.583 1228.36 254.54C1229.02 254.497 1229.67 254.465 1230.31 254.444C1230.97 254.401 1231.57 254.359 1232.1 254.316C1232.08 254.636 1232.05 254.977 1232 255.34C1231.98 255.703 1231.96 256.044 1231.94 256.364C1232.73 256.044 1233.52 255.735 1234.31 255.436C1235.12 255.116 1235.81 254.849 1236.39 254.636C1236.99 254.423 1237.36 254.316 1237.51 254.316C1238.72 254.316 1239.66 254.529 1240.32 254.956C1240.99 255.383 1241.44 255.991 1241.7 256.78C1241.98 257.569 1242.12 258.487 1242.12 259.532V269.932L1244.16 270.284C1244.23 270.391 1244.27 270.497 1244.29 270.604C1244.31 270.689 1244.32 270.785 1244.32 270.892C1244.32 271.105 1244.28 271.308 1244.2 271.5H1236.84C1236.75 271.329 1236.71 271.116 1236.71 270.86C1236.71 270.625 1236.74 270.433 1236.8 270.284L1238.92 269.9V260.108C1238.92 259.34 1238.85 258.7 1238.72 258.188C1238.62 257.655 1238.4 257.249 1238.08 256.972C1237.76 256.673 1237.27 256.524 1236.61 256.524C1236.46 256.524 1236.14 256.577 1235.65 256.684C1235.16 256.791 1234.59 256.94 1233.92 257.132C1233.28 257.324 1232.62 257.516 1231.94 257.708V269.9L1233.99 270.284C1234.05 270.391 1234.09 270.497 1234.12 270.604C1234.14 270.689 1234.15 270.775 1234.15 270.86C1234.15 271.095 1234.09 271.308 1233.99 271.5H1226.6C1226.51 271.329 1226.47 271.116 1226.47 270.86Z" fill="black" fill-opacity="0.9"/>
<path d="M105.68 266.16C105.293 266.16 104.9 266.127 104.5 266.06C104.113 265.993 103.747 265.873 103.4 265.7C103.053 265.513 102.74 265.28 102.46 265C102.18 264.707 101.953 264.387 101.78 264.04C101.607 263.68 101.487 263.307 101.42 262.92C101.353 262.52 101.32 262.127 101.32 261.74V255.82C101.32 255.433 101.353 255.047 101.42 254.66C101.487 254.26 101.607 253.887 101.78 253.54C101.953 253.18 102.18 252.86 102.46 252.58C102.74 252.287 103.053 252.053 103.4 251.88C103.747 251.693 104.113 251.567 104.5 251.5C104.9 251.433 105.293 251.4 105.68 251.4C106.067 251.4 106.453 251.433 106.84 251.5C107.24 251.567 107.613 251.693 107.96 251.88C108.307 252.053 108.62 252.287 108.9 252.58C109.18 252.86 109.407 253.18 109.58 253.54C109.753 253.887 109.873 254.26 109.94 254.66C110.007 255.047 110.04 255.433 110.04 255.82V261.74C110.04 262.127 110.007 262.52 109.94 262.92C109.873 263.307 109.753 263.68 109.58 264.04C109.407 264.387 109.18 264.707 108.9 265C108.62 265.28 108.307 265.513 107.96 265.7C107.613 265.873 107.24 265.993 106.84 266.06C106.453 266.127 106.067 266.16 105.68 266.16ZM105.68 264.52C105.92 264.52 106.153 264.5 106.38 264.46C106.62 264.407 106.84 264.32 107.04 264.2C107.24 264.08 107.42 263.927 107.58 263.74C107.74 263.553 107.86 263.353 107.94 263.14C108.033 262.913 108.1 262.687 108.14 262.46C108.18 262.22 108.2 261.98 108.2 261.74V255.82C108.2 255.58 108.18 255.347 108.14 255.12C108.1 254.88 108.033 254.653 107.94 254.44C107.86 254.213 107.74 254.007 107.58 253.82C107.42 253.633 107.24 253.48 107.04 253.36C106.84 253.24 106.62 253.16 106.38 253.12C106.153 253.067 105.92 253.04 105.68 253.04C105.44 253.04 105.2 253.067 104.96 253.12C104.733 253.16 104.52 253.24 104.32 253.36C104.12 253.48 103.94 253.633 103.78 253.82C103.62 254.007 103.493 254.213 103.4 254.44C103.32 254.653 103.26 254.88 103.22 255.12C103.18 255.347 103.16 255.58 103.16 255.82V261.74C103.16 261.98 103.18 262.22 103.22 262.46C103.26 262.687 103.32 262.913 103.4 263.14C103.493 263.353 103.62 263.553 103.78 263.74C103.94 263.927 104.12 264.08 104.32 264.2C104.52 264.32 104.733 264.407 104.96 264.46C105.2 264.5 105.44 264.52 105.68 264.52ZM117.027 266.16C116.667 266.16 116.307 266.133 115.947 266.08C115.601 266.04 115.261 265.953 114.927 265.82C114.594 265.687 114.281 265.513 113.987 265.3C113.694 265.073 113.447 264.813 113.247 264.52C113.047 264.227 112.894 263.907 112.787 263.56C112.694 263.213 112.647 262.86 112.647 262.5V262.34H114.487V262.42C114.487 262.74 114.554 263.047 114.687 263.34C114.834 263.62 115.027 263.853 115.267 264.04C115.521 264.227 115.801 264.353 116.107 264.42C116.414 264.487 116.721 264.52 117.027 264.52C117.334 264.52 117.641 264.487 117.947 264.42C118.254 264.353 118.527 264.227 118.767 264.04C119.021 263.84 119.214 263.6 119.347 263.32C119.494 263.027 119.567 262.727 119.567 262.42C119.567 262.06 119.481 261.72 119.307 261.4C119.134 261.08 118.914 260.807 118.647 260.58C118.381 260.353 118.081 260.167 117.747 260.02C117.427 259.86 117.107 259.713 116.787 259.58C116.467 259.447 116.147 259.307 115.827 259.16C115.507 259 115.201 258.82 114.907 258.62C114.614 258.42 114.341 258.2 114.087 257.96C113.834 257.707 113.614 257.433 113.427 257.14C113.241 256.833 113.094 256.513 112.987 256.18C112.894 255.833 112.847 255.48 112.847 255.12C112.847 254.773 112.894 254.427 112.987 254.08C113.081 253.733 113.221 253.413 113.407 253.12C113.594 252.813 113.821 252.547 114.087 252.32C114.367 252.093 114.667 251.913 114.987 251.78C115.321 251.633 115.661 251.533 116.007 251.48C116.367 251.427 116.721 251.4 117.067 251.4C117.414 251.4 117.761 251.427 118.107 251.48C118.467 251.533 118.807 251.627 119.127 251.76C119.447 251.893 119.747 252.073 120.027 252.3C120.307 252.513 120.541 252.767 120.727 253.06C120.914 253.353 121.054 253.673 121.147 254.02C121.241 254.367 121.287 254.713 121.287 255.06V255.22H119.447V255.14C119.447 254.833 119.387 254.54 119.267 254.26C119.147 253.98 118.974 253.747 118.747 253.56C118.521 253.36 118.254 253.227 117.947 253.16C117.654 253.08 117.361 253.04 117.067 253.04C116.774 253.04 116.474 253.08 116.167 253.16C115.874 253.227 115.614 253.36 115.387 253.56C115.161 253.747 114.987 253.987 114.867 254.28C114.747 254.56 114.687 254.847 114.687 255.14C114.687 255.487 114.767 255.827 114.927 256.16C115.101 256.48 115.321 256.753 115.587 256.98C115.867 257.207 116.167 257.393 116.487 257.54C116.807 257.687 117.127 257.833 117.447 257.98C117.781 258.113 118.107 258.26 118.427 258.42C118.747 258.567 119.054 258.74 119.347 258.94C119.641 259.127 119.914 259.347 120.167 259.6C120.421 259.853 120.641 260.133 120.827 260.44C121.014 260.733 121.154 261.053 121.247 261.4C121.354 261.733 121.407 262.073 121.407 262.42C121.407 262.78 121.354 263.14 121.247 263.5C121.154 263.847 121.007 264.173 120.807 264.48C120.607 264.773 120.361 265.033 120.067 265.26C119.787 265.487 119.481 265.667 119.147 265.8C118.814 265.933 118.467 266.027 118.107 266.08C117.747 266.133 117.387 266.16 117.027 266.16ZM128.394 266.16C128.034 266.16 127.674 266.133 127.314 266.08C126.968 266.04 126.628 265.953 126.294 265.82C125.961 265.687 125.648 265.513 125.354 265.3C125.061 265.073 124.814 264.813 124.614 264.52C124.414 264.227 124.261 263.907 124.154 263.56C124.061 263.213 124.014 262.86 124.014 262.5V262.34H125.854V262.42C125.854 262.74 125.921 263.047 126.054 263.34C126.201 263.62 126.394 263.853 126.634 264.04C126.888 264.227 127.168 264.353 127.474 264.42C127.781 264.487 128.088 264.52 128.394 264.52C128.701 264.52 129.008 264.487 129.314 264.42C129.621 264.353 129.894 264.227 130.134 264.04C130.388 263.84 130.581 263.6 130.714 263.32C130.861 263.027 130.934 262.727 130.934 262.42C130.934 262.06 130.848 261.72 130.674 261.4C130.501 261.08 130.281 260.807 130.014 260.58C129.748 260.353 129.448 260.167 129.114 260.02C128.794 259.86 128.474 259.713 128.154 259.58C127.834 259.447 127.514 259.307 127.194 259.16C126.874 259 126.568 258.82 126.274 258.62C125.981 258.42 125.708 258.2 125.454 257.96C125.201 257.707 124.981 257.433 124.794 257.14C124.608 256.833 124.461 256.513 124.354 256.18C124.261 255.833 124.214 255.48 124.214 255.12C124.214 254.773 124.261 254.427 124.354 254.08C124.448 253.733 124.588 253.413 124.774 253.12C124.961 252.813 125.188 252.547 125.454 252.32C125.734 252.093 126.034 251.913 126.354 251.78C126.688 251.633 127.028 251.533 127.374 251.48C127.734 251.427 128.088 251.4 128.434 251.4C128.781 251.4 129.128 251.427 129.474 251.48C129.834 251.533 130.174 251.627 130.494 251.76C130.814 251.893 131.114 252.073 131.394 252.3C131.674 252.513 131.908 252.767 132.094 253.06C132.281 253.353 132.421 253.673 132.514 254.02C132.608 254.367 132.654 254.713 132.654 255.06V255.22H130.814V255.14C130.814 254.833 130.754 254.54 130.634 254.26C130.514 253.98 130.341 253.747 130.114 253.56C129.888 253.36 129.621 253.227 129.314 253.16C129.021 253.08 128.728 253.04 128.434 253.04C128.141 253.04 127.841 253.08 127.534 253.16C127.241 253.227 126.981 253.36 126.754 253.56C126.528 253.747 126.354 253.987 126.234 254.28C126.114 254.56 126.054 254.847 126.054 255.14C126.054 255.487 126.134 255.827 126.294 256.16C126.468 256.48 126.688 256.753 126.954 256.98C127.234 257.207 127.534 257.393 127.854 257.54C128.174 257.687 128.494 257.833 128.814 257.98C129.148 258.113 129.474 258.26 129.794 258.42C130.114 258.567 130.421 258.74 130.714 258.94C131.008 259.127 131.281 259.347 131.534 259.6C131.788 259.853 132.008 260.133 132.194 260.44C132.381 260.733 132.521 261.053 132.614 261.4C132.721 261.733 132.774 262.073 132.774 262.42C132.774 262.78 132.721 263.14 132.614 263.5C132.521 263.847 132.374 264.173 132.174 264.48C131.974 264.773 131.728 265.033 131.434 265.26C131.154 265.487 130.848 265.667 130.514 265.8C130.181 265.933 129.834 266.027 129.474 266.08C129.114 266.133 128.754 266.16 128.394 266.16Z" fill="black" fill-opacity="0.64"/>
<mask id="path-10-inside-1_1_432" fill="white">
<path d="M0 0H1280V202H0V0Z"/>
</mask>
<path d="M0 0H1280V202H0V0Z" fill="#D9D9D9" fill-opacity="0.24"/>
<path d="M1280 202V200H0V202V204H1280V202Z" fill="black" fill-opacity="0.16" mask="url(#path-10-inside-1_1_432)"/>
<path d="M43.28 34.784V65.312L49.568 65.168C53.184 65.072 56.016 63.696 58.064 61.04C60.112 58.384 61.136 54.576 61.136 49.616C61.136 44.944 60.08 41.36 57.968 38.864C55.888 36.336 52.944 35.024 49.136 34.928L43.28 34.784ZM34.352 32H49.136C52.752 32 55.856 32.704 58.448 34.112C61.072 35.52 63.088 37.536 64.496 40.16C65.904 42.752 66.608 45.888 66.608 49.568C66.608 53.408 65.92 56.72 64.544 59.504C63.168 62.256 61.184 64.368 58.592 65.84C56.032 67.28 52.96 68 49.376 68H34.352C34.224 67.616 34.16 67.28 34.16 66.992C34.16 66.672 34.224 66.336 34.352 65.984L38.144 65.456V34.544L34.4 34.016C34.24 33.696 34.16 33.376 34.16 33.056C34.16 32.736 34.224 32.384 34.352 32ZM71.2381 55.472C71.2381 52.784 71.7341 50.464 72.7261 48.512C73.7501 46.528 75.1261 44.992 76.8541 43.904C78.6141 42.784 80.5981 42.224 82.8061 42.224C85.0781 42.224 86.9501 42.8 88.4221 43.952C89.9261 45.104 91.0461 46.672 91.7821 48.656C92.5181 50.608 92.8861 52.848 92.8861 55.376L76.2781 56.384C76.5021 59.264 77.2701 61.52 78.5821 63.152C79.9261 64.784 81.7501 65.6 84.0541 65.6C85.3661 65.6 86.6461 65.424 87.8941 65.072C89.1741 64.688 90.4061 64.128 91.5901 63.392C91.8781 63.648 92.1021 63.952 92.2621 64.304C92.4541 64.656 92.5661 65.04 92.5981 65.456C91.2221 66.448 89.7501 67.2 88.1821 67.712C86.6461 68.224 85.0781 68.48 83.4781 68.48C80.9181 68.48 78.7261 67.952 76.9021 66.896C75.0781 65.808 73.6701 64.288 72.6781 62.336C71.7181 60.352 71.2381 58.064 71.2381 55.472ZM76.2781 53.792L87.9901 53.024C87.9581 51.648 87.7501 50.336 87.3661 49.088C86.9821 47.84 86.3901 46.816 85.5901 46.016C84.7901 45.216 83.7501 44.816 82.4701 44.816C81.2221 44.816 80.1501 45.2 79.2541 45.968C78.3581 46.704 77.6541 47.744 77.1421 49.088C76.6621 50.432 76.3741 52 76.2781 53.792ZM97.1131 60.224H99.7051L101.145 64.784C102.169 65.136 103.145 65.392 104.073 65.552C105.033 65.712 105.753 65.792 106.233 65.792C107.577 65.792 108.729 65.488 109.689 64.88C110.681 64.272 111.177 63.28 111.177 61.904C111.177 61.072 110.905 60.384 110.361 59.84C109.817 59.264 109.113 58.784 108.249 58.4C107.385 58.016 106.441 57.648 105.417 57.296C104.169 56.848 102.937 56.336 101.721 55.76C100.505 55.184 99.4971 54.4 98.6971 53.408C97.9291 52.416 97.5451 51.12 97.5451 49.52C97.5451 47.984 97.9131 46.672 98.6491 45.584C99.3851 44.496 100.409 43.664 101.721 43.088C103.065 42.512 104.649 42.224 106.473 42.224C106.729 42.224 107.241 42.288 108.009 42.416C108.809 42.544 109.769 42.704 110.889 42.896C112.041 43.088 113.193 43.328 114.345 43.616C114.313 44.256 114.265 44.976 114.201 45.776C114.169 46.544 114.121 47.312 114.057 48.08C113.993 48.816 113.929 49.504 113.865 50.144H111.273L110.649 45.584C109.689 45.392 108.825 45.232 108.057 45.104C107.321 44.944 106.793 44.864 106.473 44.864C105.097 44.864 103.977 45.168 103.113 45.776C102.281 46.384 101.865 47.312 101.865 48.56C101.865 49.456 102.137 50.192 102.681 50.768C103.225 51.312 103.945 51.776 104.841 52.16C105.769 52.544 106.777 52.928 107.865 53.312C109.145 53.76 110.361 54.288 111.513 54.896C112.665 55.472 113.609 56.224 114.345 57.152C115.113 58.08 115.497 59.312 115.497 60.848C115.497 62.384 115.081 63.728 114.249 64.88C113.417 66 112.281 66.88 110.841 67.52C109.433 68.16 107.849 68.48 106.089 68.48C105.705 68.48 105.065 68.416 104.169 68.288C103.305 68.192 102.281 68.016 101.097 67.76C99.9451 67.504 98.7771 67.168 97.5931 66.752C97.4651 65.472 97.3691 64.336 97.3051 63.344C97.2411 62.352 97.1771 61.312 97.1131 60.224ZM119.281 67.04C119.281 66.72 119.345 66.432 119.473 66.176L122.689 65.6V44.96L119.473 44.576C119.345 44.256 119.281 43.952 119.281 43.664C119.281 43.344 119.329 43.024 119.425 42.704C120.225 42.672 121.121 42.64 122.113 42.608C123.105 42.544 124.097 42.48 125.089 42.416C126.081 42.352 126.977 42.288 127.777 42.224C127.681 43.056 127.601 43.904 127.537 44.768C127.505 45.632 127.489 46.56 127.489 47.552V65.6L130.609 66.176C130.769 66.4 130.849 66.688 130.849 67.04C130.849 67.2 130.833 67.36 130.801 67.52C130.769 67.68 130.705 67.84 130.609 68H119.473C119.345 67.744 119.281 67.424 119.281 67.04ZM124.849 38.864C123.953 38.864 123.201 38.544 122.593 37.904C121.985 37.264 121.681 36.528 121.681 35.696C121.681 34.832 121.985 34.08 122.593 33.44C123.201 32.8 123.953 32.48 124.849 32.48C125.745 32.48 126.497 32.8 127.105 33.44C127.713 34.08 128.017 34.832 128.017 35.696C128.017 36.528 127.713 37.264 127.105 37.904C126.497 38.544 125.745 38.864 124.849 38.864ZM133.747 72.752C133.747 71.6 134.051 70.56 134.659 69.632C135.299 68.704 136.179 67.936 137.299 67.328C137.075 67.104 136.915 66.864 136.819 66.608C136.723 66.32 136.675 66.016 136.675 65.696C136.675 64.96 136.867 64.048 137.251 62.96C137.667 61.84 138.307 60.592 139.171 59.216C137.955 58.384 137.011 57.392 136.339 56.24C135.667 55.056 135.331 53.552 135.331 51.728C135.331 49.776 135.747 48.112 136.579 46.736C137.443 45.328 138.595 44.224 140.035 43.424C141.475 42.624 143.075 42.224 144.835 42.224C145.699 42.224 146.499 42.336 147.235 42.56C147.971 42.752 148.659 43.056 149.299 43.472L156.211 41.792C156.435 42.016 156.595 42.304 156.691 42.656C156.819 42.976 156.883 43.328 156.883 43.712C156.883 44.256 156.771 44.784 156.547 45.296L151.315 45.008C152.211 45.904 152.899 46.88 153.379 47.936C153.891 48.96 154.147 50.176 154.147 51.584C154.147 53.504 153.699 55.136 152.803 56.48C151.907 57.824 150.739 58.864 149.299 59.6C147.859 60.304 146.275 60.656 144.547 60.656C143.971 60.656 143.379 60.624 142.771 60.56C142.163 60.464 141.603 60.32 141.091 60.128C140.803 60.864 140.579 61.648 140.419 62.48C140.259 63.312 140.179 64.016 140.179 64.592H148.579C150.947 64.592 152.819 65.136 154.195 66.224C155.603 67.28 156.307 68.736 156.307 70.592C156.307 72.992 155.187 74.912 152.947 76.352C150.739 77.824 147.667 78.56 143.731 78.56C140.499 78.56 138.019 78.032 136.291 76.976C134.595 75.92 133.747 74.512 133.747 72.752ZM137.683 71.984C137.683 73.168 138.227 74.096 139.315 74.768C140.403 75.44 142.035 75.776 144.211 75.776C146.707 75.776 148.627 75.328 149.971 74.432C151.347 73.568 152.035 72.512 152.035 71.264C152.035 70.272 151.683 69.504 150.979 68.96C150.275 68.448 149.299 68.192 148.051 68.192H139.939C139.107 68.768 138.515 69.36 138.163 69.968C137.843 70.608 137.683 71.28 137.683 71.984ZM139.843 51.824C139.843 54 140.275 55.616 141.139 56.672C142.035 57.728 143.219 58.256 144.691 58.256C146.195 58.256 147.379 57.712 148.243 56.624C149.139 55.536 149.587 53.904 149.587 51.728C149.587 50.096 149.363 48.768 148.915 47.744C148.467 46.688 147.875 45.92 147.139 45.44C146.435 44.96 145.635 44.72 144.739 44.72C143.907 44.72 143.107 44.944 142.339 45.392C141.603 45.84 140.995 46.592 140.515 47.648C140.067 48.672 139.843 50.064 139.843 51.824ZM160.249 67.04C160.249 66.688 160.313 66.4 160.441 66.176L163.657 65.6V44.96L160.441 44.576C160.313 44.256 160.249 43.952 160.249 43.664C160.249 43.344 160.297 43.024 160.393 42.704C161.225 42.672 162.121 42.624 163.081 42.56C164.073 42.496 165.049 42.448 166.009 42.416C167.001 42.352 167.897 42.288 168.697 42.224C168.665 42.704 168.617 43.216 168.553 43.76C168.521 44.304 168.489 44.816 168.457 45.296C169.641 44.816 170.825 44.352 172.009 43.904C173.225 43.424 174.265 43.024 175.129 42.704C176.025 42.384 176.585 42.224 176.809 42.224C178.633 42.224 180.041 42.544 181.033 43.184C182.025 43.824 182.713 44.736 183.097 45.92C183.513 47.104 183.721 48.48 183.721 50.048V65.648L186.793 66.176C186.889 66.336 186.953 66.496 186.985 66.656C187.017 66.784 187.033 66.928 187.033 67.088C187.033 67.408 186.969 67.712 186.841 68H175.801C175.673 67.744 175.609 67.424 175.609 67.04C175.609 66.688 175.657 66.4 175.753 66.176L178.921 65.6V50.912C178.921 49.76 178.825 48.8 178.633 48.032C178.473 47.232 178.153 46.624 177.673 46.208C177.193 45.76 176.457 45.536 175.465 45.536C175.241 45.536 174.761 45.616 174.025 45.776C173.289 45.936 172.425 46.16 171.433 46.448C170.473 46.736 169.481 47.024 168.457 47.312V65.6L171.529 66.176C171.625 66.336 171.689 66.496 171.721 66.656C171.753 66.784 171.769 66.912 171.769 67.04C171.769 67.392 171.689 67.712 171.529 68H160.441C160.313 67.744 160.249 67.424 160.249 67.04ZM203.802 58.304H206.346L207.642 63.776C208.698 64.48 209.802 64.976 210.954 65.264C212.138 65.52 213.306 65.648 214.458 65.648C215.898 65.648 217.21 65.424 218.394 64.976C219.578 64.496 220.522 63.824 221.226 62.96C221.93 62.064 222.282 60.96 222.282 59.648C222.282 58.4 221.978 57.344 221.37 56.48C220.762 55.584 219.866 54.784 218.682 54.08C217.53 53.376 216.138 52.624 214.506 51.824C213.482 51.344 212.41 50.832 211.29 50.288C210.17 49.744 209.13 49.072 208.17 48.272C207.21 47.472 206.41 46.48 205.77 45.296C205.162 44.08 204.858 42.592 204.858 40.832C204.858 38.88 205.338 37.216 206.298 35.84C207.258 34.464 208.586 33.408 210.282 32.672C211.978 31.904 213.914 31.52 216.09 31.52C217.402 31.52 218.698 31.664 219.978 31.952C221.29 32.24 222.634 32.64 224.01 33.152L224.73 31.808H226.602C226.538 33.12 226.49 34.288 226.458 35.312C226.426 36.304 226.378 37.28 226.314 38.24C226.25 39.2 226.186 40.288 226.122 41.504H223.578L222.81 35.984C221.786 35.44 220.682 35.04 219.498 34.784C218.314 34.496 217.178 34.352 216.09 34.352C214.17 34.352 212.634 34.816 211.482 35.744C210.362 36.672 209.802 37.952 209.802 39.584C209.802 41.056 210.186 42.272 210.954 43.232C211.722 44.192 212.714 45.008 213.93 45.68C215.146 46.352 216.426 46.992 217.77 47.6C219.178 48.24 220.474 48.912 221.658 49.616C222.842 50.288 223.866 51.04 224.73 51.872C225.594 52.672 226.25 53.584 226.698 54.608C227.178 55.632 227.418 56.816 227.418 58.16C227.418 60.368 226.842 62.256 225.69 63.824C224.57 65.36 223.034 66.528 221.082 67.328C219.162 68.096 217.002 68.48 214.602 68.48C212.714 68.48 210.89 68.288 209.13 67.904C207.37 67.488 205.722 66.928 204.186 66.224C204.09 64.816 204.01 63.456 203.946 62.144C203.914 60.8 203.866 59.52 203.802 58.304ZM228.978 43.664C228.978 43.344 229.042 43.024 229.17 42.704H240.21C240.338 42.96 240.402 43.28 240.402 43.664C240.402 44.016 240.338 44.32 240.21 44.576L237.042 45.104L243.81 62.96L250.626 45.056L247.266 44.528C247.106 44.208 247.026 43.92 247.026 43.664C247.026 43.344 247.09 43.024 247.218 42.704H256.29C256.418 42.96 256.482 43.28 256.482 43.664C256.482 43.984 256.418 44.272 256.29 44.528L253.602 45.056L244.626 67.088C243.922 68.72 243.234 70.128 242.562 71.312C241.922 72.496 241.218 73.52 240.45 74.384C239.682 75.248 238.786 76 237.762 76.64C236.738 77.28 235.522 77.904 234.114 78.512C233.762 78.032 233.474 77.472 233.25 76.832C233.026 76.192 232.93 75.488 232.962 74.72C234.498 74.176 235.794 73.6 236.85 72.992C237.906 72.416 238.77 71.712 239.442 70.88C240.146 70.08 240.722 69.136 241.17 68.048L231.906 45.104L229.218 44.576C229.122 44.384 229.058 44.224 229.026 44.096C228.994 43.936 228.978 43.792 228.978 43.664ZM258.973 60.224H261.565L263.005 64.784C264.029 65.136 265.005 65.392 265.933 65.552C266.893 65.712 267.613 65.792 268.093 65.792C269.437 65.792 270.589 65.488 271.549 64.88C272.541 64.272 273.037 63.28 273.037 61.904C273.037 61.072 272.765 60.384 272.221 59.84C271.677 59.264 270.973 58.784 270.109 58.4C269.245 58.016 268.301 57.648 267.277 57.296C266.029 56.848 264.797 56.336 263.581 55.76C262.365 55.184 261.357 54.4 260.557 53.408C259.789 52.416 259.405 51.12 259.405 49.52C259.405 47.984 259.773 46.672 260.509 45.584C261.245 44.496 262.269 43.664 263.581 43.088C264.925 42.512 266.509 42.224 268.333 42.224C268.589 42.224 269.101 42.288 269.869 42.416C270.669 42.544 271.629 42.704 272.749 42.896C273.901 43.088 275.053 43.328 276.205 43.616C276.173 44.256 276.125 44.976 276.061 45.776C276.029 46.544 275.981 47.312 275.917 48.08C275.853 48.816 275.789 49.504 275.725 50.144H273.133L272.509 45.584C271.549 45.392 270.685 45.232 269.917 45.104C269.181 44.944 268.653 44.864 268.333 44.864C266.957 44.864 265.837 45.168 264.973 45.776C264.141 46.384 263.725 47.312 263.725 48.56C263.725 49.456 263.997 50.192 264.541 50.768C265.085 51.312 265.805 51.776 266.701 52.16C267.629 52.544 268.637 52.928 269.725 53.312C271.005 53.76 272.221 54.288 273.373 54.896C274.525 55.472 275.469 56.224 276.205 57.152C276.973 58.08 277.357 59.312 277.357 60.848C277.357 62.384 276.941 63.728 276.109 64.88C275.277 66 274.141 66.88 272.701 67.52C271.293 68.16 269.709 68.48 267.949 68.48C267.565 68.48 266.925 68.416 266.029 68.288C265.165 68.192 264.141 68.016 262.957 67.76C261.805 67.504 260.637 67.168 259.453 66.752C259.325 65.472 259.229 64.336 259.165 63.344C259.101 62.352 259.037 61.312 258.973 60.224ZM280.18 43.856C280.18 43.568 280.228 43.28 280.324 42.992L283.588 42.704L285.796 36.56H288.34V42.704H295.012V45.2H288.34V60.8C288.34 61.984 288.404 62.944 288.532 63.68C288.692 64.416 288.948 64.944 289.3 65.264C289.684 65.584 290.212 65.744 290.884 65.744C291.716 65.744 292.532 65.6 293.332 65.312C294.164 65.024 294.932 64.672 295.636 64.256C295.988 64.544 296.212 64.896 296.308 65.312C296.404 65.696 296.404 66.032 296.308 66.32C295.124 67.152 293.908 67.712 292.66 68C291.444 68.32 290.42 68.48 289.588 68.48C287.476 68.48 285.94 67.888 284.98 66.704C284.052 65.52 283.588 63.68 283.588 61.184V45.152L280.324 44.864C280.228 44.576 280.18 44.24 280.18 43.856ZM298.91 55.472C298.91 52.784 299.406 50.464 300.398 48.512C301.422 46.528 302.798 44.992 304.526 43.904C306.286 42.784 308.27 42.224 310.478 42.224C312.75 42.224 314.622 42.8 316.094 43.952C317.598 45.104 318.718 46.672 319.454 48.656C320.19 50.608 320.558 52.848 320.558 55.376L303.95 56.384C304.174 59.264 304.942 61.52 306.254 63.152C307.598 64.784 309.422 65.6 311.726 65.6C313.038 65.6 314.318 65.424 315.566 65.072C316.846 64.688 318.078 64.128 319.262 63.392C319.55 63.648 319.774 63.952 319.934 64.304C320.126 64.656 320.238 65.04 320.27 65.456C318.894 66.448 317.422 67.2 315.854 67.712C314.318 68.224 312.75 68.48 311.15 68.48C308.59 68.48 306.398 67.952 304.574 66.896C302.75 65.808 301.342 64.288 300.35 62.336C299.39 60.352 298.91 58.064 298.91 55.472ZM303.95 53.792L315.662 53.024C315.63 51.648 315.422 50.336 315.038 49.088C314.654 47.84 314.062 46.816 313.262 46.016C312.462 45.216 311.422 44.816 310.142 44.816C308.894 44.816 307.822 45.2 306.926 45.968C306.03 46.704 305.326 47.744 304.814 49.088C304.334 50.432 304.046 52 303.95 53.792ZM335.873 68H324.785C324.657 67.744 324.593 67.424 324.593 67.04C324.593 66.688 324.657 66.4 324.785 66.176L328.001 65.6V44.96L324.785 44.576C324.657 44.256 324.593 43.952 324.593 43.664C324.593 43.344 324.641 43.024 324.737 42.704C325.569 42.64 326.465 42.592 327.425 42.56C328.385 42.496 329.345 42.432 330.305 42.368C331.297 42.304 332.209 42.256 333.041 42.224C332.977 42.736 332.929 43.248 332.897 43.76C332.865 44.24 332.833 44.688 332.801 45.104C333.985 44.624 335.121 44.16 336.209 43.712C337.329 43.264 338.273 42.912 339.041 42.656C339.841 42.368 340.369 42.224 340.625 42.224C342.193 42.224 343.441 42.48 344.369 42.992C345.329 43.504 346.065 44.192 346.577 45.056C347.409 44.736 348.273 44.416 349.169 44.096C350.065 43.744 350.913 43.44 351.713 43.184C352.513 42.896 353.201 42.672 353.777 42.512C354.353 42.32 354.737 42.224 354.929 42.224C356.785 42.224 358.209 42.56 359.201 43.232C360.225 43.872 360.929 44.784 361.313 45.968C361.697 47.12 361.889 48.48 361.889 50.048V65.6L364.961 66.176C365.057 66.336 365.121 66.496 365.153 66.656C365.185 66.784 365.201 66.928 365.201 67.088C365.201 67.408 365.137 67.712 365.009 68H354.017C353.889 67.744 353.825 67.424 353.825 67.04C353.825 66.688 353.873 66.4 353.969 66.176L357.089 65.6V50.576C357.089 49.36 357.009 48.368 356.849 47.6C356.721 46.832 356.417 46.272 355.937 45.92C355.457 45.536 354.721 45.344 353.729 45.344C353.505 45.344 353.041 45.424 352.337 45.584C351.665 45.744 350.865 45.952 349.937 46.208C349.041 46.432 348.129 46.688 347.201 46.976C347.297 47.552 347.361 48.144 347.393 48.752C347.425 49.36 347.441 49.968 347.441 50.576V65.6L350.465 66.176C350.561 66.336 350.625 66.496 350.657 66.656C350.689 66.784 350.705 66.912 350.705 67.04C350.705 67.392 350.625 67.712 350.465 68H339.569C339.441 67.744 339.377 67.424 339.377 67.04C339.377 66.688 339.425 66.4 339.521 66.176L342.641 65.6V51.008C342.641 49.792 342.561 48.784 342.401 47.984C342.241 47.184 341.921 46.592 341.441 46.208C340.993 45.792 340.289 45.584 339.329 45.584C339.105 45.584 338.689 45.648 338.081 45.776C337.505 45.904 336.769 46.08 335.873 46.304C334.977 46.528 333.953 46.816 332.801 47.168V65.6L335.873 66.176C335.969 66.336 336.033 66.496 336.065 66.656C336.097 66.784 336.113 66.912 336.113 67.04C336.113 67.392 336.033 67.712 335.873 68ZM419.798 34.496L420.614 65.504L424.358 65.984C424.422 66.144 424.486 66.32 424.55 66.512C424.614 66.704 424.646 66.88 424.646 67.04C424.646 67.296 424.566 67.616 424.406 68H411.734C411.606 67.616 411.542 67.28 411.542 66.992C411.542 66.64 411.622 66.304 411.782 65.984L415.574 65.504L415.19 37.28L404.006 68H401.078L389.606 37.184L389.03 65.504L392.918 65.984C393.014 66.144 393.078 66.32 393.11 66.512C393.142 66.672 393.158 66.848 393.158 67.04C393.158 67.36 393.094 67.68 392.966 68H381.878C381.75 67.68 381.686 67.36 381.686 67.04C381.686 66.688 381.766 66.336 381.926 65.984L385.718 65.504L386.678 34.592L382.982 34.016C382.822 33.696 382.742 33.376 382.742 33.056C382.742 32.736 382.806 32.384 382.934 32H392.774L403.67 61.136L414.134 32H423.494C423.654 32.384 423.734 32.736 423.734 33.056C423.734 33.344 423.654 33.664 423.494 34.016L419.798 34.496ZM428.659 61.568C428.659 60.448 428.883 59.392 429.331 58.4C429.779 57.376 430.467 56.512 431.395 55.808C432.323 55.104 433.459 54.64 434.803 54.416L443.059 53.216V51.056C443.059 49.904 442.995 48.88 442.867 47.984C442.739 47.088 442.435 46.384 441.955 45.872C441.475 45.36 440.723 45.104 439.699 45.104C439.475 45.104 439.059 45.152 438.451 45.248C437.843 45.312 437.155 45.408 436.387 45.536C435.651 45.632 434.931 45.76 434.227 45.92L433.795 50.816H430.963C430.835 49.696 430.739 48.56 430.675 47.408C430.611 46.224 430.579 45.104 430.579 44.048C431.507 43.856 432.499 43.648 433.555 43.424C434.643 43.2 435.683 43.008 436.675 42.848C437.667 42.656 438.515 42.512 439.219 42.416C439.923 42.288 440.371 42.224 440.563 42.224C442.419 42.224 443.875 42.576 444.931 43.28C445.987 43.952 446.723 44.96 447.139 46.304C447.587 47.648 447.811 49.312 447.811 51.296V65.648L450.739 66.128C450.803 66.288 450.851 66.448 450.883 66.608C450.915 66.736 450.931 66.88 450.931 67.04C450.931 67.36 450.867 67.68 450.739 68H444.211L443.299 65.36C442.595 65.68 441.811 66.016 440.947 66.368C440.115 66.72 439.299 67.056 438.499 67.376C437.699 67.696 436.995 67.952 436.387 68.144C435.779 68.368 435.363 68.48 435.139 68.48C434.147 68.48 433.139 68.24 432.115 67.76C431.123 67.248 430.291 66.48 429.619 65.456C428.979 64.4 428.659 63.104 428.659 61.568ZM433.315 61.424C433.315 62.736 433.603 63.728 434.179 64.4C434.755 65.072 435.539 65.408 436.531 65.408C436.787 65.408 437.235 65.328 437.875 65.168C438.547 64.976 439.331 64.736 440.227 64.448C441.155 64.128 442.099 63.776 443.059 63.392V55.808L437.107 56.864C435.987 57.056 435.075 57.52 434.371 58.256C433.667 58.96 433.315 60.016 433.315 61.424ZM454.484 67.04C454.484 66.688 454.548 66.4 454.676 66.176L457.892 65.6V44.96L454.676 44.576C454.548 44.256 454.484 43.952 454.484 43.664C454.484 43.344 454.532 43.024 454.628 42.704C455.46 42.672 456.356 42.624 457.316 42.56C458.308 42.496 459.284 42.448 460.244 42.416C461.236 42.352 462.132 42.288 462.932 42.224C462.9 42.704 462.852 43.216 462.788 43.76C462.756 44.304 462.724 44.816 462.692 45.296C463.876 44.816 465.06 44.352 466.244 43.904C467.46 43.424 468.5 43.024 469.364 42.704C470.26 42.384 470.82 42.224 471.044 42.224C472.868 42.224 474.276 42.544 475.268 43.184C476.26 43.824 476.948 44.736 477.332 45.92C477.748 47.104 477.956 48.48 477.956 50.048V65.648L481.028 66.176C481.124 66.336 481.188 66.496 481.22 66.656C481.252 66.784 481.268 66.928 481.268 67.088C481.268 67.408 481.204 67.712 481.076 68H470.036C469.908 67.744 469.844 67.424 469.844 67.04C469.844 66.688 469.892 66.4 469.988 66.176L473.156 65.6V50.912C473.156 49.76 473.06 48.8 472.868 48.032C472.708 47.232 472.388 46.624 471.908 46.208C471.428 45.76 470.692 45.536 469.7 45.536C469.476 45.536 468.996 45.616 468.26 45.776C467.524 45.936 466.66 46.16 465.668 46.448C464.708 46.736 463.716 47.024 462.692 47.312V65.6L465.764 66.176C465.86 66.336 465.924 66.496 465.956 66.656C465.988 66.784 466.004 66.912 466.004 67.04C466.004 67.392 465.924 67.712 465.764 68H454.676C454.548 67.744 454.484 67.424 454.484 67.04ZM485.003 61.568C485.003 60.448 485.227 59.392 485.675 58.4C486.123 57.376 486.811 56.512 487.739 55.808C488.667 55.104 489.803 54.64 491.147 54.416L499.403 53.216V51.056C499.403 49.904 499.339 48.88 499.211 47.984C499.083 47.088 498.779 46.384 498.299 45.872C497.819 45.36 497.067 45.104 496.043 45.104C495.819 45.104 495.403 45.152 494.795 45.248C494.187 45.312 493.499 45.408 492.731 45.536C491.995 45.632 491.275 45.76 490.571 45.92L490.139 50.816H487.307C487.179 49.696 487.083 48.56 487.019 47.408C486.955 46.224 486.923 45.104 486.923 44.048C487.851 43.856 488.843 43.648 489.899 43.424C490.987 43.2 492.027 43.008 493.019 42.848C494.011 42.656 494.859 42.512 495.563 42.416C496.267 42.288 496.715 42.224 496.907 42.224C498.763 42.224 500.219 42.576 501.275 43.28C502.331 43.952 503.067 44.96 503.483 46.304C503.931 47.648 504.155 49.312 504.155 51.296V65.648L507.083 66.128C507.147 66.288 507.195 66.448 507.227 66.608C507.259 66.736 507.275 66.88 507.275 67.04C507.275 67.36 507.211 67.68 507.083 68H500.555L499.643 65.36C498.939 65.68 498.155 66.016 497.291 66.368C496.459 66.72 495.643 67.056 494.843 67.376C494.043 67.696 493.339 67.952 492.731 68.144C492.123 68.368 491.707 68.48 491.483 68.48C490.491 68.48 489.483 68.24 488.459 67.76C487.467 67.248 486.635 66.48 485.963 65.456C485.323 64.4 485.003 63.104 485.003 61.568ZM489.659 61.424C489.659 62.736 489.947 63.728 490.523 64.4C491.099 65.072 491.883 65.408 492.875 65.408C493.131 65.408 493.579 65.328 494.219 65.168C494.891 64.976 495.675 64.736 496.571 64.448C497.499 64.128 498.443 63.776 499.403 63.392V55.808L493.451 56.864C492.331 57.056 491.419 57.52 490.715 58.256C490.011 58.96 489.659 60.016 489.659 61.424ZM510.059 72.752C510.059 71.6 510.363 70.56 510.971 69.632C511.611 68.704 512.491 67.936 513.611 67.328C513.387 67.104 513.227 66.864 513.131 66.608C513.035 66.32 512.987 66.016 512.987 65.696C512.987 64.96 513.179 64.048 513.563 62.96C513.979 61.84 514.619 60.592 515.483 59.216C514.267 58.384 513.323 57.392 512.651 56.24C511.979 55.056 511.643 53.552 511.643 51.728C511.643 49.776 512.059 48.112 512.891 46.736C513.755 45.328 514.907 44.224 516.347 43.424C517.787 42.624 519.387 42.224 521.147 42.224C522.011 42.224 522.811 42.336 523.547 42.56C524.283 42.752 524.971 43.056 525.611 43.472L532.523 41.792C532.747 42.016 532.907 42.304 533.003 42.656C533.131 42.976 533.195 43.328 533.195 43.712C533.195 44.256 533.083 44.784 532.859 45.296L527.627 45.008C528.523 45.904 529.211 46.88 529.691 47.936C530.203 48.96 530.459 50.176 530.459 51.584C530.459 53.504 530.011 55.136 529.115 56.48C528.219 57.824 527.051 58.864 525.611 59.6C524.171 60.304 522.587 60.656 520.859 60.656C520.283 60.656 519.691 60.624 519.083 60.56C518.475 60.464 517.915 60.32 517.403 60.128C517.115 60.864 516.891 61.648 516.731 62.48C516.571 63.312 516.491 64.016 516.491 64.592H524.891C527.259 64.592 529.131 65.136 530.507 66.224C531.915 67.28 532.619 68.736 532.619 70.592C532.619 72.992 531.499 74.912 529.259 76.352C527.051 77.824 523.979 78.56 520.043 78.56C516.811 78.56 514.331 78.032 512.603 76.976C510.907 75.92 510.059 74.512 510.059 72.752ZM513.995 71.984C513.995 73.168 514.539 74.096 515.627 74.768C516.715 75.44 518.347 75.776 520.523 75.776C523.019 75.776 524.939 75.328 526.283 74.432C527.659 73.568 528.347 72.512 528.347 71.264C528.347 70.272 527.995 69.504 527.291 68.96C526.587 68.448 525.611 68.192 524.363 68.192H516.251C515.419 68.768 514.827 69.36 514.475 69.968C514.155 70.608 513.995 71.28 513.995 71.984ZM516.155 51.824C516.155 54 516.587 55.616 517.451 56.672C518.347 57.728 519.531 58.256 521.003 58.256C522.507 58.256 523.691 57.712 524.555 56.624C525.451 55.536 525.899 53.904 525.899 51.728C525.899 50.096 525.675 48.768 525.227 47.744C524.779 46.688 524.187 45.92 523.451 45.44C522.747 44.96 521.947 44.72 521.051 44.72C520.219 44.72 519.419 44.944 518.651 45.392C517.915 45.84 517.307 46.592 516.827 47.648C516.379 48.672 516.155 50.064 516.155 51.824ZM536.754 55.472C536.754 52.784 537.25 50.464 538.242 48.512C539.266 46.528 540.642 44.992 542.37 43.904C544.13 42.784 546.114 42.224 548.322 42.224C550.594 42.224 552.466 42.8 553.938 43.952C555.442 45.104 556.562 46.672 557.298 48.656C558.034 50.608 558.402 52.848 558.402 55.376L541.794 56.384C542.018 59.264 542.786 61.52 544.098 63.152C545.442 64.784 547.266 65.6 549.57 65.6C550.882 65.6 552.162 65.424 553.41 65.072C554.69 64.688 555.922 64.128 557.106 63.392C557.394 63.648 557.618 63.952 557.778 64.304C557.97 64.656 558.082 65.04 558.114 65.456C556.738 66.448 555.266 67.2 553.698 67.712C552.162 68.224 550.594 68.48 548.994 68.48C546.434 68.48 544.242 67.952 542.418 66.896C540.594 65.808 539.186 64.288 538.194 62.336C537.234 60.352 536.754 58.064 536.754 55.472ZM541.794 53.792L553.506 53.024C553.474 51.648 553.266 50.336 552.882 49.088C552.498 47.84 551.906 46.816 551.106 46.016C550.306 45.216 549.266 44.816 547.986 44.816C546.738 44.816 545.666 45.2 544.77 45.968C543.874 46.704 543.17 47.744 542.658 49.088C542.178 50.432 541.89 52 541.794 53.792ZM562.437 67.04C562.437 66.688 562.501 66.4 562.629 66.176L565.845 65.6V44.96L562.725 44.576C562.629 44.256 562.581 43.952 562.581 43.664C562.581 43.344 562.629 43.024 562.725 42.704C563.525 42.672 564.389 42.64 565.317 42.608C566.245 42.544 567.189 42.48 568.149 42.416C569.109 42.352 570.037 42.288 570.933 42.224C570.869 43.152 570.805 44.144 570.741 45.2C570.709 46.224 570.661 47.2 570.597 48.128H570.837C571.733 46.848 572.597 45.776 573.429 44.912C574.261 44.016 575.141 43.344 576.069 42.896C577.029 42.448 578.149 42.224 579.429 42.224C579.557 42.832 579.621 43.504 579.621 44.24C579.621 44.752 579.589 45.28 579.525 45.824C579.461 46.336 579.365 46.864 579.237 47.408C578.085 47.408 577.045 47.488 576.117 47.648C575.221 47.808 574.341 48.08 573.477 48.464C572.613 48.848 571.669 49.408 570.645 50.144V65.552L574.677 66.176C574.773 66.336 574.837 66.496 574.869 66.656C574.901 66.784 574.917 66.912 574.917 67.04C574.917 67.392 574.837 67.712 574.677 68H562.629C562.501 67.744 562.437 67.424 562.437 67.04Z" fill="black" fill-opacity="0.9"/>
<path d="M38.744 108.192C38.28 108.192 37.816 108.144 37.352 108.048C36.888 107.968 36.448 107.824 36.032 107.616C35.616 107.392 35.24 107.112 34.904 106.776C34.584 106.424 34.32 106.04 34.112 105.624C33.92 105.192 33.784 104.744 33.704 104.28C33.624 103.816 33.584 103.352 33.584 102.888V95.784C33.584 95.32 33.624 94.856 33.704 94.392C33.784 93.928 33.92 93.488 34.112 93.072C34.32 92.64 34.584 92.256 34.904 91.92C35.24 91.568 35.616 91.288 36.032 91.08C36.448 90.856 36.888 90.704 37.352 90.624C37.816 90.528 38.28 90.48 38.744 90.48C39.176 90.48 39.608 90.512 40.04 90.576C40.472 90.64 40.88 90.76 41.264 90.936C41.664 91.096 42.032 91.312 42.368 91.584C42.704 91.856 42.984 92.176 43.208 92.544C43.448 92.896 43.624 93.288 43.736 93.72C43.848 94.136 43.904 94.56 43.904 94.992V95.064H41.696V95.016C41.696 94.648 41.616 94.296 41.456 93.96C41.312 93.608 41.096 93.312 40.808 93.072C40.536 92.832 40.216 92.672 39.848 92.592C39.48 92.496 39.112 92.448 38.744 92.448C38.472 92.448 38.192 92.48 37.904 92.544C37.632 92.592 37.376 92.696 37.136 92.856C36.896 93 36.688 93.184 36.512 93.408C36.336 93.632 36.192 93.872 36.08 94.128C35.968 94.384 35.888 94.656 35.84 94.944C35.808 95.216 35.792 95.496 35.792 95.784V102.888C35.792 103.176 35.808 103.464 35.84 103.752C35.888 104.024 35.968 104.288 36.08 104.544C36.192 104.8 36.336 105.04 36.512 105.264C36.688 105.488 36.896 105.68 37.136 105.84C37.376 105.984 37.632 106.088 37.904 106.152C38.192 106.2 38.472 106.224 38.744 106.224C39.112 106.224 39.48 106.184 39.848 106.104C40.216 106.008 40.536 105.84 40.808 105.6C41.096 105.36 41.312 105.072 41.456 104.736C41.616 104.384 41.696 104.024 41.696 103.656V103.608H43.904V103.68C43.904 104.112 43.848 104.544 43.736 104.976C43.624 105.392 43.448 105.784 43.208 106.152C42.984 106.504 42.704 106.816 42.368 107.088C42.032 107.36 41.664 107.584 41.264 107.76C40.88 107.92 40.472 108.032 40.04 108.096C39.608 108.16 39.176 108.192 38.744 108.192ZM52.4566 108.192C51.9766 108.192 51.4966 108.144 51.0166 108.048C50.5526 107.968 50.1126 107.816 49.6966 107.592C49.2806 107.368 48.9046 107.08 48.5686 106.728C48.2326 106.376 47.9606 105.992 47.7526 105.576C47.5606 105.144 47.4246 104.696 47.3446 104.232C47.2646 103.752 47.2246 103.272 47.2246 102.792V100.728C47.2246 100.248 47.2646 99.776 47.3446 99.312C47.4246 98.832 47.5606 98.384 47.7526 97.968C47.9606 97.536 48.2326 97.144 48.5686 96.792C48.9046 96.44 49.2806 96.152 49.6966 95.928C50.1126 95.704 50.5526 95.552 51.0166 95.472C51.4966 95.376 51.9766 95.328 52.4566 95.328C52.9366 95.328 53.4086 95.376 53.8726 95.472C54.3526 95.552 54.8006 95.704 55.2166 95.928C55.6326 96.152 56.0086 96.44 56.3446 96.792C56.6806 97.144 56.9446 97.536 57.1366 97.968C57.3446 98.384 57.4886 98.832 57.5686 99.312C57.6486 99.776 57.6886 100.248 57.6886 100.728V102.792C57.6886 103.272 57.6486 103.752 57.5686 104.232C57.4886 104.696 57.3446 105.144 57.1366 105.576C56.9446 105.992 56.6806 106.376 56.3446 106.728C56.0086 107.08 55.6326 107.368 55.2166 107.592C54.8006 107.816 54.3526 107.968 53.8726 108.048C53.4086 108.144 52.9366 108.192 52.4566 108.192ZM52.4566 106.224C52.7446 106.224 53.0326 106.192 53.3206 106.128C53.6086 106.064 53.8726 105.96 54.1126 105.816C54.3526 105.656 54.5606 105.464 54.7366 105.24C54.9286 105 55.0806 104.752 55.1926 104.496C55.3046 104.224 55.3766 103.944 55.4086 103.656C55.4566 103.368 55.4806 103.08 55.4806 102.792V100.728C55.4806 100.44 55.4566 100.152 55.4086 99.864C55.3766 99.576 55.3046 99.304 55.1926 99.048C55.0806 98.776 54.9286 98.528 54.7366 98.304C54.5606 98.064 54.3526 97.872 54.1126 97.728C53.8726 97.568 53.6086 97.456 53.3206 97.392C53.0326 97.328 52.7446 97.296 52.4566 97.296C52.1686 97.296 51.8806 97.328 51.5926 97.392C51.3046 97.456 51.0406 97.568 50.8006 97.728C50.5606 97.872 50.3446 98.064 50.1526 98.304C49.9766 98.528 49.8326 98.776 49.7206 99.048C49.6086 99.304 49.5286 99.576 49.4806 99.864C49.4486 100.152 49.4326 100.44 49.4326 100.728V102.792C49.4326 103.08 49.4486 103.368 49.4806 103.656C49.5286 103.944 49.6086 104.224 49.7206 104.496C49.8326 104.752 49.9766 105 50.1526 105.24C50.3446 105.464 50.5606 105.656 50.8006 105.816C51.0406 105.96 51.3046 106.064 51.5926 106.128C51.8806 106.192 52.1686 106.224 52.4566 106.224ZM70.9693 108H69.1213C68.7373 108 68.3613 107.968 67.9933 107.904C67.6413 107.84 67.2973 107.728 66.9613 107.568C66.6253 107.408 66.3213 107.2 66.0493 106.944C65.7933 106.672 65.5853 106.368 65.4253 106.032C65.2653 105.696 65.1533 105.344 65.0893 104.976C65.0253 104.608 64.9933 104.24 64.9933 103.872V92.64H61.4653V90.672H67.2013V103.872C67.2013 104.144 67.2333 104.416 67.2973 104.688C67.3613 104.96 67.4813 105.208 67.6573 105.432C67.8333 105.64 68.0493 105.792 68.3053 105.888C68.5613 105.984 68.8333 106.032 69.1213 106.032H70.9693V108ZM79.7379 108.192C79.2579 108.192 78.7779 108.144 78.2979 108.048C77.8339 107.968 77.3939 107.816 76.9779 107.592C76.5619 107.368 76.1859 107.08 75.8499 106.728C75.5139 106.376 75.2419 105.992 75.0339 105.576C74.8419 105.144 74.7059 104.696 74.6259 104.232C74.5459 103.752 74.5059 103.272 74.5059 102.792V100.728C74.5059 100.248 74.5459 99.776 74.6259 99.312C74.7059 98.832 74.8419 98.384 75.0339 97.968C75.2419 97.536 75.5139 97.144 75.8499 96.792C76.1859 96.44 76.5619 96.152 76.9779 95.928C77.3939 95.704 77.8339 95.552 78.2979 95.472C78.7779 95.376 79.2579 95.328 79.7379 95.328C80.2179 95.328 80.6899 95.376 81.1539 95.472C81.6339 95.552 82.0819 95.704 82.4979 95.928C82.9139 96.152 83.2899 96.44 83.6259 96.792C83.9619 97.144 84.2259 97.536 84.4179 97.968C84.6259 98.384 84.7699 98.832 84.8499 99.312C84.9299 99.776 84.9699 100.248 84.9699 100.728V102.792C84.9699 103.272 84.9299 103.752 84.8499 104.232C84.7699 104.696 84.6259 105.144 84.4179 105.576C84.2259 105.992 83.9619 106.376 83.6259 106.728C83.2899 107.08 82.9139 107.368 82.4979 107.592C82.0819 107.816 81.6339 107.968 81.1539 108.048C80.6899 108.144 80.2179 108.192 79.7379 108.192ZM79.7379 106.224C80.0259 106.224 80.3139 106.192 80.6019 106.128C80.8899 106.064 81.1539 105.96 81.3939 105.816C81.6339 105.656 81.8419 105.464 82.0179 105.24C82.2099 105 82.3619 104.752 82.4739 104.496C82.5859 104.224 82.6579 103.944 82.6899 103.656C82.7379 103.368 82.7619 103.08 82.7619 102.792V100.728C82.7619 100.44 82.7379 100.152 82.6899 99.864C82.6579 99.576 82.5859 99.304 82.4739 99.048C82.3619 98.776 82.2099 98.528 82.0179 98.304C81.8419 98.064 81.6339 97.872 81.3939 97.728C81.1539 97.568 80.8899 97.456 80.6019 97.392C80.3139 97.328 80.0259 97.296 79.7379 97.296C79.4499 97.296 79.1619 97.328 78.8739 97.392C78.5859 97.456 78.3219 97.568 78.0819 97.728C77.8419 97.872 77.6259 98.064 77.4339 98.304C77.2579 98.528 77.1139 98.776 77.0019 99.048C76.8899 99.304 76.8099 99.576 76.7619 99.864C76.7299 100.152 76.7139 100.44 76.7139 100.728V102.792C76.7139 103.08 76.7299 103.368 76.7619 103.656C76.8099 103.944 76.8899 104.224 77.0019 104.496C77.1139 104.752 77.2579 105 77.4339 105.24C77.6259 105.464 77.8419 105.656 78.0819 105.816C78.3219 105.96 78.5859 106.064 78.8739 106.128C79.1619 106.192 79.4499 106.224 79.7379 106.224ZM89.9225 108V95.52H92.1545V98.208C92.2665 97.824 92.4185 97.456 92.6105 97.104C92.8185 96.736 93.0665 96.416 93.3545 96.144C93.6585 95.872 94.0025 95.672 94.3865 95.544C94.7705 95.4 95.1625 95.328 95.5625 95.328C95.8825 95.328 96.2025 95.368 96.5225 95.448C96.8585 95.528 97.1545 95.664 97.4105 95.856C97.6825 96.048 97.9065 96.288 98.0825 96.576C98.2745 96.848 98.4185 97.144 98.5145 97.464C98.6265 97.768 98.6985 98.088 98.7305 98.424C98.7625 98.76 98.7785 99.088 98.7785 99.408H96.5705C96.5705 99.152 96.5465 98.904 96.4985 98.664C96.4505 98.408 96.3545 98.176 96.2105 97.968C96.0825 97.744 95.8985 97.576 95.6585 97.464C95.4345 97.352 95.1945 97.296 94.9385 97.296C94.6345 97.296 94.3305 97.352 94.0265 97.464C93.7385 97.56 93.4825 97.72 93.2585 97.944C93.0345 98.152 92.8505 98.4 92.7065 98.688C92.5625 98.96 92.4425 99.248 92.3465 99.552C92.2665 99.84 92.2105 100.144 92.1785 100.464C92.1625 100.768 92.1545 101.072 92.1545 101.376V108H89.9225ZM112.059 101.064H101.979V99.096H112.059V101.064ZM120.564 108.192C120.1 108.192 119.636 108.144 119.172 108.048C118.708 107.968 118.268 107.824 117.852 107.616C117.436 107.392 117.068 107.112 116.748 106.776C116.428 106.424 116.164 106.04 115.956 105.624C115.764 105.192 115.628 104.744 115.548 104.28C115.468 103.816 115.428 103.352 115.428 102.888V95.784C115.428 95.32 115.468 94.856 115.548 94.392C115.628 93.928 115.764 93.488 115.956 93.072C116.164 92.64 116.428 92.256 116.748 91.92C117.084 91.568 117.46 91.288 117.876 91.08C118.292 90.856 118.732 90.704 119.196 90.624C119.66 90.528 120.124 90.48 120.588 90.48C121.02 90.48 121.452 90.512 121.884 90.576C122.316 90.64 122.724 90.76 123.108 90.936C123.508 91.096 123.876 91.312 124.212 91.584C124.548 91.856 124.828 92.176 125.052 92.544C125.292 92.896 125.468 93.288 125.58 93.72C125.692 94.136 125.748 94.56 125.748 94.992V95.064H123.54V95.016C123.54 94.648 123.46 94.296 123.3 93.96C123.156 93.608 122.94 93.312 122.652 93.072C122.38 92.832 122.06 92.672 121.692 92.592C121.324 92.496 120.956 92.448 120.588 92.448C120.316 92.448 120.036 92.48 119.748 92.544C119.476 92.592 119.22 92.696 118.98 92.856C118.74 93 118.532 93.184 118.356 93.408C118.18 93.632 118.036 93.872 117.924 94.128C117.812 94.384 117.732 94.656 117.684 94.944C117.652 95.216 117.636 95.496 117.636 95.784V102.888C117.636 103.176 117.652 103.456 117.684 103.728C117.732 104 117.804 104.272 117.9 104.544C118.012 104.8 118.156 105.04 118.332 105.264C118.508 105.488 118.716 105.68 118.956 105.84C119.196 105.984 119.452 106.088 119.724 106.152C119.996 106.2 120.276 106.224 120.564 106.224C120.852 106.224 121.132 106.2 121.404 106.152C121.676 106.088 121.932 105.984 122.172 105.84C122.412 105.68 122.62 105.488 122.796 105.264C122.972 105.04 123.108 104.8 123.204 104.544C123.316 104.272 123.388 104 123.42 103.728C123.468 103.456 123.492 103.176 123.492 102.888V100.464H120.66V98.496H125.7V102.888C125.7 103.352 125.66 103.816 125.58 104.28C125.5 104.744 125.356 105.192 125.148 105.624C124.956 106.04 124.7 106.424 124.38 106.776C124.06 107.112 123.692 107.392 123.276 107.616C122.86 107.824 122.42 107.968 121.956 108.048C121.492 108.144 121.028 108.192 120.564 108.192ZM134.3 108.192C133.836 108.192 133.364 108.144 132.884 108.048C132.42 107.968 131.972 107.816 131.54 107.592C131.124 107.368 130.748 107.08 130.412 106.728C130.076 106.376 129.804 105.992 129.596 105.576C129.404 105.144 129.268 104.696 129.188 104.232C129.108 103.752 129.068 103.272 129.068 102.792V100.728C129.068 100.248 129.108 99.776 129.188 99.312C129.268 98.832 129.404 98.384 129.596 97.968C129.804 97.536 130.076 97.144 130.412 96.792C130.748 96.44 131.124 96.152 131.54 95.928C131.956 95.704 132.396 95.552 132.86 95.472C133.34 95.376 133.82 95.328 134.3 95.328C134.78 95.328 135.252 95.376 135.716 95.472C136.196 95.552 136.644 95.704 137.06 95.928C137.476 96.152 137.852 96.44 138.188 96.792C138.524 97.144 138.788 97.536 138.98 97.968C139.188 98.384 139.332 98.832 139.412 99.312C139.492 99.776 139.532 100.248 139.532 100.728V102.72H131.276V102.792C131.276 103.08 131.292 103.368 131.324 103.656C131.372 103.944 131.444 104.224 131.54 104.496C131.652 104.768 131.796 105.024 131.972 105.264C132.164 105.488 132.38 105.68 132.62 105.84C132.876 105.984 133.148 106.088 133.436 106.152C133.724 106.216 134.012 106.248 134.3 106.248C134.636 106.248 134.964 106.224 135.284 106.176C135.604 106.128 135.908 106.04 136.196 105.912C136.484 105.768 136.732 105.568 136.94 105.312C137.164 105.056 137.276 104.768 137.276 104.448H139.484C139.468 104.848 139.388 105.24 139.244 105.624C139.1 105.992 138.9 106.328 138.644 106.632C138.388 106.92 138.084 107.168 137.732 107.376C137.396 107.584 137.036 107.752 136.652 107.88C136.284 107.992 135.9 108.072 135.5 108.12C135.1 108.168 134.7 108.192 134.3 108.192ZM131.276 100.8H137.324V100.728C137.324 100.44 137.3 100.152 137.252 99.864C137.22 99.576 137.148 99.296 137.036 99.024C136.94 98.752 136.796 98.504 136.604 98.28C136.428 98.04 136.212 97.848 135.956 97.704C135.716 97.544 135.452 97.432 135.164 97.368C134.876 97.304 134.588 97.272 134.3 97.272C134.012 97.272 133.724 97.304 133.436 97.368C133.148 97.432 132.876 97.544 132.62 97.704C132.38 97.848 132.164 98.04 131.972 98.28C131.796 98.504 131.652 98.752 131.54 99.024C131.444 99.296 131.372 99.576 131.324 99.864C131.292 100.152 131.276 100.44 131.276 100.728V100.8ZM142.901 108V95.52H145.109V97.968C145.253 97.584 145.445 97.224 145.685 96.888C145.925 96.552 146.205 96.264 146.525 96.024C146.861 95.768 147.229 95.592 147.629 95.496C148.029 95.384 148.429 95.328 148.829 95.328C149.261 95.328 149.685 95.392 150.101 95.52C150.533 95.632 150.917 95.824 151.253 96.096C151.589 96.352 151.869 96.664 152.093 97.032C152.317 97.4 152.493 97.792 152.621 98.208C152.765 98.608 152.861 99.024 152.909 99.456C152.957 99.872 152.981 100.296 152.981 100.728V108H150.773V100.728C150.773 100.456 150.749 100.184 150.701 99.912C150.669 99.624 150.605 99.352 150.509 99.096C150.413 98.824 150.285 98.576 150.125 98.352C149.965 98.112 149.765 97.912 149.525 97.752C149.301 97.576 149.053 97.456 148.781 97.392C148.509 97.328 148.229 97.296 147.941 97.296C147.653 97.296 147.373 97.328 147.101 97.392C146.829 97.456 146.573 97.576 146.333 97.752C146.109 97.912 145.917 98.112 145.757 98.352C145.597 98.576 145.469 98.824 145.373 99.096C145.277 99.352 145.205 99.624 145.157 99.912C145.125 100.184 145.109 100.456 145.109 100.728V108H142.901ZM161.582 108.192C161.118 108.192 160.646 108.144 160.166 108.048C159.702 107.968 159.254 107.816 158.822 107.592C158.406 107.368 158.03 107.08 157.694 106.728C157.358 106.376 157.086 105.992 156.878 105.576C156.686 105.144 156.55 104.696 156.47 104.232C156.39 103.752 156.35 103.272 156.35 102.792V100.728C156.35 100.248 156.39 99.776 156.47 99.312C156.55 98.832 156.686 98.384 156.878 97.968C157.086 97.536 157.358 97.144 157.694 96.792C158.03 96.44 158.406 96.152 158.822 95.928C159.238 95.704 159.678 95.552 160.142 95.472C160.622 95.376 161.102 95.328 161.582 95.328C162.062 95.328 162.534 95.376 162.998 95.472C163.478 95.552 163.926 95.704 164.342 95.928C164.758 96.152 165.134 96.44 165.47 96.792C165.806 97.144 166.07 97.536 166.262 97.968C166.47 98.384 166.614 98.832 166.694 99.312C166.774 99.776 166.814 100.248 166.814 100.728V102.72H158.558V102.792C158.558 103.08 158.574 103.368 158.606 103.656C158.654 103.944 158.726 104.224 158.822 104.496C158.934 104.768 159.078 105.024 159.254 105.264C159.446 105.488 159.662 105.68 159.902 105.84C160.158 105.984 160.43 106.088 160.718 106.152C161.006 106.216 161.294 106.248 161.582 106.248C161.918 106.248 162.246 106.224 162.566 106.176C162.886 106.128 163.19 106.04 163.478 105.912C163.766 105.768 164.014 105.568 164.222 105.312C164.446 105.056 164.558 104.768 164.558 104.448H166.766C166.75 104.848 166.67 105.24 166.526 105.624C166.382 105.992 166.182 106.328 165.926 106.632C165.67 106.92 165.366 107.168 165.014 107.376C164.678 107.584 164.318 107.752 163.934 107.88C163.566 107.992 163.182 108.072 162.782 108.12C162.382 108.168 161.982 108.192 161.582 108.192ZM158.558 100.8H164.606V100.728C164.606 100.44 164.582 100.152 164.534 99.864C164.502 99.576 164.43 99.296 164.318 99.024C164.222 98.752 164.078 98.504 163.886 98.28C163.71 98.04 163.494 97.848 163.238 97.704C162.998 97.544 162.734 97.432 162.446 97.368C162.158 97.304 161.87 97.272 161.582 97.272C161.294 97.272 161.006 97.304 160.718 97.368C160.43 97.432 160.158 97.544 159.902 97.704C159.662 97.848 159.446 98.04 159.254 98.28C159.078 98.504 158.934 98.752 158.822 99.024C158.726 99.296 158.654 99.576 158.606 99.864C158.574 100.152 158.558 100.44 158.558 100.728V100.8ZM171.766 108V95.52H173.998V98.208C174.11 97.824 174.262 97.456 174.454 97.104C174.662 96.736 174.91 96.416 175.198 96.144C175.502 95.872 175.846 95.672 176.23 95.544C176.614 95.4 177.006 95.328 177.406 95.328C177.726 95.328 178.046 95.368 178.366 95.448C178.702 95.528 178.998 95.664 179.254 95.856C179.526 96.048 179.75 96.288 179.926 96.576C180.118 96.848 180.262 97.144 180.358 97.464C180.47 97.768 180.542 98.088 180.574 98.424C180.606 98.76 180.622 99.088 180.622 99.408H178.414C178.414 99.152 178.39 98.904 178.342 98.664C178.294 98.408 178.198 98.176 178.054 97.968C177.926 97.744 177.742 97.576 177.502 97.464C177.278 97.352 177.038 97.296 176.782 97.296C176.478 97.296 176.174 97.352 175.87 97.464C175.582 97.56 175.326 97.72 175.102 97.944C174.878 98.152 174.694 98.4 174.55 98.688C174.406 98.96 174.286 99.248 174.19 99.552C174.11 99.84 174.054 100.144 174.022 100.464C174.006 100.768 173.998 101.072 173.998 101.376V108H171.766ZM187.855 108.192C187.503 108.192 187.151 108.168 186.799 108.12C186.463 108.072 186.127 107.984 185.791 107.856C185.471 107.728 185.167 107.56 184.879 107.352C184.591 107.128 184.351 106.872 184.159 106.584C183.967 106.28 183.831 105.96 183.751 105.624C183.671 105.272 183.631 104.92 183.631 104.568C183.631 104.136 183.695 103.712 183.823 103.296C183.967 102.864 184.191 102.488 184.495 102.168C184.799 101.832 185.143 101.56 185.527 101.352C185.927 101.144 186.335 100.984 186.751 100.872C187.183 100.744 187.615 100.664 188.047 100.632C188.495 100.584 188.935 100.56 189.367 100.56H191.695V99.792C191.695 99.44 191.631 99.088 191.503 98.736C191.375 98.384 191.167 98.096 190.879 97.872C190.591 97.648 190.263 97.496 189.895 97.416C189.543 97.32 189.191 97.272 188.839 97.272C188.519 97.272 188.199 97.296 187.879 97.344C187.575 97.392 187.279 97.488 186.991 97.632C186.719 97.76 186.479 97.952 186.271 98.208C186.079 98.464 185.983 98.752 185.983 99.072H183.775V99.024C183.775 98.64 183.839 98.264 183.967 97.896C184.111 97.512 184.303 97.176 184.543 96.888C184.799 96.584 185.095 96.328 185.431 96.12C185.783 95.912 186.143 95.752 186.511 95.64C186.879 95.512 187.255 95.432 187.639 95.4C188.039 95.352 188.439 95.328 188.839 95.328C189.255 95.328 189.679 95.36 190.111 95.424C190.543 95.472 190.951 95.584 191.335 95.76C191.735 95.92 192.103 96.136 192.439 96.408C192.775 96.68 193.055 97 193.279 97.368C193.503 97.72 193.663 98.112 193.759 98.544C193.855 98.96 193.903 99.376 193.903 99.792V108H191.695V105.768C191.551 106.136 191.351 106.48 191.095 106.8C190.839 107.12 190.535 107.392 190.183 107.616C189.847 107.824 189.471 107.968 189.055 108.048C188.655 108.144 188.255 108.192 187.855 108.192ZM188.743 106.248C189.015 106.248 189.279 106.224 189.535 106.176C189.791 106.128 190.039 106.048 190.279 105.936C190.519 105.824 190.735 105.672 190.927 105.48C191.119 105.288 191.271 105.08 191.383 104.856C191.511 104.616 191.591 104.368 191.623 104.112C191.671 103.84 191.695 103.576 191.695 103.32V102.504H189.367C189.127 102.504 188.879 102.512 188.623 102.528C188.383 102.544 188.135 102.576 187.879 102.624C187.639 102.656 187.399 102.712 187.159 102.792C186.935 102.872 186.719 102.984 186.511 103.128C186.303 103.256 186.135 103.432 186.007 103.656C185.879 103.88 185.815 104.112 185.815 104.352C185.815 104.672 185.911 104.976 186.103 105.264C186.311 105.536 186.559 105.744 186.847 105.888C187.135 106.032 187.439 106.128 187.759 106.176C188.095 106.224 188.423 106.248 188.743 106.248ZM207.544 108H204.976C204.608 108 204.24 107.968 203.872 107.904C203.52 107.84 203.176 107.728 202.84 107.568C202.504 107.408 202.2 107.2 201.928 106.944C201.672 106.672 201.464 106.368 201.304 106.032C201.144 105.696 201.032 105.344 200.968 104.976C200.904 104.608 200.872 104.24 200.872 103.872V97.488H197.464V95.52H200.872V91.512H203.08V95.52H207.544V97.488H203.08V103.872C203.08 104.144 203.112 104.416 203.176 104.688C203.24 104.96 203.36 105.208 203.536 105.432C203.712 105.64 203.928 105.792 204.184 105.888C204.44 105.984 204.704 106.032 204.976 106.032H207.544V108ZM211.512 108V106.032H215.232V97.488H212.952V95.52H217.44V106.032H220.776V108H211.512ZM216.288 93.528C216.08 93.528 215.864 93.496 215.64 93.432C215.432 93.368 215.248 93.264 215.088 93.12C214.944 92.96 214.84 92.776 214.776 92.568C214.712 92.344 214.68 92.128 214.68 91.92C214.68 91.712 214.712 91.504 214.776 91.296C214.84 91.072 214.944 90.888 215.088 90.744C215.248 90.584 215.432 90.472 215.64 90.408C215.864 90.344 216.08 90.312 216.288 90.312C216.496 90.312 216.704 90.344 216.912 90.408C217.136 90.472 217.32 90.584 217.464 90.744C217.624 90.888 217.736 91.072 217.8 91.296C217.864 91.504 217.896 91.712 217.896 91.92C217.896 92.128 217.864 92.344 217.8 92.568C217.736 92.776 217.624 92.96 217.464 93.12C217.32 93.264 217.136 93.368 216.912 93.432C216.704 93.496 216.496 93.528 216.288 93.528ZM229.785 108.192C229.305 108.192 228.825 108.144 228.345 108.048C227.881 107.968 227.441 107.816 227.025 107.592C226.609 107.368 226.233 107.08 225.897 106.728C225.561 106.376 225.289 105.992 225.081 105.576C224.889 105.144 224.753 104.696 224.673 104.232C224.593 103.752 224.553 103.272 224.553 102.792V100.728C224.553 100.248 224.593 99.776 224.673 99.312C224.753 98.832 224.889 98.384 225.081 97.968C225.289 97.536 225.561 97.144 225.897 96.792C226.233 96.44 226.609 96.152 227.025 95.928C227.441 95.704 227.881 95.552 228.345 95.472C228.825 95.376 229.305 95.328 229.785 95.328C230.265 95.328 230.737 95.376 231.201 95.472C231.681 95.552 232.129 95.704 232.545 95.928C232.961 96.152 233.337 96.44 233.673 96.792C234.009 97.144 234.273 97.536 234.465 97.968C234.673 98.384 234.817 98.832 234.897 99.312C234.977 99.776 235.017 100.248 235.017 100.728V102.792C235.017 103.272 234.977 103.752 234.897 104.232C234.817 104.696 234.673 105.144 234.465 105.576C234.273 105.992 234.009 106.376 233.673 106.728C233.337 107.08 232.961 107.368 232.545 107.592C232.129 107.816 231.681 107.968 231.201 108.048C230.737 108.144 230.265 108.192 229.785 108.192ZM229.785 106.224C230.073 106.224 230.361 106.192 230.649 106.128C230.937 106.064 231.201 105.96 231.441 105.816C231.681 105.656 231.889 105.464 232.065 105.24C232.257 105 232.409 104.752 232.521 104.496C232.633 104.224 232.705 103.944 232.737 103.656C232.785 103.368 232.809 103.08 232.809 102.792V100.728C232.809 100.44 232.785 100.152 232.737 99.864C232.705 99.576 232.633 99.304 232.521 99.048C232.409 98.776 232.257 98.528 232.065 98.304C231.889 98.064 231.681 97.872 231.441 97.728C231.201 97.568 230.937 97.456 230.649 97.392C230.361 97.328 230.073 97.296 229.785 97.296C229.497 97.296 229.209 97.328 228.921 97.392C228.633 97.456 228.369 97.568 228.129 97.728C227.889 97.872 227.673 98.064 227.481 98.304C227.305 98.528 227.161 98.776 227.049 99.048C226.937 99.304 226.857 99.576 226.809 99.864C226.777 100.152 226.761 100.44 226.761 100.728V102.792C226.761 103.08 226.777 103.368 226.809 103.656C226.857 103.944 226.937 104.224 227.049 104.496C227.161 104.752 227.305 105 227.481 105.24C227.673 105.464 227.889 105.656 228.129 105.816C228.369 105.96 228.633 106.064 228.921 106.128C229.209 106.192 229.497 106.224 229.785 106.224ZM238.385 108V95.52H240.593V97.968C240.737 97.584 240.929 97.224 241.169 96.888C241.409 96.552 241.689 96.264 242.009 96.024C242.345 95.768 242.713 95.592 243.113 95.496C243.513 95.384 243.913 95.328 244.313 95.328C244.745 95.328 245.169 95.392 245.585 95.52C246.017 95.632 246.401 95.824 246.737 96.096C247.073 96.352 247.353 96.664 247.577 97.032C247.801 97.4 247.977 97.792 248.105 98.208C248.249 98.608 248.345 99.024 248.393 99.456C248.441 99.872 248.465 100.296 248.465 100.728V108H246.257V100.728C246.257 100.456 246.233 100.184 246.185 99.912C246.153 99.624 246.089 99.352 245.993 99.096C245.897 98.824 245.769 98.576 245.609 98.352C245.449 98.112 245.249 97.912 245.009 97.752C244.785 97.576 244.537 97.456 244.265 97.392C243.993 97.328 243.713 97.296 243.425 97.296C243.137 97.296 242.857 97.328 242.585 97.392C242.313 97.456 242.057 97.576 241.817 97.752C241.593 97.912 241.401 98.112 241.241 98.352C241.081 98.576 240.953 98.824 240.857 99.096C240.761 99.352 240.689 99.624 240.641 99.912C240.609 100.184 240.593 100.456 240.593 100.728V108H238.385ZM262.106 101.064H252.026V99.096H262.106V101.064ZM270.107 108.192C269.691 108.192 269.275 108.16 268.859 108.096C268.443 108.032 268.043 107.912 267.659 107.736C267.275 107.56 266.923 107.336 266.603 107.064C266.283 106.776 266.019 106.456 265.811 106.104C265.603 105.736 265.443 105.344 265.331 104.928C265.219 104.512 265.163 104.096 265.163 103.68V103.608H267.395V103.656C267.395 104.008 267.459 104.352 267.587 104.688C267.715 105.024 267.907 105.32 268.163 105.576C268.419 105.816 268.715 105.984 269.051 106.08C269.403 106.176 269.755 106.224 270.107 106.224C270.379 106.224 270.651 106.192 270.923 106.128C271.195 106.064 271.443 105.952 271.667 105.792C271.891 105.632 272.083 105.44 272.243 105.216C272.403 104.992 272.523 104.752 272.603 104.496C272.699 104.24 272.763 103.976 272.795 103.704C272.827 103.432 272.843 103.16 272.843 102.888V90.672H275.075V102.888C275.075 103.352 275.035 103.816 274.955 104.28C274.891 104.728 274.763 105.16 274.571 105.576C274.379 105.992 274.131 106.376 273.827 106.728C273.523 107.08 273.171 107.368 272.771 107.592C272.371 107.816 271.939 107.968 271.475 108.048C271.027 108.144 270.571 108.192 270.107 108.192ZM284.323 108.192C283.891 108.192 283.459 108.16 283.027 108.096C282.611 108.048 282.203 107.944 281.803 107.784C281.403 107.624 281.027 107.416 280.675 107.16C280.323 106.888 280.027 106.576 279.787 106.224C279.547 105.872 279.363 105.488 279.235 105.072C279.123 104.656 279.067 104.232 279.067 103.8V103.608H281.275V103.704C281.275 104.088 281.355 104.456 281.515 104.808C281.691 105.144 281.923 105.424 282.211 105.648C282.515 105.872 282.851 106.024 283.219 106.104C283.587 106.184 283.955 106.224 284.323 106.224C284.691 106.224 285.059 106.184 285.427 106.104C285.795 106.024 286.123 105.872 286.411 105.648C286.715 105.408 286.947 105.12 287.107 104.784C287.283 104.432 287.371 104.072 287.371 103.704C287.371 103.272 287.267 102.864 287.059 102.48C286.851 102.096 286.587 101.768 286.267 101.496C285.947 101.224 285.587 101 285.187 100.824C284.803 100.632 284.419 100.456 284.035 100.296C283.651 100.136 283.267 99.968 282.883 99.792C282.499 99.6 282.131 99.384 281.779 99.144C281.427 98.904 281.099 98.64 280.795 98.352C280.491 98.048 280.227 97.72 280.003 97.368C279.779 97 279.603 96.616 279.475 96.216C279.363 95.8 279.307 95.376 279.307 94.944C279.307 94.528 279.363 94.112 279.475 93.696C279.587 93.28 279.755 92.896 279.979 92.544C280.203 92.176 280.475 91.856 280.795 91.584C281.131 91.312 281.491 91.096 281.875 90.936C282.275 90.76 282.683 90.64 283.099 90.576C283.531 90.512 283.955 90.48 284.371 90.48C284.787 90.48 285.203 90.512 285.619 90.576C286.051 90.64 286.459 90.752 286.843 90.912C287.227 91.072 287.587 91.288 287.923 91.56C288.259 91.816 288.539 92.12 288.763 92.472C288.987 92.824 289.155 93.208 289.267 93.624C289.379 94.04 289.435 94.456 289.435 94.872V95.064H287.227V94.968C287.227 94.6 287.155 94.248 287.011 93.912C286.867 93.576 286.659 93.296 286.387 93.072C286.115 92.832 285.795 92.672 285.427 92.592C285.075 92.496 284.723 92.448 284.371 92.448C284.019 92.448 283.659 92.496 283.291 92.592C282.939 92.672 282.627 92.832 282.355 93.072C282.083 93.296 281.875 93.584 281.731 93.936C281.587 94.272 281.515 94.616 281.515 94.968C281.515 95.384 281.611 95.792 281.803 96.192C282.011 96.576 282.275 96.904 282.595 97.176C282.931 97.448 283.291 97.672 283.675 97.848C284.059 98.024 284.443 98.2 284.827 98.376C285.227 98.536 285.619 98.712 286.003 98.904C286.387 99.08 286.755 99.288 287.107 99.528C287.459 99.752 287.787 100.016 288.091 100.32C288.395 100.624 288.659 100.96 288.883 101.328C289.107 101.68 289.275 102.064 289.387 102.48C289.515 102.88 289.579 103.288 289.579 103.704C289.579 104.136 289.515 104.568 289.387 105C289.275 105.416 289.099 105.808 288.859 106.176C288.619 106.528 288.323 106.84 287.971 107.112C287.635 107.384 287.267 107.6 286.867 107.76C286.467 107.92 286.051 108.032 285.619 108.096C285.187 108.16 284.755 108.192 284.323 108.192ZM297.988 108.192C297.524 108.192 297.052 108.152 296.572 108.072C296.108 107.992 295.668 107.848 295.252 107.64C294.836 107.416 294.46 107.136 294.124 106.8C293.788 106.448 293.516 106.064 293.308 105.648C293.1 105.216 292.956 104.768 292.876 104.304C292.796 103.824 292.756 103.352 292.756 102.888V95.784C292.756 95.32 292.796 94.856 292.876 94.392C292.956 93.912 293.1 93.464 293.308 93.048C293.516 92.616 293.788 92.232 294.124 91.896C294.46 91.544 294.836 91.264 295.252 91.056C295.668 90.832 296.108 90.68 296.572 90.6C297.052 90.52 297.524 90.48 297.988 90.48C298.452 90.48 298.916 90.52 299.38 90.6C299.86 90.68 300.308 90.832 300.724 91.056C301.14 91.264 301.516 91.544 301.852 91.896C302.188 92.232 302.46 92.616 302.668 93.048C302.876 93.464 303.02 93.912 303.1 94.392C303.18 94.856 303.22 95.32 303.22 95.784V102.888C303.22 103.352 303.18 103.824 303.1 104.304C303.02 104.768 302.876 105.216 302.668 105.648C302.46 106.064 302.188 106.448 301.852 106.8C301.516 107.136 301.14 107.416 300.724 107.64C300.308 107.848 299.86 107.992 299.38 108.072C298.916 108.152 298.452 108.192 297.988 108.192ZM297.988 106.224C298.276 106.224 298.556 106.2 298.828 106.152C299.116 106.088 299.38 105.984 299.62 105.84C299.86 105.696 300.076 105.512 300.268 105.288C300.46 105.064 300.604 104.824 300.7 104.568C300.812 104.296 300.892 104.024 300.94 103.752C300.988 103.464 301.012 103.176 301.012 102.888V95.784C301.012 95.496 300.988 95.216 300.94 94.944C300.892 94.656 300.812 94.384 300.7 94.128C300.604 93.856 300.46 93.608 300.268 93.384C300.076 93.16 299.86 92.976 299.62 92.832C299.38 92.688 299.116 92.592 298.828 92.544C298.556 92.48 298.276 92.448 297.988 92.448C297.7 92.448 297.412 92.48 297.124 92.544C296.852 92.592 296.596 92.688 296.356 92.832C296.116 92.976 295.9 93.16 295.708 93.384C295.516 93.608 295.364 93.856 295.252 94.128C295.156 94.384 295.084 94.656 295.036 94.944C294.988 95.216 294.964 95.496 294.964 95.784V102.888C294.964 103.176 294.988 103.464 295.036 103.752C295.084 104.024 295.156 104.296 295.252 104.568C295.364 104.824 295.516 105.064 295.708 105.288C295.9 105.512 296.116 105.696 296.356 105.84C296.596 105.984 296.852 106.088 297.124 106.152C297.412 106.2 297.7 106.224 297.988 106.224ZM306.589 108V90.672H309.205L314.749 104.784C314.685 103.584 314.621 102.392 314.557 101.208C314.493 100.008 314.461 98.808 314.461 97.608V90.672H316.669V108H314.053L308.509 93.888C308.573 95.088 308.637 96.288 308.701 97.488C308.765 98.672 308.797 99.864 308.797 101.064V108H306.589Z" fill="black" fill-opacity="0.64"/>
<rect x="32" y="194" width="102" height="8" fill="#ED3E29"/>
<g filter="url(#filter1_i_1_432)">
<g clip-path="url(#clip0_1_432)">
<path d="M78 238H34V282H78V238Z" fill="#201617"/>
<path d="M73.4423 258.737C73.0335 259.038 72.4853 259.435 72.4212 259.481C71.0187 260.455 69.7573 261.192 68.3438 261.833C62.7027 264.393 56.6123 265.957 50.2415 266.71L50.2048 266.716C48.696 266.932 47.2422 267.073 45.8525 267.139C45.6563 267.148 45.5372 266.926 45.6508 266.767L47.3118 264.461C47.7188 263.896 47.3888 263.1 46.7013 262.988L34.0348 260.933C34.0238 260.933 34.011 260.93 34 260.926V259.074C34.011 259.072 34.022 259.069 34.0348 259.067L46.9323 256.973C47.6198 256.861 47.9498 256.066 47.5428 255.501L40.0665 245.126C39.4395 244.257 40.5157 243.181 41.3847 243.808L51.1618 250.854C51.7412 251.272 52.557 250.912 52.6395 250.201L54.053 238H57.947L59.3807 250.373C59.4632 251.085 60.279 251.444 60.8602 251.026L70.872 243.81C71.4422 243.399 72.6008 244.558 72.1902 245.128L64.6863 255.539C64.2793 256.104 64.6093 256.9 65.2968 257.012L73.3415 258.317C73.5468 258.35 73.611 258.614 73.4423 258.737ZM42.2958 274.846C42.0098 274.815 41.7385 274.784 41.6762 274.778C41.3718 274.749 40.6953 274.641 40.204 274.555C40.116 274.538 40.0262 274.575 39.973 274.648L39.8098 274.874C39.1828 275.743 40.259 276.819 41.128 276.192L42.4077 275.27C42.5818 275.145 42.5103 274.87 42.2958 274.846ZM58.6455 273.092C56.9075 273.642 55.1493 274.082 53.393 274.403C53.272 274.425 53.1877 274.537 53.2023 274.659L54.053 282H57.947L58.9498 273.341C58.97 273.173 58.8087 273.041 58.6455 273.092ZM68.2577 269.06C68.188 268.963 68.0542 268.934 67.9515 268.994C66.7782 269.669 65.5718 270.296 64.3435 270.87C64.1822 270.945 64.162 271.167 64.3068 271.271L71.1305 276.19C71.7007 276.601 72.8593 275.442 72.4487 274.872L68.2595 269.06H68.2577Z" fill="url(#paint1_radial_1_432)"/>
<path d="M78.0001 255.62V258.378C77.0706 259.908 75.7561 261.276 74.5516 262.4C68.6208 267.744 60.666 271.618 52.8211 272.987C46.0928 274.163 38.6531 273.519 34.7023 271.099C34.4585 270.949 34.2238 270.782 34.002 270.6V262.442L35.8555 262.743C36.015 262.768 36.1011 262.944 36.0223 263.087C35.9471 263.225 35.8756 263.366 35.8078 263.505C35.6905 263.76 35.5841 264.039 35.5035 264.327C35.4228 264.615 35.3696 264.912 35.3586 265.203C35.3458 265.559 35.4558 265.905 35.6043 266.217C35.9031 266.794 36.4128 267.233 37.0416 267.542C38.2846 268.14 39.7788 268.428 41.1593 268.554C44.2173 268.826 47.378 268.631 50.4176 268.195C56.8196 267.438 63.0585 265.757 68.9618 263.078C72.007 261.698 76.7186 259.008 78.0001 255.622V255.62ZM40.415 256.519L43.1796 256.069C43.2438 256.058 43.3043 256.036 43.3575 256.002C43.9075 255.648 44.4611 255.309 45.013 254.99C45.1321 254.92 45.167 254.762 45.0863 254.65L44.7215 254.143C44.6573 254.053 44.54 254.02 44.4391 254.064C43.0183 254.672 41.6048 255.345 40.2646 256.082C40.0336 256.209 40.1546 256.561 40.415 256.519Z" fill="#F7F4DC"/>
</g>
<rect x="33" y="237" width="46" height="46" rx="13" stroke="#1A1112" stroke-width="2"/>
</g>
<defs>
<filter id="filter0_iii_1_432" x="887" y="224" width="64" height="72" filterUnits="userSpaceOnUse" color-interpolation-filters="sRGB">
<feFlood flood-opacity="0" result="BackgroundImageFix"/>
<feBlend mode="normal" in="SourceGraphic" in2="BackgroundImageFix" result="shape"/>
<feColorMatrix in="SourceAlpha" type="matrix" values="0 0 0 0 0 0 0 0 0 0 0 0 0 0 0 0 0 0 127 0" result="hardAlpha"/>
<feOffset dy="4"/>
<feGaussianBlur stdDeviation="2"/>
<feComposite in2="hardAlpha" operator="arithmetic" k2="-1" k3="1"/>
<feColorMatrix type="matrix" values="0 0 0 0 1 0 0 0 0 0.729412 0 0 0 0 0 0 0 0 0.0862745 0"/>
<feBlend mode="normal" in2="shape" result="effect1_innerShadow_1_432"/>
<feColorMatrix in="SourceAlpha" type="matrix" values="0 0 0 0 0 0 0 0 0 0 0 0 0 0 0 0 0 0 127 0" result="hardAlpha"/>
<feOffset dy="-4"/>
<feGaussianBlur stdDeviation="5"/>
<feComposite in2="hardAlpha" operator="arithmetic" k2="-1" k3="1"/>
<feColorMatrix type="matrix" values="0 0 0 0 0 0 0 0 0 0 0 0 0 0 0 0 0 0 0.16 0"/>
<feBlend mode="normal" in2="effect1_innerShadow_1_432" result="effect2_innerShadow_1_432"/>
<feColorMatrix in="SourceAlpha" type="matrix" values="0 0 0 0 0 0 0 0 0 0 0 0 0 0 0 0 0 0 127 0" result="hardAlpha"/>
<feOffset dy="4"/>
<feComposite in2="hardAlpha" operator="arithmetic" k2="-1" k3="1"/>
<feColorMatrix type="matrix" values="0 0 0 0 1 0 0 0 0 1 0 0 0 0 1 0 0 0 0.2 0"/>
<feBlend mode="normal" in2="effect2_innerShadow_1_432" result="effect3_innerShadow_1_432"/>
</filter>
<filter id="filter1_i_1_432" x="32" y="236" width="48" height="48" filterUnits="userSpaceOnUse" color-interpolation-filters="sRGB">
<feFlood flood-opacity="0" result="BackgroundImageFix"/>
<feBlend mode="normal" in="SourceGraphic" in2="BackgroundImageFix" result="shape"/>
<feColorMatrix in="SourceAlpha" type="matrix" values="0 0 0 0 0 0 0 0 0 0 0 0 0 0 0 0 0 0 127 0" result="hardAlpha"/>
<feOffset dy="4"/>
<feComposite in2="hardAlpha" operator="arithmetic" k2="-1" k3="1"/>
<feColorMatrix type="matrix" values="0 0 0 0 1 0 0 0 0 1 0 0 0 0 1 0 0 0 0.32 0"/>
<feBlend mode="normal" in2="shape" result="effect1_innerShadow_1_432"/>
</filter>
<radialGradient id="paint0_radial_1_432" cx="0" cy="0" r="1" gradientUnits="userSpaceOnUse" gradientTransform="translate(951 228) rotate(135) scale(90.5097)">
<stop stop-color="#FFC730" stop-opacity="0.0862745"/>
<stop offset="1" stop-color="#C6000B" stop-opacity="0.905882"/>
</radialGradient>
<radialGradient id="paint1_radial_1_432" cx="0" cy="0" r="1" gradientUnits="userSpaceOnUse" gradientTransform="translate(56.8225 239.797) rotate(31.9267) scale(38.2026 39.7307)">
<stop offset="0.29" stop-color="#FFBA4B"/>
<stop offset="0.33" stop-color="#FEAC3F"/>
<stop offset="0.45" stop-color="#FC9026"/>
<stop offset="0.55" stop-color="#FB7F17"/>
<stop offset="0.62" stop-color="#FB7912"/>
<stop offset="0.7" stop-color="#F96D15"/>
<stop offset="0.82" stop-color="#F75E1A"/>
<stop offset="0.93" stop-color="#F75A1C"/>
</radialGradient>
<clipPath id="clip0_1_432">
<rect x="34" y="238" width="44" height="44" rx="12" fill="white"/>
</clipPath>
</defs>
</svg>
