<svg width="512" height="512" viewBox="0 0 512 512" fill="none" xmlns="http://www.w3.org/2000/svg">
<g filter="url(#filter0_iii_3_571)">
<rect width="512" height="512" rx="180" fill="#EF3A21"/>
<rect width="512" height="512" rx="180" fill="url(#paint0_radial_3_571)" fill-opacity="0.4"/>
<rect x="8" y="8" width="496" height="496" rx="172" stroke="#4B0A00" stroke-opacity="0.890196" stroke-width="16"/>
<path d="M217.347 390.653L240 368L144 272L121.347 294.653C108.851 307.149 108.851 327.411 121.347 339.907L172.093 390.653C184.589 403.149 204.851 403.149 217.347 390.653Z" fill="white"/>
<path opacity="0.48" d="M375.847 274.882L399.527 138.72C399.842 136.909 400 135.075 400 133.237V127.999C400 119.162 392.836 111.999 384 111.999H378.762C376.924 111.999 375.09 112.157 373.279 112.472L237.118 136.153C209.166 141.014 185.882 160.316 175.92 186.88L144 271.998L240 367.998L325.119 336.08C351.684 326.118 370.985 302.832 375.847 274.882Z" fill="white"/>
<path fill-rule="evenodd" clip-rule="evenodd" d="M372.686 116.686C378.935 110.438 389.065 110.438 395.314 116.686C401.562 122.935 401.562 133.065 395.314 139.314L302.916 231.712C303.623 234.355 304 237.133 304 240C304 257.674 289.673 272 272 272C254.326 272 240 257.674 240 240C240 222.327 254.326 208 272 208C274.867 208 277.645 208.377 280.288 209.084L372.686 116.686Z" fill="white"/>
</g>
<defs>
<filter id="filter0_iii_3_571" x="0" y="-32" width="512" height="576" filterUnits="userSpaceOnUse" color-interpolation-filters="sRGB">
<feFlood flood-opacity="0" result="BackgroundImageFix"/>
<feBlend mode="normal" in="SourceGraphic" in2="BackgroundImageFix" result="shape"/>
<feColorMatrix in="SourceAlpha" type="matrix" values="0 0 0 0 0 0 0 0 0 0 0 0 0 0 0 0 0 0 127 0" result="hardAlpha"/>
<feOffset dy="32"/>
<feGaussianBlur stdDeviation="16"/>
<feComposite in2="hardAlpha" operator="arithmetic" k2="-1" k3="1"/>
<feColorMatrix type="matrix" values="0 0 0 0 1 0 0 0 0 0.729412 0 0 0 0 0 0 0 0 0.0862745 0"/>
<feBlend mode="normal" in2="shape" result="effect1_innerShadow_3_571"/>
<feColorMatrix in="SourceAlpha" type="matrix" values="0 0 0 0 0 0 0 0 0 0 0 0 0 0 0 0 0 0 127 0" result="hardAlpha"/>
<feOffset dy="-32"/>
<feGaussianBlur stdDeviation="40"/>
<feComposite in2="hardAlpha" operator="arithmetic" k2="-1" k3="1"/>
<feColorMatrix type="matrix" values="0 0 0 0 0 0 0 0 0 0 0 0 0 0 0 0 0 0 0.16 0"/>
<feBlend mode="normal" in2="effect1_innerShadow_3_571" result="effect2_innerShadow_3_571"/>
<feColorMatrix in="SourceAlpha" type="matrix" values="0 0 0 0 0 0 0 0 0 0 0 0 0 0 0 0 0 0 127 0" result="hardAlpha"/>
<feOffset dy="32"/>
<feComposite in2="hardAlpha" operator="arithmetic" k2="-1" k3="1"/>
<feColorMatrix type="matrix" values="0 0 0 0 1 0 0 0 0 1 0 0 0 0 1 0 0 0 0.2 0"/>
<feBlend mode="normal" in2="effect2_innerShadow_3_571" result="effect3_innerShadow_3_571"/>
</filter>
<radialGradient id="paint0_radial_3_571" cx="0" cy="0" r="1" gradientUnits="userSpaceOnUse" gradientTransform="translate(512 -3.05176e-05) rotate(135) scale(724.077)">
<stop stop-color="#FFC730" stop-opacity="0.0862745"/>
<stop offset="1" stop-color="#C6000B" stop-opacity="0.905882"/>
</radialGradient>
</defs>
</svg>
